G04*
G04 #@! TF.GenerationSoftware,Altium Limited,Altium Designer,19.0.6 (157)*
G04*
G04 Layer_Physical_Order=2*
G04 Layer_Color=65535*
%FSLAX25Y25*%
%MOIN*%
G70*
G01*
G75*
%ADD37C,0.06299*%
%ADD38C,0.19685*%
%ADD39C,0.01968*%
G36*
X195343Y1507D02*
X1507Y1507D01*
Y10313D01*
X2075Y10488D01*
X2365Y9704D01*
X2715Y8944D01*
X3124Y8214D01*
X3588Y7519D01*
X4106Y6862D01*
X4673Y6248D01*
X5288Y5681D01*
X5944Y5163D01*
X6640Y4698D01*
X7369Y4290D01*
X8129Y3940D01*
X8913Y3650D01*
X9718Y3423D01*
X10539Y3260D01*
X11369Y3162D01*
X12205Y3129D01*
X13040Y3162D01*
X13871Y3260D01*
X14691Y3423D01*
X15496Y3650D01*
X16281Y3940D01*
X17040Y4290D01*
X17770Y4698D01*
X18465Y5163D01*
X19122Y5681D01*
X19736Y6248D01*
X20304Y6862D01*
X20821Y7519D01*
X21286Y8214D01*
X21695Y8944D01*
X22045Y9704D01*
X22334Y10488D01*
X22561Y11293D01*
X22724Y12113D01*
X22823Y12944D01*
X22855Y13780D01*
X22823Y14615D01*
X22724Y15446D01*
X22561Y16266D01*
X22334Y17071D01*
X22045Y17855D01*
X21695Y18615D01*
X21286Y19344D01*
X20821Y20040D01*
X20304Y20697D01*
X19736Y21311D01*
X19122Y21878D01*
X18465Y22396D01*
X17770Y22861D01*
X17040Y23269D01*
X16281Y23619D01*
X15496Y23909D01*
X14691Y24136D01*
X13871Y24299D01*
X13040Y24397D01*
X12205Y24430D01*
X11369Y24397D01*
X10539Y24299D01*
X9718Y24136D01*
X8913Y23909D01*
X8129Y23619D01*
X7369Y23269D01*
X6640Y22861D01*
X5944Y22396D01*
X5288Y21878D01*
X4673Y21311D01*
X4106Y20697D01*
X3588Y20040D01*
X3124Y19344D01*
X2715Y18615D01*
X2365Y17855D01*
X2075Y17071D01*
X1507Y17246D01*
Y47321D01*
X2075Y47496D01*
X2365Y46712D01*
X2715Y45952D01*
X3124Y45222D01*
X3588Y44527D01*
X4106Y43870D01*
X4673Y43256D01*
X5288Y42689D01*
X5944Y42171D01*
X6640Y41706D01*
X7369Y41298D01*
X8129Y40947D01*
X8913Y40658D01*
X9718Y40431D01*
X10539Y40268D01*
X11369Y40170D01*
X12205Y40137D01*
X13040Y40170D01*
X13871Y40268D01*
X14691Y40431D01*
X15496Y40658D01*
X16281Y40947D01*
X17040Y41298D01*
X17770Y41706D01*
X18465Y42171D01*
X19122Y42689D01*
X19736Y43256D01*
X20304Y43870D01*
X20821Y44527D01*
X21286Y45222D01*
X21695Y45952D01*
X22045Y46712D01*
X22334Y47496D01*
X22561Y48301D01*
X22724Y49121D01*
X22823Y49952D01*
X22855Y50787D01*
X22823Y51623D01*
X22724Y52454D01*
X22561Y53274D01*
X22334Y54079D01*
X22045Y54863D01*
X21695Y55623D01*
X21286Y56352D01*
X20821Y57048D01*
X20304Y57705D01*
X19736Y58319D01*
X19122Y58886D01*
X18465Y59404D01*
X17770Y59869D01*
X17040Y60277D01*
X16281Y60627D01*
X15496Y60917D01*
X14691Y61144D01*
X13871Y61307D01*
X13040Y61405D01*
X12205Y61438D01*
X11369Y61405D01*
X10539Y61307D01*
X9718Y61144D01*
X8913Y60917D01*
X8129Y60627D01*
X7369Y60277D01*
X6640Y59869D01*
X5944Y59404D01*
X5288Y58886D01*
X4673Y58319D01*
X4106Y57705D01*
X3588Y57048D01*
X3124Y56352D01*
X2715Y55623D01*
X2365Y54863D01*
X2075Y54079D01*
X1507Y54254D01*
X1507Y142719D01*
X2107Y142875D01*
X2336Y142466D01*
X2801Y141771D01*
X3318Y141114D01*
X3886Y140500D01*
X4500Y139933D01*
X5157Y139415D01*
X5852Y138950D01*
X6582Y138542D01*
X7342Y138191D01*
X8126Y137902D01*
X8931Y137675D01*
X9751Y137512D01*
X10582Y137414D01*
X11417Y137381D01*
X12253Y137414D01*
X13083Y137512D01*
X13904Y137675D01*
X14709Y137902D01*
X15493Y138191D01*
X16253Y138542D01*
X16982Y138950D01*
X17678Y139415D01*
X18334Y139933D01*
X18948Y140500D01*
X19516Y141114D01*
X20034Y141771D01*
X20499Y142466D01*
X20907Y143196D01*
X21257Y143956D01*
X21547Y144740D01*
X21774Y145545D01*
X21937Y146365D01*
X22035Y147196D01*
X22068Y148031D01*
X22035Y148867D01*
X21937Y149698D01*
X21774Y150518D01*
X21547Y151323D01*
X21257Y152107D01*
X20907Y152867D01*
X20499Y153596D01*
X20034Y154292D01*
X19516Y154949D01*
X18948Y155563D01*
X18334Y156130D01*
X17678Y156648D01*
X16982Y157113D01*
X16253Y157521D01*
X15493Y157871D01*
X14709Y158161D01*
X13904Y158388D01*
X13083Y158551D01*
X12253Y158649D01*
X11417Y158682D01*
X10582Y158649D01*
X9751Y158551D01*
X8931Y158388D01*
X8126Y158161D01*
X7342Y157871D01*
X6582Y157521D01*
X5852Y157113D01*
X5157Y156648D01*
X4500Y156130D01*
X3886Y155563D01*
X3318Y154949D01*
X2801Y154292D01*
X2336Y153596D01*
X2107Y153188D01*
X1507Y153345D01*
Y179726D01*
X2107Y179883D01*
X2336Y179474D01*
X2801Y178779D01*
X3318Y178122D01*
X3886Y177508D01*
X4500Y176941D01*
X5157Y176423D01*
X5852Y175958D01*
X6582Y175549D01*
X7342Y175199D01*
X8126Y174910D01*
X8931Y174683D01*
X9751Y174520D01*
X10582Y174422D01*
X11417Y174389D01*
X12253Y174422D01*
X13083Y174520D01*
X13904Y174683D01*
X14709Y174910D01*
X15493Y175199D01*
X16253Y175549D01*
X16982Y175958D01*
X17678Y176423D01*
X18334Y176941D01*
X18948Y177508D01*
X19516Y178122D01*
X20034Y178779D01*
X20499Y179474D01*
X20907Y180204D01*
X21257Y180964D01*
X21547Y181748D01*
X21774Y182553D01*
X21937Y183373D01*
X22035Y184204D01*
X22068Y185039D01*
X22035Y185875D01*
X21937Y186706D01*
X21774Y187526D01*
X21547Y188331D01*
X21257Y189115D01*
X20907Y189875D01*
X20499Y190604D01*
X20034Y191300D01*
X19516Y191956D01*
X18948Y192571D01*
X18334Y193138D01*
X17678Y193656D01*
X16982Y194121D01*
X16253Y194529D01*
X15789Y194743D01*
X15920Y195343D01*
X35261D01*
X35392Y194743D01*
X34928Y194529D01*
X34199Y194121D01*
X33503Y193656D01*
X32847Y193138D01*
X32233Y192571D01*
X31665Y191956D01*
X31147Y191300D01*
X30683Y190604D01*
X30274Y189875D01*
X29924Y189115D01*
X29634Y188331D01*
X29407Y187526D01*
X29244Y186706D01*
X29146Y185875D01*
X29113Y185039D01*
X29146Y184204D01*
X29244Y183373D01*
X29407Y182553D01*
X29634Y181748D01*
X29924Y180964D01*
X30274Y180204D01*
X30683Y179474D01*
X31147Y178779D01*
X31665Y178122D01*
X32233Y177508D01*
X32847Y176941D01*
X33503Y176423D01*
X34199Y175958D01*
X34928Y175549D01*
X35688Y175199D01*
X36472Y174910D01*
X37277Y174683D01*
X38098Y174520D01*
X38928Y174422D01*
X39764Y174389D01*
X40599Y174422D01*
X41430Y174520D01*
X42250Y174683D01*
X43055Y174910D01*
X43840Y175199D01*
X44599Y175549D01*
X45329Y175958D01*
X46024Y176423D01*
X46681Y176941D01*
X47295Y177508D01*
X47863Y178122D01*
X48380Y178779D01*
X48845Y179474D01*
X49254Y180204D01*
X49604Y180964D01*
X49893Y181748D01*
X50120Y182553D01*
X50283Y183373D01*
X50382Y184204D01*
X50415Y185039D01*
X50382Y185875D01*
X50283Y186706D01*
X50120Y187526D01*
X49893Y188331D01*
X49604Y189115D01*
X49254Y189875D01*
X48845Y190604D01*
X48380Y191300D01*
X47863Y191956D01*
X47295Y192571D01*
X46681Y193138D01*
X46024Y193656D01*
X45329Y194121D01*
X44599Y194529D01*
X44135Y194743D01*
X44267Y195343D01*
X195343D01*
X195343Y1507D01*
D02*
G37*
%LPC*%
G36*
X123228Y174033D02*
X122918Y174002D01*
X122619Y173912D01*
X122344Y173765D01*
X122103Y173567D01*
X121905Y173325D01*
X121758Y173050D01*
X121667Y172751D01*
X121636Y172441D01*
X121667Y172130D01*
X121758Y171832D01*
X121905Y171556D01*
X122103Y171315D01*
X122344Y171117D01*
X122619Y170970D01*
X122918Y170880D01*
X123228Y170849D01*
X123539Y170880D01*
X123838Y170970D01*
X124113Y171117D01*
X124354Y171315D01*
X124552Y171556D01*
X124699Y171832D01*
X124790Y172130D01*
X124820Y172441D01*
X124790Y172751D01*
X124699Y173050D01*
X124552Y173325D01*
X124354Y173567D01*
X124113Y173765D01*
X123838Y173912D01*
X123539Y174002D01*
X123228Y174033D01*
D02*
G37*
G36*
X119291D02*
X118981Y174002D01*
X118682Y173912D01*
X118407Y173765D01*
X118166Y173567D01*
X117968Y173325D01*
X117821Y173050D01*
X117730Y172751D01*
X117699Y172441D01*
X117730Y172130D01*
X117821Y171832D01*
X117968Y171556D01*
X118166Y171315D01*
X118407Y171117D01*
X118682Y170970D01*
X118981Y170880D01*
X119291Y170849D01*
X119602Y170880D01*
X119901Y170970D01*
X120176Y171117D01*
X120417Y171315D01*
X120615Y171556D01*
X120762Y171832D01*
X120853Y172130D01*
X120883Y172441D01*
X120853Y172751D01*
X120762Y173050D01*
X120615Y173325D01*
X120417Y173567D01*
X120176Y173765D01*
X119901Y173912D01*
X119602Y174002D01*
X119291Y174033D01*
D02*
G37*
G36*
X115354D02*
X115044Y174002D01*
X114745Y173912D01*
X114470Y173765D01*
X114229Y173567D01*
X114031Y173325D01*
X113884Y173050D01*
X113793Y172751D01*
X113762Y172441D01*
X113793Y172130D01*
X113884Y171832D01*
X114031Y171556D01*
X114229Y171315D01*
X114470Y171117D01*
X114745Y170970D01*
X115044Y170880D01*
X115354Y170849D01*
X115665Y170880D01*
X115963Y170970D01*
X116239Y171117D01*
X116480Y171315D01*
X116678Y171556D01*
X116825Y171832D01*
X116916Y172130D01*
X116946Y172441D01*
X116916Y172751D01*
X116825Y173050D01*
X116678Y173325D01*
X116480Y173567D01*
X116239Y173765D01*
X115963Y173912D01*
X115665Y174002D01*
X115354Y174033D01*
D02*
G37*
G36*
X111417D02*
X111107Y174002D01*
X110808Y173912D01*
X110533Y173765D01*
X110292Y173567D01*
X110094Y173325D01*
X109947Y173050D01*
X109856Y172751D01*
X109825Y172441D01*
X109856Y172130D01*
X109947Y171832D01*
X110094Y171556D01*
X110292Y171315D01*
X110533Y171117D01*
X110808Y170970D01*
X111107Y170880D01*
X111417Y170849D01*
X111728Y170880D01*
X112027Y170970D01*
X112302Y171117D01*
X112543Y171315D01*
X112741Y171556D01*
X112888Y171832D01*
X112979Y172130D01*
X113009Y172441D01*
X112979Y172751D01*
X112888Y173050D01*
X112741Y173325D01*
X112543Y173567D01*
X112302Y173765D01*
X112027Y173912D01*
X111728Y174002D01*
X111417Y174033D01*
D02*
G37*
G36*
X80709Y173639D02*
X80398Y173609D01*
X80099Y173518D01*
X79824Y173371D01*
X79583Y173173D01*
X79385Y172932D01*
X79238Y172656D01*
X79147Y172358D01*
X79117Y172047D01*
X79147Y171737D01*
X79238Y171438D01*
X79385Y171163D01*
X79583Y170922D01*
X79824Y170724D01*
X80099Y170577D01*
X80398Y170486D01*
X80709Y170455D01*
X81019Y170486D01*
X81318Y170577D01*
X81593Y170724D01*
X81834Y170922D01*
X82032Y171163D01*
X82179Y171438D01*
X82270Y171737D01*
X82301Y172047D01*
X82270Y172358D01*
X82179Y172656D01*
X82032Y172932D01*
X81834Y173173D01*
X81593Y173371D01*
X81318Y173518D01*
X81019Y173609D01*
X80709Y173639D01*
D02*
G37*
G36*
X76772D02*
X76461Y173609D01*
X76162Y173518D01*
X75887Y173371D01*
X75646Y173173D01*
X75448Y172932D01*
X75301Y172656D01*
X75210Y172358D01*
X75180Y172047D01*
X75210Y171737D01*
X75301Y171438D01*
X75448Y171163D01*
X75646Y170922D01*
X75887Y170724D01*
X76162Y170577D01*
X76461Y170486D01*
X76772Y170455D01*
X77082Y170486D01*
X77381Y170577D01*
X77656Y170724D01*
X77897Y170922D01*
X78095Y171163D01*
X78242Y171438D01*
X78333Y171737D01*
X78364Y172047D01*
X78333Y172358D01*
X78242Y172656D01*
X78095Y172932D01*
X77897Y173173D01*
X77656Y173371D01*
X77381Y173518D01*
X77082Y173609D01*
X76772Y173639D01*
D02*
G37*
G36*
X72835D02*
X72524Y173609D01*
X72225Y173518D01*
X71950Y173371D01*
X71709Y173173D01*
X71511Y172932D01*
X71364Y172656D01*
X71273Y172358D01*
X71243Y172047D01*
X71273Y171737D01*
X71364Y171438D01*
X71511Y171163D01*
X71709Y170922D01*
X71950Y170724D01*
X72225Y170577D01*
X72524Y170486D01*
X72835Y170455D01*
X73145Y170486D01*
X73444Y170577D01*
X73719Y170724D01*
X73960Y170922D01*
X74158Y171163D01*
X74305Y171438D01*
X74396Y171737D01*
X74427Y172047D01*
X74396Y172358D01*
X74305Y172656D01*
X74158Y172932D01*
X73960Y173173D01*
X73719Y173371D01*
X73444Y173518D01*
X73145Y173609D01*
X72835Y173639D01*
D02*
G37*
G36*
X68898D02*
X68587Y173609D01*
X68288Y173518D01*
X68013Y173371D01*
X67772Y173173D01*
X67574Y172932D01*
X67427Y172656D01*
X67336Y172358D01*
X67306Y172047D01*
X67336Y171737D01*
X67427Y171438D01*
X67574Y171163D01*
X67772Y170922D01*
X68013Y170724D01*
X68288Y170577D01*
X68587Y170486D01*
X68898Y170455D01*
X69208Y170486D01*
X69507Y170577D01*
X69782Y170724D01*
X70023Y170922D01*
X70221Y171163D01*
X70368Y171438D01*
X70459Y171737D01*
X70490Y172047D01*
X70459Y172358D01*
X70368Y172656D01*
X70221Y172932D01*
X70023Y173173D01*
X69782Y173371D01*
X69507Y173518D01*
X69208Y173609D01*
X68898Y173639D01*
D02*
G37*
G36*
X123228Y168915D02*
X122918Y168884D01*
X122619Y168794D01*
X122344Y168647D01*
X122103Y168448D01*
X121905Y168207D01*
X121758Y167932D01*
X121667Y167633D01*
X121636Y167323D01*
X121667Y167012D01*
X121758Y166714D01*
X121905Y166438D01*
X122103Y166197D01*
X122344Y165999D01*
X122619Y165852D01*
X122918Y165761D01*
X123228Y165731D01*
X123539Y165761D01*
X123838Y165852D01*
X124113Y165999D01*
X124354Y166197D01*
X124552Y166438D01*
X124699Y166714D01*
X124790Y167012D01*
X124820Y167323D01*
X124790Y167633D01*
X124699Y167932D01*
X124552Y168207D01*
X124354Y168448D01*
X124113Y168647D01*
X123838Y168794D01*
X123539Y168884D01*
X123228Y168915D01*
D02*
G37*
G36*
X119291D02*
X118981Y168884D01*
X118682Y168794D01*
X118407Y168647D01*
X118166Y168448D01*
X117968Y168207D01*
X117821Y167932D01*
X117730Y167633D01*
X117699Y167323D01*
X117730Y167012D01*
X117821Y166714D01*
X117968Y166438D01*
X118166Y166197D01*
X118407Y165999D01*
X118682Y165852D01*
X118981Y165761D01*
X119291Y165731D01*
X119602Y165761D01*
X119901Y165852D01*
X120176Y165999D01*
X120417Y166197D01*
X120615Y166438D01*
X120762Y166714D01*
X120853Y167012D01*
X120883Y167323D01*
X120853Y167633D01*
X120762Y167932D01*
X120615Y168207D01*
X120417Y168448D01*
X120176Y168647D01*
X119901Y168794D01*
X119602Y168884D01*
X119291Y168915D01*
D02*
G37*
G36*
X115354D02*
X115044Y168884D01*
X114745Y168794D01*
X114470Y168647D01*
X114229Y168448D01*
X114031Y168207D01*
X113884Y167932D01*
X113793Y167633D01*
X113762Y167323D01*
X113793Y167012D01*
X113884Y166714D01*
X114031Y166438D01*
X114229Y166197D01*
X114470Y165999D01*
X114745Y165852D01*
X115044Y165761D01*
X115354Y165731D01*
X115665Y165761D01*
X115963Y165852D01*
X116239Y165999D01*
X116480Y166197D01*
X116678Y166438D01*
X116825Y166714D01*
X116916Y167012D01*
X116946Y167323D01*
X116916Y167633D01*
X116825Y167932D01*
X116678Y168207D01*
X116480Y168448D01*
X116239Y168647D01*
X115963Y168794D01*
X115665Y168884D01*
X115354Y168915D01*
D02*
G37*
G36*
X111417D02*
X111107Y168884D01*
X110808Y168794D01*
X110533Y168647D01*
X110292Y168448D01*
X110094Y168207D01*
X109947Y167932D01*
X109856Y167633D01*
X109825Y167323D01*
X109856Y167012D01*
X109947Y166714D01*
X110094Y166438D01*
X110292Y166197D01*
X110533Y165999D01*
X110808Y165852D01*
X111107Y165761D01*
X111417Y165731D01*
X111728Y165761D01*
X112027Y165852D01*
X112302Y165999D01*
X112543Y166197D01*
X112741Y166438D01*
X112888Y166714D01*
X112979Y167012D01*
X113009Y167323D01*
X112979Y167633D01*
X112888Y167932D01*
X112741Y168207D01*
X112543Y168448D01*
X112302Y168647D01*
X112027Y168794D01*
X111728Y168884D01*
X111417Y168915D01*
D02*
G37*
G36*
X80709Y168521D02*
X80398Y168491D01*
X80099Y168400D01*
X79824Y168253D01*
X79583Y168055D01*
X79385Y167814D01*
X79238Y167538D01*
X79147Y167240D01*
X79117Y166929D01*
X79147Y166619D01*
X79238Y166320D01*
X79385Y166045D01*
X79583Y165804D01*
X79824Y165605D01*
X80099Y165458D01*
X80398Y165368D01*
X80709Y165337D01*
X81019Y165368D01*
X81318Y165458D01*
X81593Y165605D01*
X81834Y165804D01*
X82032Y166045D01*
X82179Y166320D01*
X82270Y166619D01*
X82301Y166929D01*
X82270Y167240D01*
X82179Y167538D01*
X82032Y167814D01*
X81834Y168055D01*
X81593Y168253D01*
X81318Y168400D01*
X81019Y168491D01*
X80709Y168521D01*
D02*
G37*
G36*
X76772D02*
X76461Y168491D01*
X76162Y168400D01*
X75887Y168253D01*
X75646Y168055D01*
X75448Y167814D01*
X75301Y167538D01*
X75210Y167240D01*
X75180Y166929D01*
X75210Y166619D01*
X75301Y166320D01*
X75448Y166045D01*
X75646Y165804D01*
X75887Y165605D01*
X76162Y165458D01*
X76461Y165368D01*
X76772Y165337D01*
X77082Y165368D01*
X77381Y165458D01*
X77656Y165605D01*
X77897Y165804D01*
X78095Y166045D01*
X78242Y166320D01*
X78333Y166619D01*
X78364Y166929D01*
X78333Y167240D01*
X78242Y167538D01*
X78095Y167814D01*
X77897Y168055D01*
X77656Y168253D01*
X77381Y168400D01*
X77082Y168491D01*
X76772Y168521D01*
D02*
G37*
G36*
X72835D02*
X72524Y168491D01*
X72225Y168400D01*
X71950Y168253D01*
X71709Y168055D01*
X71511Y167814D01*
X71364Y167538D01*
X71273Y167240D01*
X71243Y166929D01*
X71273Y166619D01*
X71364Y166320D01*
X71511Y166045D01*
X71709Y165804D01*
X71950Y165605D01*
X72225Y165458D01*
X72524Y165368D01*
X72835Y165337D01*
X73145Y165368D01*
X73444Y165458D01*
X73719Y165605D01*
X73960Y165804D01*
X74158Y166045D01*
X74305Y166320D01*
X74396Y166619D01*
X74427Y166929D01*
X74396Y167240D01*
X74305Y167538D01*
X74158Y167814D01*
X73960Y168055D01*
X73719Y168253D01*
X73444Y168400D01*
X73145Y168491D01*
X72835Y168521D01*
D02*
G37*
G36*
X68898D02*
X68587Y168491D01*
X68288Y168400D01*
X68013Y168253D01*
X67772Y168055D01*
X67574Y167814D01*
X67427Y167538D01*
X67336Y167240D01*
X67306Y166929D01*
X67336Y166619D01*
X67427Y166320D01*
X67574Y166045D01*
X67772Y165804D01*
X68013Y165605D01*
X68288Y165458D01*
X68587Y165368D01*
X68898Y165337D01*
X69208Y165368D01*
X69507Y165458D01*
X69782Y165605D01*
X70023Y165804D01*
X70221Y166045D01*
X70368Y166320D01*
X70459Y166619D01*
X70490Y166929D01*
X70459Y167240D01*
X70368Y167538D01*
X70221Y167814D01*
X70023Y168055D01*
X69782Y168253D01*
X69507Y168400D01*
X69208Y168491D01*
X68898Y168521D01*
D02*
G37*
G36*
X123228Y164190D02*
X122918Y164160D01*
X122619Y164069D01*
X122344Y163922D01*
X122103Y163724D01*
X121905Y163483D01*
X121758Y163208D01*
X121667Y162909D01*
X121636Y162598D01*
X121667Y162288D01*
X121758Y161989D01*
X121905Y161714D01*
X122103Y161473D01*
X122344Y161275D01*
X122619Y161128D01*
X122918Y161037D01*
X123228Y161006D01*
X123539Y161037D01*
X123838Y161128D01*
X124113Y161275D01*
X124354Y161473D01*
X124552Y161714D01*
X124699Y161989D01*
X124790Y162288D01*
X124820Y162598D01*
X124790Y162909D01*
X124699Y163208D01*
X124552Y163483D01*
X124354Y163724D01*
X124113Y163922D01*
X123838Y164069D01*
X123539Y164160D01*
X123228Y164190D01*
D02*
G37*
G36*
X119291D02*
X118981Y164160D01*
X118682Y164069D01*
X118407Y163922D01*
X118166Y163724D01*
X117968Y163483D01*
X117821Y163208D01*
X117730Y162909D01*
X117699Y162598D01*
X117730Y162288D01*
X117821Y161989D01*
X117968Y161714D01*
X118166Y161473D01*
X118407Y161275D01*
X118682Y161128D01*
X118981Y161037D01*
X119291Y161006D01*
X119602Y161037D01*
X119901Y161128D01*
X120176Y161275D01*
X120417Y161473D01*
X120615Y161714D01*
X120762Y161989D01*
X120853Y162288D01*
X120883Y162598D01*
X120853Y162909D01*
X120762Y163208D01*
X120615Y163483D01*
X120417Y163724D01*
X120176Y163922D01*
X119901Y164069D01*
X119602Y164160D01*
X119291Y164190D01*
D02*
G37*
G36*
X115354D02*
X115044Y164160D01*
X114745Y164069D01*
X114470Y163922D01*
X114229Y163724D01*
X114031Y163483D01*
X113884Y163208D01*
X113793Y162909D01*
X113762Y162598D01*
X113793Y162288D01*
X113884Y161989D01*
X114031Y161714D01*
X114229Y161473D01*
X114470Y161275D01*
X114745Y161128D01*
X115044Y161037D01*
X115354Y161006D01*
X115665Y161037D01*
X115963Y161128D01*
X116239Y161275D01*
X116480Y161473D01*
X116678Y161714D01*
X116825Y161989D01*
X116916Y162288D01*
X116946Y162598D01*
X116916Y162909D01*
X116825Y163208D01*
X116678Y163483D01*
X116480Y163724D01*
X116239Y163922D01*
X115963Y164069D01*
X115665Y164160D01*
X115354Y164190D01*
D02*
G37*
G36*
X111417D02*
X111107Y164160D01*
X110808Y164069D01*
X110533Y163922D01*
X110292Y163724D01*
X110094Y163483D01*
X109947Y163208D01*
X109856Y162909D01*
X109825Y162598D01*
X109856Y162288D01*
X109947Y161989D01*
X110094Y161714D01*
X110292Y161473D01*
X110533Y161275D01*
X110808Y161128D01*
X111107Y161037D01*
X111417Y161006D01*
X111728Y161037D01*
X112027Y161128D01*
X112302Y161275D01*
X112543Y161473D01*
X112741Y161714D01*
X112888Y161989D01*
X112979Y162288D01*
X113009Y162598D01*
X112979Y162909D01*
X112888Y163208D01*
X112741Y163483D01*
X112543Y163724D01*
X112302Y163922D01*
X112027Y164069D01*
X111728Y164160D01*
X111417Y164190D01*
D02*
G37*
G36*
X80709Y163797D02*
X80398Y163766D01*
X80099Y163675D01*
X79824Y163528D01*
X79583Y163330D01*
X79385Y163089D01*
X79238Y162814D01*
X79147Y162515D01*
X79117Y162205D01*
X79147Y161894D01*
X79238Y161595D01*
X79385Y161320D01*
X79583Y161079D01*
X79824Y160881D01*
X80099Y160734D01*
X80398Y160643D01*
X80709Y160613D01*
X81019Y160643D01*
X81318Y160734D01*
X81593Y160881D01*
X81834Y161079D01*
X82032Y161320D01*
X82179Y161595D01*
X82270Y161894D01*
X82301Y162205D01*
X82270Y162515D01*
X82179Y162814D01*
X82032Y163089D01*
X81834Y163330D01*
X81593Y163528D01*
X81318Y163675D01*
X81019Y163766D01*
X80709Y163797D01*
D02*
G37*
G36*
X76772D02*
X76461Y163766D01*
X76162Y163675D01*
X75887Y163528D01*
X75646Y163330D01*
X75448Y163089D01*
X75301Y162814D01*
X75210Y162515D01*
X75180Y162205D01*
X75210Y161894D01*
X75301Y161595D01*
X75448Y161320D01*
X75646Y161079D01*
X75887Y160881D01*
X76162Y160734D01*
X76461Y160643D01*
X76772Y160613D01*
X77082Y160643D01*
X77381Y160734D01*
X77656Y160881D01*
X77897Y161079D01*
X78095Y161320D01*
X78242Y161595D01*
X78333Y161894D01*
X78364Y162205D01*
X78333Y162515D01*
X78242Y162814D01*
X78095Y163089D01*
X77897Y163330D01*
X77656Y163528D01*
X77381Y163675D01*
X77082Y163766D01*
X76772Y163797D01*
D02*
G37*
G36*
X72835D02*
X72524Y163766D01*
X72225Y163675D01*
X71950Y163528D01*
X71709Y163330D01*
X71511Y163089D01*
X71364Y162814D01*
X71273Y162515D01*
X71243Y162205D01*
X71273Y161894D01*
X71364Y161595D01*
X71511Y161320D01*
X71709Y161079D01*
X71950Y160881D01*
X72225Y160734D01*
X72524Y160643D01*
X72835Y160613D01*
X73145Y160643D01*
X73444Y160734D01*
X73719Y160881D01*
X73960Y161079D01*
X74158Y161320D01*
X74305Y161595D01*
X74396Y161894D01*
X74427Y162205D01*
X74396Y162515D01*
X74305Y162814D01*
X74158Y163089D01*
X73960Y163330D01*
X73719Y163528D01*
X73444Y163675D01*
X73145Y163766D01*
X72835Y163797D01*
D02*
G37*
G36*
X68898D02*
X68587Y163766D01*
X68288Y163675D01*
X68013Y163528D01*
X67772Y163330D01*
X67574Y163089D01*
X67427Y162814D01*
X67336Y162515D01*
X67306Y162205D01*
X67336Y161894D01*
X67427Y161595D01*
X67574Y161320D01*
X67772Y161079D01*
X68013Y160881D01*
X68288Y160734D01*
X68587Y160643D01*
X68898Y160613D01*
X69208Y160643D01*
X69507Y160734D01*
X69782Y160881D01*
X70023Y161079D01*
X70221Y161320D01*
X70368Y161595D01*
X70459Y161894D01*
X70490Y162205D01*
X70459Y162515D01*
X70368Y162814D01*
X70221Y163089D01*
X70023Y163330D01*
X69782Y163528D01*
X69507Y163675D01*
X69208Y163766D01*
X68898Y163797D01*
D02*
G37*
G36*
X123228Y159466D02*
X122918Y159435D01*
X122619Y159345D01*
X122344Y159198D01*
X122103Y159000D01*
X121905Y158758D01*
X121758Y158483D01*
X121667Y158185D01*
X121636Y157874D01*
X121667Y157563D01*
X121758Y157265D01*
X121905Y156990D01*
X122103Y156748D01*
X122344Y156550D01*
X122619Y156403D01*
X122918Y156313D01*
X123228Y156282D01*
X123539Y156313D01*
X123838Y156403D01*
X124113Y156550D01*
X124354Y156748D01*
X124552Y156990D01*
X124699Y157265D01*
X124790Y157563D01*
X124820Y157874D01*
X124790Y158185D01*
X124699Y158483D01*
X124552Y158758D01*
X124354Y159000D01*
X124113Y159198D01*
X123838Y159345D01*
X123539Y159435D01*
X123228Y159466D01*
D02*
G37*
G36*
X119291D02*
X118981Y159435D01*
X118682Y159345D01*
X118407Y159198D01*
X118166Y159000D01*
X117968Y158758D01*
X117821Y158483D01*
X117730Y158185D01*
X117699Y157874D01*
X117730Y157563D01*
X117821Y157265D01*
X117968Y156990D01*
X118166Y156748D01*
X118407Y156550D01*
X118682Y156403D01*
X118981Y156313D01*
X119291Y156282D01*
X119602Y156313D01*
X119901Y156403D01*
X120176Y156550D01*
X120417Y156748D01*
X120615Y156990D01*
X120762Y157265D01*
X120853Y157563D01*
X120883Y157874D01*
X120853Y158185D01*
X120762Y158483D01*
X120615Y158758D01*
X120417Y159000D01*
X120176Y159198D01*
X119901Y159345D01*
X119602Y159435D01*
X119291Y159466D01*
D02*
G37*
G36*
X115354D02*
X115044Y159435D01*
X114745Y159345D01*
X114470Y159198D01*
X114229Y159000D01*
X114031Y158758D01*
X113884Y158483D01*
X113793Y158185D01*
X113762Y157874D01*
X113793Y157563D01*
X113884Y157265D01*
X114031Y156990D01*
X114229Y156748D01*
X114470Y156550D01*
X114745Y156403D01*
X115044Y156313D01*
X115354Y156282D01*
X115665Y156313D01*
X115963Y156403D01*
X116239Y156550D01*
X116480Y156748D01*
X116678Y156990D01*
X116825Y157265D01*
X116916Y157563D01*
X116946Y157874D01*
X116916Y158185D01*
X116825Y158483D01*
X116678Y158758D01*
X116480Y159000D01*
X116239Y159198D01*
X115963Y159345D01*
X115665Y159435D01*
X115354Y159466D01*
D02*
G37*
G36*
X111417D02*
X111107Y159435D01*
X110808Y159345D01*
X110533Y159198D01*
X110292Y159000D01*
X110094Y158758D01*
X109947Y158483D01*
X109856Y158185D01*
X109825Y157874D01*
X109856Y157563D01*
X109947Y157265D01*
X110094Y156990D01*
X110292Y156748D01*
X110533Y156550D01*
X110808Y156403D01*
X111107Y156313D01*
X111417Y156282D01*
X111728Y156313D01*
X112027Y156403D01*
X112302Y156550D01*
X112543Y156748D01*
X112741Y156990D01*
X112888Y157265D01*
X112979Y157563D01*
X113009Y157874D01*
X112979Y158185D01*
X112888Y158483D01*
X112741Y158758D01*
X112543Y159000D01*
X112302Y159198D01*
X112027Y159345D01*
X111728Y159435D01*
X111417Y159466D01*
D02*
G37*
G36*
X80709Y159072D02*
X80398Y159042D01*
X80099Y158951D01*
X79824Y158804D01*
X79583Y158606D01*
X79385Y158365D01*
X79238Y158089D01*
X79147Y157791D01*
X79117Y157480D01*
X79147Y157170D01*
X79238Y156871D01*
X79385Y156596D01*
X79583Y156355D01*
X79824Y156157D01*
X80099Y156010D01*
X80398Y155919D01*
X80709Y155888D01*
X81019Y155919D01*
X81318Y156010D01*
X81593Y156157D01*
X81834Y156355D01*
X82032Y156596D01*
X82179Y156871D01*
X82270Y157170D01*
X82301Y157480D01*
X82270Y157791D01*
X82179Y158089D01*
X82032Y158365D01*
X81834Y158606D01*
X81593Y158804D01*
X81318Y158951D01*
X81019Y159042D01*
X80709Y159072D01*
D02*
G37*
G36*
X76772D02*
X76461Y159042D01*
X76162Y158951D01*
X75887Y158804D01*
X75646Y158606D01*
X75448Y158365D01*
X75301Y158089D01*
X75210Y157791D01*
X75180Y157480D01*
X75210Y157170D01*
X75301Y156871D01*
X75448Y156596D01*
X75646Y156355D01*
X75887Y156157D01*
X76162Y156010D01*
X76461Y155919D01*
X76772Y155888D01*
X77082Y155919D01*
X77381Y156010D01*
X77656Y156157D01*
X77897Y156355D01*
X78095Y156596D01*
X78242Y156871D01*
X78333Y157170D01*
X78364Y157480D01*
X78333Y157791D01*
X78242Y158089D01*
X78095Y158365D01*
X77897Y158606D01*
X77656Y158804D01*
X77381Y158951D01*
X77082Y159042D01*
X76772Y159072D01*
D02*
G37*
G36*
X72835D02*
X72524Y159042D01*
X72225Y158951D01*
X71950Y158804D01*
X71709Y158606D01*
X71511Y158365D01*
X71364Y158089D01*
X71273Y157791D01*
X71243Y157480D01*
X71273Y157170D01*
X71364Y156871D01*
X71511Y156596D01*
X71709Y156355D01*
X71950Y156157D01*
X72225Y156010D01*
X72524Y155919D01*
X72835Y155888D01*
X73145Y155919D01*
X73444Y156010D01*
X73719Y156157D01*
X73960Y156355D01*
X74158Y156596D01*
X74305Y156871D01*
X74396Y157170D01*
X74427Y157480D01*
X74396Y157791D01*
X74305Y158089D01*
X74158Y158365D01*
X73960Y158606D01*
X73719Y158804D01*
X73444Y158951D01*
X73145Y159042D01*
X72835Y159072D01*
D02*
G37*
G36*
X68898D02*
X68587Y159042D01*
X68288Y158951D01*
X68013Y158804D01*
X67772Y158606D01*
X67574Y158365D01*
X67427Y158089D01*
X67336Y157791D01*
X67306Y157480D01*
X67336Y157170D01*
X67427Y156871D01*
X67574Y156596D01*
X67772Y156355D01*
X68013Y156157D01*
X68288Y156010D01*
X68587Y155919D01*
X68898Y155888D01*
X69208Y155919D01*
X69507Y156010D01*
X69782Y156157D01*
X70023Y156355D01*
X70221Y156596D01*
X70368Y156871D01*
X70459Y157170D01*
X70490Y157480D01*
X70459Y157791D01*
X70368Y158089D01*
X70221Y158365D01*
X70023Y158606D01*
X69782Y158804D01*
X69507Y158951D01*
X69208Y159042D01*
X68898Y159072D01*
D02*
G37*
G36*
X134252Y151986D02*
X133941Y151955D01*
X133643Y151864D01*
X133368Y151717D01*
X133126Y151519D01*
X132928Y151278D01*
X132781Y151003D01*
X132691Y150704D01*
X132660Y150394D01*
X132691Y150083D01*
X132781Y149785D01*
X132928Y149509D01*
X133126Y149268D01*
X133368Y149070D01*
X133643Y148923D01*
X133941Y148832D01*
X134252Y148802D01*
X134563Y148832D01*
X134861Y148923D01*
X135136Y149070D01*
X135378Y149268D01*
X135576Y149509D01*
X135723Y149785D01*
X135813Y150083D01*
X135844Y150394D01*
X135813Y150704D01*
X135723Y151003D01*
X135576Y151278D01*
X135378Y151519D01*
X135136Y151717D01*
X134861Y151864D01*
X134563Y151955D01*
X134252Y151986D01*
D02*
G37*
G36*
X129134D02*
X128823Y151955D01*
X128525Y151864D01*
X128249Y151717D01*
X128008Y151519D01*
X127810Y151278D01*
X127663Y151003D01*
X127573Y150704D01*
X127542Y150394D01*
X127573Y150083D01*
X127663Y149785D01*
X127810Y149509D01*
X128008Y149268D01*
X128249Y149070D01*
X128525Y148923D01*
X128823Y148832D01*
X129134Y148802D01*
X129444Y148832D01*
X129743Y148923D01*
X130018Y149070D01*
X130260Y149268D01*
X130457Y149509D01*
X130605Y149785D01*
X130695Y150083D01*
X130726Y150394D01*
X130695Y150704D01*
X130605Y151003D01*
X130457Y151278D01*
X130260Y151519D01*
X130018Y151717D01*
X129743Y151864D01*
X129444Y151955D01*
X129134Y151986D01*
D02*
G37*
G36*
X124409D02*
X124099Y151955D01*
X123800Y151864D01*
X123525Y151717D01*
X123284Y151519D01*
X123086Y151278D01*
X122939Y151003D01*
X122848Y150704D01*
X122818Y150394D01*
X122848Y150083D01*
X122939Y149785D01*
X123086Y149509D01*
X123284Y149268D01*
X123525Y149070D01*
X123800Y148923D01*
X124099Y148832D01*
X124409Y148802D01*
X124720Y148832D01*
X125019Y148923D01*
X125294Y149070D01*
X125535Y149268D01*
X125733Y149509D01*
X125880Y149785D01*
X125971Y150083D01*
X126001Y150394D01*
X125971Y150704D01*
X125880Y151003D01*
X125733Y151278D01*
X125535Y151519D01*
X125294Y151717D01*
X125019Y151864D01*
X124720Y151955D01*
X124409Y151986D01*
D02*
G37*
G36*
X119685D02*
X119375Y151955D01*
X119076Y151864D01*
X118801Y151717D01*
X118559Y151519D01*
X118361Y151278D01*
X118214Y151003D01*
X118124Y150704D01*
X118093Y150394D01*
X118124Y150083D01*
X118214Y149785D01*
X118361Y149509D01*
X118559Y149268D01*
X118801Y149070D01*
X119076Y148923D01*
X119375Y148832D01*
X119685Y148802D01*
X119996Y148832D01*
X120294Y148923D01*
X120570Y149070D01*
X120811Y149268D01*
X121009Y149509D01*
X121156Y149785D01*
X121246Y150083D01*
X121277Y150394D01*
X121246Y150704D01*
X121156Y151003D01*
X121009Y151278D01*
X120811Y151519D01*
X120570Y151717D01*
X120294Y151864D01*
X119996Y151955D01*
X119685Y151986D01*
D02*
G37*
G36*
X134252Y148049D02*
X133941Y148018D01*
X133643Y147927D01*
X133368Y147780D01*
X133126Y147582D01*
X132928Y147341D01*
X132781Y147066D01*
X132691Y146767D01*
X132660Y146457D01*
X132691Y146146D01*
X132781Y145847D01*
X132928Y145572D01*
X133126Y145331D01*
X133368Y145133D01*
X133643Y144986D01*
X133941Y144895D01*
X134252Y144865D01*
X134563Y144895D01*
X134861Y144986D01*
X135136Y145133D01*
X135378Y145331D01*
X135576Y145572D01*
X135723Y145847D01*
X135813Y146146D01*
X135844Y146457D01*
X135813Y146767D01*
X135723Y147066D01*
X135576Y147341D01*
X135378Y147582D01*
X135136Y147780D01*
X134861Y147927D01*
X134563Y148018D01*
X134252Y148049D01*
D02*
G37*
G36*
X129134D02*
X128823Y148018D01*
X128525Y147927D01*
X128249Y147780D01*
X128008Y147582D01*
X127810Y147341D01*
X127663Y147066D01*
X127573Y146767D01*
X127542Y146457D01*
X127573Y146146D01*
X127663Y145847D01*
X127810Y145572D01*
X128008Y145331D01*
X128249Y145133D01*
X128525Y144986D01*
X128823Y144895D01*
X129134Y144865D01*
X129444Y144895D01*
X129743Y144986D01*
X130018Y145133D01*
X130260Y145331D01*
X130457Y145572D01*
X130605Y145847D01*
X130695Y146146D01*
X130726Y146457D01*
X130695Y146767D01*
X130605Y147066D01*
X130457Y147341D01*
X130260Y147582D01*
X130018Y147780D01*
X129743Y147927D01*
X129444Y148018D01*
X129134Y148049D01*
D02*
G37*
G36*
X124409D02*
X124099Y148018D01*
X123800Y147927D01*
X123525Y147780D01*
X123284Y147582D01*
X123086Y147341D01*
X122939Y147066D01*
X122848Y146767D01*
X122818Y146457D01*
X122848Y146146D01*
X122939Y145847D01*
X123086Y145572D01*
X123284Y145331D01*
X123525Y145133D01*
X123800Y144986D01*
X124099Y144895D01*
X124409Y144865D01*
X124720Y144895D01*
X125019Y144986D01*
X125294Y145133D01*
X125535Y145331D01*
X125733Y145572D01*
X125880Y145847D01*
X125971Y146146D01*
X126001Y146457D01*
X125971Y146767D01*
X125880Y147066D01*
X125733Y147341D01*
X125535Y147582D01*
X125294Y147780D01*
X125019Y147927D01*
X124720Y148018D01*
X124409Y148049D01*
D02*
G37*
G36*
X119685D02*
X119375Y148018D01*
X119076Y147927D01*
X118801Y147780D01*
X118559Y147582D01*
X118361Y147341D01*
X118214Y147066D01*
X118124Y146767D01*
X118093Y146457D01*
X118124Y146146D01*
X118214Y145847D01*
X118361Y145572D01*
X118559Y145331D01*
X118801Y145133D01*
X119076Y144986D01*
X119375Y144895D01*
X119685Y144865D01*
X119996Y144895D01*
X120294Y144986D01*
X120570Y145133D01*
X120811Y145331D01*
X121009Y145572D01*
X121156Y145847D01*
X121246Y146146D01*
X121277Y146457D01*
X121246Y146767D01*
X121156Y147066D01*
X121009Y147341D01*
X120811Y147582D01*
X120570Y147780D01*
X120294Y147927D01*
X119996Y148018D01*
X119685Y148049D01*
D02*
G37*
G36*
X71260Y147655D02*
X70949Y147624D01*
X70651Y147534D01*
X70375Y147387D01*
X70134Y147189D01*
X69936Y146947D01*
X69789Y146672D01*
X69699Y146374D01*
X69668Y146063D01*
X69699Y145752D01*
X69789Y145454D01*
X69936Y145179D01*
X70134Y144937D01*
X70375Y144739D01*
X70651Y144592D01*
X70949Y144502D01*
X71260Y144471D01*
X71570Y144502D01*
X71869Y144592D01*
X72144Y144739D01*
X72386Y144937D01*
X72584Y145179D01*
X72731Y145454D01*
X72821Y145752D01*
X72852Y146063D01*
X72821Y146374D01*
X72731Y146672D01*
X72584Y146947D01*
X72386Y147189D01*
X72144Y147387D01*
X71869Y147534D01*
X71570Y147624D01*
X71260Y147655D01*
D02*
G37*
G36*
X66142D02*
X65831Y147624D01*
X65532Y147534D01*
X65257Y147387D01*
X65016Y147189D01*
X64818Y146947D01*
X64671Y146672D01*
X64580Y146374D01*
X64550Y146063D01*
X64580Y145752D01*
X64671Y145454D01*
X64818Y145179D01*
X65016Y144937D01*
X65257Y144739D01*
X65532Y144592D01*
X65831Y144502D01*
X66142Y144471D01*
X66452Y144502D01*
X66751Y144592D01*
X67026Y144739D01*
X67267Y144937D01*
X67465Y145179D01*
X67612Y145454D01*
X67703Y145752D01*
X67734Y146063D01*
X67703Y146374D01*
X67612Y146672D01*
X67465Y146947D01*
X67267Y147189D01*
X67026Y147387D01*
X66751Y147534D01*
X66452Y147624D01*
X66142Y147655D01*
D02*
G37*
G36*
X61417D02*
X61107Y147624D01*
X60808Y147534D01*
X60533Y147387D01*
X60292Y147189D01*
X60094Y146947D01*
X59947Y146672D01*
X59856Y146374D01*
X59825Y146063D01*
X59856Y145752D01*
X59947Y145454D01*
X60094Y145179D01*
X60292Y144937D01*
X60533Y144739D01*
X60808Y144592D01*
X61107Y144502D01*
X61417Y144471D01*
X61728Y144502D01*
X62027Y144592D01*
X62302Y144739D01*
X62543Y144937D01*
X62741Y145179D01*
X62888Y145454D01*
X62979Y145752D01*
X63009Y146063D01*
X62979Y146374D01*
X62888Y146672D01*
X62741Y146947D01*
X62543Y147189D01*
X62302Y147387D01*
X62027Y147534D01*
X61728Y147624D01*
X61417Y147655D01*
D02*
G37*
G36*
X56693D02*
X56382Y147624D01*
X56084Y147534D01*
X55809Y147387D01*
X55567Y147189D01*
X55369Y146947D01*
X55222Y146672D01*
X55132Y146374D01*
X55101Y146063D01*
X55132Y145752D01*
X55222Y145454D01*
X55369Y145179D01*
X55567Y144937D01*
X55809Y144739D01*
X56084Y144592D01*
X56382Y144502D01*
X56693Y144471D01*
X57003Y144502D01*
X57302Y144592D01*
X57577Y144739D01*
X57819Y144937D01*
X58017Y145179D01*
X58164Y145454D01*
X58254Y145752D01*
X58285Y146063D01*
X58254Y146374D01*
X58164Y146672D01*
X58017Y146947D01*
X57819Y147189D01*
X57577Y147387D01*
X57302Y147534D01*
X57003Y147624D01*
X56693Y147655D01*
D02*
G37*
G36*
X122047Y144505D02*
X121737Y144475D01*
X121438Y144384D01*
X121163Y144237D01*
X120922Y144039D01*
X120724Y143798D01*
X120577Y143523D01*
X120486Y143224D01*
X120455Y142913D01*
X120486Y142603D01*
X120577Y142304D01*
X120724Y142029D01*
X120922Y141788D01*
X121163Y141590D01*
X121438Y141443D01*
X121737Y141352D01*
X122047Y141322D01*
X122358Y141352D01*
X122656Y141443D01*
X122932Y141590D01*
X123173Y141788D01*
X123371Y142029D01*
X123518Y142304D01*
X123609Y142603D01*
X123639Y142913D01*
X123609Y143224D01*
X123518Y143523D01*
X123371Y143798D01*
X123173Y144039D01*
X122932Y144237D01*
X122656Y144384D01*
X122358Y144475D01*
X122047Y144505D01*
D02*
G37*
G36*
X134252Y144112D02*
X133941Y144081D01*
X133643Y143990D01*
X133368Y143843D01*
X133126Y143645D01*
X132928Y143404D01*
X132781Y143129D01*
X132691Y142830D01*
X132660Y142520D01*
X132691Y142209D01*
X132781Y141911D01*
X132928Y141635D01*
X133126Y141394D01*
X133368Y141196D01*
X133643Y141049D01*
X133941Y140958D01*
X134252Y140928D01*
X134563Y140958D01*
X134861Y141049D01*
X135136Y141196D01*
X135378Y141394D01*
X135576Y141635D01*
X135723Y141911D01*
X135813Y142209D01*
X135844Y142520D01*
X135813Y142830D01*
X135723Y143129D01*
X135576Y143404D01*
X135378Y143645D01*
X135136Y143843D01*
X134861Y143990D01*
X134563Y144081D01*
X134252Y144112D01*
D02*
G37*
G36*
X129134D02*
X128823Y144081D01*
X128525Y143990D01*
X128249Y143843D01*
X128008Y143645D01*
X127810Y143404D01*
X127663Y143129D01*
X127573Y142830D01*
X127542Y142520D01*
X127573Y142209D01*
X127663Y141911D01*
X127810Y141635D01*
X128008Y141394D01*
X128249Y141196D01*
X128525Y141049D01*
X128823Y140958D01*
X129134Y140928D01*
X129444Y140958D01*
X129743Y141049D01*
X130018Y141196D01*
X130260Y141394D01*
X130457Y141635D01*
X130605Y141911D01*
X130695Y142209D01*
X130726Y142520D01*
X130695Y142830D01*
X130605Y143129D01*
X130457Y143404D01*
X130260Y143645D01*
X130018Y143843D01*
X129743Y143990D01*
X129444Y144081D01*
X129134Y144112D01*
D02*
G37*
G36*
X71260Y143718D02*
X70949Y143687D01*
X70651Y143597D01*
X70375Y143450D01*
X70134Y143252D01*
X69936Y143010D01*
X69789Y142735D01*
X69699Y142437D01*
X69668Y142126D01*
X69699Y141815D01*
X69789Y141517D01*
X69936Y141242D01*
X70134Y141000D01*
X70375Y140802D01*
X70651Y140655D01*
X70949Y140565D01*
X71260Y140534D01*
X71570Y140565D01*
X71869Y140655D01*
X72144Y140802D01*
X72386Y141000D01*
X72584Y141242D01*
X72731Y141517D01*
X72821Y141815D01*
X72852Y142126D01*
X72821Y142437D01*
X72731Y142735D01*
X72584Y143010D01*
X72386Y143252D01*
X72144Y143450D01*
X71869Y143597D01*
X71570Y143687D01*
X71260Y143718D01*
D02*
G37*
G36*
X66142D02*
X65831Y143687D01*
X65532Y143597D01*
X65257Y143450D01*
X65016Y143252D01*
X64818Y143010D01*
X64671Y142735D01*
X64580Y142437D01*
X64550Y142126D01*
X64580Y141815D01*
X64671Y141517D01*
X64818Y141242D01*
X65016Y141000D01*
X65257Y140802D01*
X65532Y140655D01*
X65831Y140565D01*
X66142Y140534D01*
X66452Y140565D01*
X66751Y140655D01*
X67026Y140802D01*
X67267Y141000D01*
X67465Y141242D01*
X67612Y141517D01*
X67703Y141815D01*
X67734Y142126D01*
X67703Y142437D01*
X67612Y142735D01*
X67465Y143010D01*
X67267Y143252D01*
X67026Y143450D01*
X66751Y143597D01*
X66452Y143687D01*
X66142Y143718D01*
D02*
G37*
G36*
X61417D02*
X61107Y143687D01*
X60808Y143597D01*
X60533Y143450D01*
X60292Y143252D01*
X60094Y143010D01*
X59947Y142735D01*
X59856Y142437D01*
X59825Y142126D01*
X59856Y141815D01*
X59947Y141517D01*
X60094Y141242D01*
X60292Y141000D01*
X60533Y140802D01*
X60808Y140655D01*
X61107Y140565D01*
X61417Y140534D01*
X61728Y140565D01*
X62027Y140655D01*
X62302Y140802D01*
X62543Y141000D01*
X62741Y141242D01*
X62888Y141517D01*
X62979Y141815D01*
X63009Y142126D01*
X62979Y142437D01*
X62888Y142735D01*
X62741Y143010D01*
X62543Y143252D01*
X62302Y143450D01*
X62027Y143597D01*
X61728Y143687D01*
X61417Y143718D01*
D02*
G37*
G36*
X56693D02*
X56382Y143687D01*
X56084Y143597D01*
X55809Y143450D01*
X55567Y143252D01*
X55369Y143010D01*
X55222Y142735D01*
X55132Y142437D01*
X55101Y142126D01*
X55132Y141815D01*
X55222Y141517D01*
X55369Y141242D01*
X55567Y141000D01*
X55809Y140802D01*
X56084Y140655D01*
X56382Y140565D01*
X56693Y140534D01*
X57003Y140565D01*
X57302Y140655D01*
X57577Y140802D01*
X57819Y141000D01*
X58017Y141242D01*
X58164Y141517D01*
X58254Y141815D01*
X58285Y142126D01*
X58254Y142437D01*
X58164Y142735D01*
X58017Y143010D01*
X57819Y143252D01*
X57577Y143450D01*
X57302Y143597D01*
X57003Y143687D01*
X56693Y143718D01*
D02*
G37*
G36*
X125591Y142537D02*
X125280Y142506D01*
X124981Y142416D01*
X124706Y142269D01*
X124465Y142070D01*
X124267Y141829D01*
X124120Y141554D01*
X124029Y141255D01*
X123999Y140945D01*
X124029Y140634D01*
X124120Y140336D01*
X124267Y140060D01*
X124465Y139819D01*
X124706Y139621D01*
X124981Y139474D01*
X125280Y139383D01*
X125591Y139353D01*
X125901Y139383D01*
X126200Y139474D01*
X126475Y139621D01*
X126716Y139819D01*
X126914Y140060D01*
X127061Y140336D01*
X127152Y140634D01*
X127182Y140945D01*
X127152Y141255D01*
X127061Y141554D01*
X126914Y141829D01*
X126716Y142070D01*
X126475Y142269D01*
X126200Y142416D01*
X125901Y142506D01*
X125591Y142537D01*
D02*
G37*
G36*
X85827Y141749D02*
X85516Y141719D01*
X85218Y141628D01*
X84942Y141481D01*
X84701Y141283D01*
X84503Y141042D01*
X84356Y140767D01*
X84265Y140468D01*
X84235Y140157D01*
X84265Y139847D01*
X84356Y139548D01*
X84503Y139273D01*
X84701Y139032D01*
X84942Y138834D01*
X85218Y138687D01*
X85516Y138596D01*
X85827Y138566D01*
X86137Y138596D01*
X86436Y138687D01*
X86711Y138834D01*
X86952Y139032D01*
X87150Y139273D01*
X87297Y139548D01*
X87388Y139847D01*
X87419Y140157D01*
X87388Y140468D01*
X87297Y140767D01*
X87150Y141042D01*
X86952Y141283D01*
X86711Y141481D01*
X86436Y141628D01*
X86137Y141719D01*
X85827Y141749D01*
D02*
G37*
G36*
X39764Y158682D02*
X38928Y158649D01*
X38098Y158551D01*
X37277Y158388D01*
X36472Y158161D01*
X35688Y157871D01*
X34928Y157521D01*
X34199Y157113D01*
X33503Y156648D01*
X32847Y156130D01*
X32233Y155563D01*
X31665Y154949D01*
X31147Y154292D01*
X30683Y153596D01*
X30274Y152867D01*
X29924Y152107D01*
X29634Y151323D01*
X29407Y150518D01*
X29244Y149698D01*
X29146Y148867D01*
X29113Y148031D01*
X29146Y147196D01*
X29244Y146365D01*
X29407Y145545D01*
X29634Y144740D01*
X29924Y143956D01*
X30274Y143196D01*
X30683Y142466D01*
X31147Y141771D01*
X31665Y141114D01*
X32233Y140500D01*
X32847Y139933D01*
X33503Y139415D01*
X34199Y138950D01*
X34928Y138542D01*
X35688Y138191D01*
X36472Y137902D01*
X37277Y137675D01*
X38098Y137512D01*
X38928Y137414D01*
X39764Y137381D01*
X40599Y137414D01*
X41430Y137512D01*
X42250Y137675D01*
X43055Y137902D01*
X43840Y138191D01*
X44599Y138542D01*
X45329Y138950D01*
X46024Y139415D01*
X46681Y139933D01*
X47295Y140500D01*
X47863Y141114D01*
X48380Y141771D01*
X48845Y142466D01*
X49254Y143196D01*
X49604Y143956D01*
X49893Y144740D01*
X50120Y145545D01*
X50283Y146365D01*
X50382Y147196D01*
X50415Y148031D01*
X50382Y148867D01*
X50283Y149698D01*
X50120Y150518D01*
X49893Y151323D01*
X49604Y152107D01*
X49254Y152867D01*
X48845Y153596D01*
X48380Y154292D01*
X47863Y154949D01*
X47295Y155563D01*
X46681Y156130D01*
X46024Y156648D01*
X45329Y157113D01*
X44599Y157521D01*
X43840Y157871D01*
X43055Y158161D01*
X42250Y158388D01*
X41430Y158551D01*
X40599Y158649D01*
X39764Y158682D01*
D02*
G37*
G36*
X134252Y140175D02*
X133941Y140144D01*
X133643Y140053D01*
X133368Y139906D01*
X133126Y139708D01*
X132928Y139467D01*
X132781Y139192D01*
X132691Y138893D01*
X132660Y138583D01*
X132691Y138272D01*
X132781Y137973D01*
X132928Y137698D01*
X133126Y137457D01*
X133368Y137259D01*
X133643Y137112D01*
X133941Y137021D01*
X134252Y136991D01*
X134563Y137021D01*
X134861Y137112D01*
X135136Y137259D01*
X135378Y137457D01*
X135576Y137698D01*
X135723Y137973D01*
X135813Y138272D01*
X135844Y138583D01*
X135813Y138893D01*
X135723Y139192D01*
X135576Y139467D01*
X135378Y139708D01*
X135136Y139906D01*
X134861Y140053D01*
X134563Y140144D01*
X134252Y140175D01*
D02*
G37*
G36*
X129134D02*
X128823Y140144D01*
X128525Y140053D01*
X128249Y139906D01*
X128008Y139708D01*
X127810Y139467D01*
X127663Y139192D01*
X127573Y138893D01*
X127542Y138583D01*
X127573Y138272D01*
X127663Y137973D01*
X127810Y137698D01*
X128008Y137457D01*
X128249Y137259D01*
X128525Y137112D01*
X128823Y137021D01*
X129134Y136991D01*
X129444Y137021D01*
X129743Y137112D01*
X130018Y137259D01*
X130260Y137457D01*
X130457Y137698D01*
X130605Y137973D01*
X130695Y138272D01*
X130726Y138583D01*
X130695Y138893D01*
X130605Y139192D01*
X130457Y139467D01*
X130260Y139708D01*
X130018Y139906D01*
X129743Y140053D01*
X129444Y140144D01*
X129134Y140175D01*
D02*
G37*
G36*
X71260Y139781D02*
X70949Y139750D01*
X70651Y139660D01*
X70375Y139513D01*
X70134Y139315D01*
X69936Y139073D01*
X69789Y138798D01*
X69699Y138499D01*
X69668Y138189D01*
X69699Y137878D01*
X69789Y137580D01*
X69936Y137305D01*
X70134Y137063D01*
X70375Y136865D01*
X70651Y136718D01*
X70949Y136628D01*
X71260Y136597D01*
X71570Y136628D01*
X71869Y136718D01*
X72144Y136865D01*
X72386Y137063D01*
X72584Y137305D01*
X72731Y137580D01*
X72821Y137878D01*
X72852Y138189D01*
X72821Y138499D01*
X72731Y138798D01*
X72584Y139073D01*
X72386Y139315D01*
X72144Y139513D01*
X71869Y139660D01*
X71570Y139750D01*
X71260Y139781D01*
D02*
G37*
G36*
X66142D02*
X65831Y139750D01*
X65532Y139660D01*
X65257Y139513D01*
X65016Y139315D01*
X64818Y139073D01*
X64671Y138798D01*
X64580Y138499D01*
X64550Y138189D01*
X64580Y137878D01*
X64671Y137580D01*
X64818Y137305D01*
X65016Y137063D01*
X65257Y136865D01*
X65532Y136718D01*
X65831Y136628D01*
X66142Y136597D01*
X66452Y136628D01*
X66751Y136718D01*
X67026Y136865D01*
X67267Y137063D01*
X67465Y137305D01*
X67612Y137580D01*
X67703Y137878D01*
X67734Y138189D01*
X67703Y138499D01*
X67612Y138798D01*
X67465Y139073D01*
X67267Y139315D01*
X67026Y139513D01*
X66751Y139660D01*
X66452Y139750D01*
X66142Y139781D01*
D02*
G37*
G36*
X61417D02*
X61107Y139750D01*
X60808Y139660D01*
X60533Y139513D01*
X60292Y139315D01*
X60094Y139073D01*
X59947Y138798D01*
X59856Y138499D01*
X59825Y138189D01*
X59856Y137878D01*
X59947Y137580D01*
X60094Y137305D01*
X60292Y137063D01*
X60533Y136865D01*
X60808Y136718D01*
X61107Y136628D01*
X61417Y136597D01*
X61728Y136628D01*
X62027Y136718D01*
X62302Y136865D01*
X62543Y137063D01*
X62741Y137305D01*
X62888Y137580D01*
X62979Y137878D01*
X63009Y138189D01*
X62979Y138499D01*
X62888Y138798D01*
X62741Y139073D01*
X62543Y139315D01*
X62302Y139513D01*
X62027Y139660D01*
X61728Y139750D01*
X61417Y139781D01*
D02*
G37*
G36*
X56693D02*
X56382Y139750D01*
X56084Y139660D01*
X55809Y139513D01*
X55567Y139315D01*
X55369Y139073D01*
X55222Y138798D01*
X55132Y138499D01*
X55101Y138189D01*
X55132Y137878D01*
X55222Y137580D01*
X55369Y137305D01*
X55567Y137063D01*
X55809Y136865D01*
X56084Y136718D01*
X56382Y136628D01*
X56693Y136597D01*
X57003Y136628D01*
X57302Y136718D01*
X57577Y136865D01*
X57819Y137063D01*
X58017Y137305D01*
X58164Y137580D01*
X58254Y137878D01*
X58285Y138189D01*
X58254Y138499D01*
X58164Y138798D01*
X58017Y139073D01*
X57819Y139315D01*
X57577Y139513D01*
X57302Y139660D01*
X57003Y139750D01*
X56693Y139781D01*
D02*
G37*
G36*
X125591Y138206D02*
X125280Y138175D01*
X124981Y138085D01*
X124706Y137938D01*
X124465Y137740D01*
X124267Y137499D01*
X124120Y137223D01*
X124029Y136925D01*
X123999Y136614D01*
X124029Y136304D01*
X124120Y136005D01*
X124267Y135730D01*
X124465Y135488D01*
X124706Y135291D01*
X124981Y135143D01*
X125280Y135053D01*
X125591Y135022D01*
X125901Y135053D01*
X126200Y135143D01*
X126475Y135291D01*
X126716Y135488D01*
X126914Y135730D01*
X127061Y136005D01*
X127152Y136304D01*
X127182Y136614D01*
X127152Y136925D01*
X127061Y137223D01*
X126914Y137499D01*
X126716Y137740D01*
X126475Y137938D01*
X126200Y138085D01*
X125901Y138175D01*
X125591Y138206D01*
D02*
G37*
G36*
X108661Y137812D02*
X108351Y137782D01*
X108052Y137691D01*
X107777Y137544D01*
X107536Y137346D01*
X107338Y137105D01*
X107191Y136830D01*
X107100Y136531D01*
X107070Y136221D01*
X107100Y135910D01*
X107191Y135611D01*
X107338Y135336D01*
X107536Y135095D01*
X107777Y134897D01*
X108052Y134750D01*
X108351Y134659D01*
X108661Y134628D01*
X108972Y134659D01*
X109271Y134750D01*
X109546Y134897D01*
X109787Y135095D01*
X109985Y135336D01*
X110132Y135611D01*
X110223Y135910D01*
X110253Y136221D01*
X110223Y136531D01*
X110132Y136830D01*
X109985Y137105D01*
X109787Y137346D01*
X109546Y137544D01*
X109271Y137691D01*
X108972Y137782D01*
X108661Y137812D01*
D02*
G37*
G36*
X134252Y136238D02*
X133941Y136207D01*
X133643Y136116D01*
X133368Y135969D01*
X133126Y135771D01*
X132928Y135530D01*
X132781Y135255D01*
X132691Y134956D01*
X132660Y134646D01*
X132691Y134335D01*
X132781Y134037D01*
X132928Y133761D01*
X133126Y133520D01*
X133368Y133322D01*
X133643Y133175D01*
X133941Y133084D01*
X134252Y133054D01*
X134563Y133084D01*
X134861Y133175D01*
X135136Y133322D01*
X135378Y133520D01*
X135576Y133761D01*
X135723Y134037D01*
X135813Y134335D01*
X135844Y134646D01*
X135813Y134956D01*
X135723Y135255D01*
X135576Y135530D01*
X135378Y135771D01*
X135136Y135969D01*
X134861Y136116D01*
X134563Y136207D01*
X134252Y136238D01*
D02*
G37*
G36*
X129134D02*
X128823Y136207D01*
X128525Y136116D01*
X128249Y135969D01*
X128008Y135771D01*
X127810Y135530D01*
X127663Y135255D01*
X127573Y134956D01*
X127542Y134646D01*
X127573Y134335D01*
X127663Y134037D01*
X127810Y133761D01*
X128008Y133520D01*
X128249Y133322D01*
X128525Y133175D01*
X128823Y133084D01*
X129134Y133054D01*
X129444Y133084D01*
X129743Y133175D01*
X130018Y133322D01*
X130260Y133520D01*
X130457Y133761D01*
X130605Y134037D01*
X130695Y134335D01*
X130726Y134646D01*
X130695Y134956D01*
X130605Y135255D01*
X130457Y135530D01*
X130260Y135771D01*
X130018Y135969D01*
X129743Y136116D01*
X129444Y136207D01*
X129134Y136238D01*
D02*
G37*
G36*
X71260Y135844D02*
X70949Y135813D01*
X70651Y135723D01*
X70375Y135576D01*
X70134Y135378D01*
X69936Y135136D01*
X69789Y134861D01*
X69699Y134563D01*
X69668Y134252D01*
X69699Y133941D01*
X69789Y133643D01*
X69936Y133368D01*
X70134Y133126D01*
X70375Y132928D01*
X70651Y132781D01*
X70949Y132691D01*
X71260Y132660D01*
X71570Y132691D01*
X71869Y132781D01*
X72144Y132928D01*
X72386Y133126D01*
X72584Y133368D01*
X72731Y133643D01*
X72821Y133941D01*
X72852Y134252D01*
X72821Y134563D01*
X72731Y134861D01*
X72584Y135136D01*
X72386Y135378D01*
X72144Y135576D01*
X71869Y135723D01*
X71570Y135813D01*
X71260Y135844D01*
D02*
G37*
G36*
X66142D02*
X65831Y135813D01*
X65532Y135723D01*
X65257Y135576D01*
X65016Y135378D01*
X64818Y135136D01*
X64671Y134861D01*
X64580Y134563D01*
X64550Y134252D01*
X64580Y133941D01*
X64671Y133643D01*
X64818Y133368D01*
X65016Y133126D01*
X65257Y132928D01*
X65532Y132781D01*
X65831Y132691D01*
X66142Y132660D01*
X66452Y132691D01*
X66751Y132781D01*
X67026Y132928D01*
X67267Y133126D01*
X67465Y133368D01*
X67612Y133643D01*
X67703Y133941D01*
X67734Y134252D01*
X67703Y134563D01*
X67612Y134861D01*
X67465Y135136D01*
X67267Y135378D01*
X67026Y135576D01*
X66751Y135723D01*
X66452Y135813D01*
X66142Y135844D01*
D02*
G37*
G36*
X61417D02*
X61107Y135813D01*
X60808Y135723D01*
X60533Y135576D01*
X60292Y135378D01*
X60094Y135136D01*
X59947Y134861D01*
X59856Y134563D01*
X59825Y134252D01*
X59856Y133941D01*
X59947Y133643D01*
X60094Y133368D01*
X60292Y133126D01*
X60533Y132928D01*
X60808Y132781D01*
X61107Y132691D01*
X61417Y132660D01*
X61728Y132691D01*
X62027Y132781D01*
X62302Y132928D01*
X62543Y133126D01*
X62741Y133368D01*
X62888Y133643D01*
X62979Y133941D01*
X63009Y134252D01*
X62979Y134563D01*
X62888Y134861D01*
X62741Y135136D01*
X62543Y135378D01*
X62302Y135576D01*
X62027Y135723D01*
X61728Y135813D01*
X61417Y135844D01*
D02*
G37*
G36*
X56693D02*
X56382Y135813D01*
X56084Y135723D01*
X55809Y135576D01*
X55567Y135378D01*
X55369Y135136D01*
X55222Y134861D01*
X55132Y134563D01*
X55101Y134252D01*
X55132Y133941D01*
X55222Y133643D01*
X55369Y133368D01*
X55567Y133126D01*
X55809Y132928D01*
X56084Y132781D01*
X56382Y132691D01*
X56693Y132660D01*
X57003Y132691D01*
X57302Y132781D01*
X57577Y132928D01*
X57819Y133126D01*
X58017Y133368D01*
X58164Y133643D01*
X58254Y133941D01*
X58285Y134252D01*
X58254Y134563D01*
X58164Y134861D01*
X58017Y135136D01*
X57819Y135378D01*
X57577Y135576D01*
X57302Y135723D01*
X57003Y135813D01*
X56693Y135844D01*
D02*
G37*
G36*
X97835Y134466D02*
X97524Y134435D01*
X97225Y134345D01*
X96950Y134198D01*
X96709Y134000D01*
X96511Y133758D01*
X96364Y133483D01*
X96273Y133185D01*
X96243Y132874D01*
X96273Y132563D01*
X96364Y132265D01*
X96511Y131990D01*
X96709Y131748D01*
X96950Y131550D01*
X97225Y131403D01*
X97524Y131313D01*
X97835Y131282D01*
X98145Y131313D01*
X98444Y131403D01*
X98719Y131550D01*
X98960Y131748D01*
X99158Y131990D01*
X99305Y132265D01*
X99396Y132563D01*
X99427Y132874D01*
X99396Y133185D01*
X99305Y133483D01*
X99158Y133758D01*
X98960Y134000D01*
X98719Y134198D01*
X98444Y134345D01*
X98145Y134435D01*
X97835Y134466D01*
D02*
G37*
G36*
X110394Y133639D02*
X110083Y133609D01*
X109785Y133518D01*
X109510Y133371D01*
X109268Y133173D01*
X109070Y132932D01*
X108923Y132657D01*
X108833Y132358D01*
X108802Y132047D01*
X108833Y131737D01*
X108923Y131438D01*
X109070Y131163D01*
X109268Y130922D01*
X109510Y130724D01*
X109785Y130577D01*
X110083Y130486D01*
X110394Y130456D01*
X110704Y130486D01*
X111003Y130577D01*
X111278Y130724D01*
X111520Y130922D01*
X111717Y131163D01*
X111865Y131438D01*
X111955Y131737D01*
X111986Y132047D01*
X111955Y132358D01*
X111865Y132657D01*
X111717Y132932D01*
X111520Y133173D01*
X111278Y133371D01*
X111003Y133518D01*
X110704Y133609D01*
X110394Y133639D01*
D02*
G37*
G36*
X130709Y130332D02*
X130398Y130301D01*
X130099Y130211D01*
X129824Y130064D01*
X129583Y129866D01*
X129385Y129625D01*
X129238Y129349D01*
X129147Y129051D01*
X129117Y128740D01*
X129147Y128430D01*
X129238Y128131D01*
X129385Y127856D01*
X129583Y127614D01*
X129824Y127417D01*
X130099Y127269D01*
X130398Y127179D01*
X130709Y127148D01*
X131019Y127179D01*
X131318Y127269D01*
X131593Y127417D01*
X131834Y127614D01*
X132032Y127856D01*
X132179Y128131D01*
X132270Y128430D01*
X132301Y128740D01*
X132270Y129051D01*
X132179Y129349D01*
X132032Y129625D01*
X131834Y129866D01*
X131593Y130064D01*
X131318Y130211D01*
X131019Y130301D01*
X130709Y130332D01*
D02*
G37*
G36*
X75590Y129545D02*
X75280Y129514D01*
X74981Y129423D01*
X74706Y129276D01*
X74465Y129078D01*
X74267Y128837D01*
X74120Y128562D01*
X74029Y128263D01*
X73999Y127953D01*
X74029Y127642D01*
X74120Y127344D01*
X74267Y127068D01*
X74465Y126827D01*
X74706Y126629D01*
X74981Y126482D01*
X75280Y126391D01*
X75590Y126361D01*
X75901Y126391D01*
X76200Y126482D01*
X76475Y126629D01*
X76716Y126827D01*
X76914Y127068D01*
X77061Y127344D01*
X77152Y127642D01*
X77182Y127953D01*
X77152Y128263D01*
X77061Y128562D01*
X76914Y128837D01*
X76716Y129078D01*
X76475Y129276D01*
X76200Y129423D01*
X75901Y129514D01*
X75590Y129545D01*
D02*
G37*
G36*
X114567Y111631D02*
X114256Y111601D01*
X113958Y111510D01*
X113682Y111363D01*
X113441Y111165D01*
X113243Y110924D01*
X113096Y110649D01*
X113006Y110350D01*
X112975Y110039D01*
X112987Y109919D01*
X112578Y109473D01*
X112515Y109435D01*
X112205Y109466D01*
X111894Y109435D01*
X111595Y109345D01*
X111320Y109198D01*
X111079Y109000D01*
X110881Y108758D01*
X110734Y108483D01*
X110643Y108185D01*
X110613Y107874D01*
X110643Y107563D01*
X110734Y107265D01*
X110881Y106990D01*
X111079Y106748D01*
X111320Y106550D01*
X111595Y106403D01*
X111894Y106313D01*
X112205Y106282D01*
X112515Y106313D01*
X112814Y106403D01*
X113089Y106550D01*
X113330Y106748D01*
X113528Y106990D01*
X113675Y107265D01*
X113766Y107563D01*
X113797Y107874D01*
X113785Y107994D01*
X114193Y108440D01*
X114256Y108478D01*
X114567Y108448D01*
X114877Y108478D01*
X115176Y108569D01*
X115451Y108716D01*
X115693Y108914D01*
X115891Y109155D01*
X116038Y109430D01*
X116128Y109729D01*
X116159Y110039D01*
X116128Y110350D01*
X116038Y110649D01*
X115891Y110924D01*
X115693Y111165D01*
X115451Y111363D01*
X115176Y111510D01*
X114877Y111601D01*
X114567Y111631D01*
D02*
G37*
G36*
X93307Y109860D02*
X92997Y109829D01*
X92698Y109738D01*
X92423Y109591D01*
X92181Y109393D01*
X91983Y109152D01*
X91836Y108877D01*
X91746Y108578D01*
X91715Y108268D01*
X91746Y107957D01*
X91836Y107659D01*
X91983Y107383D01*
X92181Y107142D01*
X92423Y106944D01*
X92698Y106797D01*
X92997Y106706D01*
X93307Y106676D01*
X93618Y106706D01*
X93916Y106797D01*
X94191Y106944D01*
X94433Y107142D01*
X94631Y107383D01*
X94778Y107659D01*
X94868Y107957D01*
X94899Y108268D01*
X94868Y108578D01*
X94778Y108877D01*
X94631Y109152D01*
X94433Y109393D01*
X94191Y109591D01*
X93916Y109738D01*
X93618Y109829D01*
X93307Y109860D01*
D02*
G37*
G36*
X144488Y105529D02*
X144178Y105498D01*
X143879Y105408D01*
X143604Y105261D01*
X143362Y105063D01*
X143165Y104821D01*
X143017Y104546D01*
X142927Y104248D01*
X142896Y103937D01*
X142927Y103626D01*
X143017Y103328D01*
X143165Y103053D01*
X143362Y102811D01*
X143604Y102613D01*
X143879Y102466D01*
X144178Y102376D01*
X144488Y102345D01*
X144799Y102376D01*
X145097Y102466D01*
X145373Y102613D01*
X145614Y102811D01*
X145812Y103053D01*
X145959Y103328D01*
X146049Y103626D01*
X146080Y103937D01*
X146049Y104248D01*
X145959Y104546D01*
X145812Y104821D01*
X145614Y105063D01*
X145373Y105261D01*
X145097Y105408D01*
X144799Y105498D01*
X144488Y105529D01*
D02*
G37*
G36*
X139370D02*
X139059Y105498D01*
X138761Y105408D01*
X138486Y105261D01*
X138244Y105063D01*
X138047Y104821D01*
X137899Y104546D01*
X137809Y104248D01*
X137778Y103937D01*
X137809Y103626D01*
X137899Y103328D01*
X138047Y103053D01*
X138244Y102811D01*
X138486Y102613D01*
X138761Y102466D01*
X139059Y102376D01*
X139370Y102345D01*
X139681Y102376D01*
X139979Y102466D01*
X140254Y102613D01*
X140496Y102811D01*
X140694Y103053D01*
X140841Y103328D01*
X140931Y103626D01*
X140962Y103937D01*
X140931Y104248D01*
X140841Y104546D01*
X140694Y104821D01*
X140496Y105063D01*
X140254Y105261D01*
X139979Y105408D01*
X139681Y105498D01*
X139370Y105529D01*
D02*
G37*
G36*
X134646D02*
X134335Y105498D01*
X134037Y105408D01*
X133761Y105261D01*
X133520Y105063D01*
X133322Y104821D01*
X133175Y104546D01*
X133084Y104248D01*
X133054Y103937D01*
X133084Y103626D01*
X133175Y103328D01*
X133322Y103053D01*
X133520Y102811D01*
X133761Y102613D01*
X134037Y102466D01*
X134335Y102376D01*
X134646Y102345D01*
X134956Y102376D01*
X135255Y102466D01*
X135530Y102613D01*
X135771Y102811D01*
X135969Y103053D01*
X136116Y103328D01*
X136207Y103626D01*
X136238Y103937D01*
X136207Y104248D01*
X136116Y104546D01*
X135969Y104821D01*
X135771Y105063D01*
X135530Y105261D01*
X135255Y105408D01*
X134956Y105498D01*
X134646Y105529D01*
D02*
G37*
G36*
X129921D02*
X129611Y105498D01*
X129312Y105408D01*
X129037Y105261D01*
X128796Y105063D01*
X128598Y104821D01*
X128451Y104546D01*
X128360Y104248D01*
X128329Y103937D01*
X128360Y103626D01*
X128451Y103328D01*
X128598Y103053D01*
X128796Y102811D01*
X129037Y102613D01*
X129312Y102466D01*
X129611Y102376D01*
X129921Y102345D01*
X130232Y102376D01*
X130531Y102466D01*
X130806Y102613D01*
X131047Y102811D01*
X131245Y103053D01*
X131392Y103328D01*
X131483Y103626D01*
X131513Y103937D01*
X131483Y104248D01*
X131392Y104546D01*
X131245Y104821D01*
X131047Y105063D01*
X130806Y105261D01*
X130531Y105408D01*
X130232Y105498D01*
X129921Y105529D01*
D02*
G37*
G36*
X71260Y105135D02*
X70949Y105105D01*
X70651Y105014D01*
X70375Y104867D01*
X70134Y104669D01*
X69936Y104428D01*
X69789Y104153D01*
X69699Y103854D01*
X69668Y103543D01*
X69699Y103233D01*
X69789Y102934D01*
X69936Y102659D01*
X70134Y102418D01*
X70375Y102220D01*
X70651Y102073D01*
X70949Y101982D01*
X71260Y101951D01*
X71570Y101982D01*
X71869Y102073D01*
X72144Y102220D01*
X72386Y102418D01*
X72584Y102659D01*
X72731Y102934D01*
X72821Y103233D01*
X72852Y103543D01*
X72821Y103854D01*
X72731Y104153D01*
X72584Y104428D01*
X72386Y104669D01*
X72144Y104867D01*
X71869Y105014D01*
X71570Y105105D01*
X71260Y105135D01*
D02*
G37*
G36*
X66142D02*
X65831Y105105D01*
X65532Y105014D01*
X65257Y104867D01*
X65016Y104669D01*
X64818Y104428D01*
X64671Y104153D01*
X64580Y103854D01*
X64550Y103543D01*
X64580Y103233D01*
X64671Y102934D01*
X64818Y102659D01*
X65016Y102418D01*
X65257Y102220D01*
X65532Y102073D01*
X65831Y101982D01*
X66142Y101951D01*
X66452Y101982D01*
X66751Y102073D01*
X67026Y102220D01*
X67267Y102418D01*
X67465Y102659D01*
X67612Y102934D01*
X67703Y103233D01*
X67734Y103543D01*
X67703Y103854D01*
X67612Y104153D01*
X67465Y104428D01*
X67267Y104669D01*
X67026Y104867D01*
X66751Y105014D01*
X66452Y105105D01*
X66142Y105135D01*
D02*
G37*
G36*
X61417D02*
X61107Y105105D01*
X60808Y105014D01*
X60533Y104867D01*
X60292Y104669D01*
X60094Y104428D01*
X59947Y104153D01*
X59856Y103854D01*
X59825Y103543D01*
X59856Y103233D01*
X59947Y102934D01*
X60094Y102659D01*
X60292Y102418D01*
X60533Y102220D01*
X60808Y102073D01*
X61107Y101982D01*
X61417Y101951D01*
X61728Y101982D01*
X62027Y102073D01*
X62302Y102220D01*
X62543Y102418D01*
X62741Y102659D01*
X62888Y102934D01*
X62979Y103233D01*
X63009Y103543D01*
X62979Y103854D01*
X62888Y104153D01*
X62741Y104428D01*
X62543Y104669D01*
X62302Y104867D01*
X62027Y105014D01*
X61728Y105105D01*
X61417Y105135D01*
D02*
G37*
G36*
X56693D02*
X56382Y105105D01*
X56084Y105014D01*
X55809Y104867D01*
X55567Y104669D01*
X55369Y104428D01*
X55222Y104153D01*
X55132Y103854D01*
X55101Y103543D01*
X55132Y103233D01*
X55222Y102934D01*
X55369Y102659D01*
X55567Y102418D01*
X55809Y102220D01*
X56084Y102073D01*
X56382Y101982D01*
X56693Y101951D01*
X57003Y101982D01*
X57302Y102073D01*
X57577Y102220D01*
X57819Y102418D01*
X58017Y102659D01*
X58164Y102934D01*
X58254Y103233D01*
X58285Y103543D01*
X58254Y103854D01*
X58164Y104153D01*
X58017Y104428D01*
X57819Y104669D01*
X57577Y104867D01*
X57302Y105014D01*
X57003Y105105D01*
X56693Y105135D01*
D02*
G37*
G36*
X144488Y101592D02*
X144178Y101561D01*
X143879Y101471D01*
X143604Y101324D01*
X143362Y101126D01*
X143165Y100884D01*
X143017Y100609D01*
X142927Y100311D01*
X142896Y100000D01*
X142927Y99689D01*
X143017Y99391D01*
X143165Y99116D01*
X143362Y98874D01*
X143604Y98676D01*
X143879Y98529D01*
X144178Y98439D01*
X144488Y98408D01*
X144799Y98439D01*
X145097Y98529D01*
X145373Y98676D01*
X145614Y98874D01*
X145812Y99116D01*
X145959Y99391D01*
X146049Y99689D01*
X146080Y100000D01*
X146049Y100311D01*
X145959Y100609D01*
X145812Y100884D01*
X145614Y101126D01*
X145373Y101324D01*
X145097Y101471D01*
X144799Y101561D01*
X144488Y101592D01*
D02*
G37*
G36*
X139370D02*
X139059Y101561D01*
X138761Y101471D01*
X138486Y101324D01*
X138244Y101126D01*
X138047Y100884D01*
X137899Y100609D01*
X137809Y100311D01*
X137778Y100000D01*
X137809Y99689D01*
X137899Y99391D01*
X138047Y99116D01*
X138244Y98874D01*
X138486Y98676D01*
X138761Y98529D01*
X139059Y98439D01*
X139370Y98408D01*
X139681Y98439D01*
X139979Y98529D01*
X140254Y98676D01*
X140496Y98874D01*
X140694Y99116D01*
X140841Y99391D01*
X140931Y99689D01*
X140962Y100000D01*
X140931Y100311D01*
X140841Y100609D01*
X140694Y100884D01*
X140496Y101126D01*
X140254Y101324D01*
X139979Y101471D01*
X139681Y101561D01*
X139370Y101592D01*
D02*
G37*
G36*
X134646D02*
X134335Y101561D01*
X134037Y101471D01*
X133761Y101324D01*
X133520Y101126D01*
X133322Y100884D01*
X133175Y100609D01*
X133084Y100311D01*
X133054Y100000D01*
X133084Y99689D01*
X133175Y99391D01*
X133322Y99116D01*
X133520Y98874D01*
X133761Y98676D01*
X134037Y98529D01*
X134335Y98439D01*
X134646Y98408D01*
X134956Y98439D01*
X135255Y98529D01*
X135530Y98676D01*
X135771Y98874D01*
X135969Y99116D01*
X136116Y99391D01*
X136207Y99689D01*
X136238Y100000D01*
X136207Y100311D01*
X136116Y100609D01*
X135969Y100884D01*
X135771Y101126D01*
X135530Y101324D01*
X135255Y101471D01*
X134956Y101561D01*
X134646Y101592D01*
D02*
G37*
G36*
X129921D02*
X129611Y101561D01*
X129312Y101471D01*
X129037Y101324D01*
X128796Y101126D01*
X128598Y100884D01*
X128451Y100609D01*
X128360Y100311D01*
X128329Y100000D01*
X128360Y99689D01*
X128451Y99391D01*
X128598Y99116D01*
X128796Y98874D01*
X129037Y98676D01*
X129312Y98529D01*
X129611Y98439D01*
X129921Y98408D01*
X130232Y98439D01*
X130531Y98529D01*
X130806Y98676D01*
X131047Y98874D01*
X131245Y99116D01*
X131392Y99391D01*
X131483Y99689D01*
X131513Y100000D01*
X131483Y100311D01*
X131392Y100609D01*
X131245Y100884D01*
X131047Y101126D01*
X130806Y101324D01*
X130531Y101471D01*
X130232Y101561D01*
X129921Y101592D01*
D02*
G37*
G36*
X71260Y101198D02*
X70949Y101168D01*
X70651Y101077D01*
X70375Y100930D01*
X70134Y100732D01*
X69936Y100491D01*
X69789Y100215D01*
X69699Y99917D01*
X69668Y99606D01*
X69699Y99296D01*
X69789Y98997D01*
X69936Y98722D01*
X70134Y98481D01*
X70375Y98283D01*
X70651Y98136D01*
X70949Y98045D01*
X71260Y98014D01*
X71570Y98045D01*
X71869Y98136D01*
X72144Y98283D01*
X72386Y98481D01*
X72584Y98722D01*
X72731Y98997D01*
X72821Y99296D01*
X72852Y99606D01*
X72821Y99917D01*
X72731Y100215D01*
X72584Y100491D01*
X72386Y100732D01*
X72144Y100930D01*
X71869Y101077D01*
X71570Y101168D01*
X71260Y101198D01*
D02*
G37*
G36*
X66142D02*
X65831Y101168D01*
X65532Y101077D01*
X65257Y100930D01*
X65016Y100732D01*
X64818Y100491D01*
X64671Y100215D01*
X64580Y99917D01*
X64550Y99606D01*
X64580Y99296D01*
X64671Y98997D01*
X64818Y98722D01*
X65016Y98481D01*
X65257Y98283D01*
X65532Y98136D01*
X65831Y98045D01*
X66142Y98014D01*
X66452Y98045D01*
X66751Y98136D01*
X67026Y98283D01*
X67267Y98481D01*
X67465Y98722D01*
X67612Y98997D01*
X67703Y99296D01*
X67734Y99606D01*
X67703Y99917D01*
X67612Y100215D01*
X67465Y100491D01*
X67267Y100732D01*
X67026Y100930D01*
X66751Y101077D01*
X66452Y101168D01*
X66142Y101198D01*
D02*
G37*
G36*
X61417D02*
X61107Y101168D01*
X60808Y101077D01*
X60533Y100930D01*
X60292Y100732D01*
X60094Y100491D01*
X59947Y100215D01*
X59856Y99917D01*
X59825Y99606D01*
X59856Y99296D01*
X59947Y98997D01*
X60094Y98722D01*
X60292Y98481D01*
X60533Y98283D01*
X60808Y98136D01*
X61107Y98045D01*
X61417Y98014D01*
X61728Y98045D01*
X62027Y98136D01*
X62302Y98283D01*
X62543Y98481D01*
X62741Y98722D01*
X62888Y98997D01*
X62979Y99296D01*
X63009Y99606D01*
X62979Y99917D01*
X62888Y100215D01*
X62741Y100491D01*
X62543Y100732D01*
X62302Y100930D01*
X62027Y101077D01*
X61728Y101168D01*
X61417Y101198D01*
D02*
G37*
G36*
X56693D02*
X56382Y101168D01*
X56084Y101077D01*
X55809Y100930D01*
X55567Y100732D01*
X55369Y100491D01*
X55222Y100215D01*
X55132Y99917D01*
X55101Y99606D01*
X55132Y99296D01*
X55222Y98997D01*
X55369Y98722D01*
X55567Y98481D01*
X55809Y98283D01*
X56084Y98136D01*
X56382Y98045D01*
X56693Y98014D01*
X57003Y98045D01*
X57302Y98136D01*
X57577Y98283D01*
X57819Y98481D01*
X58017Y98722D01*
X58164Y98997D01*
X58254Y99296D01*
X58285Y99606D01*
X58254Y99917D01*
X58164Y100215D01*
X58017Y100491D01*
X57819Y100732D01*
X57577Y100930D01*
X57302Y101077D01*
X57003Y101168D01*
X56693Y101198D01*
D02*
G37*
G36*
X61417Y97261D02*
X61107Y97231D01*
X60808Y97140D01*
X60533Y96993D01*
X60292Y96795D01*
X60094Y96554D01*
X59947Y96279D01*
X59856Y95980D01*
X59825Y95669D01*
X59856Y95359D01*
X59947Y95060D01*
X59565Y94502D01*
X59449Y94509D01*
X58932Y94475D01*
X58462Y94382D01*
X58269Y94531D01*
X58072Y94888D01*
X58164Y95060D01*
X58254Y95359D01*
X58285Y95669D01*
X58254Y95980D01*
X58164Y96279D01*
X58017Y96554D01*
X57819Y96795D01*
X57577Y96993D01*
X57302Y97140D01*
X57003Y97231D01*
X56693Y97261D01*
X56382Y97231D01*
X56084Y97140D01*
X55809Y96993D01*
X55567Y96795D01*
X55369Y96554D01*
X55222Y96279D01*
X55132Y95980D01*
X55101Y95669D01*
X55132Y95359D01*
X55222Y95060D01*
X55369Y94785D01*
X55567Y94544D01*
X55809Y94346D01*
X56084Y94199D01*
X56382Y94108D01*
X56582Y94088D01*
X56744Y93804D01*
X56805Y93485D01*
X56650Y93350D01*
X56309Y92961D01*
X56021Y92530D01*
X55792Y92066D01*
X55626Y91576D01*
X55525Y91068D01*
X55491Y90551D01*
X55525Y90035D01*
X55626Y89527D01*
X55792Y89037D01*
X56021Y88572D01*
X56309Y88142D01*
X56650Y87752D01*
X57039Y87411D01*
X57470Y87123D01*
X57934Y86894D01*
X58424Y86728D01*
X58932Y86627D01*
X59449Y86593D01*
X59965Y86627D01*
X60473Y86728D01*
X60963Y86894D01*
X61428Y87123D01*
X61858Y87411D01*
X62248Y87752D01*
X62589Y88142D01*
X62877Y88572D01*
X63106Y89037D01*
X63272Y89527D01*
X63373Y90035D01*
X63407Y90551D01*
X63373Y91068D01*
X63272Y91576D01*
X63106Y92066D01*
X62877Y92530D01*
X62589Y92961D01*
X62248Y93350D01*
X62003Y93564D01*
X62021Y94046D01*
X62111Y94244D01*
X62302Y94346D01*
X62543Y94544D01*
X62741Y94785D01*
X62888Y95060D01*
X62979Y95359D01*
X63009Y95669D01*
X62979Y95980D01*
X62888Y96279D01*
X62741Y96554D01*
X62543Y96795D01*
X62302Y96993D01*
X62027Y97140D01*
X61728Y97231D01*
X61417Y97261D01*
D02*
G37*
G36*
X139370Y97655D02*
X139059Y97624D01*
X138761Y97534D01*
X138486Y97387D01*
X138244Y97189D01*
X138047Y96947D01*
X137899Y96672D01*
X137809Y96374D01*
X137778Y96063D01*
X137809Y95752D01*
X137899Y95454D01*
X138047Y95179D01*
X138244Y94937D01*
X138486Y94739D01*
X138761Y94592D01*
X139059Y94502D01*
X139370Y94471D01*
X139681Y94502D01*
X139979Y94592D01*
X140254Y94739D01*
X140496Y94937D01*
X140694Y95179D01*
X140841Y95454D01*
X140931Y95752D01*
X140962Y96063D01*
X140931Y96374D01*
X140841Y96672D01*
X140694Y96947D01*
X140496Y97189D01*
X140254Y97387D01*
X139979Y97534D01*
X139681Y97624D01*
X139370Y97655D01*
D02*
G37*
G36*
X134646D02*
X134335Y97624D01*
X134037Y97534D01*
X133761Y97387D01*
X133520Y97189D01*
X133322Y96947D01*
X133175Y96672D01*
X133084Y96374D01*
X133054Y96063D01*
X133084Y95752D01*
X133175Y95454D01*
X133322Y95179D01*
X133520Y94937D01*
X133761Y94739D01*
X134037Y94592D01*
X134335Y94502D01*
X134646Y94471D01*
X134956Y94502D01*
X135255Y94592D01*
X135530Y94739D01*
X135771Y94937D01*
X135969Y95179D01*
X136116Y95454D01*
X136207Y95752D01*
X136238Y96063D01*
X136207Y96374D01*
X136116Y96672D01*
X135969Y96947D01*
X135771Y97189D01*
X135530Y97387D01*
X135255Y97534D01*
X134956Y97624D01*
X134646Y97655D01*
D02*
G37*
G36*
X129921D02*
X129611Y97624D01*
X129312Y97534D01*
X129037Y97387D01*
X128796Y97189D01*
X128598Y96947D01*
X128451Y96672D01*
X128360Y96374D01*
X128329Y96063D01*
X128360Y95752D01*
X128451Y95454D01*
X128598Y95179D01*
X128796Y94937D01*
X129037Y94739D01*
X129312Y94592D01*
X129611Y94502D01*
X129921Y94471D01*
X130232Y94502D01*
X130531Y94592D01*
X130806Y94739D01*
X131047Y94937D01*
X131245Y95179D01*
X131392Y95454D01*
X131483Y95752D01*
X131513Y96063D01*
X131483Y96374D01*
X131392Y96672D01*
X131245Y96947D01*
X131047Y97189D01*
X130806Y97387D01*
X130531Y97534D01*
X130232Y97624D01*
X129921Y97655D01*
D02*
G37*
G36*
X144488D02*
X144178Y97624D01*
X143879Y97534D01*
X143604Y97387D01*
X143362Y97189D01*
X143165Y96947D01*
X143017Y96672D01*
X142927Y96374D01*
X142896Y96063D01*
X142927Y95752D01*
X143017Y95454D01*
X143165Y95179D01*
X143362Y94937D01*
X143365Y94935D01*
X143150Y94374D01*
X142643Y94475D01*
X142126Y94509D01*
X141609Y94475D01*
X141102Y94374D01*
X140611Y94208D01*
X140147Y93979D01*
X139716Y93691D01*
X139327Y93350D01*
X138986Y92961D01*
X138698Y92530D01*
X138469Y92066D01*
X138303Y91576D01*
X138202Y91068D01*
X138168Y90551D01*
X138202Y90035D01*
X138303Y89527D01*
X138469Y89037D01*
X138698Y88572D01*
X138986Y88142D01*
X139327Y87752D01*
X139716Y87411D01*
X140147Y87123D01*
X140611Y86894D01*
X141102Y86728D01*
X141609Y86627D01*
X142126Y86593D01*
X142643Y86627D01*
X143150Y86728D01*
X143641Y86894D01*
X144105Y87123D01*
X144536Y87411D01*
X144925Y87752D01*
X145266Y88142D01*
X145554Y88572D01*
X145783Y89037D01*
X145949Y89527D01*
X146050Y90035D01*
X146084Y90551D01*
X146050Y91068D01*
X145949Y91576D01*
X145783Y92066D01*
X145554Y92530D01*
X145266Y92961D01*
X144925Y93350D01*
X144536Y93691D01*
X144233Y93893D01*
X144442Y94476D01*
X144488Y94471D01*
X144799Y94502D01*
X145097Y94592D01*
X145373Y94739D01*
X145614Y94937D01*
X145812Y95179D01*
X145959Y95454D01*
X146049Y95752D01*
X146080Y96063D01*
X146049Y96374D01*
X145959Y96672D01*
X145812Y96947D01*
X145614Y97189D01*
X145373Y97387D01*
X145097Y97534D01*
X144799Y97624D01*
X144488Y97655D01*
D02*
G37*
G36*
X71260Y97261D02*
X70949Y97231D01*
X70651Y97140D01*
X70375Y96993D01*
X70134Y96795D01*
X69936Y96554D01*
X69789Y96279D01*
X69699Y95980D01*
X69668Y95669D01*
X69699Y95359D01*
X69789Y95060D01*
X69936Y94785D01*
X70134Y94544D01*
X70375Y94346D01*
X70651Y94199D01*
X70949Y94108D01*
X71260Y94077D01*
X71570Y94108D01*
X71869Y94199D01*
X72144Y94346D01*
X72386Y94544D01*
X72584Y94785D01*
X72731Y95060D01*
X72821Y95359D01*
X72852Y95669D01*
X72821Y95980D01*
X72731Y96279D01*
X72584Y96554D01*
X72386Y96795D01*
X72144Y96993D01*
X71869Y97140D01*
X71570Y97231D01*
X71260Y97261D01*
D02*
G37*
G36*
X66142D02*
X65831Y97231D01*
X65532Y97140D01*
X65257Y96993D01*
X65016Y96795D01*
X64818Y96554D01*
X64671Y96279D01*
X64580Y95980D01*
X64550Y95669D01*
X64580Y95359D01*
X64671Y95060D01*
X64818Y94785D01*
X65016Y94544D01*
X65257Y94346D01*
X65532Y94199D01*
X65831Y94108D01*
X66142Y94077D01*
X66452Y94108D01*
X66751Y94199D01*
X67026Y94346D01*
X67267Y94544D01*
X67465Y94785D01*
X67612Y95060D01*
X67703Y95359D01*
X67734Y95669D01*
X67703Y95980D01*
X67612Y96279D01*
X67465Y96554D01*
X67267Y96795D01*
X67026Y96993D01*
X66751Y97140D01*
X66452Y97231D01*
X66142Y97261D01*
D02*
G37*
G36*
X109449Y94899D02*
X109138Y94868D01*
X108840Y94778D01*
X108564Y94631D01*
X108323Y94433D01*
X108125Y94191D01*
X107978Y93916D01*
X107887Y93618D01*
X107857Y93307D01*
X107887Y92997D01*
X107978Y92698D01*
X108125Y92423D01*
X108323Y92181D01*
X108564Y91983D01*
X108840Y91836D01*
X109138Y91746D01*
X109449Y91715D01*
X109759Y91746D01*
X110058Y91836D01*
X110333Y91983D01*
X110574Y92181D01*
X110772Y92423D01*
X110920Y92698D01*
X111010Y92997D01*
X111041Y93307D01*
X111010Y93618D01*
X110920Y93916D01*
X110772Y94191D01*
X110574Y94433D01*
X110333Y94631D01*
X110058Y94778D01*
X109759Y94868D01*
X109449Y94899D01*
D02*
G37*
G36*
X96063Y94387D02*
X95752Y94356D01*
X95454Y94266D01*
X95179Y94118D01*
X94937Y93920D01*
X94739Y93679D01*
X94592Y93404D01*
X94502Y93105D01*
X94471Y92795D01*
X94502Y92484D01*
X94592Y92186D01*
X94739Y91910D01*
X94937Y91669D01*
X95179Y91471D01*
X95454Y91324D01*
X95752Y91234D01*
X96063Y91203D01*
X96373Y91234D01*
X96672Y91324D01*
X96947Y91471D01*
X97189Y91669D01*
X97387Y91910D01*
X97534Y92186D01*
X97624Y92484D01*
X97655Y92795D01*
X97624Y93105D01*
X97534Y93404D01*
X97387Y93679D01*
X97189Y93920D01*
X96947Y94118D01*
X96672Y94266D01*
X96373Y94356D01*
X96063Y94387D01*
D02*
G37*
G36*
X134646Y93718D02*
X134335Y93687D01*
X134037Y93597D01*
X133761Y93450D01*
X133520Y93252D01*
X133322Y93010D01*
X133175Y92735D01*
X133084Y92436D01*
X133054Y92126D01*
X133084Y91815D01*
X133175Y91517D01*
X133322Y91242D01*
X133520Y91000D01*
X133761Y90802D01*
X134037Y90655D01*
X134335Y90565D01*
X134646Y90534D01*
X134956Y90565D01*
X135255Y90655D01*
X135530Y90802D01*
X135771Y91000D01*
X135969Y91242D01*
X136116Y91517D01*
X136207Y91815D01*
X136238Y92126D01*
X136207Y92436D01*
X136116Y92735D01*
X135969Y93010D01*
X135771Y93252D01*
X135530Y93450D01*
X135255Y93597D01*
X134956Y93687D01*
X134646Y93718D01*
D02*
G37*
G36*
X129921D02*
X129611Y93687D01*
X129312Y93597D01*
X129037Y93450D01*
X128796Y93252D01*
X128598Y93010D01*
X128451Y92735D01*
X128360Y92436D01*
X128329Y92126D01*
X128360Y91815D01*
X128451Y91517D01*
X128598Y91242D01*
X128796Y91000D01*
X129037Y90802D01*
X129312Y90655D01*
X129611Y90565D01*
X129921Y90534D01*
X130232Y90565D01*
X130531Y90655D01*
X130806Y90802D01*
X131047Y91000D01*
X131245Y91242D01*
X131392Y91517D01*
X131483Y91815D01*
X131513Y92126D01*
X131483Y92436D01*
X131392Y92735D01*
X131245Y93010D01*
X131047Y93252D01*
X130806Y93450D01*
X130531Y93597D01*
X130232Y93687D01*
X129921Y93718D01*
D02*
G37*
G36*
X71260Y93324D02*
X70949Y93294D01*
X70651Y93203D01*
X70375Y93056D01*
X70134Y92858D01*
X69936Y92617D01*
X69789Y92342D01*
X69699Y92043D01*
X69668Y91732D01*
X69699Y91422D01*
X69789Y91123D01*
X69936Y90848D01*
X70134Y90607D01*
X70375Y90409D01*
X70651Y90262D01*
X70949Y90171D01*
X71260Y90140D01*
X71570Y90171D01*
X71869Y90262D01*
X72144Y90409D01*
X72386Y90607D01*
X72584Y90848D01*
X72731Y91123D01*
X72821Y91422D01*
X72852Y91732D01*
X72821Y92043D01*
X72731Y92342D01*
X72584Y92617D01*
X72386Y92858D01*
X72144Y93056D01*
X71869Y93203D01*
X71570Y93294D01*
X71260Y93324D01*
D02*
G37*
G36*
X66142D02*
X65831Y93294D01*
X65532Y93203D01*
X65257Y93056D01*
X65016Y92858D01*
X64818Y92617D01*
X64671Y92342D01*
X64580Y92043D01*
X64550Y91732D01*
X64580Y91422D01*
X64671Y91123D01*
X64818Y90848D01*
X65016Y90607D01*
X65257Y90409D01*
X65532Y90262D01*
X65831Y90171D01*
X66142Y90140D01*
X66452Y90171D01*
X66751Y90262D01*
X67026Y90409D01*
X67267Y90607D01*
X67465Y90848D01*
X67612Y91123D01*
X67703Y91422D01*
X67734Y91732D01*
X67703Y92043D01*
X67612Y92342D01*
X67465Y92617D01*
X67267Y92858D01*
X67026Y93056D01*
X66751Y93203D01*
X66452Y93294D01*
X66142Y93324D01*
D02*
G37*
G36*
X106299Y85844D02*
X105989Y85813D01*
X105690Y85723D01*
X105415Y85576D01*
X105174Y85378D01*
X104976Y85136D01*
X104829Y84861D01*
X104738Y84562D01*
X104707Y84252D01*
X104738Y83941D01*
X104829Y83643D01*
X104976Y83368D01*
X105174Y83126D01*
X105415Y82928D01*
X105690Y82781D01*
X105989Y82691D01*
X106299Y82660D01*
X106610Y82691D01*
X106908Y82781D01*
X107184Y82928D01*
X107425Y83126D01*
X107623Y83368D01*
X107770Y83643D01*
X107861Y83941D01*
X107891Y84252D01*
X107861Y84562D01*
X107770Y84861D01*
X107623Y85136D01*
X107425Y85378D01*
X107184Y85576D01*
X106908Y85723D01*
X106610Y85813D01*
X106299Y85844D01*
D02*
G37*
G36*
X79527D02*
X79217Y85813D01*
X78918Y85723D01*
X78643Y85576D01*
X78402Y85378D01*
X78204Y85136D01*
X78057Y84861D01*
X77966Y84562D01*
X77936Y84252D01*
X77966Y83941D01*
X78057Y83643D01*
X78204Y83368D01*
X78402Y83126D01*
X78643Y82928D01*
X78918Y82781D01*
X79217Y82691D01*
X79527Y82660D01*
X79838Y82691D01*
X80137Y82781D01*
X80412Y82928D01*
X80653Y83126D01*
X80851Y83368D01*
X80998Y83643D01*
X81089Y83941D01*
X81120Y84252D01*
X81089Y84562D01*
X80998Y84861D01*
X80851Y85136D01*
X80653Y85378D01*
X80412Y85576D01*
X80137Y85723D01*
X79838Y85813D01*
X79527Y85844D01*
D02*
G37*
G36*
X70472Y83482D02*
X70162Y83451D01*
X69863Y83360D01*
X69588Y83213D01*
X69347Y83015D01*
X69149Y82774D01*
X69002Y82499D01*
X68911Y82200D01*
X68880Y81890D01*
X68911Y81579D01*
X69002Y81281D01*
X69149Y81005D01*
X69347Y80764D01*
X69588Y80566D01*
X69863Y80419D01*
X70162Y80328D01*
X70472Y80298D01*
X70783Y80328D01*
X71082Y80419D01*
X71357Y80566D01*
X71598Y80764D01*
X71796Y81005D01*
X71943Y81281D01*
X72034Y81579D01*
X72064Y81890D01*
X72034Y82200D01*
X71943Y82499D01*
X71796Y82774D01*
X71598Y83015D01*
X71357Y83213D01*
X71082Y83360D01*
X70783Y83451D01*
X70472Y83482D01*
D02*
G37*
G36*
X65748D02*
X65438Y83451D01*
X65139Y83360D01*
X64864Y83213D01*
X64622Y83015D01*
X64424Y82774D01*
X64277Y82499D01*
X64187Y82200D01*
X64156Y81890D01*
X64187Y81579D01*
X64277Y81281D01*
X64424Y81005D01*
X64622Y80764D01*
X64864Y80566D01*
X65139Y80419D01*
X65438Y80328D01*
X65748Y80298D01*
X66059Y80328D01*
X66357Y80419D01*
X66632Y80566D01*
X66874Y80764D01*
X67072Y81005D01*
X67219Y81281D01*
X67309Y81579D01*
X67340Y81890D01*
X67309Y82200D01*
X67219Y82499D01*
X67072Y82774D01*
X66874Y83015D01*
X66632Y83213D01*
X66357Y83360D01*
X66059Y83451D01*
X65748Y83482D01*
D02*
G37*
G36*
X61024D02*
X60713Y83451D01*
X60414Y83360D01*
X60139Y83213D01*
X59898Y83015D01*
X59700Y82774D01*
X59553Y82499D01*
X59462Y82200D01*
X59432Y81890D01*
X59462Y81579D01*
X59553Y81281D01*
X59700Y81005D01*
X59898Y80764D01*
X60139Y80566D01*
X60414Y80419D01*
X60713Y80328D01*
X61024Y80298D01*
X61334Y80328D01*
X61633Y80419D01*
X61908Y80566D01*
X62149Y80764D01*
X62347Y81005D01*
X62494Y81281D01*
X62585Y81579D01*
X62616Y81890D01*
X62585Y82200D01*
X62494Y82499D01*
X62347Y82774D01*
X62149Y83015D01*
X61908Y83213D01*
X61633Y83360D01*
X61334Y83451D01*
X61024Y83482D01*
D02*
G37*
G36*
X55905D02*
X55595Y83451D01*
X55296Y83360D01*
X55021Y83213D01*
X54780Y83015D01*
X54582Y82774D01*
X54435Y82499D01*
X54344Y82200D01*
X54314Y81890D01*
X54344Y81579D01*
X54435Y81281D01*
X54582Y81005D01*
X54780Y80764D01*
X55021Y80566D01*
X55296Y80419D01*
X55595Y80328D01*
X55905Y80298D01*
X56216Y80328D01*
X56515Y80419D01*
X56790Y80566D01*
X57031Y80764D01*
X57229Y81005D01*
X57376Y81281D01*
X57467Y81579D01*
X57497Y81890D01*
X57467Y82200D01*
X57376Y82499D01*
X57229Y82774D01*
X57031Y83015D01*
X56790Y83213D01*
X56515Y83360D01*
X56216Y83451D01*
X55905Y83482D01*
D02*
G37*
G36*
X144882Y83482D02*
X144571Y83451D01*
X144273Y83360D01*
X143998Y83213D01*
X143756Y83015D01*
X143558Y82774D01*
X143411Y82499D01*
X143321Y82200D01*
X143290Y81890D01*
X143321Y81579D01*
X143411Y81281D01*
X143558Y81005D01*
X143756Y80764D01*
X143998Y80566D01*
X144273Y80419D01*
X144571Y80328D01*
X144882Y80298D01*
X145192Y80328D01*
X145491Y80419D01*
X145766Y80566D01*
X146008Y80764D01*
X146205Y81005D01*
X146353Y81281D01*
X146443Y81579D01*
X146474Y81890D01*
X146443Y82200D01*
X146353Y82499D01*
X146205Y82774D01*
X146008Y83015D01*
X145766Y83213D01*
X145491Y83360D01*
X145192Y83451D01*
X144882Y83482D01*
D02*
G37*
G36*
X140157D02*
X139847Y83451D01*
X139548Y83360D01*
X139273Y83213D01*
X139032Y83015D01*
X138834Y82774D01*
X138687Y82499D01*
X138596Y82200D01*
X138566Y81890D01*
X138596Y81579D01*
X138687Y81281D01*
X138834Y81005D01*
X139032Y80764D01*
X139273Y80566D01*
X139548Y80419D01*
X139847Y80328D01*
X140157Y80298D01*
X140468Y80328D01*
X140767Y80419D01*
X141042Y80566D01*
X141283Y80764D01*
X141481Y81005D01*
X141628Y81281D01*
X141719Y81579D01*
X141749Y81890D01*
X141719Y82200D01*
X141628Y82499D01*
X141481Y82774D01*
X141283Y83015D01*
X141042Y83213D01*
X140767Y83360D01*
X140468Y83451D01*
X140157Y83482D01*
D02*
G37*
G36*
X135433D02*
X135123Y83451D01*
X134824Y83360D01*
X134549Y83213D01*
X134307Y83015D01*
X134109Y82774D01*
X133962Y82499D01*
X133872Y82200D01*
X133841Y81890D01*
X133872Y81579D01*
X133962Y81281D01*
X134109Y81005D01*
X134307Y80764D01*
X134549Y80566D01*
X134824Y80419D01*
X135123Y80328D01*
X135433Y80298D01*
X135744Y80328D01*
X136042Y80419D01*
X136318Y80566D01*
X136559Y80764D01*
X136757Y81005D01*
X136904Y81281D01*
X136994Y81579D01*
X137025Y81890D01*
X136994Y82200D01*
X136904Y82499D01*
X136757Y82774D01*
X136559Y83015D01*
X136318Y83213D01*
X136042Y83360D01*
X135744Y83451D01*
X135433Y83482D01*
D02*
G37*
G36*
X130315D02*
X130004Y83451D01*
X129706Y83360D01*
X129430Y83213D01*
X129189Y83015D01*
X128991Y82774D01*
X128844Y82499D01*
X128754Y82200D01*
X128723Y81890D01*
X128754Y81579D01*
X128844Y81281D01*
X128991Y81005D01*
X129189Y80764D01*
X129430Y80566D01*
X129706Y80419D01*
X130004Y80328D01*
X130315Y80298D01*
X130625Y80328D01*
X130924Y80419D01*
X131199Y80566D01*
X131441Y80764D01*
X131639Y81005D01*
X131786Y81281D01*
X131876Y81579D01*
X131907Y81890D01*
X131876Y82200D01*
X131786Y82499D01*
X131639Y82774D01*
X131441Y83015D01*
X131199Y83213D01*
X130924Y83360D01*
X130625Y83451D01*
X130315Y83482D01*
D02*
G37*
G36*
X123228Y86631D02*
X122918Y86601D01*
X122619Y86510D01*
X122344Y86363D01*
X122103Y86165D01*
X121905Y85924D01*
X121758Y85649D01*
X121667Y85350D01*
X121636Y85039D01*
X121667Y84729D01*
X121758Y84430D01*
X121905Y84155D01*
X122103Y83914D01*
X122213Y83824D01*
X122275Y83531D01*
Y83398D01*
X122213Y83106D01*
X122103Y83015D01*
X121905Y82774D01*
X121758Y82499D01*
X121667Y82200D01*
X121636Y81890D01*
X121667Y81579D01*
X121758Y81281D01*
X121905Y81005D01*
X122103Y80764D01*
X122344Y80566D01*
X122391Y80541D01*
X122241Y79941D01*
X119491D01*
X119341Y80541D01*
X119388Y80566D01*
X119630Y80764D01*
X119827Y81005D01*
X119975Y81281D01*
X120065Y81579D01*
X120096Y81890D01*
X120065Y82200D01*
X119975Y82499D01*
X119827Y82774D01*
X119630Y83015D01*
X119520Y83106D01*
X119457Y83398D01*
Y83531D01*
X119520Y83824D01*
X119630Y83914D01*
X119827Y84155D01*
X119975Y84430D01*
X120065Y84729D01*
X120096Y85039D01*
X120065Y85350D01*
X119975Y85649D01*
X119827Y85924D01*
X119630Y86165D01*
X119388Y86363D01*
X119113Y86510D01*
X118815Y86601D01*
X118504Y86631D01*
X118193Y86601D01*
X117895Y86510D01*
X117620Y86363D01*
X117378Y86165D01*
X117180Y85924D01*
X117033Y85649D01*
X116943Y85350D01*
X116912Y85039D01*
X116943Y84729D01*
X117033Y84430D01*
X117180Y84155D01*
X117378Y83914D01*
X117488Y83824D01*
X117551Y83531D01*
Y83398D01*
X117488Y83106D01*
X117378Y83015D01*
X117180Y82774D01*
X117033Y82499D01*
X116943Y82200D01*
X116912Y81890D01*
X116943Y81579D01*
X117033Y81281D01*
X117180Y81005D01*
X117378Y80764D01*
X117620Y80566D01*
X117667Y80541D01*
X117517Y79941D01*
X114767D01*
X114617Y80541D01*
X114664Y80566D01*
X114905Y80764D01*
X115103Y81005D01*
X115250Y81281D01*
X115341Y81579D01*
X115371Y81890D01*
X115341Y82200D01*
X115250Y82499D01*
X115103Y82774D01*
X114905Y83015D01*
X114795Y83106D01*
X114732Y83398D01*
Y83531D01*
X114795Y83824D01*
X114905Y83914D01*
X115103Y84155D01*
X115250Y84430D01*
X115341Y84729D01*
X115371Y85039D01*
X115341Y85350D01*
X115250Y85649D01*
X115103Y85924D01*
X114905Y86165D01*
X114664Y86363D01*
X114389Y86510D01*
X114090Y86601D01*
X113779Y86631D01*
X113469Y86601D01*
X113170Y86510D01*
X112895Y86363D01*
X112654Y86165D01*
X112456Y85924D01*
X112309Y85649D01*
X112218Y85350D01*
X112188Y85039D01*
X112218Y84729D01*
X112309Y84430D01*
X112456Y84155D01*
X112654Y83914D01*
X112764Y83824D01*
X112827Y83531D01*
Y83398D01*
X112764Y83106D01*
X112654Y83015D01*
X112456Y82774D01*
X112309Y82499D01*
X112218Y82200D01*
X112188Y81890D01*
X112218Y81579D01*
X112309Y81281D01*
X112456Y81005D01*
X112654Y80764D01*
X112895Y80566D01*
X112943Y80541D01*
X112792Y79941D01*
X97050Y79941D01*
X96900Y80541D01*
X96947Y80566D01*
X97189Y80764D01*
X97387Y81005D01*
X97534Y81281D01*
X97624Y81579D01*
X97655Y81890D01*
X97624Y82200D01*
X97534Y82499D01*
X97387Y82774D01*
X97189Y83015D01*
X97079Y83106D01*
X97016Y83398D01*
Y83531D01*
X97079Y83824D01*
X97189Y83914D01*
X97387Y84155D01*
X97534Y84430D01*
X97624Y84729D01*
X97655Y85039D01*
X97624Y85350D01*
X97534Y85649D01*
X97387Y85924D01*
X97189Y86165D01*
X96947Y86363D01*
X96672Y86510D01*
X96373Y86601D01*
X96063Y86631D01*
X95752Y86601D01*
X95454Y86510D01*
X95179Y86363D01*
X94937Y86165D01*
X94739Y85924D01*
X94592Y85649D01*
X94502Y85350D01*
X94471Y85039D01*
X94502Y84729D01*
X94592Y84430D01*
X94739Y84155D01*
X94937Y83914D01*
X95047Y83824D01*
X95110Y83531D01*
Y83398D01*
X95047Y83106D01*
X94937Y83015D01*
X94739Y82774D01*
X94592Y82499D01*
X94502Y82200D01*
X94471Y81890D01*
X94502Y81579D01*
X94592Y81281D01*
X94739Y81005D01*
X94937Y80764D01*
X95179Y80566D01*
X95226Y80541D01*
X95076Y79941D01*
X92326D01*
X92176Y80541D01*
X92223Y80566D01*
X92464Y80764D01*
X92662Y81005D01*
X92809Y81281D01*
X92900Y81579D01*
X92931Y81890D01*
X92900Y82200D01*
X92809Y82499D01*
X92662Y82774D01*
X92464Y83015D01*
X92354Y83106D01*
X92291Y83398D01*
Y83531D01*
X92354Y83824D01*
X92464Y83914D01*
X92662Y84155D01*
X92809Y84430D01*
X92900Y84729D01*
X92931Y85039D01*
X92900Y85350D01*
X92809Y85649D01*
X92662Y85924D01*
X92464Y86165D01*
X92223Y86363D01*
X91948Y86510D01*
X91649Y86601D01*
X91339Y86631D01*
X91028Y86601D01*
X90729Y86510D01*
X90454Y86363D01*
X90213Y86165D01*
X90015Y85924D01*
X89868Y85649D01*
X89777Y85350D01*
X89747Y85039D01*
X89777Y84729D01*
X89868Y84430D01*
X90015Y84155D01*
X90213Y83914D01*
X90323Y83824D01*
X90386Y83531D01*
Y83398D01*
X90323Y83106D01*
X90213Y83015D01*
X90015Y82774D01*
X89868Y82499D01*
X89777Y82200D01*
X89747Y81890D01*
X89777Y81579D01*
X89868Y81281D01*
X90015Y81005D01*
X90213Y80764D01*
X90454Y80566D01*
X90502Y80541D01*
X90351Y79941D01*
X87601D01*
X87451Y80541D01*
X87499Y80566D01*
X87740Y80764D01*
X87938Y81005D01*
X88085Y81281D01*
X88175Y81579D01*
X88206Y81890D01*
X88175Y82200D01*
X88085Y82499D01*
X87938Y82774D01*
X87740Y83015D01*
X87630Y83106D01*
X87567Y83398D01*
Y83531D01*
X87630Y83824D01*
X87740Y83914D01*
X87938Y84155D01*
X88085Y84430D01*
X88175Y84729D01*
X88206Y85039D01*
X88175Y85350D01*
X88085Y85649D01*
X87938Y85924D01*
X87740Y86165D01*
X87499Y86363D01*
X87223Y86510D01*
X86925Y86601D01*
X86614Y86631D01*
X86304Y86601D01*
X86005Y86510D01*
X85730Y86363D01*
X85488Y86165D01*
X85290Y85924D01*
X85143Y85649D01*
X85053Y85350D01*
X85022Y85039D01*
X85053Y84729D01*
X85143Y84430D01*
X85290Y84155D01*
X85488Y83914D01*
X85598Y83824D01*
X85661Y83531D01*
Y83398D01*
X85598Y83106D01*
X85488Y83015D01*
X85290Y82774D01*
X85143Y82499D01*
X85053Y82200D01*
X85022Y81890D01*
X85053Y81579D01*
X85143Y81281D01*
X85290Y81005D01*
X85488Y80764D01*
X85730Y80566D01*
X85777Y80541D01*
X85627Y79941D01*
X76378D01*
X76169Y79913D01*
X75975Y79833D01*
X75807Y79704D01*
X75679Y79537D01*
X75599Y79343D01*
X75571Y79134D01*
X75571Y57683D01*
X75599Y57474D01*
X75679Y57280D01*
X75807Y57113D01*
X75975Y56984D01*
X76169Y56904D01*
X76378Y56876D01*
X84208D01*
X84208Y29730D01*
X84235Y29522D01*
X84316Y29327D01*
X84444Y29160D01*
X84611Y29032D01*
X84806Y28951D01*
X85015Y28923D01*
X110236Y28923D01*
X110445Y28951D01*
X110640Y29032D01*
X110807Y29160D01*
X110935Y29327D01*
X111016Y29522D01*
X111043Y29730D01*
X111043Y56876D01*
X124803Y56876D01*
X125012Y56904D01*
X125207Y56984D01*
X125374Y57113D01*
X125502Y57280D01*
X125583Y57474D01*
X125701Y57725D01*
X125984Y57854D01*
X131476Y57854D01*
Y29528D01*
X131504Y29319D01*
X131585Y29124D01*
X131713Y28957D01*
X131880Y28829D01*
X132075Y28748D01*
X132283Y28721D01*
X145669D01*
X145878Y28748D01*
X146073Y28829D01*
X146240Y28957D01*
X146368Y29124D01*
X146449Y29319D01*
X146476Y29528D01*
Y58661D01*
X146449Y58870D01*
X146368Y59065D01*
X146240Y59232D01*
X146073Y59360D01*
X145878Y59441D01*
X145669Y59468D01*
X142539D01*
Y62005D01*
X143139Y62155D01*
X143165Y62108D01*
X143362Y61866D01*
X143604Y61668D01*
X143879Y61521D01*
X144178Y61431D01*
X144488Y61400D01*
X144799Y61431D01*
X145097Y61521D01*
X145373Y61668D01*
X145614Y61866D01*
X145812Y62108D01*
X145959Y62383D01*
X146049Y62682D01*
X146080Y62992D01*
X146049Y63303D01*
X145959Y63601D01*
X145812Y63876D01*
X145614Y64118D01*
X145373Y64316D01*
X145097Y64463D01*
X144799Y64553D01*
X144488Y64584D01*
X144178Y64553D01*
X143879Y64463D01*
X143604Y64316D01*
X143362Y64118D01*
X143165Y63876D01*
X143139Y63829D01*
X142539Y63979D01*
Y66929D01*
X142512Y67138D01*
X142431Y67333D01*
X142303Y67500D01*
X142136Y67628D01*
X141941Y67708D01*
X141732Y67736D01*
X126210Y67736D01*
X125723Y68098D01*
X125610Y68253D01*
X125610Y79134D01*
X125583Y79343D01*
X125502Y79537D01*
X125374Y79704D01*
X125207Y79833D01*
X125012Y79913D01*
X124803Y79941D01*
X124216D01*
X124065Y80541D01*
X124113Y80566D01*
X124354Y80764D01*
X124552Y81005D01*
X124699Y81281D01*
X124790Y81579D01*
X124820Y81890D01*
X124790Y82200D01*
X124699Y82499D01*
X124552Y82774D01*
X124354Y83015D01*
X124244Y83106D01*
X124181Y83398D01*
Y83531D01*
X124244Y83824D01*
X124354Y83914D01*
X124552Y84155D01*
X124699Y84430D01*
X124790Y84729D01*
X124820Y85039D01*
X124790Y85350D01*
X124699Y85649D01*
X124552Y85924D01*
X124354Y86165D01*
X124113Y86363D01*
X123837Y86510D01*
X123539Y86601D01*
X123228Y86631D01*
D02*
G37*
G36*
X70472Y79545D02*
X70162Y79514D01*
X69863Y79423D01*
X69588Y79276D01*
X69347Y79078D01*
X69149Y78837D01*
X69002Y78562D01*
X68911Y78263D01*
X68880Y77953D01*
X68911Y77642D01*
X69002Y77344D01*
X69149Y77068D01*
X69347Y76827D01*
X69588Y76629D01*
X69863Y76482D01*
X70162Y76391D01*
X70472Y76361D01*
X70783Y76391D01*
X71082Y76482D01*
X71357Y76629D01*
X71598Y76827D01*
X71796Y77068D01*
X71943Y77344D01*
X72034Y77642D01*
X72064Y77953D01*
X72034Y78263D01*
X71943Y78562D01*
X71796Y78837D01*
X71598Y79078D01*
X71357Y79276D01*
X71082Y79423D01*
X70783Y79514D01*
X70472Y79545D01*
D02*
G37*
G36*
X65748D02*
X65438Y79514D01*
X65139Y79423D01*
X64864Y79276D01*
X64622Y79078D01*
X64424Y78837D01*
X64277Y78562D01*
X64187Y78263D01*
X64156Y77953D01*
X64187Y77642D01*
X64277Y77344D01*
X64424Y77068D01*
X64622Y76827D01*
X64864Y76629D01*
X65139Y76482D01*
X65438Y76391D01*
X65748Y76361D01*
X66059Y76391D01*
X66357Y76482D01*
X66632Y76629D01*
X66874Y76827D01*
X67072Y77068D01*
X67219Y77344D01*
X67309Y77642D01*
X67340Y77953D01*
X67309Y78263D01*
X67219Y78562D01*
X67072Y78837D01*
X66874Y79078D01*
X66632Y79276D01*
X66357Y79423D01*
X66059Y79514D01*
X65748Y79545D01*
D02*
G37*
G36*
X61024D02*
X60713Y79514D01*
X60414Y79423D01*
X60139Y79276D01*
X59898Y79078D01*
X59700Y78837D01*
X59553Y78562D01*
X59462Y78263D01*
X59432Y77953D01*
X59462Y77642D01*
X59553Y77344D01*
X59700Y77068D01*
X59898Y76827D01*
X60139Y76629D01*
X60414Y76482D01*
X60713Y76391D01*
X61024Y76361D01*
X61334Y76391D01*
X61633Y76482D01*
X61908Y76629D01*
X62149Y76827D01*
X62347Y77068D01*
X62494Y77344D01*
X62585Y77642D01*
X62616Y77953D01*
X62585Y78263D01*
X62494Y78562D01*
X62347Y78837D01*
X62149Y79078D01*
X61908Y79276D01*
X61633Y79423D01*
X61334Y79514D01*
X61024Y79545D01*
D02*
G37*
G36*
X55905D02*
X55595Y79514D01*
X55296Y79423D01*
X55021Y79276D01*
X54780Y79078D01*
X54582Y78837D01*
X54435Y78562D01*
X54344Y78263D01*
X54314Y77953D01*
X54344Y77642D01*
X54435Y77344D01*
X54582Y77068D01*
X54780Y76827D01*
X55021Y76629D01*
X55296Y76482D01*
X55595Y76391D01*
X55905Y76361D01*
X56216Y76391D01*
X56515Y76482D01*
X56790Y76629D01*
X57031Y76827D01*
X57229Y77068D01*
X57376Y77344D01*
X57467Y77642D01*
X57497Y77953D01*
X57467Y78263D01*
X57376Y78562D01*
X57229Y78837D01*
X57031Y79078D01*
X56790Y79276D01*
X56515Y79423D01*
X56216Y79514D01*
X55905Y79545D01*
D02*
G37*
G36*
X144882Y79545D02*
X144571Y79514D01*
X144273Y79423D01*
X143998Y79276D01*
X143756Y79078D01*
X143558Y78837D01*
X143411Y78562D01*
X143321Y78263D01*
X143290Y77953D01*
X143321Y77642D01*
X143411Y77344D01*
X143558Y77068D01*
X143756Y76827D01*
X143998Y76629D01*
X144273Y76482D01*
X144571Y76391D01*
X144882Y76361D01*
X145192Y76391D01*
X145491Y76482D01*
X145766Y76629D01*
X146008Y76827D01*
X146205Y77068D01*
X146353Y77344D01*
X146443Y77642D01*
X146474Y77953D01*
X146443Y78263D01*
X146353Y78562D01*
X146205Y78837D01*
X146008Y79078D01*
X145766Y79276D01*
X145491Y79423D01*
X145192Y79514D01*
X144882Y79545D01*
D02*
G37*
G36*
X140157D02*
X139847Y79514D01*
X139548Y79423D01*
X139273Y79276D01*
X139032Y79078D01*
X138834Y78837D01*
X138687Y78562D01*
X138596Y78263D01*
X138566Y77953D01*
X138596Y77642D01*
X138687Y77344D01*
X138834Y77068D01*
X139032Y76827D01*
X139273Y76629D01*
X139548Y76482D01*
X139847Y76391D01*
X140157Y76361D01*
X140468Y76391D01*
X140767Y76482D01*
X141042Y76629D01*
X141283Y76827D01*
X141481Y77068D01*
X141628Y77344D01*
X141719Y77642D01*
X141749Y77953D01*
X141719Y78263D01*
X141628Y78562D01*
X141481Y78837D01*
X141283Y79078D01*
X141042Y79276D01*
X140767Y79423D01*
X140468Y79514D01*
X140157Y79545D01*
D02*
G37*
G36*
X135433D02*
X135123Y79514D01*
X134824Y79423D01*
X134549Y79276D01*
X134307Y79078D01*
X134109Y78837D01*
X133962Y78562D01*
X133872Y78263D01*
X133841Y77953D01*
X133872Y77642D01*
X133962Y77344D01*
X134109Y77068D01*
X134307Y76827D01*
X134549Y76629D01*
X134824Y76482D01*
X135123Y76391D01*
X135433Y76361D01*
X135744Y76391D01*
X136042Y76482D01*
X136318Y76629D01*
X136559Y76827D01*
X136757Y77068D01*
X136904Y77344D01*
X136994Y77642D01*
X137025Y77953D01*
X136994Y78263D01*
X136904Y78562D01*
X136757Y78837D01*
X136559Y79078D01*
X136318Y79276D01*
X136042Y79423D01*
X135744Y79514D01*
X135433Y79545D01*
D02*
G37*
G36*
X130315D02*
X130004Y79514D01*
X129706Y79423D01*
X129430Y79276D01*
X129189Y79078D01*
X128991Y78837D01*
X128844Y78562D01*
X128754Y78263D01*
X128723Y77953D01*
X128754Y77642D01*
X128844Y77344D01*
X128991Y77068D01*
X129189Y76827D01*
X129430Y76629D01*
X129706Y76482D01*
X130004Y76391D01*
X130315Y76361D01*
X130625Y76391D01*
X130924Y76482D01*
X131199Y76629D01*
X131441Y76827D01*
X131639Y77068D01*
X131786Y77344D01*
X131876Y77642D01*
X131907Y77953D01*
X131876Y78263D01*
X131786Y78562D01*
X131639Y78837D01*
X131441Y79078D01*
X131199Y79276D01*
X130924Y79423D01*
X130625Y79514D01*
X130315Y79545D01*
D02*
G37*
G36*
X70472Y75608D02*
X70162Y75577D01*
X69863Y75486D01*
X69588Y75339D01*
X69347Y75141D01*
X69149Y74900D01*
X69002Y74625D01*
X68911Y74326D01*
X68880Y74016D01*
X68911Y73705D01*
X69002Y73407D01*
X69149Y73131D01*
X69347Y72890D01*
X69588Y72692D01*
X69863Y72545D01*
X70162Y72454D01*
X70472Y72424D01*
X70783Y72454D01*
X71082Y72545D01*
X71357Y72692D01*
X71598Y72890D01*
X71796Y73131D01*
X71943Y73407D01*
X72034Y73705D01*
X72064Y74016D01*
X72034Y74326D01*
X71943Y74625D01*
X71796Y74900D01*
X71598Y75141D01*
X71357Y75339D01*
X71082Y75486D01*
X70783Y75577D01*
X70472Y75608D01*
D02*
G37*
G36*
X65748D02*
X65438Y75577D01*
X65139Y75486D01*
X64864Y75339D01*
X64622Y75141D01*
X64424Y74900D01*
X64277Y74625D01*
X64187Y74326D01*
X64156Y74016D01*
X64187Y73705D01*
X64277Y73407D01*
X64424Y73131D01*
X64622Y72890D01*
X64864Y72692D01*
X65139Y72545D01*
X65438Y72454D01*
X65748Y72424D01*
X66059Y72454D01*
X66357Y72545D01*
X66632Y72692D01*
X66874Y72890D01*
X67072Y73131D01*
X67219Y73407D01*
X67309Y73705D01*
X67340Y74016D01*
X67309Y74326D01*
X67219Y74625D01*
X67072Y74900D01*
X66874Y75141D01*
X66632Y75339D01*
X66357Y75486D01*
X66059Y75577D01*
X65748Y75608D01*
D02*
G37*
G36*
X61024D02*
X60713Y75577D01*
X60414Y75486D01*
X60139Y75339D01*
X59898Y75141D01*
X59700Y74900D01*
X59553Y74625D01*
X59462Y74326D01*
X59432Y74016D01*
X59462Y73705D01*
X59553Y73407D01*
X59700Y73131D01*
X59898Y72890D01*
X60139Y72692D01*
X60414Y72545D01*
X60713Y72454D01*
X61024Y72424D01*
X61334Y72454D01*
X61633Y72545D01*
X61908Y72692D01*
X62149Y72890D01*
X62347Y73131D01*
X62494Y73407D01*
X62585Y73705D01*
X62616Y74016D01*
X62585Y74326D01*
X62494Y74625D01*
X62347Y74900D01*
X62149Y75141D01*
X61908Y75339D01*
X61633Y75486D01*
X61334Y75577D01*
X61024Y75608D01*
D02*
G37*
G36*
X55905D02*
X55595Y75577D01*
X55296Y75486D01*
X55021Y75339D01*
X54780Y75141D01*
X54582Y74900D01*
X54435Y74625D01*
X54344Y74326D01*
X54314Y74016D01*
X54344Y73705D01*
X54435Y73407D01*
X54582Y73131D01*
X54780Y72890D01*
X55021Y72692D01*
X55296Y72545D01*
X55595Y72454D01*
X55905Y72424D01*
X56216Y72454D01*
X56515Y72545D01*
X56790Y72692D01*
X57031Y72890D01*
X57229Y73131D01*
X57376Y73407D01*
X57467Y73705D01*
X57497Y74016D01*
X57467Y74326D01*
X57376Y74625D01*
X57229Y74900D01*
X57031Y75141D01*
X56790Y75339D01*
X56515Y75486D01*
X56216Y75577D01*
X55905Y75608D01*
D02*
G37*
G36*
X144882Y75608D02*
X144571Y75577D01*
X144273Y75486D01*
X143998Y75339D01*
X143756Y75141D01*
X143558Y74900D01*
X143411Y74625D01*
X143321Y74326D01*
X143290Y74016D01*
X143321Y73705D01*
X143411Y73406D01*
X143558Y73131D01*
X143756Y72890D01*
X143998Y72692D01*
X144273Y72545D01*
X144571Y72454D01*
X144882Y72424D01*
X145192Y72454D01*
X145491Y72545D01*
X145766Y72692D01*
X146008Y72890D01*
X146205Y73131D01*
X146353Y73406D01*
X146443Y73705D01*
X146474Y74016D01*
X146443Y74326D01*
X146353Y74625D01*
X146205Y74900D01*
X146008Y75141D01*
X145766Y75339D01*
X145491Y75486D01*
X145192Y75577D01*
X144882Y75608D01*
D02*
G37*
G36*
X140157D02*
X139847Y75577D01*
X139548Y75486D01*
X139273Y75339D01*
X139032Y75141D01*
X138834Y74900D01*
X138687Y74625D01*
X138596Y74326D01*
X138566Y74016D01*
X138596Y73705D01*
X138687Y73406D01*
X138834Y73131D01*
X139032Y72890D01*
X139273Y72692D01*
X139548Y72545D01*
X139847Y72454D01*
X140157Y72424D01*
X140468Y72454D01*
X140767Y72545D01*
X141042Y72692D01*
X141283Y72890D01*
X141481Y73131D01*
X141628Y73406D01*
X141719Y73705D01*
X141749Y74016D01*
X141719Y74326D01*
X141628Y74625D01*
X141481Y74900D01*
X141283Y75141D01*
X141042Y75339D01*
X140767Y75486D01*
X140468Y75577D01*
X140157Y75608D01*
D02*
G37*
G36*
X135433D02*
X135123Y75577D01*
X134824Y75486D01*
X134549Y75339D01*
X134307Y75141D01*
X134109Y74900D01*
X133962Y74625D01*
X133872Y74326D01*
X133841Y74016D01*
X133872Y73705D01*
X133962Y73406D01*
X134109Y73131D01*
X134307Y72890D01*
X134549Y72692D01*
X134824Y72545D01*
X135123Y72454D01*
X135433Y72424D01*
X135744Y72454D01*
X136042Y72545D01*
X136318Y72692D01*
X136559Y72890D01*
X136757Y73131D01*
X136904Y73406D01*
X136994Y73705D01*
X137025Y74016D01*
X136994Y74326D01*
X136904Y74625D01*
X136757Y74900D01*
X136559Y75141D01*
X136318Y75339D01*
X136042Y75486D01*
X135744Y75577D01*
X135433Y75608D01*
D02*
G37*
G36*
X130315D02*
X130004Y75577D01*
X129706Y75486D01*
X129430Y75339D01*
X129189Y75141D01*
X128991Y74900D01*
X128844Y74625D01*
X128754Y74326D01*
X128723Y74016D01*
X128754Y73705D01*
X128844Y73406D01*
X128991Y73131D01*
X129189Y72890D01*
X129430Y72692D01*
X129706Y72545D01*
X130004Y72454D01*
X130315Y72424D01*
X130625Y72454D01*
X130924Y72545D01*
X131199Y72692D01*
X131441Y72890D01*
X131639Y73131D01*
X131786Y73406D01*
X131876Y73705D01*
X131907Y74016D01*
X131876Y74326D01*
X131786Y74625D01*
X131639Y74900D01*
X131441Y75141D01*
X131199Y75339D01*
X130924Y75486D01*
X130625Y75577D01*
X130315Y75608D01*
D02*
G37*
G36*
X70472Y71671D02*
X70162Y71640D01*
X69863Y71549D01*
X69588Y71402D01*
X69347Y71204D01*
X69149Y70963D01*
X69002Y70688D01*
X68911Y70389D01*
X68880Y70079D01*
X68911Y69768D01*
X69002Y69469D01*
X69149Y69194D01*
X69347Y68953D01*
X69588Y68755D01*
X69863Y68608D01*
X70162Y68517D01*
X70472Y68487D01*
X70783Y68517D01*
X71082Y68608D01*
X71357Y68755D01*
X71598Y68953D01*
X71796Y69194D01*
X71943Y69469D01*
X72034Y69768D01*
X72064Y70079D01*
X72034Y70389D01*
X71943Y70688D01*
X71796Y70963D01*
X71598Y71204D01*
X71357Y71402D01*
X71082Y71549D01*
X70783Y71640D01*
X70472Y71671D01*
D02*
G37*
G36*
X65748D02*
X65438Y71640D01*
X65139Y71549D01*
X64864Y71402D01*
X64622Y71204D01*
X64424Y70963D01*
X64277Y70688D01*
X64187Y70389D01*
X64156Y70079D01*
X64187Y69768D01*
X64277Y69469D01*
X64424Y69194D01*
X64622Y68953D01*
X64864Y68755D01*
X65139Y68608D01*
X65438Y68517D01*
X65748Y68487D01*
X66059Y68517D01*
X66357Y68608D01*
X66632Y68755D01*
X66874Y68953D01*
X67072Y69194D01*
X67219Y69469D01*
X67309Y69768D01*
X67340Y70079D01*
X67309Y70389D01*
X67219Y70688D01*
X67072Y70963D01*
X66874Y71204D01*
X66632Y71402D01*
X66357Y71549D01*
X66059Y71640D01*
X65748Y71671D01*
D02*
G37*
G36*
X61024D02*
X60713Y71640D01*
X60414Y71549D01*
X60139Y71402D01*
X59898Y71204D01*
X59700Y70963D01*
X59553Y70688D01*
X59462Y70389D01*
X59432Y70079D01*
X59462Y69768D01*
X59553Y69469D01*
X59700Y69194D01*
X59898Y68953D01*
X60139Y68755D01*
X60414Y68608D01*
X60713Y68517D01*
X61024Y68487D01*
X61334Y68517D01*
X61633Y68608D01*
X61908Y68755D01*
X62149Y68953D01*
X62347Y69194D01*
X62494Y69469D01*
X62585Y69768D01*
X62616Y70079D01*
X62585Y70389D01*
X62494Y70688D01*
X62347Y70963D01*
X62149Y71204D01*
X61908Y71402D01*
X61633Y71549D01*
X61334Y71640D01*
X61024Y71671D01*
D02*
G37*
G36*
X55905D02*
X55595Y71640D01*
X55296Y71549D01*
X55021Y71402D01*
X54780Y71204D01*
X54582Y70963D01*
X54435Y70688D01*
X54344Y70389D01*
X54314Y70079D01*
X54344Y69768D01*
X54435Y69469D01*
X54582Y69194D01*
X54780Y68953D01*
X55021Y68755D01*
X55296Y68608D01*
X55595Y68517D01*
X55905Y68487D01*
X56216Y68517D01*
X56515Y68608D01*
X56790Y68755D01*
X57031Y68953D01*
X57229Y69194D01*
X57376Y69469D01*
X57467Y69768D01*
X57497Y70079D01*
X57467Y70389D01*
X57376Y70688D01*
X57229Y70963D01*
X57031Y71204D01*
X56790Y71402D01*
X56515Y71549D01*
X56216Y71640D01*
X55905Y71671D01*
D02*
G37*
G36*
X144882Y71671D02*
X144571Y71640D01*
X144273Y71549D01*
X143998Y71402D01*
X143756Y71204D01*
X143558Y70963D01*
X143411Y70688D01*
X143321Y70389D01*
X143290Y70079D01*
X143321Y69768D01*
X143411Y69469D01*
X143558Y69194D01*
X143756Y68953D01*
X143998Y68755D01*
X144273Y68608D01*
X144571Y68517D01*
X144882Y68487D01*
X145192Y68517D01*
X145491Y68608D01*
X145766Y68755D01*
X146008Y68953D01*
X146205Y69194D01*
X146353Y69469D01*
X146443Y69768D01*
X146474Y70079D01*
X146443Y70389D01*
X146353Y70688D01*
X146205Y70963D01*
X146008Y71204D01*
X145766Y71402D01*
X145491Y71549D01*
X145192Y71640D01*
X144882Y71671D01*
D02*
G37*
G36*
X140157D02*
X139847Y71640D01*
X139548Y71549D01*
X139273Y71402D01*
X139032Y71204D01*
X138834Y70963D01*
X138687Y70688D01*
X138596Y70389D01*
X138566Y70079D01*
X138596Y69768D01*
X138687Y69469D01*
X138834Y69194D01*
X139032Y68953D01*
X139273Y68755D01*
X139548Y68608D01*
X139847Y68517D01*
X140157Y68487D01*
X140468Y68517D01*
X140767Y68608D01*
X141042Y68755D01*
X141283Y68953D01*
X141481Y69194D01*
X141628Y69469D01*
X141719Y69768D01*
X141749Y70079D01*
X141719Y70389D01*
X141628Y70688D01*
X141481Y70963D01*
X141283Y71204D01*
X141042Y71402D01*
X140767Y71549D01*
X140468Y71640D01*
X140157Y71671D01*
D02*
G37*
G36*
X135433D02*
X135123Y71640D01*
X134824Y71549D01*
X134549Y71402D01*
X134307Y71204D01*
X134109Y70963D01*
X133962Y70688D01*
X133872Y70389D01*
X133841Y70079D01*
X133872Y69768D01*
X133962Y69469D01*
X134109Y69194D01*
X134307Y68953D01*
X134549Y68755D01*
X134824Y68608D01*
X135123Y68517D01*
X135433Y68487D01*
X135744Y68517D01*
X136042Y68608D01*
X136318Y68755D01*
X136559Y68953D01*
X136757Y69194D01*
X136904Y69469D01*
X136994Y69768D01*
X137025Y70079D01*
X136994Y70389D01*
X136904Y70688D01*
X136757Y70963D01*
X136559Y71204D01*
X136318Y71402D01*
X136042Y71549D01*
X135744Y71640D01*
X135433Y71671D01*
D02*
G37*
G36*
X130315D02*
X130004Y71640D01*
X129706Y71549D01*
X129430Y71402D01*
X129189Y71204D01*
X128991Y70963D01*
X128844Y70688D01*
X128754Y70389D01*
X128723Y70079D01*
X128754Y69768D01*
X128844Y69469D01*
X128991Y69194D01*
X129189Y68953D01*
X129430Y68755D01*
X129706Y68608D01*
X130004Y68517D01*
X130315Y68487D01*
X130625Y68517D01*
X130924Y68608D01*
X131199Y68755D01*
X131441Y68953D01*
X131639Y69194D01*
X131786Y69469D01*
X131876Y69768D01*
X131907Y70079D01*
X131876Y70389D01*
X131786Y70688D01*
X131639Y70963D01*
X131441Y71204D01*
X131199Y71402D01*
X130924Y71549D01*
X130625Y71640D01*
X130315Y71671D01*
D02*
G37*
G36*
X51575Y67736D02*
X51366Y67708D01*
X51171Y67628D01*
X51004Y67500D01*
X50876Y67333D01*
X50795Y67138D01*
X50768Y66929D01*
X50768Y55479D01*
X50168Y55348D01*
X50041Y55623D01*
X49632Y56352D01*
X49168Y57048D01*
X48650Y57705D01*
X48082Y58319D01*
X47468Y58886D01*
X46812Y59404D01*
X46116Y59869D01*
X45386Y60277D01*
X44627Y60627D01*
X43842Y60917D01*
X43038Y61144D01*
X42217Y61307D01*
X41387Y61405D01*
X40551Y61438D01*
X39715Y61405D01*
X38885Y61307D01*
X38065Y61144D01*
X37260Y60917D01*
X36475Y60627D01*
X35716Y60277D01*
X34986Y59869D01*
X34291Y59404D01*
X33634Y58886D01*
X33020Y58319D01*
X32452Y57705D01*
X31935Y57048D01*
X31470Y56352D01*
X31061Y55623D01*
X30711Y54863D01*
X30422Y54079D01*
X30195Y53274D01*
X30032Y52454D01*
X29933Y51623D01*
X29900Y50787D01*
X29933Y49952D01*
X30032Y49121D01*
X30195Y48301D01*
X30422Y47496D01*
X30711Y46712D01*
X31061Y45952D01*
X31470Y45222D01*
X31935Y44527D01*
X32452Y43870D01*
X33020Y43256D01*
X33634Y42689D01*
X34291Y42171D01*
X34986Y41706D01*
X35716Y41298D01*
X36475Y40947D01*
X37260Y40658D01*
X38065Y40431D01*
X38885Y40268D01*
X39715Y40170D01*
X40551Y40137D01*
X41387Y40170D01*
X42217Y40268D01*
X43038Y40431D01*
X43842Y40658D01*
X44627Y40947D01*
X45386Y41298D01*
X46116Y41706D01*
X46812Y42171D01*
X47468Y42689D01*
X48082Y43256D01*
X48650Y43870D01*
X49168Y44527D01*
X49632Y45222D01*
X50041Y45952D01*
X50168Y46227D01*
X50768Y46096D01*
X50768Y29528D01*
X50795Y29319D01*
X50876Y29124D01*
X51004Y28957D01*
X51171Y28829D01*
X51366Y28748D01*
X51575Y28721D01*
X62992Y28721D01*
X63201Y28748D01*
X63396Y28829D01*
X63563Y28957D01*
X63691Y29124D01*
X63771Y29319D01*
X63799Y29528D01*
Y57854D01*
X67716Y57854D01*
X67925Y57882D01*
X68120Y57963D01*
X68287Y58091D01*
X68415Y58258D01*
X68496Y58453D01*
X68523Y58661D01*
X68523Y62005D01*
X69123Y62155D01*
X69149Y62108D01*
X69347Y61866D01*
X69588Y61668D01*
X69863Y61521D01*
X70162Y61431D01*
X70472Y61400D01*
X70783Y61431D01*
X71082Y61521D01*
X71357Y61668D01*
X71598Y61866D01*
X71796Y62108D01*
X71943Y62383D01*
X72034Y62682D01*
X72064Y62992D01*
X72034Y63303D01*
X71943Y63601D01*
X71796Y63876D01*
X71598Y64118D01*
X71357Y64316D01*
X71082Y64463D01*
X70783Y64553D01*
X70472Y64584D01*
X70162Y64553D01*
X69863Y64463D01*
X69588Y64316D01*
X69347Y64118D01*
X69149Y63876D01*
X69123Y63829D01*
X68523Y63979D01*
X68523Y66929D01*
X68496Y67138D01*
X68415Y67333D01*
X68287Y67500D01*
X68120Y67628D01*
X67925Y67708D01*
X67716Y67736D01*
X51575Y67736D01*
D02*
G37*
G36*
X90945Y15769D02*
X90428Y15735D01*
X89921Y15634D01*
X89430Y15468D01*
X88966Y15239D01*
X88535Y14951D01*
X88146Y14610D01*
X87805Y14220D01*
X87517Y13790D01*
X87288Y13326D01*
X87122Y12835D01*
X87021Y12328D01*
X86987Y11811D01*
X87021Y11294D01*
X87122Y10787D01*
X87288Y10296D01*
X87517Y9832D01*
X87805Y9402D01*
X88146Y9012D01*
X88535Y8671D01*
X88966Y8383D01*
X89430Y8154D01*
X89921Y7988D01*
X90428Y7887D01*
X90945Y7853D01*
X91461Y7887D01*
X91969Y7988D01*
X92460Y8154D01*
X92924Y8383D01*
X93354Y8671D01*
X93744Y9012D01*
X94085Y9402D01*
X94373Y9832D01*
X94602Y10296D01*
X94768Y10787D01*
X94869Y11294D01*
X94903Y11811D01*
X94869Y12328D01*
X94768Y12835D01*
X94602Y13326D01*
X94373Y13790D01*
X94085Y14220D01*
X93744Y14610D01*
X93354Y14951D01*
X92924Y15239D01*
X92460Y15468D01*
X91969Y15634D01*
X91461Y15735D01*
X90945Y15769D01*
D02*
G37*
G36*
X40551Y24430D02*
X39715Y24397D01*
X38885Y24299D01*
X38065Y24136D01*
X37260Y23909D01*
X36475Y23619D01*
X35716Y23269D01*
X34986Y22861D01*
X34291Y22396D01*
X33634Y21878D01*
X33020Y21311D01*
X32452Y20697D01*
X31935Y20040D01*
X31470Y19344D01*
X31061Y18615D01*
X30711Y17855D01*
X30422Y17071D01*
X30195Y16266D01*
X30032Y15446D01*
X29933Y14615D01*
X29900Y13780D01*
X29933Y12944D01*
X30032Y12113D01*
X30195Y11293D01*
X30422Y10488D01*
X30711Y9704D01*
X31061Y8944D01*
X31470Y8214D01*
X31935Y7519D01*
X32452Y6862D01*
X33020Y6248D01*
X33634Y5681D01*
X34291Y5163D01*
X34986Y4698D01*
X35716Y4290D01*
X36475Y3940D01*
X37260Y3650D01*
X38065Y3423D01*
X38885Y3260D01*
X39715Y3162D01*
X40551Y3129D01*
X41387Y3162D01*
X42217Y3260D01*
X43038Y3423D01*
X43842Y3650D01*
X44627Y3940D01*
X45386Y4290D01*
X46116Y4698D01*
X46812Y5163D01*
X47468Y5681D01*
X48082Y6248D01*
X48650Y6862D01*
X49168Y7519D01*
X49632Y8214D01*
X50041Y8944D01*
X50391Y9704D01*
X50681Y10488D01*
X50908Y11293D01*
X51071Y12113D01*
X51169Y12944D01*
X51202Y13780D01*
X51169Y14615D01*
X51071Y15446D01*
X50908Y16266D01*
X50681Y17071D01*
X50391Y17855D01*
X50041Y18615D01*
X49632Y19344D01*
X49168Y20040D01*
X48650Y20697D01*
X48082Y21311D01*
X47468Y21878D01*
X46812Y22396D01*
X46116Y22861D01*
X45386Y23269D01*
X44627Y23619D01*
X43842Y23909D01*
X43038Y24136D01*
X42217Y24299D01*
X41387Y24397D01*
X40551Y24430D01*
D02*
G37*
%LPD*%
G36*
X124803Y57683D02*
X110236Y57683D01*
X110236Y29730D01*
X85015Y29730D01*
X85015Y57683D01*
X76378D01*
X76378Y79134D01*
X124803Y79134D01*
X124803Y57683D01*
D02*
G37*
G36*
X141732Y58661D02*
X145669D01*
Y29528D01*
X132283D01*
Y58661D01*
X125984Y58661D01*
X125984Y66929D01*
X141732Y66929D01*
X141732Y58661D01*
D02*
G37*
G36*
X67716Y66929D02*
X67716Y58661D01*
X62992Y58661D01*
Y29528D01*
X51575Y29528D01*
X51575Y66929D01*
X67716Y66929D01*
D02*
G37*
D37*
X121260Y27165D02*
D03*
X74016Y26772D02*
D03*
X100394Y61024D02*
D03*
X124803Y12598D02*
D03*
D38*
X185039Y156299D02*
D03*
Y184646D02*
D03*
X148031Y156299D02*
D03*
Y184646D02*
D03*
X156693Y12205D02*
D03*
X185039D02*
D03*
X156693Y49213D02*
D03*
X185039D02*
D03*
D39*
X121260Y114961D02*
D03*
X123622Y116929D02*
D03*
X124803Y114173D02*
D03*
X79528Y114567D02*
D03*
X120472Y117717D02*
D03*
X85039D02*
D03*
X105905Y89764D02*
D03*
X100984Y87008D02*
D03*
X47559Y70472D02*
D03*
X129921Y62598D02*
D03*
Y65354D02*
D03*
X138189D02*
D03*
X135433D02*
D03*
X132677D02*
D03*
X138189Y62598D02*
D03*
X135433D02*
D03*
X132677D02*
D03*
X65748Y65748D02*
D03*
Y62992D02*
D03*
Y60236D02*
D03*
X62992Y62992D02*
D03*
Y65748D02*
D03*
X60236Y62992D02*
D03*
X57480D02*
D03*
X54724D02*
D03*
X60236Y65748D02*
D03*
X57480D02*
D03*
X54724D02*
D03*
X127165Y59842D02*
D03*
Y62598D02*
D03*
Y65354D02*
D03*
X73228Y44094D02*
D03*
Y40157D02*
D03*
Y48031D02*
D03*
X76772Y44094D02*
D03*
X135433Y155512D02*
D03*
Y160236D02*
D03*
X131496D02*
D03*
Y155512D02*
D03*
X60630Y167717D02*
D03*
Y162992D02*
D03*
Y158268D02*
D03*
Y172835D02*
D03*
X56693Y167717D02*
D03*
Y162992D02*
D03*
Y158268D02*
D03*
Y172835D02*
D03*
X90551Y172047D02*
D03*
Y157480D02*
D03*
Y162205D02*
D03*
Y166929D02*
D03*
X94488Y172047D02*
D03*
Y157480D02*
D03*
Y162205D02*
D03*
Y166929D02*
D03*
X98425Y172047D02*
D03*
Y157480D02*
D03*
Y162205D02*
D03*
Y166929D02*
D03*
X102362D02*
D03*
Y162205D02*
D03*
Y157480D02*
D03*
Y172047D02*
D03*
X138976Y32283D02*
D03*
Y36220D02*
D03*
Y40157D02*
D03*
Y44094D02*
D03*
Y48031D02*
D03*
Y55905D02*
D03*
Y51968D02*
D03*
X142520Y40157D02*
D03*
Y36220D02*
D03*
Y32283D02*
D03*
Y44094D02*
D03*
Y48031D02*
D03*
Y51968D02*
D03*
Y55905D02*
D03*
X135433Y32677D02*
D03*
Y36614D02*
D03*
Y40551D02*
D03*
Y44488D02*
D03*
Y52362D02*
D03*
Y48425D02*
D03*
X59842Y32283D02*
D03*
Y36220D02*
D03*
Y40157D02*
D03*
Y44094D02*
D03*
Y51968D02*
D03*
Y48031D02*
D03*
X52756Y55905D02*
D03*
Y51968D02*
D03*
Y48031D02*
D03*
Y44094D02*
D03*
Y32283D02*
D03*
Y36220D02*
D03*
Y40157D02*
D03*
X56299Y51968D02*
D03*
Y55905D02*
D03*
Y48031D02*
D03*
Y44094D02*
D03*
Y40157D02*
D03*
Y36220D02*
D03*
Y32283D02*
D03*
X66535Y48031D02*
D03*
Y51968D02*
D03*
Y44094D02*
D03*
Y40157D02*
D03*
Y36220D02*
D03*
Y32283D02*
D03*
X69685Y48031D02*
D03*
Y51968D02*
D03*
Y44094D02*
D03*
Y40157D02*
D03*
Y36220D02*
D03*
Y32283D02*
D03*
X73228Y51968D02*
D03*
Y36220D02*
D03*
Y32283D02*
D03*
X76772Y48031D02*
D03*
Y51968D02*
D03*
Y40157D02*
D03*
Y36220D02*
D03*
Y32283D02*
D03*
X79921Y48031D02*
D03*
Y51968D02*
D03*
Y44094D02*
D03*
Y40157D02*
D03*
Y36220D02*
D03*
Y32283D02*
D03*
X83071Y48031D02*
D03*
Y51968D02*
D03*
Y44094D02*
D03*
Y40157D02*
D03*
Y36220D02*
D03*
Y32283D02*
D03*
Y55905D02*
D03*
X79921D02*
D03*
X76772D02*
D03*
X73228D02*
D03*
X69685D02*
D03*
X129134Y48031D02*
D03*
Y51968D02*
D03*
Y44094D02*
D03*
Y40157D02*
D03*
Y36220D02*
D03*
Y32283D02*
D03*
X125984Y48031D02*
D03*
Y51968D02*
D03*
Y44094D02*
D03*
Y40157D02*
D03*
Y36220D02*
D03*
Y32283D02*
D03*
X122441Y48031D02*
D03*
Y51968D02*
D03*
Y44094D02*
D03*
Y40157D02*
D03*
Y36220D02*
D03*
Y32283D02*
D03*
X118898Y48031D02*
D03*
Y51968D02*
D03*
Y44094D02*
D03*
Y40157D02*
D03*
Y36220D02*
D03*
Y32283D02*
D03*
X115748Y48031D02*
D03*
Y51968D02*
D03*
Y44094D02*
D03*
Y40157D02*
D03*
Y36220D02*
D03*
Y32283D02*
D03*
X112598Y48031D02*
D03*
Y51968D02*
D03*
Y44094D02*
D03*
Y40157D02*
D03*
Y36220D02*
D03*
Y32283D02*
D03*
Y55905D02*
D03*
X115748D02*
D03*
X118898D02*
D03*
X122441D02*
D03*
X125984D02*
D03*
X100787Y56299D02*
D03*
Y32677D02*
D03*
Y36614D02*
D03*
Y40551D02*
D03*
Y44488D02*
D03*
Y52362D02*
D03*
Y48425D02*
D03*
X104331Y56299D02*
D03*
Y32677D02*
D03*
Y36614D02*
D03*
Y40551D02*
D03*
Y44488D02*
D03*
Y52362D02*
D03*
Y48425D02*
D03*
X107874Y56299D02*
D03*
Y32677D02*
D03*
Y36614D02*
D03*
Y40551D02*
D03*
Y44488D02*
D03*
Y52362D02*
D03*
Y48425D02*
D03*
X94488D02*
D03*
Y52362D02*
D03*
Y44488D02*
D03*
Y40551D02*
D03*
Y36614D02*
D03*
Y32677D02*
D03*
Y56299D02*
D03*
X90945Y48425D02*
D03*
Y52362D02*
D03*
Y44488D02*
D03*
Y40551D02*
D03*
Y36614D02*
D03*
Y32677D02*
D03*
Y56299D02*
D03*
X87402Y48425D02*
D03*
Y52362D02*
D03*
Y44488D02*
D03*
Y40551D02*
D03*
Y36614D02*
D03*
Y32677D02*
D03*
Y56299D02*
D03*
X82284Y117717D02*
D03*
Y114567D02*
D03*
X88583Y116142D02*
D03*
X116929D02*
D03*
X104331Y120866D02*
D03*
X101181D02*
D03*
X107480D02*
D03*
X98032D02*
D03*
X104331Y117717D02*
D03*
X101181D02*
D03*
X107480D02*
D03*
X98032D02*
D03*
Y114567D02*
D03*
X107480D02*
D03*
X101181D02*
D03*
X104331D02*
D03*
Y124016D02*
D03*
X101181D02*
D03*
X107480D02*
D03*
X98032D02*
D03*
X59842Y56299D02*
D03*
X66142D02*
D03*
X135433Y55905D02*
D03*
X129134D02*
D03*
X79527Y77559D02*
D03*
X94095D02*
D03*
X89370D02*
D03*
X84646D02*
D03*
Y73622D02*
D03*
X89370D02*
D03*
X94095D02*
D03*
X79527D02*
D03*
X84646Y69685D02*
D03*
X89370D02*
D03*
X94095D02*
D03*
X79527D02*
D03*
X84646Y65748D02*
D03*
X89370D02*
D03*
X94095D02*
D03*
X79527D02*
D03*
X106299Y77559D02*
D03*
X120866D02*
D03*
X116142D02*
D03*
X111417D02*
D03*
Y73622D02*
D03*
X116142D02*
D03*
X120866D02*
D03*
X106299D02*
D03*
X111417Y69685D02*
D03*
X116142D02*
D03*
X120866D02*
D03*
X106299D02*
D03*
X111417Y65748D02*
D03*
X116142D02*
D03*
X120866D02*
D03*
X106299D02*
D03*
M02*
