G04*
G04 #@! TF.GenerationSoftware,Altium Limited,Altium Designer,19.0.6 (157)*
G04*
G04 Layer_Color=10275833*
%FSLAX25Y25*%
%MOIN*%
G70*
G01*
G75*
%ADD10C,0.00600*%
%ADD11C,0.02000*%
%ADD12C,0.00800*%
%ADD13C,0.02600*%
%ADD14R,0.03150X0.03937*%
D10*
X126772Y121378D02*
G03*
X126772Y116378I0J-2500D01*
G01*
D02*
G03*
X126772Y111378I0J-2500D01*
G01*
Y126378D02*
G03*
X126772Y121378I0J-2500D01*
G01*
X75590Y116417D02*
G03*
X75590Y121417I0J2500D01*
G01*
D02*
G03*
X75590Y126417I0J2500D01*
G01*
Y111417D02*
G03*
X75590Y116417I0J2500D01*
G01*
X44094Y79921D02*
X44882D01*
X44094Y77559D02*
X44882D01*
X44094D02*
Y79921D01*
X44488Y77559D02*
Y79921D01*
X44882Y77559D02*
Y79921D01*
X43701Y74803D02*
X45276D01*
X43701Y71653D02*
X45276D01*
X155512Y79921D02*
X156299D01*
X155512Y82284D02*
X156299D01*
Y79921D02*
Y82284D01*
X155905Y79921D02*
Y82284D01*
X155512Y79921D02*
Y82284D01*
Y74016D02*
X157087D01*
X155512Y77165D02*
X157087D01*
X64961Y152362D02*
Y163386D01*
X64567Y152362D02*
Y163386D01*
X65354Y152362D02*
Y163386D01*
X65748Y152362D02*
Y163386D01*
X66142Y152362D02*
Y163386D01*
X66606Y152362D02*
Y163386D01*
X64567D02*
X66606D01*
X64567Y152362D02*
X66606D01*
X62992D02*
Y163386D01*
X62598Y152362D02*
Y163386D01*
Y152362D02*
X62992D01*
X62598Y163386D02*
X62992D01*
X107480Y165748D02*
Y176772D01*
X107087Y165748D02*
Y176772D01*
X107874Y165748D02*
Y176772D01*
X108268Y165748D02*
Y176772D01*
X108661Y165748D02*
Y176772D01*
X109125Y165748D02*
Y176772D01*
X107087D02*
X109125D01*
X107087Y165748D02*
X109125D01*
X105512D02*
Y176772D01*
X105118Y165748D02*
Y176772D01*
Y165748D02*
X105512D01*
X105118Y176772D02*
X105512D01*
X85039Y165748D02*
Y176772D01*
X85433Y165748D02*
Y176772D01*
X84646Y165748D02*
Y176772D01*
X84252Y165748D02*
Y176772D01*
X83858Y165748D02*
Y176772D01*
X83394Y165748D02*
Y176772D01*
Y165748D02*
X85433D01*
X83394Y176772D02*
X85433D01*
X87008Y165748D02*
Y176772D01*
X87401Y165748D02*
Y176772D01*
X87008D02*
X87401D01*
X87008Y165748D02*
X87401D01*
X85039Y152362D02*
Y163386D01*
X85433Y152362D02*
Y163386D01*
X84646Y152362D02*
Y163386D01*
X84252Y152362D02*
Y163386D01*
X83858Y152362D02*
Y163386D01*
X83394Y152362D02*
Y163386D01*
Y152362D02*
X85433D01*
X83394Y163386D02*
X85433D01*
X87008Y152362D02*
Y163386D01*
X87402Y152362D02*
Y163386D01*
X87008D02*
X87402D01*
X87008Y152362D02*
X87402D01*
X107480D02*
Y163386D01*
X107087Y152362D02*
Y163386D01*
X107874Y152362D02*
Y163386D01*
X108268Y152362D02*
Y163386D01*
X108661Y152362D02*
Y163386D01*
X109125Y152362D02*
Y163386D01*
X107087D02*
X109125D01*
X107087Y152362D02*
X109125D01*
X105512D02*
Y163386D01*
X105118Y152362D02*
Y163386D01*
Y152362D02*
X105512D01*
X105118Y163386D02*
X105512D01*
X127165Y152362D02*
Y163386D01*
X127559Y152362D02*
Y163386D01*
X126772Y152362D02*
Y163386D01*
X126378Y152362D02*
Y163386D01*
X125984Y152362D02*
Y163386D01*
X125521Y152362D02*
Y163386D01*
Y152362D02*
X127559D01*
X125521Y163386D02*
X127559D01*
X129134Y152362D02*
Y163386D01*
X129527Y152362D02*
Y163386D01*
X129134D02*
X129527D01*
X129134Y152362D02*
X129527D01*
X101575Y92913D02*
Y144882D01*
X116142D01*
X101575Y92913D02*
X116142D01*
X137402Y144882D02*
X151969D01*
X137402Y92913D02*
X151969D01*
X126772Y107441D02*
Y111378D01*
Y126378D02*
Y130315D01*
X151969Y92913D02*
Y144882D01*
X100787Y92913D02*
Y144882D01*
X86221Y92913D02*
X100787D01*
X86221Y144882D02*
X100787D01*
X50394Y92913D02*
X64961D01*
X50394Y144882D02*
X64961D01*
X75590Y126417D02*
Y130354D01*
Y107480D02*
Y111417D01*
X50394Y92913D02*
Y144882D01*
X50157Y81496D02*
Y83229D01*
Y82363D01*
X52756D01*
Y85395D02*
X50157D01*
X51456Y84095D01*
Y85828D01*
X98188Y78740D02*
Y80473D01*
Y79607D01*
X100787D01*
X98621Y81339D02*
X98188Y81773D01*
Y82639D01*
X98621Y83072D01*
X99055D01*
X99488Y82639D01*
Y82206D01*
Y82639D01*
X99921Y83072D01*
X100354D01*
X100787Y82639D01*
Y81773D01*
X100354Y81339D01*
X124566Y79528D02*
Y81260D01*
Y80394D01*
X127165D01*
Y82127D02*
Y82993D01*
Y82560D01*
X124566D01*
X124999Y82127D01*
X148582Y63386D02*
Y65119D01*
Y64252D01*
X151181D01*
Y67718D02*
Y65985D01*
X149448Y67718D01*
X149015D01*
X148582Y67285D01*
Y66418D01*
X149015Y65985D01*
X162992Y74016D02*
Y76615D01*
X164292D01*
X164725Y76182D01*
Y75315D01*
X164292Y74882D01*
X162992D01*
X163858D02*
X164725Y74016D01*
X165591D02*
X166458D01*
X166024D01*
Y76615D01*
X165591Y76182D01*
X167757D02*
X168191Y76615D01*
X169057D01*
X169490Y76182D01*
Y75748D01*
X169057Y75315D01*
X168624D01*
X169057D01*
X169490Y74882D01*
Y74449D01*
X169057Y74016D01*
X168191D01*
X167757Y74449D01*
X32283Y72047D02*
Y74646D01*
X33583D01*
X34016Y74213D01*
Y73347D01*
X33583Y72914D01*
X32283D01*
X33150D02*
X34016Y72047D01*
X34883D02*
X35749D01*
X35316D01*
Y74646D01*
X34883Y74213D01*
X38781Y72047D02*
X37049D01*
X38781Y73780D01*
Y74213D01*
X38348Y74646D01*
X37482D01*
X37049Y74213D01*
X165119Y81300D02*
X164685Y81733D01*
X163819D01*
X163386Y81300D01*
Y79567D01*
X163819Y79134D01*
X164685D01*
X165119Y79567D01*
X167718Y79134D02*
X165985D01*
X167718Y80867D01*
Y81300D01*
X167285Y81733D01*
X166418D01*
X165985Y81300D01*
X170317Y81733D02*
X169450Y81300D01*
X168584Y80433D01*
Y79567D01*
X169017Y79134D01*
X169884D01*
X170317Y79567D01*
Y80000D01*
X169884Y80433D01*
X168584D01*
X33229Y79725D02*
X32796Y80158D01*
X31929D01*
X31496Y79725D01*
Y77992D01*
X31929Y77559D01*
X32796D01*
X33229Y77992D01*
X35828Y77559D02*
X34095D01*
X35828Y79292D01*
Y79725D01*
X35395Y80158D01*
X34528D01*
X34095Y79725D01*
X38427Y80158D02*
X36694D01*
Y78859D01*
X37561Y79292D01*
X37994D01*
X38427Y78859D01*
Y77992D01*
X37994Y77559D01*
X37128D01*
X36694Y77992D01*
X184646Y141339D02*
Y143938D01*
X185945D01*
X186378Y143505D01*
Y142638D01*
X185945Y142205D01*
X184646D01*
X188544Y141339D02*
Y143938D01*
X187245Y142638D01*
X188978D01*
X50787Y189764D02*
Y192363D01*
X52087D01*
X52520Y191930D01*
Y191063D01*
X52087Y190630D01*
X50787D01*
X53387Y191930D02*
X53820Y192363D01*
X54686D01*
X55119Y191930D01*
Y191497D01*
X54686Y191063D01*
X54253D01*
X54686D01*
X55119Y190630D01*
Y190197D01*
X54686Y189764D01*
X53820D01*
X53387Y190197D01*
X182677Y62205D02*
Y64804D01*
X183977D01*
X184410Y64371D01*
Y63504D01*
X183977Y63071D01*
X182677D01*
X187009Y62205D02*
X185276D01*
X187009Y63937D01*
Y64371D01*
X186576Y64804D01*
X185710D01*
X185276Y64371D01*
X2901Y63367D02*
Y65966D01*
X4200D01*
X4634Y65533D01*
Y64666D01*
X4200Y64233D01*
X2901D01*
X5500Y63367D02*
X6366D01*
X5933D01*
Y65966D01*
X5500Y65533D01*
X46220Y93307D02*
X48819D01*
Y95040D01*
Y95906D02*
Y96773D01*
Y96339D01*
X46220D01*
X46653Y95906D01*
X102127Y23032D02*
X101693Y23465D01*
X100827D01*
X100394Y23032D01*
Y21299D01*
X100827Y20866D01*
X101693D01*
X102127Y21299D01*
X104726Y20866D02*
X102993D01*
X104726Y22599D01*
Y23032D01*
X104292Y23465D01*
X103426D01*
X102993Y23032D01*
X107325Y20866D02*
X105592D01*
X107325Y22599D01*
Y23032D01*
X106892Y23465D01*
X106025D01*
X105592Y23032D01*
X102127Y28150D02*
X101693Y28583D01*
X100827D01*
X100394Y28150D01*
Y26417D01*
X100827Y25984D01*
X101693D01*
X102127Y26417D01*
X104726Y25984D02*
X102993D01*
X104726Y27717D01*
Y28150D01*
X104292Y28583D01*
X103426D01*
X102993Y28150D01*
X105592Y25984D02*
X106458D01*
X106025D01*
Y28583D01*
X105592Y28150D01*
X90315Y23032D02*
X89882Y23465D01*
X89016D01*
X88583Y23032D01*
Y21299D01*
X89016Y20866D01*
X89882D01*
X90315Y21299D01*
X92915Y20866D02*
X91182D01*
X92915Y22599D01*
Y23032D01*
X92481Y23465D01*
X91615D01*
X91182Y23032D01*
X93781D02*
X94214Y23465D01*
X95081D01*
X95514Y23032D01*
Y21299D01*
X95081Y20866D01*
X94214D01*
X93781Y21299D01*
Y23032D01*
X90315Y28544D02*
X89882Y28977D01*
X89016D01*
X88583Y28544D01*
Y26811D01*
X89016Y26378D01*
X89882D01*
X90315Y26811D01*
X91182Y26378D02*
X92048D01*
X91615D01*
Y28977D01*
X91182Y28544D01*
X93348Y26811D02*
X93781Y26378D01*
X94647D01*
X95081Y26811D01*
Y28544D01*
X94647Y28977D01*
X93781D01*
X93348Y28544D01*
Y28111D01*
X93781Y27678D01*
X95081D01*
X100158Y180512D02*
X99725Y180946D01*
X98858D01*
X98425Y180512D01*
Y178780D01*
X98858Y178347D01*
X99725D01*
X100158Y178780D01*
X101024Y178347D02*
X101891D01*
X101458D01*
Y180946D01*
X101024Y180512D01*
X103190D02*
X103623Y180946D01*
X104490D01*
X104923Y180512D01*
Y180079D01*
X104490Y179646D01*
X104923Y179213D01*
Y178780D01*
X104490Y178347D01*
X103623D01*
X103190Y178780D01*
Y179213D01*
X103623Y179646D01*
X103190Y180079D01*
Y180512D01*
X103623Y179646D02*
X104490D01*
X91497Y180512D02*
X91063Y180946D01*
X90197D01*
X89764Y180512D01*
Y178780D01*
X90197Y178347D01*
X91063D01*
X91497Y178780D01*
X92363Y178347D02*
X93229D01*
X92796D01*
Y180946D01*
X92363Y180512D01*
X94529Y180946D02*
X96262D01*
Y180512D01*
X94529Y178780D01*
Y178347D01*
X132835Y166733D02*
X132402Y167166D01*
X131535D01*
X131102Y166733D01*
Y165000D01*
X131535Y164567D01*
X132402D01*
X132835Y165000D01*
X133702Y164567D02*
X134568D01*
X134135D01*
Y167166D01*
X133702Y166733D01*
X137600Y167166D02*
X136734Y166733D01*
X135868Y165866D01*
Y165000D01*
X136301Y164567D01*
X137167D01*
X137600Y165000D01*
Y165433D01*
X137167Y165866D01*
X135868D01*
X100158Y150198D02*
X99725Y150631D01*
X98858D01*
X98425Y150198D01*
Y148465D01*
X98858Y148031D01*
X99725D01*
X100158Y148465D01*
X101024Y148031D02*
X101891D01*
X101458D01*
Y150631D01*
X101024Y150198D01*
X104923Y150631D02*
X103190D01*
Y149331D01*
X104057Y149764D01*
X104490D01*
X104923Y149331D01*
Y148465D01*
X104490Y148031D01*
X103623D01*
X103190Y148465D01*
X91497Y150591D02*
X91063Y151024D01*
X90197D01*
X89764Y150591D01*
Y148858D01*
X90197Y148425D01*
X91063D01*
X91497Y148858D01*
X92363Y148425D02*
X93229D01*
X92796D01*
Y151024D01*
X92363Y150591D01*
X95828Y148425D02*
Y151024D01*
X94529Y149725D01*
X96262D01*
X54489Y150985D02*
X54056Y151418D01*
X53189D01*
X52756Y150985D01*
Y149252D01*
X53189Y148819D01*
X54056D01*
X54489Y149252D01*
X55355Y148819D02*
X56221D01*
X55788D01*
Y151418D01*
X55355Y150985D01*
X57521D02*
X57954Y151418D01*
X58821D01*
X59254Y150985D01*
Y150552D01*
X58821Y150119D01*
X58387D01*
X58821D01*
X59254Y149685D01*
Y149252D01*
X58821Y148819D01*
X57954D01*
X57521Y149252D01*
X53543Y26772D02*
Y29371D01*
X54843D01*
X55276Y28938D01*
Y28071D01*
X54843Y27638D01*
X53543D01*
X54410D02*
X55276Y26772D01*
X56142Y28938D02*
X56576Y29371D01*
X57442D01*
X57875Y28938D01*
Y28504D01*
X57442Y28071D01*
X57875Y27638D01*
Y27205D01*
X57442Y26772D01*
X56576D01*
X56142Y27205D01*
Y27638D01*
X56576Y28071D01*
X56142Y28504D01*
Y28938D01*
X56576Y28071D02*
X57442D01*
X138189Y26378D02*
Y28977D01*
X139489D01*
X139922Y28544D01*
Y27678D01*
X139489Y27244D01*
X138189D01*
X139055D02*
X139922Y26378D01*
X140788Y28544D02*
X141221Y28977D01*
X142088D01*
X142521Y28544D01*
Y28111D01*
X142088Y27678D01*
X141655D01*
X142088D01*
X142521Y27244D01*
Y26811D01*
X142088Y26378D01*
X141221D01*
X140788Y26811D01*
X153700Y92913D02*
X156299D01*
Y94646D01*
Y97245D02*
Y95512D01*
X154566Y97245D01*
X154133D01*
X153700Y96812D01*
Y95946D01*
X154133Y95512D01*
D11*
X23228Y148031D02*
X27953D01*
X11417Y160236D02*
Y172047D01*
X39764Y161024D02*
Y172835D01*
X23228Y185039D02*
X27953D01*
X185039Y168110D02*
Y172835D01*
X161024Y156299D02*
X172835D01*
X160236Y184646D02*
X172047D01*
X148031Y168110D02*
Y172835D01*
X168504Y12205D02*
X173228D01*
X156693Y24409D02*
Y36220D01*
X185039Y25197D02*
Y37008D01*
X168504Y49213D02*
X173228D01*
X24016Y50787D02*
X28740D01*
X40551Y26772D02*
Y38583D01*
X12205Y25984D02*
Y37795D01*
X24016Y13780D02*
X28740D01*
D12*
X108661Y56693D02*
X111811D01*
X108661Y45669D02*
X111811D01*
Y56693D01*
X108661Y45669D02*
Y56693D01*
Y42126D02*
X111811D01*
X108661Y31102D02*
X111811D01*
Y42126D01*
X108661Y31102D02*
Y42126D01*
X83858Y31102D02*
X87008D01*
X83858Y42126D02*
X87008D01*
X83858Y31102D02*
Y42126D01*
X87008Y31102D02*
Y42126D01*
X83858Y46063D02*
X87008D01*
X83858Y57087D02*
X87008D01*
X83858Y46063D02*
Y57087D01*
X87008Y46063D02*
Y57087D01*
D13*
X98663Y86065D02*
Y86131D01*
X98730D01*
Y86065D01*
X98663D01*
X125746Y61180D02*
Y61113D01*
X125680D01*
Y61180D01*
X125746D01*
X51337Y61573D02*
Y61507D01*
X51270D01*
Y61573D01*
X51337D01*
X125435Y86065D02*
Y86131D01*
X125501D01*
Y86065D01*
X125435D01*
D14*
X110236Y47638D02*
D03*
Y54724D02*
D03*
X110236Y33071D02*
D03*
X110236Y40157D02*
D03*
X85433D02*
D03*
Y33071D02*
D03*
Y55118D02*
D03*
Y48031D02*
D03*
M02*
