G04*
G04 #@! TF.GenerationSoftware,Altium Limited,Altium Designer,19.0.6 (157)*
G04*
G04 Layer_Color=128*
%FSLAX25Y25*%
%MOIN*%
G70*
G01*
G75*
%ADD58C,0.00200*%
D58*
X118898Y27165D02*
X123622D01*
X121260Y24803D02*
Y29528D01*
X71653Y26772D02*
X76378D01*
X74016Y24409D02*
Y29134D01*
X139764Y90551D02*
X144488D01*
X142126Y88189D02*
Y92913D01*
X57087Y90551D02*
X61811D01*
X59449Y88189D02*
Y92913D01*
X98032Y61024D02*
X102756D01*
X100394Y58661D02*
Y63386D01*
X122441Y12598D02*
X127165D01*
X124803Y10236D02*
Y14961D01*
X88583Y11811D02*
X93307D01*
X90945Y9449D02*
Y14173D01*
X5413Y148031D02*
X17421D01*
X11417Y142028D02*
Y154035D01*
X33760Y148031D02*
X45768D01*
X39764Y142028D02*
Y154035D01*
X5413Y185039D02*
X17421D01*
X11417Y179035D02*
Y191043D01*
X33760Y185039D02*
X45768D01*
X39764Y179035D02*
Y191043D01*
X179035Y156299D02*
X191043D01*
X185039Y150295D02*
Y162303D01*
X179035Y184646D02*
X191043D01*
X185039Y178642D02*
Y190650D01*
X142027Y156299D02*
X154035D01*
X148031Y150295D02*
Y162303D01*
X142027Y184646D02*
X154035D01*
X148031Y178642D02*
Y190650D01*
X150689Y12205D02*
X162697D01*
X156693Y6201D02*
Y18209D01*
X179035Y12205D02*
X191043D01*
X185039Y6201D02*
Y18209D01*
X150689Y49213D02*
X162697D01*
X156693Y43209D02*
Y55216D01*
X179035Y49213D02*
X191043D01*
X185039Y43209D02*
Y55216D01*
X34547Y50787D02*
X46555D01*
X40551Y44783D02*
Y56791D01*
X6201Y50787D02*
X18209D01*
X12205Y44783D02*
Y56791D01*
X34547Y13780D02*
X46555D01*
X40551Y7776D02*
Y19783D01*
X6201Y13780D02*
X18209D01*
X12205Y7776D02*
Y19783D01*
X120669Y114961D02*
X121850D01*
X121260Y114370D02*
Y115551D01*
X123031Y116929D02*
X124213D01*
X123622Y116339D02*
Y117520D01*
X124213Y114173D02*
X125394D01*
X124803Y113583D02*
Y114764D01*
X78937Y114567D02*
X80118D01*
X79528Y113976D02*
Y115157D01*
X113976Y110039D02*
X115157D01*
X114567Y109449D02*
Y110630D01*
X119882Y117717D02*
X121063D01*
X120472Y117126D02*
Y118307D01*
X84449Y117717D02*
X85630D01*
X85039Y117126D02*
Y118307D01*
X105315Y89764D02*
X106496D01*
X105905Y89173D02*
Y90354D01*
X121457Y142913D02*
X122638D01*
X122047Y142323D02*
Y143504D01*
X125000Y140945D02*
X126181D01*
X125591Y140354D02*
Y141535D01*
X125000Y136614D02*
X126181D01*
X125591Y136024D02*
Y137205D01*
X128543Y134646D02*
X129724D01*
X129134Y134055D02*
Y135236D01*
X133661Y134646D02*
X134843D01*
X134252Y134055D02*
Y135236D01*
X70669Y146063D02*
X71850D01*
X71260Y145473D02*
Y146653D01*
X56102Y146063D02*
X57284D01*
X56693Y145473D02*
Y146653D01*
X60827Y146063D02*
X62008D01*
X61417Y145473D02*
Y146653D01*
X65551Y146063D02*
X66732D01*
X66142Y145473D02*
Y146653D01*
X70669Y142126D02*
X71850D01*
X71260Y141535D02*
Y142717D01*
X56102Y142126D02*
X57284D01*
X56693Y141535D02*
Y142717D01*
X60827Y142126D02*
X62008D01*
X61417Y141535D02*
Y142717D01*
X65551Y142126D02*
X66732D01*
X66142Y141535D02*
Y142717D01*
X70669Y138189D02*
X71850D01*
X71260Y137598D02*
Y138779D01*
X56102Y138189D02*
X57284D01*
X56693Y137598D02*
Y138779D01*
X60827Y138189D02*
X62008D01*
X61417Y137598D02*
Y138779D01*
X65551Y138189D02*
X66732D01*
X66142Y137598D02*
Y138779D01*
X65551Y134252D02*
X66732D01*
X66142Y133661D02*
Y134843D01*
X60827Y134252D02*
X62008D01*
X61417Y133661D02*
Y134843D01*
X56102Y134252D02*
X57284D01*
X56693Y133661D02*
Y134843D01*
X70669Y134252D02*
X71850D01*
X71260Y133661D02*
Y134843D01*
X100394Y87008D02*
X101575D01*
X100984Y86417D02*
Y87598D01*
X46968Y70472D02*
X48150D01*
X47559Y69882D02*
Y71063D01*
X129331Y62598D02*
X130512D01*
X129921Y62008D02*
Y63189D01*
X129331Y65354D02*
X130512D01*
X129921Y64764D02*
Y65945D01*
X137598Y65354D02*
X138779D01*
X138189Y64764D02*
Y65945D01*
X134843Y65354D02*
X136024D01*
X135433Y64764D02*
Y65945D01*
X132087Y65354D02*
X133268D01*
X132677Y64764D02*
Y65945D01*
X137598Y62598D02*
X138779D01*
X138189Y62008D02*
Y63189D01*
X134843Y62598D02*
X136024D01*
X135433Y62008D02*
Y63189D01*
X132087Y62598D02*
X133268D01*
X132677Y62008D02*
Y63189D01*
X65158Y65748D02*
X66339D01*
X65748Y65158D02*
Y66339D01*
X65158Y62992D02*
X66339D01*
X65748Y62402D02*
Y63583D01*
X65158Y60236D02*
X66339D01*
X65748Y59646D02*
Y60827D01*
X62402Y62992D02*
X63583D01*
X62992Y62402D02*
Y63583D01*
X62402Y65748D02*
X63583D01*
X62992Y65158D02*
Y66339D01*
X59646Y62992D02*
X60827D01*
X60236Y62402D02*
Y63583D01*
X56890Y62992D02*
X58071D01*
X57480Y62402D02*
Y63583D01*
X54134Y62992D02*
X55315D01*
X54724Y62402D02*
Y63583D01*
X59646Y65748D02*
X60827D01*
X60236Y65158D02*
Y66339D01*
X56890Y65748D02*
X58071D01*
X57480Y65158D02*
Y66339D01*
X54134Y65748D02*
X55315D01*
X54724Y65158D02*
Y66339D01*
X126575Y59842D02*
X127756D01*
X127165Y59252D02*
Y60433D01*
X126575Y62598D02*
X127756D01*
X127165Y62008D02*
Y63189D01*
X126575Y65354D02*
X127756D01*
X127165Y64764D02*
Y65945D01*
X72638Y44094D02*
X73819D01*
X73228Y43504D02*
Y44685D01*
X72638Y40157D02*
X73819D01*
X73228Y39567D02*
Y40748D01*
X72638Y48031D02*
X73819D01*
X73228Y47441D02*
Y48622D01*
X76181Y44094D02*
X77362D01*
X76772Y43504D02*
Y44685D01*
X69882Y62992D02*
X71063D01*
X70472Y62402D02*
Y63583D01*
X69882Y81890D02*
X71063D01*
X70472Y81299D02*
Y82480D01*
X69882Y74016D02*
X71063D01*
X70472Y73425D02*
Y74606D01*
X69882Y77953D02*
X71063D01*
X70472Y77362D02*
Y78543D01*
X60433Y81890D02*
X61614D01*
X61024Y81299D02*
Y82480D01*
X65158Y74016D02*
X66339D01*
X65748Y73425D02*
Y74606D01*
X60433Y74016D02*
X61614D01*
X61024Y73425D02*
Y74606D01*
X65158Y77953D02*
X66339D01*
X65748Y77362D02*
Y78543D01*
X60433Y77953D02*
X61614D01*
X61024Y77362D02*
Y78543D01*
X60433Y70079D02*
X61614D01*
X61024Y69488D02*
Y70669D01*
X55315Y81890D02*
X56496D01*
X55905Y81299D02*
Y82480D01*
X65158Y81890D02*
X66339D01*
X65748Y81299D02*
Y82480D01*
X55315Y70079D02*
X56496D01*
X55905Y69488D02*
Y70669D01*
X55315Y77953D02*
X56496D01*
X55905Y77362D02*
Y78543D01*
X55315Y74016D02*
X56496D01*
X55905Y73425D02*
Y74606D01*
X69882Y70079D02*
X71063D01*
X70472Y69488D02*
Y70669D01*
X65158Y70079D02*
X66339D01*
X65748Y69488D02*
Y70669D01*
X134843Y155512D02*
X136024D01*
X135433Y154921D02*
Y156102D01*
X134843Y160236D02*
X136024D01*
X135433Y159646D02*
Y160827D01*
X130905Y160236D02*
X132087D01*
X131496Y159646D02*
Y160827D01*
X130905Y155512D02*
X132087D01*
X131496Y154921D02*
Y156102D01*
X60039Y167717D02*
X61221D01*
X60630Y167126D02*
Y168307D01*
X60039Y162992D02*
X61221D01*
X60630Y162402D02*
Y163583D01*
X60039Y158268D02*
X61221D01*
X60630Y157677D02*
Y158858D01*
X60039Y172835D02*
X61221D01*
X60630Y172244D02*
Y173425D01*
X56102Y167717D02*
X57284D01*
X56693Y167126D02*
Y168307D01*
X56102Y162992D02*
X57284D01*
X56693Y162402D02*
Y163583D01*
X56102Y158268D02*
X57284D01*
X56693Y157677D02*
Y158858D01*
X56102Y172835D02*
X57284D01*
X56693Y172244D02*
Y173425D01*
X89961Y172047D02*
X91142D01*
X90551Y171457D02*
Y172638D01*
X89961Y157480D02*
X91142D01*
X90551Y156890D02*
Y158071D01*
X89961Y162205D02*
X91142D01*
X90551Y161614D02*
Y162795D01*
X89961Y166929D02*
X91142D01*
X90551Y166339D02*
Y167520D01*
X93898Y172047D02*
X95079D01*
X94488Y171457D02*
Y172638D01*
X93898Y157480D02*
X95079D01*
X94488Y156890D02*
Y158071D01*
X93898Y162205D02*
X95079D01*
X94488Y161614D02*
Y162795D01*
X93898Y166929D02*
X95079D01*
X94488Y166339D02*
Y167520D01*
X97835Y172047D02*
X99016D01*
X98425Y171457D02*
Y172638D01*
X97835Y157480D02*
X99016D01*
X98425Y156890D02*
Y158071D01*
X97835Y162205D02*
X99016D01*
X98425Y161614D02*
Y162795D01*
X97835Y166929D02*
X99016D01*
X98425Y166339D02*
Y167520D01*
X101772Y166929D02*
X102953D01*
X102362Y166339D02*
Y167520D01*
X101772Y162205D02*
X102953D01*
X102362Y161614D02*
Y162795D01*
X101772Y157480D02*
X102953D01*
X102362Y156890D02*
Y158071D01*
X101772Y172047D02*
X102953D01*
X102362Y171457D02*
Y172638D01*
X80118Y172047D02*
X81299D01*
X80709Y171457D02*
Y172638D01*
X80118Y157480D02*
X81299D01*
X80709Y156890D02*
Y158071D01*
X80118Y162205D02*
X81299D01*
X80709Y161614D02*
Y162795D01*
X80118Y166929D02*
X81299D01*
X80709Y166339D02*
Y167520D01*
X76181Y166929D02*
X77362D01*
X76772Y166339D02*
Y167520D01*
X76181Y162205D02*
X77362D01*
X76772Y161614D02*
Y162795D01*
X76181Y157480D02*
X77362D01*
X76772Y156890D02*
Y158071D01*
X76181Y172047D02*
X77362D01*
X76772Y171457D02*
Y172638D01*
X72244Y166929D02*
X73425D01*
X72835Y166339D02*
Y167520D01*
X72244Y162205D02*
X73425D01*
X72835Y161614D02*
Y162795D01*
X72244Y157480D02*
X73425D01*
X72835Y156890D02*
Y158071D01*
X72244Y172047D02*
X73425D01*
X72835Y171457D02*
Y172638D01*
X68307Y166929D02*
X69488D01*
X68898Y166339D02*
Y167520D01*
X68307Y162205D02*
X69488D01*
X68898Y161614D02*
Y162795D01*
X68307Y157480D02*
X69488D01*
X68898Y156890D02*
Y158071D01*
X68307Y172047D02*
X69488D01*
X68898Y171457D02*
Y172638D01*
X122638Y172441D02*
X123819D01*
X123228Y171850D02*
Y173031D01*
X122638Y157874D02*
X123819D01*
X123228Y157283D02*
Y158465D01*
X122638Y162598D02*
X123819D01*
X123228Y162008D02*
Y163189D01*
X122638Y167323D02*
X123819D01*
X123228Y166732D02*
Y167913D01*
X118701Y167323D02*
X119882D01*
X119291Y166732D02*
Y167913D01*
X118701Y162598D02*
X119882D01*
X119291Y162008D02*
Y163189D01*
X118701Y157874D02*
X119882D01*
X119291Y157283D02*
Y158465D01*
X118701Y172441D02*
X119882D01*
X119291Y171850D02*
Y173031D01*
X114764Y167323D02*
X115945D01*
X115354Y166732D02*
Y167913D01*
X114764Y162598D02*
X115945D01*
X115354Y162008D02*
Y163189D01*
X114764Y157874D02*
X115945D01*
X115354Y157283D02*
Y158465D01*
X114764Y172441D02*
X115945D01*
X115354Y171850D02*
Y173031D01*
X110827Y167323D02*
X112008D01*
X111417Y166732D02*
Y167913D01*
X110827Y162598D02*
X112008D01*
X111417Y162008D02*
Y163189D01*
X110827Y157874D02*
X112008D01*
X111417Y157283D02*
Y158465D01*
X110827Y172441D02*
X112008D01*
X111417Y171850D02*
Y173031D01*
X133661Y138583D02*
X134843D01*
X134252Y137992D02*
Y139173D01*
X128543Y138583D02*
X129724D01*
X129134Y137992D02*
Y139173D01*
X128543Y142520D02*
X129724D01*
X129134Y141929D02*
Y143110D01*
X133661Y142520D02*
X134843D01*
X134252Y141929D02*
Y143110D01*
X128543Y146457D02*
X129724D01*
X129134Y145866D02*
Y147047D01*
X123819Y146457D02*
X125000D01*
X124409Y145866D02*
Y147047D01*
X119095Y146457D02*
X120276D01*
X119685Y145866D02*
Y147047D01*
X133661Y146457D02*
X134843D01*
X134252Y145866D02*
Y147047D01*
X128543Y150394D02*
X129724D01*
X129134Y149803D02*
Y150984D01*
X123819Y150394D02*
X125000D01*
X124409Y149803D02*
Y150984D01*
X119095Y150394D02*
X120276D01*
X119685Y149803D02*
Y150984D01*
X133661Y150394D02*
X134843D01*
X134252Y149803D02*
Y150984D01*
X70669Y91732D02*
X71850D01*
X71260Y91142D02*
Y92323D01*
X65551Y91732D02*
X66732D01*
X66142Y91142D02*
Y92323D01*
X65551Y95669D02*
X66732D01*
X66142Y95079D02*
Y96260D01*
X60827Y95669D02*
X62008D01*
X61417Y95079D02*
Y96260D01*
X56102Y95669D02*
X57284D01*
X56693Y95079D02*
Y96260D01*
X70669Y95669D02*
X71850D01*
X71260Y95079D02*
Y96260D01*
X65551Y99606D02*
X66732D01*
X66142Y99016D02*
Y100197D01*
X60827Y99606D02*
X62008D01*
X61417Y99016D02*
Y100197D01*
X56102Y99606D02*
X57284D01*
X56693Y99016D02*
Y100197D01*
X70669Y99606D02*
X71850D01*
X71260Y99016D02*
Y100197D01*
X65551Y103543D02*
X66732D01*
X66142Y102953D02*
Y104134D01*
X60827Y103543D02*
X62008D01*
X61417Y102953D02*
Y104134D01*
X56102Y103543D02*
X57284D01*
X56693Y102953D02*
Y104134D01*
X70669Y103543D02*
X71850D01*
X71260Y102953D02*
Y104134D01*
X129331Y92126D02*
X130512D01*
X129921Y91535D02*
Y92716D01*
X134055Y92126D02*
X135236D01*
X134646Y91535D02*
Y92716D01*
X138779Y96063D02*
X139961D01*
X139370Y95472D02*
Y96653D01*
X134055Y96063D02*
X135236D01*
X134646Y95472D02*
Y96653D01*
X129331Y96063D02*
X130512D01*
X129921Y95472D02*
Y96653D01*
X143898Y96063D02*
X145079D01*
X144488Y95472D02*
Y96653D01*
X138779Y100000D02*
X139961D01*
X139370Y99410D02*
Y100591D01*
X134055Y100000D02*
X135236D01*
X134646Y99410D02*
Y100591D01*
X129331Y100000D02*
X130512D01*
X129921Y99410D02*
Y100591D01*
X143898Y100000D02*
X145079D01*
X144488Y99410D02*
Y100591D01*
X138779Y103937D02*
X139961D01*
X139370Y103347D02*
Y104528D01*
X134055Y103937D02*
X135236D01*
X134646Y103347D02*
Y104528D01*
X129331Y103937D02*
X130512D01*
X129921Y103347D02*
Y104528D01*
X143898Y103937D02*
X145079D01*
X144488Y103347D02*
Y104528D01*
X138386Y32283D02*
X139567D01*
X138976Y31693D02*
Y32874D01*
X138386Y36220D02*
X139567D01*
X138976Y35630D02*
Y36811D01*
X138386Y40157D02*
X139567D01*
X138976Y39567D02*
Y40748D01*
X138386Y44094D02*
X139567D01*
X138976Y43504D02*
Y44685D01*
X138386Y48031D02*
X139567D01*
X138976Y47441D02*
Y48622D01*
X138386Y55905D02*
X139567D01*
X138976Y55315D02*
Y56496D01*
X138386Y51968D02*
X139567D01*
X138976Y51378D02*
Y52559D01*
X141929Y40157D02*
X143110D01*
X142520Y39567D02*
Y40748D01*
X141929Y36220D02*
X143110D01*
X142520Y35630D02*
Y36811D01*
X141929Y32283D02*
X143110D01*
X142520Y31693D02*
Y32874D01*
X141929Y44094D02*
X143110D01*
X142520Y43504D02*
Y44685D01*
X141929Y48031D02*
X143110D01*
X142520Y47441D02*
Y48622D01*
X141929Y51968D02*
X143110D01*
X142520Y51378D02*
Y52559D01*
X141929Y55905D02*
X143110D01*
X142520Y55315D02*
Y56496D01*
X134843Y32677D02*
X136024D01*
X135433Y32087D02*
Y33268D01*
X134843Y36614D02*
X136024D01*
X135433Y36024D02*
Y37205D01*
X134843Y40551D02*
X136024D01*
X135433Y39961D02*
Y41142D01*
X134843Y44488D02*
X136024D01*
X135433Y43898D02*
Y45079D01*
X134843Y52362D02*
X136024D01*
X135433Y51772D02*
Y52953D01*
X134843Y48425D02*
X136024D01*
X135433Y47835D02*
Y49016D01*
X59252Y32283D02*
X60433D01*
X59842Y31693D02*
Y32874D01*
X59252Y36220D02*
X60433D01*
X59842Y35630D02*
Y36811D01*
X59252Y40157D02*
X60433D01*
X59842Y39567D02*
Y40748D01*
X59252Y44094D02*
X60433D01*
X59842Y43504D02*
Y44685D01*
X59252Y51968D02*
X60433D01*
X59842Y51378D02*
Y52559D01*
X59252Y48031D02*
X60433D01*
X59842Y47441D02*
Y48622D01*
X52165Y55905D02*
X53347D01*
X52756Y55315D02*
Y56496D01*
X52165Y51968D02*
X53347D01*
X52756Y51378D02*
Y52559D01*
X52165Y48031D02*
X53347D01*
X52756Y47441D02*
Y48622D01*
X52165Y44094D02*
X53347D01*
X52756Y43504D02*
Y44685D01*
X52165Y32283D02*
X53347D01*
X52756Y31693D02*
Y32874D01*
X52165Y36220D02*
X53347D01*
X52756Y35630D02*
Y36811D01*
X52165Y40157D02*
X53347D01*
X52756Y39567D02*
Y40748D01*
X55709Y51968D02*
X56890D01*
X56299Y51378D02*
Y52559D01*
X55709Y55905D02*
X56890D01*
X56299Y55315D02*
Y56496D01*
X55709Y48031D02*
X56890D01*
X56299Y47441D02*
Y48622D01*
X55709Y44094D02*
X56890D01*
X56299Y43504D02*
Y44685D01*
X55709Y40157D02*
X56890D01*
X56299Y39567D02*
Y40748D01*
X55709Y36220D02*
X56890D01*
X56299Y35630D02*
Y36811D01*
X55709Y32283D02*
X56890D01*
X56299Y31693D02*
Y32874D01*
X65945Y48031D02*
X67126D01*
X66535Y47441D02*
Y48622D01*
X65945Y51968D02*
X67126D01*
X66535Y51378D02*
Y52559D01*
X65945Y44094D02*
X67126D01*
X66535Y43504D02*
Y44685D01*
X65945Y40157D02*
X67126D01*
X66535Y39567D02*
Y40748D01*
X65945Y36220D02*
X67126D01*
X66535Y35630D02*
Y36811D01*
X65945Y32283D02*
X67126D01*
X66535Y31693D02*
Y32874D01*
X69095Y48031D02*
X70276D01*
X69685Y47441D02*
Y48622D01*
X69095Y51968D02*
X70276D01*
X69685Y51378D02*
Y52559D01*
X69095Y44094D02*
X70276D01*
X69685Y43504D02*
Y44685D01*
X69095Y40157D02*
X70276D01*
X69685Y39567D02*
Y40748D01*
X69095Y36220D02*
X70276D01*
X69685Y35630D02*
Y36811D01*
X69095Y32283D02*
X70276D01*
X69685Y31693D02*
Y32874D01*
X72638Y51968D02*
X73819D01*
X73228Y51378D02*
Y52559D01*
X72638Y36220D02*
X73819D01*
X73228Y35630D02*
Y36811D01*
X72638Y32283D02*
X73819D01*
X73228Y31693D02*
Y32874D01*
X76181Y48031D02*
X77362D01*
X76772Y47441D02*
Y48622D01*
X76181Y51968D02*
X77362D01*
X76772Y51378D02*
Y52559D01*
X76181Y40157D02*
X77362D01*
X76772Y39567D02*
Y40748D01*
X76181Y36220D02*
X77362D01*
X76772Y35630D02*
Y36811D01*
X76181Y32283D02*
X77362D01*
X76772Y31693D02*
Y32874D01*
X79331Y48031D02*
X80512D01*
X79921Y47441D02*
Y48622D01*
X79331Y51968D02*
X80512D01*
X79921Y51378D02*
Y52559D01*
X79331Y44094D02*
X80512D01*
X79921Y43504D02*
Y44685D01*
X79331Y40157D02*
X80512D01*
X79921Y39567D02*
Y40748D01*
X79331Y36220D02*
X80512D01*
X79921Y35630D02*
Y36811D01*
X79331Y32283D02*
X80512D01*
X79921Y31693D02*
Y32874D01*
X82480Y48031D02*
X83661D01*
X83071Y47441D02*
Y48622D01*
X82480Y51968D02*
X83661D01*
X83071Y51378D02*
Y52559D01*
X82480Y44094D02*
X83661D01*
X83071Y43504D02*
Y44685D01*
X82480Y40157D02*
X83661D01*
X83071Y39567D02*
Y40748D01*
X82480Y36220D02*
X83661D01*
X83071Y35630D02*
Y36811D01*
X82480Y32283D02*
X83661D01*
X83071Y31693D02*
Y32874D01*
X82480Y55905D02*
X83661D01*
X83071Y55315D02*
Y56496D01*
X79331Y55905D02*
X80512D01*
X79921Y55315D02*
Y56496D01*
X76181Y55905D02*
X77362D01*
X76772Y55315D02*
Y56496D01*
X72638Y55905D02*
X73819D01*
X73228Y55315D02*
Y56496D01*
X69095Y55905D02*
X70276D01*
X69685Y55315D02*
Y56496D01*
X128543Y48031D02*
X129724D01*
X129134Y47441D02*
Y48622D01*
X128543Y51968D02*
X129724D01*
X129134Y51378D02*
Y52559D01*
X128543Y44094D02*
X129724D01*
X129134Y43504D02*
Y44685D01*
X128543Y40157D02*
X129724D01*
X129134Y39567D02*
Y40748D01*
X128543Y36220D02*
X129724D01*
X129134Y35630D02*
Y36811D01*
X128543Y32283D02*
X129724D01*
X129134Y31693D02*
Y32874D01*
X125394Y48031D02*
X126575D01*
X125984Y47441D02*
Y48622D01*
X125394Y51968D02*
X126575D01*
X125984Y51378D02*
Y52559D01*
X125394Y44094D02*
X126575D01*
X125984Y43504D02*
Y44685D01*
X125394Y40157D02*
X126575D01*
X125984Y39567D02*
Y40748D01*
X125394Y36220D02*
X126575D01*
X125984Y35630D02*
Y36811D01*
X125394Y32283D02*
X126575D01*
X125984Y31693D02*
Y32874D01*
X121850Y48031D02*
X123031D01*
X122441Y47441D02*
Y48622D01*
X121850Y51968D02*
X123031D01*
X122441Y51378D02*
Y52559D01*
X121850Y44094D02*
X123031D01*
X122441Y43504D02*
Y44685D01*
X121850Y40157D02*
X123031D01*
X122441Y39567D02*
Y40748D01*
X121850Y36220D02*
X123031D01*
X122441Y35630D02*
Y36811D01*
X121850Y32283D02*
X123031D01*
X122441Y31693D02*
Y32874D01*
X118307Y48031D02*
X119488D01*
X118898Y47441D02*
Y48622D01*
X118307Y51968D02*
X119488D01*
X118898Y51378D02*
Y52559D01*
X118307Y44094D02*
X119488D01*
X118898Y43504D02*
Y44685D01*
X118307Y40157D02*
X119488D01*
X118898Y39567D02*
Y40748D01*
X118307Y36220D02*
X119488D01*
X118898Y35630D02*
Y36811D01*
X118307Y32283D02*
X119488D01*
X118898Y31693D02*
Y32874D01*
X115157Y48031D02*
X116339D01*
X115748Y47441D02*
Y48622D01*
X115157Y51968D02*
X116339D01*
X115748Y51378D02*
Y52559D01*
X115157Y44094D02*
X116339D01*
X115748Y43504D02*
Y44685D01*
X115157Y40157D02*
X116339D01*
X115748Y39567D02*
Y40748D01*
X115157Y36220D02*
X116339D01*
X115748Y35630D02*
Y36811D01*
X115157Y32283D02*
X116339D01*
X115748Y31693D02*
Y32874D01*
X112008Y48031D02*
X113189D01*
X112598Y47441D02*
Y48622D01*
X112008Y51968D02*
X113189D01*
X112598Y51378D02*
Y52559D01*
X112008Y44094D02*
X113189D01*
X112598Y43504D02*
Y44685D01*
X112008Y40157D02*
X113189D01*
X112598Y39567D02*
Y40748D01*
X112008Y36220D02*
X113189D01*
X112598Y35630D02*
Y36811D01*
X112008Y32283D02*
X113189D01*
X112598Y31693D02*
Y32874D01*
X112008Y55905D02*
X113189D01*
X112598Y55315D02*
Y56496D01*
X115157Y55905D02*
X116339D01*
X115748Y55315D02*
Y56496D01*
X118307Y55905D02*
X119488D01*
X118898Y55315D02*
Y56496D01*
X121850Y55905D02*
X123031D01*
X122441Y55315D02*
Y56496D01*
X125394Y55905D02*
X126575D01*
X125984Y55315D02*
Y56496D01*
X100197Y56299D02*
X101378D01*
X100787Y55709D02*
Y56890D01*
X100197Y32677D02*
X101378D01*
X100787Y32087D02*
Y33268D01*
X100197Y36614D02*
X101378D01*
X100787Y36024D02*
Y37205D01*
X100197Y40551D02*
X101378D01*
X100787Y39961D02*
Y41142D01*
X100197Y44488D02*
X101378D01*
X100787Y43898D02*
Y45079D01*
X100197Y52362D02*
X101378D01*
X100787Y51772D02*
Y52953D01*
X100197Y48425D02*
X101378D01*
X100787Y47835D02*
Y49016D01*
X103740Y56299D02*
X104921D01*
X104331Y55709D02*
Y56890D01*
X103740Y32677D02*
X104921D01*
X104331Y32087D02*
Y33268D01*
X103740Y36614D02*
X104921D01*
X104331Y36024D02*
Y37205D01*
X103740Y40551D02*
X104921D01*
X104331Y39961D02*
Y41142D01*
X103740Y44488D02*
X104921D01*
X104331Y43898D02*
Y45079D01*
X103740Y52362D02*
X104921D01*
X104331Y51772D02*
Y52953D01*
X103740Y48425D02*
X104921D01*
X104331Y47835D02*
Y49016D01*
X107283Y56299D02*
X108465D01*
X107874Y55709D02*
Y56890D01*
X107283Y32677D02*
X108465D01*
X107874Y32087D02*
Y33268D01*
X107283Y36614D02*
X108465D01*
X107874Y36024D02*
Y37205D01*
X107283Y40551D02*
X108465D01*
X107874Y39961D02*
Y41142D01*
X107283Y44488D02*
X108465D01*
X107874Y43898D02*
Y45079D01*
X107283Y52362D02*
X108465D01*
X107874Y51772D02*
Y52953D01*
X107283Y48425D02*
X108465D01*
X107874Y47835D02*
Y49016D01*
X93898Y48425D02*
X95079D01*
X94488Y47835D02*
Y49016D01*
X93898Y52362D02*
X95079D01*
X94488Y51772D02*
Y52953D01*
X93898Y44488D02*
X95079D01*
X94488Y43898D02*
Y45079D01*
X93898Y40551D02*
X95079D01*
X94488Y39961D02*
Y41142D01*
X93898Y36614D02*
X95079D01*
X94488Y36024D02*
Y37205D01*
X93898Y32677D02*
X95079D01*
X94488Y32087D02*
Y33268D01*
X93898Y56299D02*
X95079D01*
X94488Y55709D02*
Y56890D01*
X90354Y48425D02*
X91535D01*
X90945Y47835D02*
Y49016D01*
X90354Y52362D02*
X91535D01*
X90945Y51772D02*
Y52953D01*
X90354Y44488D02*
X91535D01*
X90945Y43898D02*
Y45079D01*
X90354Y40551D02*
X91535D01*
X90945Y39961D02*
Y41142D01*
X90354Y36614D02*
X91535D01*
X90945Y36024D02*
Y37205D01*
X90354Y32677D02*
X91535D01*
X90945Y32087D02*
Y33268D01*
X90354Y56299D02*
X91535D01*
X90945Y55709D02*
Y56890D01*
X86811Y48425D02*
X87992D01*
X87402Y47835D02*
Y49016D01*
X86811Y52362D02*
X87992D01*
X87402Y51772D02*
Y52953D01*
X86811Y44488D02*
X87992D01*
X87402Y43898D02*
Y45079D01*
X86811Y40551D02*
X87992D01*
X87402Y39961D02*
Y41142D01*
X86811Y36614D02*
X87992D01*
X87402Y36024D02*
Y37205D01*
X86811Y32677D02*
X87992D01*
X87402Y32087D02*
Y33268D01*
X86811Y56299D02*
X87992D01*
X87402Y55709D02*
Y56890D01*
X85236Y140157D02*
X86417D01*
X85827Y139567D02*
Y140748D01*
X109803Y132047D02*
X110984D01*
X110394Y131457D02*
Y132638D01*
X130118Y128740D02*
X131299D01*
X130709Y128150D02*
Y129331D01*
X108071Y136221D02*
X109252D01*
X108661Y135630D02*
Y136811D01*
X75000Y127953D02*
X76181D01*
X75590Y127362D02*
Y128543D01*
X81693Y117717D02*
X82874D01*
X82284Y117126D02*
Y118307D01*
X81693Y114567D02*
X82874D01*
X82284Y113976D02*
Y115157D01*
X87992Y116142D02*
X89173D01*
X88583Y115551D02*
Y116732D01*
X116339Y116142D02*
X117520D01*
X116929Y115551D02*
Y116732D01*
X97244Y132874D02*
X98425D01*
X97835Y132283D02*
Y133465D01*
X103740Y120866D02*
X104921D01*
X104331Y120276D02*
Y121457D01*
X100591Y120866D02*
X101772D01*
X101181Y120276D02*
Y121457D01*
X106890Y120866D02*
X108071D01*
X107480Y120276D02*
Y121457D01*
X97441Y120866D02*
X98622D01*
X98032Y120276D02*
Y121457D01*
X103740Y117717D02*
X104921D01*
X104331Y117126D02*
Y118307D01*
X100591Y117717D02*
X101772D01*
X101181Y117126D02*
Y118307D01*
X106890Y117717D02*
X108071D01*
X107480Y117126D02*
Y118307D01*
X97441Y117717D02*
X98622D01*
X98032Y117126D02*
Y118307D01*
X97441Y114567D02*
X98622D01*
X98032Y113976D02*
Y115157D01*
X106890Y114567D02*
X108071D01*
X107480Y113976D02*
Y115157D01*
X100591Y114567D02*
X101772D01*
X101181Y113976D02*
Y115157D01*
X103740Y114567D02*
X104921D01*
X104331Y113976D02*
Y115157D01*
X103740Y124016D02*
X104921D01*
X104331Y123425D02*
Y124606D01*
X100591Y124016D02*
X101772D01*
X101181Y123425D02*
Y124606D01*
X106890Y124016D02*
X108071D01*
X107480Y123425D02*
Y124606D01*
X97441Y124016D02*
X98622D01*
X98032Y123425D02*
Y124606D01*
X59252Y56299D02*
X60433D01*
X59842Y55709D02*
Y56890D01*
X65551Y56299D02*
X66732D01*
X66142Y55709D02*
Y56890D01*
X134843Y55905D02*
X136024D01*
X135433Y55315D02*
Y56496D01*
X128543Y55905D02*
X129724D01*
X129134Y55315D02*
Y56496D01*
X129724Y70079D02*
X130905D01*
X130315Y69488D02*
Y70669D01*
X144291Y70079D02*
X145472D01*
X144882Y69488D02*
Y70669D01*
X139567Y70079D02*
X140748D01*
X140157Y69488D02*
Y70669D01*
X134843Y70079D02*
X136024D01*
X135433Y69488D02*
Y70669D01*
X129724Y74016D02*
X130905D01*
X130315Y73425D02*
Y74606D01*
X144291Y74016D02*
X145472D01*
X144882Y73425D02*
Y74606D01*
X139567Y74016D02*
X140748D01*
X140157Y73425D02*
Y74606D01*
X134843Y74016D02*
X136024D01*
X135433Y73425D02*
Y74606D01*
X129724Y77953D02*
X130905D01*
X130315Y77362D02*
Y78543D01*
X144291Y77953D02*
X145472D01*
X144882Y77362D02*
Y78543D01*
X139567Y77953D02*
X140748D01*
X140157Y77362D02*
Y78543D01*
X134843Y77953D02*
X136024D01*
X135433Y77362D02*
Y78543D01*
X134843Y81890D02*
X136024D01*
X135433Y81299D02*
Y82480D01*
X139567Y81890D02*
X140748D01*
X140157Y81299D02*
Y82480D01*
X144291Y81890D02*
X145472D01*
X144882Y81299D02*
Y82480D01*
X129724Y81890D02*
X130905D01*
X130315Y81299D02*
Y82480D01*
X86024Y85039D02*
X87205D01*
X86614Y84449D02*
Y85630D01*
X90748Y85039D02*
X91929D01*
X91339Y84449D02*
Y85630D01*
X95472Y85039D02*
X96653D01*
X96063Y84449D02*
Y85630D01*
X86024Y81890D02*
X87205D01*
X86614Y81299D02*
Y82480D01*
X90748Y81890D02*
X91929D01*
X91339Y81299D02*
Y82480D01*
X95472Y81890D02*
X96653D01*
X96063Y81299D02*
Y82480D01*
X113189Y85039D02*
X114370D01*
X113779Y84449D02*
Y85630D01*
X117913Y85039D02*
X119095D01*
X118504Y84449D02*
Y85630D01*
X122638Y85039D02*
X123819D01*
X123228Y84449D02*
Y85630D01*
X113189Y81890D02*
X114370D01*
X113779Y81299D02*
Y82480D01*
X117913Y81890D02*
X119095D01*
X118504Y81299D02*
Y82480D01*
X122638Y81890D02*
X123819D01*
X123228Y81299D02*
Y82480D01*
X143898Y62992D02*
X145079D01*
X144488Y62402D02*
Y63583D01*
X95472Y92795D02*
X96653D01*
X96063Y92204D02*
Y93385D01*
X108858Y93307D02*
X110039D01*
X109449Y92716D02*
Y93898D01*
X78937Y84252D02*
X80118D01*
X79527Y83661D02*
Y84842D01*
X111614Y107874D02*
X112795D01*
X112205Y107283D02*
Y108465D01*
X105709Y84252D02*
X106890D01*
X106299Y83661D02*
Y84842D01*
X92716Y108268D02*
X93898D01*
X93307Y107677D02*
Y108858D01*
X78937Y77559D02*
X80118D01*
X79527Y76968D02*
Y78150D01*
X93504Y77559D02*
X94685D01*
X94095Y76968D02*
Y78150D01*
X88779Y77559D02*
X89961D01*
X89370Y76968D02*
Y78150D01*
X84055Y77559D02*
X85236D01*
X84646Y76968D02*
Y78150D01*
X84055Y73622D02*
X85236D01*
X84646Y73032D02*
Y74213D01*
X88779Y73622D02*
X89961D01*
X89370Y73032D02*
Y74213D01*
X93504Y73622D02*
X94685D01*
X94095Y73032D02*
Y74213D01*
X78937Y73622D02*
X80118D01*
X79527Y73032D02*
Y74213D01*
X84055Y69685D02*
X85236D01*
X84646Y69095D02*
Y70276D01*
X88779Y69685D02*
X89961D01*
X89370Y69095D02*
Y70276D01*
X93504Y69685D02*
X94685D01*
X94095Y69095D02*
Y70276D01*
X78937Y69685D02*
X80118D01*
X79527Y69095D02*
Y70276D01*
X84055Y65748D02*
X85236D01*
X84646Y65158D02*
Y66339D01*
X88779Y65748D02*
X89961D01*
X89370Y65158D02*
Y66339D01*
X93504Y65748D02*
X94685D01*
X94095Y65158D02*
Y66339D01*
X78937Y65748D02*
X80118D01*
X79527Y65158D02*
Y66339D01*
X105709Y77559D02*
X106890D01*
X106299Y76968D02*
Y78150D01*
X120276Y77559D02*
X121457D01*
X120866Y76968D02*
Y78150D01*
X115551Y77559D02*
X116732D01*
X116142Y76968D02*
Y78150D01*
X110827Y77559D02*
X112008D01*
X111417Y76968D02*
Y78150D01*
X110827Y73622D02*
X112008D01*
X111417Y73032D02*
Y74213D01*
X115551Y73622D02*
X116732D01*
X116142Y73032D02*
Y74213D01*
X120276Y73622D02*
X121457D01*
X120866Y73032D02*
Y74213D01*
X105709Y73622D02*
X106890D01*
X106299Y73032D02*
Y74213D01*
X110827Y69685D02*
X112008D01*
X111417Y69095D02*
Y70276D01*
X115551Y69685D02*
X116732D01*
X116142Y69095D02*
Y70276D01*
X120276Y69685D02*
X121457D01*
X120866Y69095D02*
Y70276D01*
X105709Y69685D02*
X106890D01*
X106299Y69095D02*
Y70276D01*
X110827Y65748D02*
X112008D01*
X111417Y65158D02*
Y66339D01*
X115551Y65748D02*
X116732D01*
X116142Y65158D02*
Y66339D01*
X120276Y65748D02*
X121457D01*
X120866Y65158D02*
Y66339D01*
X105709Y65748D02*
X106890D01*
X106299Y65158D02*
Y66339D01*
M02*
