M48
;Layer_Color=9474304
;FILE_FORMAT=2:5
INCH,LZ
;TYPE=PLATED
T1F00S00C0.01181
T2F00S00C0.04724
T3F00S00C0.12008
%
T01
X0052756Y0032283
X0056299Y0032283
X0059842
Y003622
X0056299Y003622
X0052756
Y0040157
X0056299
X0059842Y0040157
Y0044094
X0056299Y0044094
X0052756
Y0048031
X0056299
X0059842Y0048031
Y0051968
X0056299Y0051968
X0052756
Y0055905
X0056299
X0059842Y0056299
X0066142
X0069685Y0055905
X0073228
X0076772
X0079921
X0083071
Y0051968
X0079921
X0076772
X0073228
X0069685
X0066535
Y0048031
X0069685
X0073228
X0076772
X0079921
X0083071
Y0044094
X0079921
X0076772
X0073228
X0069685
X0066535
Y0040157
X0069685
X0073228
X0076772
X0079921
X0083071
Y003622
X0079921
X0076772
X0073228
X0069685
X0066535
Y0032283
X0069685
X0073228
X0076772
X0079921
X0083071
X0087402Y0032677
X0090945
X0094488
Y0036614
X0090945
X0087402
Y0040551
X0090945
X0094488
Y0044488
X0090945
X0087402
Y0048425
X0090945
X0094488
Y0052362
X0090945
X0087402
Y0056299
X0090945
X0094488
X0100787
X0104331
X0107874
Y0052362
X0104331
X0100787
Y0048425
X0104331
X0107874
Y0044488
X0104331
X0100787
Y0040551
X0104331
X0107874
Y0036614
X0104331
X0100787
Y0032677
X0104331
X0107874
X0106299Y0065748
Y0069685
Y0073622
Y0077559
X0111417
Y0073622
Y0069685
Y0065748
X0094095
Y0069685
Y0073622
Y0077559
X008937
Y0073622
Y0069685
Y0065748
X0084646
Y0069685
Y0073622
Y0077559
X0079527
Y0073622
Y0069685
Y0065748
X0070472Y0062992
X0065748
Y0060236
Y0065748
X0062992Y0065748
Y0062992
X0060236
X005748
Y0065748
X0060236
X0061024Y0070079
Y0074016
Y0077953
Y008189
X0065748
Y0077953
Y0074016
Y0070079
X0070472
Y0074016
Y0077953
Y008189
X007126Y0091732
Y0095669
Y0099606
Y0103543
X0066142
Y0099606
Y0095669
Y0091732
X0061417Y0095669
Y0099606
Y0103543
X0056693
Y0099606
Y0095669
X0055905Y008189
Y0077953
Y0074016
Y0070079
X0054724Y0065748
Y0062992
X0047559Y0070472
X0079527Y0084252
X0086614Y0085039
Y008189
X0091339
Y0085039
X0096063
Y008189
X0100984Y0087008
X0105905Y0089764
X0106299Y0084252
X0109449Y0093307
X0096063Y0092795
X0093307Y0108268
X0098032Y0114567
X0101181
Y0117717
Y0120866
X0098032
Y0117717
X0104331
Y0120866
X010748
Y0117717
Y0114567
X0104331
Y0124016
X0101181
X0098032
X0097835Y0132874
X0110394Y0132047
X010748Y0124016
X0112205Y0107874
X0088583Y0116142
X0085039Y0117717
X0082284Y0117717
Y0114567
X0079528Y0114567
X007559Y0127953
X0116929Y0116142
X0120472Y0117717
X012126Y0114961
X0123622Y0116929
X0124803Y0114173
X0114567Y0110039
X0129921Y0103937
Y01
Y0096063
Y0092126
X0134646
Y0096063
Y01
Y0103937
X013937
Y01
Y0096063
X0144488
Y01
Y0103937
X0144882Y008189
Y0077953
Y0074016
Y0070079
X0140157
Y0074016
Y0077953
Y008189
X0135433
Y0077953
Y0074016
Y0070079
X0135433Y0065354
X0132677
Y0062598
X0135433
X0138189
Y0065354
X0129921
Y0062598
X0127165
Y0065354
Y0059842
X0125984Y0055905
X0129134
X0129134Y0051968
X0125984
X0122441
X0118898
X0115748
X0112598
Y0055905
X0115748
X0118898
X0122441
Y0048031
X0118898
X0115748
X0112598
Y0044094
X0115748
X0118898
X0122441
X0125984
X0129134
Y0048031
X0125984
Y0040157
X0129134
Y003622
X0125984
X0122441
X0118898
X0115748
X0112598
Y0040157
X0115748
X0118898
X0122441
Y0032283
X0118898
X0115748
X0112598
X0125984
X0129134
X0135433Y0032677
Y0036614
Y0040551
Y0044488
Y0048425
Y0052362
X0135433Y0055905
X0138976Y0055905
X014252
Y0051968
X0138976
Y0048031
X014252
Y0044094
X0138976
Y0040157
X014252
Y003622
X0138976
Y0032283
X014252Y0032283
X0144488Y0062992
X0130315Y0070079
Y0074016
Y0077953
Y008189
X0123228Y008189
Y0085039
X0118504
Y008189
X0113779
Y0085039
X0116142Y0077559
Y0073622
Y0069685
Y0065748
X0120866
Y0069685
Y0073622
Y0077559
X0130709Y012874
X0129134Y0134646
Y0138583
Y014252
Y0146457
Y0150394
X0124409
Y0146457
X0119685
Y0150394
X0119291Y0157874
X0123228
Y0162598
X0119291
X0115354
Y0167323
X0119291
X0123228
Y0172441
X0119291
X0115354
Y0157874
X0131496Y0160236
X0135433
Y0155512
X0131496
X0134252Y0150394
Y0146457
Y014252
Y0138583
Y0134646
X0125591Y0136614
Y0140945
X0122047Y0142913
X0108661Y0136221
X0111417Y0157874
Y0162598
Y0167323
Y0172441
X0102362Y0172047
X0098425
X0094488
X0090551
Y0166929
X0094488
X0098425
X0102362
Y0162205
X0098425
X0094488
X0090551
Y015748
X0094488
X0098425
X0102362
X0080709
X0076772
X0072835
X0068898
Y0162205
X0072835
X0076772
X0080709
Y0166929
X0076772
X0072835
X0068898
Y0172047
X0072835
X0076772
X0080709
X006063Y0172835
X0056693
Y0167717
X006063
Y0162992
X0056693
Y0158268
X006063
X0061417Y0146063
Y0142126
Y0138189
Y0134252
X0066142
Y0138189
Y0142126
Y0146063
X007126
Y0142126
Y0138189
Y0134252
X0056693
Y0138189
Y0142126
Y0146063
X0085827Y0140157
T02
X0074016Y0026772
X0090945Y0011811
X0100394Y0061024
X0059449Y0090551
X0142126
X012126Y0027165
X0124803Y0012598
T03
X0012205Y001378
X0040551
Y0050787
X0012205
X0156693Y0049213
X0185039
Y0012205
X0156693
X0148031Y0156299
Y0184646
X0185039
Y0156299
X0039764Y0148031
X0011417
Y0185039
X0039764
M30
