G04*
G04 #@! TF.GenerationSoftware,Altium Limited,Altium Designer,19.0.6 (157)*
G04*
G04 Layer_Physical_Order=3*
G04 Layer_Color=16776960*
%FSLAX25Y25*%
%MOIN*%
G70*
G01*
G75*
%ADD37C,0.06299*%
%ADD38C,0.19685*%
%ADD39C,0.01968*%
G36*
X136614Y162072D02*
X136043Y161708D01*
X136014Y161715D01*
X135744Y161798D01*
X135433Y161828D01*
X135123Y161798D01*
X134824Y161707D01*
X134549Y161560D01*
X134307Y161362D01*
X134109Y161121D01*
X133962Y160845D01*
X133872Y160547D01*
X133841Y160236D01*
X133872Y159926D01*
X133962Y159627D01*
X134109Y159352D01*
X134307Y159111D01*
X134549Y158913D01*
X134824Y158765D01*
X135123Y158675D01*
X135433Y158644D01*
X135744Y158675D01*
X136014Y158757D01*
X136043Y158765D01*
X136614Y158400D01*
X136614Y157348D01*
X136043Y156983D01*
X136014Y156991D01*
X135744Y157073D01*
X135433Y157104D01*
X135123Y157073D01*
X134824Y156983D01*
X134549Y156835D01*
X134307Y156638D01*
X134109Y156396D01*
X133962Y156121D01*
X133872Y155822D01*
X133841Y155512D01*
X133872Y155201D01*
X133962Y154903D01*
X134109Y154627D01*
X134307Y154386D01*
X134549Y154188D01*
X134824Y154041D01*
X135123Y153951D01*
X135433Y153920D01*
X135744Y153951D01*
X136014Y154033D01*
X136043Y154040D01*
X136614Y153676D01*
X136614Y130728D01*
X114173Y130728D01*
X114173Y138583D01*
X95276Y138583D01*
X95276Y130728D01*
X51575Y130728D01*
X51366Y130701D01*
X51171Y130620D01*
X51004Y130492D01*
X50876Y130325D01*
X50795Y130130D01*
X50768Y129921D01*
Y129921D01*
X50394D01*
X50394Y101969D01*
X1507Y101969D01*
Y195343D01*
X136614D01*
X136614Y162072D01*
D02*
G37*
G36*
X100394Y125391D02*
X100297Y125339D01*
X100055Y125141D01*
X99965Y125031D01*
X99673Y124969D01*
X99540D01*
X99247Y125031D01*
X99157Y125141D01*
X98916Y125339D01*
X98641Y125487D01*
X98342Y125577D01*
X98032Y125608D01*
X97721Y125577D01*
X97422Y125487D01*
X97147Y125339D01*
X96906Y125141D01*
X96708Y124900D01*
X96561Y124625D01*
X96470Y124326D01*
X96440Y124016D01*
X96470Y123705D01*
X96561Y123407D01*
X96708Y123131D01*
X96906Y122890D01*
X97016Y122800D01*
X97079Y122508D01*
Y122374D01*
X97016Y122082D01*
X96906Y121992D01*
X96708Y121750D01*
X96561Y121475D01*
X96470Y121177D01*
X96440Y120866D01*
X96470Y120556D01*
X96561Y120257D01*
X96708Y119982D01*
X96906Y119740D01*
X97016Y119650D01*
X97079Y119358D01*
Y119225D01*
X97016Y118932D01*
X96906Y118842D01*
X96708Y118601D01*
X96561Y118326D01*
X96470Y118027D01*
X96440Y117717D01*
X96470Y117406D01*
X96561Y117107D01*
X96708Y116832D01*
X96906Y116591D01*
X97016Y116501D01*
X97079Y116208D01*
Y116075D01*
X97016Y115783D01*
X96906Y115693D01*
X96708Y115451D01*
X96561Y115176D01*
X96470Y114877D01*
X96440Y114567D01*
X96470Y114256D01*
X96561Y113958D01*
X96708Y113682D01*
X96906Y113441D01*
X97147Y113243D01*
X97422Y113096D01*
X97721Y113006D01*
X98032Y112975D01*
X98342Y113006D01*
X98641Y113096D01*
X98916Y113243D01*
X99157Y113441D01*
X99247Y113551D01*
X99540Y113614D01*
X99673D01*
X99965Y113551D01*
X100055Y113441D01*
X100297Y113243D01*
X100394Y113191D01*
X100394Y88484D01*
X100375Y88479D01*
X100100Y88332D01*
X99859Y88134D01*
X99661Y87892D01*
X99514Y87617D01*
X99423Y87318D01*
X99392Y87008D01*
X99423Y86697D01*
X99514Y86399D01*
X99661Y86124D01*
X99859Y85882D01*
X100100Y85684D01*
X100375Y85537D01*
X100394Y85532D01*
Y80709D01*
X75590Y80709D01*
X75590Y68110D01*
X51575Y68110D01*
X51575Y129921D01*
X100394Y129921D01*
Y125391D01*
D02*
G37*
G36*
X150000Y129921D02*
X150000Y68110D01*
X125984Y68110D01*
X125984Y80709D01*
X101801Y80709D01*
X101201Y80709D01*
Y85437D01*
X101295Y85447D01*
X101593Y85537D01*
X101869Y85684D01*
X102110Y85882D01*
X102308Y86124D01*
X102455Y86399D01*
X102546Y86697D01*
X102576Y87008D01*
X102546Y87318D01*
X102455Y87617D01*
X102308Y87892D01*
X102110Y88134D01*
X101869Y88332D01*
X101593Y88479D01*
X101295Y88569D01*
X101201Y88578D01*
X101201Y112977D01*
X101492Y113006D01*
X101790Y113096D01*
X102066Y113243D01*
X102307Y113441D01*
X102397Y113551D01*
X102689Y113614D01*
X102823D01*
X103115Y113551D01*
X103205Y113441D01*
X103446Y113243D01*
X103721Y113096D01*
X104020Y113006D01*
X104331Y112975D01*
X104641Y113006D01*
X104940Y113096D01*
X105215Y113243D01*
X105456Y113441D01*
X105546Y113551D01*
X105839Y113614D01*
X105972D01*
X106264Y113551D01*
X106355Y113441D01*
X106596Y113243D01*
X106871Y113096D01*
X107170Y113006D01*
X107480Y112975D01*
X107791Y113006D01*
X108089Y113096D01*
X108365Y113243D01*
X108606Y113441D01*
X108804Y113682D01*
X108951Y113958D01*
X109042Y114256D01*
X109072Y114567D01*
X109042Y114877D01*
X108951Y115176D01*
X108804Y115451D01*
X108606Y115693D01*
X108496Y115783D01*
X108433Y116075D01*
Y116208D01*
X108496Y116501D01*
X108606Y116591D01*
X108804Y116832D01*
X108951Y117107D01*
X109042Y117406D01*
X109072Y117717D01*
X109042Y118027D01*
X108951Y118326D01*
X108804Y118601D01*
X108606Y118842D01*
X108496Y118932D01*
X108433Y119225D01*
Y119358D01*
X108496Y119650D01*
X108606Y119740D01*
X108804Y119982D01*
X108951Y120257D01*
X109042Y120556D01*
X109072Y120866D01*
X109042Y121177D01*
X108951Y121475D01*
X108804Y121750D01*
X108606Y121992D01*
X108496Y122082D01*
X108433Y122374D01*
Y122508D01*
X108496Y122800D01*
X108606Y122890D01*
X108804Y123131D01*
X108951Y123407D01*
X109042Y123705D01*
X109072Y124016D01*
X109042Y124326D01*
X108951Y124625D01*
X108804Y124900D01*
X108606Y125141D01*
X108365Y125339D01*
X108089Y125487D01*
X107791Y125577D01*
X107480Y125608D01*
X107170Y125577D01*
X106871Y125487D01*
X106596Y125339D01*
X106355Y125141D01*
X106264Y125031D01*
X105972Y124969D01*
X105839D01*
X105546Y125031D01*
X105456Y125141D01*
X105215Y125339D01*
X104940Y125487D01*
X104641Y125577D01*
X104331Y125608D01*
X104020Y125577D01*
X103721Y125487D01*
X103446Y125339D01*
X103205Y125141D01*
X103115Y125031D01*
X102823Y124969D01*
X102689D01*
X102397Y125031D01*
X102307Y125141D01*
X102066Y125339D01*
X101790Y125487D01*
X101492Y125577D01*
X101201Y125606D01*
Y129921D01*
X150000Y129921D01*
D02*
G37*
G36*
X67716Y66929D02*
X67716Y58661D01*
X62992Y58661D01*
Y29528D01*
X51575Y29528D01*
X51575Y66929D01*
X67716Y66929D01*
D02*
G37*
G36*
X50768Y68110D02*
X50787Y67962D01*
Y67077D01*
X50768Y66929D01*
X50768Y29528D01*
X50787Y29379D01*
Y28842D01*
X51154D01*
X51171Y28829D01*
X51366Y28748D01*
X51575Y28721D01*
X62992Y28721D01*
X63201Y28748D01*
X63396Y28829D01*
X63412Y28842D01*
X64179D01*
X64196Y28829D01*
X64390Y28748D01*
X64599Y28721D01*
X69757D01*
X70235Y27921D01*
X70193Y27796D01*
X70091Y27288D01*
X70058Y26772D01*
X70091Y26255D01*
X70193Y25747D01*
X70359Y25257D01*
X70588Y24793D01*
X70876Y24362D01*
X71217Y23973D01*
X71606Y23631D01*
X72037Y23344D01*
X72501Y23115D01*
X72991Y22948D01*
X73499Y22847D01*
X74016Y22814D01*
X74532Y22847D01*
X75040Y22948D01*
X75530Y23115D01*
X75995Y23344D01*
X76425Y23631D01*
X76815Y23973D01*
X77156Y24362D01*
X77443Y24793D01*
X77672Y25257D01*
X77839Y25747D01*
X77940Y26255D01*
X77974Y26772D01*
X77940Y27288D01*
X77839Y27796D01*
X77797Y27921D01*
X78275Y28721D01*
X85039D01*
X85248Y28748D01*
X85443Y28829D01*
X85610Y28957D01*
X85738Y29124D01*
X85819Y29319D01*
X85846Y29528D01*
X85846Y57480D01*
X85819Y57689D01*
X85738Y57884D01*
X85610Y58051D01*
X85443Y58179D01*
X85248Y58260D01*
X85039Y58287D01*
X76378Y58287D01*
X76378Y67962D01*
X76398Y68110D01*
X76397Y79134D01*
X124803Y79134D01*
X124803Y57683D01*
X110236Y57683D01*
X110236Y1507D01*
X1507Y1507D01*
X1507Y100000D01*
X50768D01*
X50768Y68110D01*
D02*
G37*
G36*
X141732Y58661D02*
X145669D01*
Y29528D01*
X132283D01*
Y58661D01*
X125984Y58661D01*
X125984Y66929D01*
X141732Y66929D01*
X141732Y58661D01*
D02*
G37*
G36*
X85039Y29528D02*
X64599Y29528D01*
X63799Y30328D01*
Y57480D01*
X85039Y57480D01*
X85039Y29528D01*
D02*
G37*
G36*
X195343Y1507D02*
X111043D01*
X111043Y56876D01*
X124803Y56876D01*
X125012Y56904D01*
X125207Y56984D01*
X125374Y57113D01*
X125502Y57280D01*
X125583Y57474D01*
X125701Y57725D01*
X125984Y57854D01*
X131476Y57854D01*
Y29528D01*
X131476D01*
X131504Y29319D01*
X131585Y29124D01*
X131713Y28957D01*
X131880Y28829D01*
X132075Y28748D01*
X132283Y28721D01*
X145669D01*
X145878Y28748D01*
X146073Y28829D01*
X146240Y28957D01*
X146368Y29124D01*
X146449Y29319D01*
X146476Y29528D01*
Y58661D01*
X146457Y58810D01*
Y67303D01*
X150000D01*
X150209Y67331D01*
X150403Y67411D01*
X150570Y67540D01*
X150699Y67707D01*
X150779Y67901D01*
X150807Y68110D01*
X150807Y129921D01*
X150779Y130130D01*
X150699Y130325D01*
X150571Y130492D01*
X150403Y130620D01*
X150209Y130701D01*
X150000Y130728D01*
X138221Y130728D01*
X137421Y130728D01*
X137421Y153676D01*
X137410Y153763D01*
X137402Y153850D01*
X137402Y153851D01*
Y157172D01*
X137402Y157174D01*
X137410Y157261D01*
X137421Y157348D01*
X137421Y158400D01*
X137410Y158487D01*
X137402Y158574D01*
X137402Y158576D01*
Y161897D01*
X137402Y161898D01*
X137410Y161986D01*
X137421Y162072D01*
X137421Y195343D01*
X195343D01*
X195343Y1507D01*
D02*
G37*
%LPC*%
G36*
X60630Y174427D02*
X60319Y174396D01*
X60021Y174305D01*
X59746Y174158D01*
X59504Y173960D01*
X59306Y173719D01*
X59159Y173444D01*
X59069Y173145D01*
X59038Y172835D01*
X59069Y172524D01*
X59159Y172225D01*
X59306Y171950D01*
X59504Y171709D01*
X59746Y171511D01*
X60021Y171364D01*
X60319Y171273D01*
X60630Y171243D01*
X60940Y171273D01*
X61239Y171364D01*
X61514Y171511D01*
X61756Y171709D01*
X61954Y171950D01*
X62101Y172225D01*
X62191Y172524D01*
X62222Y172835D01*
X62191Y173145D01*
X62101Y173444D01*
X61954Y173719D01*
X61756Y173960D01*
X61514Y174158D01*
X61239Y174305D01*
X60940Y174396D01*
X60630Y174427D01*
D02*
G37*
G36*
X56693D02*
X56382Y174396D01*
X56084Y174305D01*
X55809Y174158D01*
X55567Y173960D01*
X55369Y173719D01*
X55222Y173444D01*
X55132Y173145D01*
X55101Y172835D01*
X55132Y172524D01*
X55222Y172225D01*
X55369Y171950D01*
X55567Y171709D01*
X55809Y171511D01*
X56084Y171364D01*
X56382Y171273D01*
X56693Y171243D01*
X57003Y171273D01*
X57302Y171364D01*
X57577Y171511D01*
X57819Y171709D01*
X58017Y171950D01*
X58164Y172225D01*
X58254Y172524D01*
X58285Y172835D01*
X58254Y173145D01*
X58164Y173444D01*
X58017Y173719D01*
X57819Y173960D01*
X57577Y174158D01*
X57302Y174305D01*
X57003Y174396D01*
X56693Y174427D01*
D02*
G37*
G36*
X102362Y173639D02*
X102052Y173609D01*
X101753Y173518D01*
X101478Y173371D01*
X101236Y173173D01*
X101039Y172932D01*
X100891Y172656D01*
X100801Y172358D01*
X100770Y172047D01*
X100801Y171737D01*
X100891Y171438D01*
X101039Y171163D01*
X101236Y170922D01*
X101478Y170724D01*
X101753Y170577D01*
X102052Y170486D01*
X102362Y170455D01*
X102673Y170486D01*
X102971Y170577D01*
X103247Y170724D01*
X103488Y170922D01*
X103686Y171163D01*
X103833Y171438D01*
X103923Y171737D01*
X103954Y172047D01*
X103923Y172358D01*
X103833Y172656D01*
X103686Y172932D01*
X103488Y173173D01*
X103247Y173371D01*
X102971Y173518D01*
X102673Y173609D01*
X102362Y173639D01*
D02*
G37*
G36*
X98425D02*
X98115Y173609D01*
X97816Y173518D01*
X97541Y173371D01*
X97299Y173173D01*
X97102Y172932D01*
X96954Y172656D01*
X96864Y172358D01*
X96833Y172047D01*
X96864Y171737D01*
X96954Y171438D01*
X97102Y171163D01*
X97299Y170922D01*
X97541Y170724D01*
X97816Y170577D01*
X98115Y170486D01*
X98425Y170455D01*
X98736Y170486D01*
X99034Y170577D01*
X99310Y170724D01*
X99551Y170922D01*
X99749Y171163D01*
X99896Y171438D01*
X99986Y171737D01*
X100017Y172047D01*
X99986Y172358D01*
X99896Y172656D01*
X99749Y172932D01*
X99551Y173173D01*
X99310Y173371D01*
X99034Y173518D01*
X98736Y173609D01*
X98425Y173639D01*
D02*
G37*
G36*
X94488D02*
X94178Y173609D01*
X93879Y173518D01*
X93604Y173371D01*
X93362Y173173D01*
X93164Y172932D01*
X93017Y172656D01*
X92927Y172358D01*
X92896Y172047D01*
X92927Y171737D01*
X93017Y171438D01*
X93164Y171163D01*
X93362Y170922D01*
X93604Y170724D01*
X93879Y170577D01*
X94178Y170486D01*
X94488Y170455D01*
X94799Y170486D01*
X95097Y170577D01*
X95373Y170724D01*
X95614Y170922D01*
X95812Y171163D01*
X95959Y171438D01*
X96049Y171737D01*
X96080Y172047D01*
X96049Y172358D01*
X95959Y172656D01*
X95812Y172932D01*
X95614Y173173D01*
X95373Y173371D01*
X95097Y173518D01*
X94799Y173609D01*
X94488Y173639D01*
D02*
G37*
G36*
X90551D02*
X90241Y173609D01*
X89942Y173518D01*
X89667Y173371D01*
X89425Y173173D01*
X89227Y172932D01*
X89080Y172656D01*
X88990Y172358D01*
X88959Y172047D01*
X88990Y171737D01*
X89080Y171438D01*
X89227Y171163D01*
X89425Y170922D01*
X89667Y170724D01*
X89942Y170577D01*
X90241Y170486D01*
X90551Y170455D01*
X90862Y170486D01*
X91160Y170577D01*
X91436Y170724D01*
X91677Y170922D01*
X91875Y171163D01*
X92022Y171438D01*
X92112Y171737D01*
X92143Y172047D01*
X92112Y172358D01*
X92022Y172656D01*
X91875Y172932D01*
X91677Y173173D01*
X91436Y173371D01*
X91160Y173518D01*
X90862Y173609D01*
X90551Y173639D01*
D02*
G37*
G36*
X60630Y169308D02*
X60319Y169278D01*
X60021Y169187D01*
X59746Y169040D01*
X59504Y168842D01*
X59306Y168601D01*
X59159Y168326D01*
X59069Y168027D01*
X59038Y167717D01*
X59069Y167406D01*
X59159Y167107D01*
X59306Y166832D01*
X59504Y166591D01*
X59746Y166393D01*
X60021Y166246D01*
X60319Y166155D01*
X60630Y166125D01*
X60940Y166155D01*
X61239Y166246D01*
X61514Y166393D01*
X61756Y166591D01*
X61954Y166832D01*
X62101Y167107D01*
X62191Y167406D01*
X62222Y167717D01*
X62191Y168027D01*
X62101Y168326D01*
X61954Y168601D01*
X61756Y168842D01*
X61514Y169040D01*
X61239Y169187D01*
X60940Y169278D01*
X60630Y169308D01*
D02*
G37*
G36*
X56693D02*
X56382Y169278D01*
X56084Y169187D01*
X55809Y169040D01*
X55567Y168842D01*
X55369Y168601D01*
X55222Y168326D01*
X55132Y168027D01*
X55101Y167717D01*
X55132Y167406D01*
X55222Y167107D01*
X55369Y166832D01*
X55567Y166591D01*
X55809Y166393D01*
X56084Y166246D01*
X56382Y166155D01*
X56693Y166125D01*
X57003Y166155D01*
X57302Y166246D01*
X57577Y166393D01*
X57819Y166591D01*
X58017Y166832D01*
X58164Y167107D01*
X58254Y167406D01*
X58285Y167717D01*
X58254Y168027D01*
X58164Y168326D01*
X58017Y168601D01*
X57819Y168842D01*
X57577Y169040D01*
X57302Y169187D01*
X57003Y169278D01*
X56693Y169308D01*
D02*
G37*
G36*
X102362Y168521D02*
X102052Y168491D01*
X101753Y168400D01*
X101478Y168253D01*
X101236Y168055D01*
X101039Y167814D01*
X100891Y167538D01*
X100801Y167240D01*
X100770Y166929D01*
X100801Y166619D01*
X100891Y166320D01*
X101039Y166045D01*
X101236Y165804D01*
X101478Y165605D01*
X101753Y165458D01*
X102052Y165368D01*
X102362Y165337D01*
X102673Y165368D01*
X102971Y165458D01*
X103247Y165605D01*
X103488Y165804D01*
X103686Y166045D01*
X103833Y166320D01*
X103923Y166619D01*
X103954Y166929D01*
X103923Y167240D01*
X103833Y167538D01*
X103686Y167814D01*
X103488Y168055D01*
X103247Y168253D01*
X102971Y168400D01*
X102673Y168491D01*
X102362Y168521D01*
D02*
G37*
G36*
X98425D02*
X98115Y168491D01*
X97816Y168400D01*
X97541Y168253D01*
X97299Y168055D01*
X97102Y167814D01*
X96954Y167538D01*
X96864Y167240D01*
X96833Y166929D01*
X96864Y166619D01*
X96954Y166320D01*
X97102Y166045D01*
X97299Y165804D01*
X97541Y165605D01*
X97816Y165458D01*
X98115Y165368D01*
X98425Y165337D01*
X98736Y165368D01*
X99034Y165458D01*
X99310Y165605D01*
X99551Y165804D01*
X99749Y166045D01*
X99896Y166320D01*
X99986Y166619D01*
X100017Y166929D01*
X99986Y167240D01*
X99896Y167538D01*
X99749Y167814D01*
X99551Y168055D01*
X99310Y168253D01*
X99034Y168400D01*
X98736Y168491D01*
X98425Y168521D01*
D02*
G37*
G36*
X94488D02*
X94178Y168491D01*
X93879Y168400D01*
X93604Y168253D01*
X93362Y168055D01*
X93164Y167814D01*
X93017Y167538D01*
X92927Y167240D01*
X92896Y166929D01*
X92927Y166619D01*
X93017Y166320D01*
X93164Y166045D01*
X93362Y165804D01*
X93604Y165605D01*
X93879Y165458D01*
X94178Y165368D01*
X94488Y165337D01*
X94799Y165368D01*
X95097Y165458D01*
X95373Y165605D01*
X95614Y165804D01*
X95812Y166045D01*
X95959Y166320D01*
X96049Y166619D01*
X96080Y166929D01*
X96049Y167240D01*
X95959Y167538D01*
X95812Y167814D01*
X95614Y168055D01*
X95373Y168253D01*
X95097Y168400D01*
X94799Y168491D01*
X94488Y168521D01*
D02*
G37*
G36*
X90551D02*
X90241Y168491D01*
X89942Y168400D01*
X89667Y168253D01*
X89425Y168055D01*
X89227Y167814D01*
X89080Y167538D01*
X88990Y167240D01*
X88959Y166929D01*
X88990Y166619D01*
X89080Y166320D01*
X89227Y166045D01*
X89425Y165804D01*
X89667Y165605D01*
X89942Y165458D01*
X90241Y165368D01*
X90551Y165337D01*
X90862Y165368D01*
X91160Y165458D01*
X91436Y165605D01*
X91677Y165804D01*
X91875Y166045D01*
X92022Y166320D01*
X92112Y166619D01*
X92143Y166929D01*
X92112Y167240D01*
X92022Y167538D01*
X91875Y167814D01*
X91677Y168055D01*
X91436Y168253D01*
X91160Y168400D01*
X90862Y168491D01*
X90551Y168521D01*
D02*
G37*
G36*
X60630Y164584D02*
X60319Y164553D01*
X60021Y164463D01*
X59746Y164316D01*
X59504Y164118D01*
X59306Y163876D01*
X59159Y163601D01*
X59069Y163303D01*
X59038Y162992D01*
X59069Y162682D01*
X59159Y162383D01*
X59306Y162108D01*
X59504Y161866D01*
X59746Y161669D01*
X60021Y161521D01*
X60319Y161431D01*
X60630Y161400D01*
X60940Y161431D01*
X61239Y161521D01*
X61514Y161669D01*
X61756Y161866D01*
X61954Y162108D01*
X62101Y162383D01*
X62191Y162682D01*
X62222Y162992D01*
X62191Y163303D01*
X62101Y163601D01*
X61954Y163876D01*
X61756Y164118D01*
X61514Y164316D01*
X61239Y164463D01*
X60940Y164553D01*
X60630Y164584D01*
D02*
G37*
G36*
X56693D02*
X56382Y164553D01*
X56084Y164463D01*
X55809Y164316D01*
X55567Y164118D01*
X55369Y163876D01*
X55222Y163601D01*
X55132Y163303D01*
X55101Y162992D01*
X55132Y162682D01*
X55222Y162383D01*
X55369Y162108D01*
X55567Y161866D01*
X55809Y161669D01*
X56084Y161521D01*
X56382Y161431D01*
X56693Y161400D01*
X57003Y161431D01*
X57302Y161521D01*
X57577Y161669D01*
X57819Y161866D01*
X58017Y162108D01*
X58164Y162383D01*
X58254Y162682D01*
X58285Y162992D01*
X58254Y163303D01*
X58164Y163601D01*
X58017Y163876D01*
X57819Y164118D01*
X57577Y164316D01*
X57302Y164463D01*
X57003Y164553D01*
X56693Y164584D01*
D02*
G37*
G36*
X102362Y163797D02*
X102052Y163766D01*
X101753Y163675D01*
X101478Y163528D01*
X101236Y163330D01*
X101039Y163089D01*
X100891Y162814D01*
X100801Y162515D01*
X100770Y162205D01*
X100801Y161894D01*
X100891Y161595D01*
X101039Y161320D01*
X101236Y161079D01*
X101478Y160881D01*
X101753Y160734D01*
X102052Y160643D01*
X102362Y160613D01*
X102673Y160643D01*
X102971Y160734D01*
X103247Y160881D01*
X103488Y161079D01*
X103686Y161320D01*
X103833Y161595D01*
X103923Y161894D01*
X103954Y162205D01*
X103923Y162515D01*
X103833Y162814D01*
X103686Y163089D01*
X103488Y163330D01*
X103247Y163528D01*
X102971Y163675D01*
X102673Y163766D01*
X102362Y163797D01*
D02*
G37*
G36*
X98425D02*
X98115Y163766D01*
X97816Y163675D01*
X97541Y163528D01*
X97299Y163330D01*
X97102Y163089D01*
X96954Y162814D01*
X96864Y162515D01*
X96833Y162205D01*
X96864Y161894D01*
X96954Y161595D01*
X97102Y161320D01*
X97299Y161079D01*
X97541Y160881D01*
X97816Y160734D01*
X98115Y160643D01*
X98425Y160613D01*
X98736Y160643D01*
X99034Y160734D01*
X99310Y160881D01*
X99551Y161079D01*
X99749Y161320D01*
X99896Y161595D01*
X99986Y161894D01*
X100017Y162205D01*
X99986Y162515D01*
X99896Y162814D01*
X99749Y163089D01*
X99551Y163330D01*
X99310Y163528D01*
X99034Y163675D01*
X98736Y163766D01*
X98425Y163797D01*
D02*
G37*
G36*
X94488D02*
X94178Y163766D01*
X93879Y163675D01*
X93604Y163528D01*
X93362Y163330D01*
X93164Y163089D01*
X93017Y162814D01*
X92927Y162515D01*
X92896Y162205D01*
X92927Y161894D01*
X93017Y161595D01*
X93164Y161320D01*
X93362Y161079D01*
X93604Y160881D01*
X93879Y160734D01*
X94178Y160643D01*
X94488Y160613D01*
X94799Y160643D01*
X95097Y160734D01*
X95373Y160881D01*
X95614Y161079D01*
X95812Y161320D01*
X95959Y161595D01*
X96049Y161894D01*
X96080Y162205D01*
X96049Y162515D01*
X95959Y162814D01*
X95812Y163089D01*
X95614Y163330D01*
X95373Y163528D01*
X95097Y163675D01*
X94799Y163766D01*
X94488Y163797D01*
D02*
G37*
G36*
X90551D02*
X90241Y163766D01*
X89942Y163675D01*
X89667Y163528D01*
X89425Y163330D01*
X89227Y163089D01*
X89080Y162814D01*
X88990Y162515D01*
X88959Y162205D01*
X88990Y161894D01*
X89080Y161595D01*
X89227Y161320D01*
X89425Y161079D01*
X89667Y160881D01*
X89942Y160734D01*
X90241Y160643D01*
X90551Y160613D01*
X90862Y160643D01*
X91160Y160734D01*
X91436Y160881D01*
X91677Y161079D01*
X91875Y161320D01*
X92022Y161595D01*
X92112Y161894D01*
X92143Y162205D01*
X92112Y162515D01*
X92022Y162814D01*
X91875Y163089D01*
X91677Y163330D01*
X91436Y163528D01*
X91160Y163675D01*
X90862Y163766D01*
X90551Y163797D01*
D02*
G37*
G36*
X131496Y161828D02*
X131185Y161798D01*
X130887Y161707D01*
X130612Y161560D01*
X130370Y161362D01*
X130172Y161121D01*
X130025Y160845D01*
X129935Y160547D01*
X129904Y160236D01*
X129935Y159926D01*
X130025Y159627D01*
X130172Y159352D01*
X130370Y159111D01*
X130612Y158913D01*
X130887Y158765D01*
X131185Y158675D01*
X131496Y158644D01*
X131807Y158675D01*
X132105Y158765D01*
X132380Y158913D01*
X132622Y159111D01*
X132820Y159352D01*
X132967Y159627D01*
X133057Y159926D01*
X133088Y160236D01*
X133057Y160547D01*
X132967Y160845D01*
X132820Y161121D01*
X132622Y161362D01*
X132380Y161560D01*
X132105Y161707D01*
X131807Y161798D01*
X131496Y161828D01*
D02*
G37*
G36*
X60630Y159860D02*
X60319Y159829D01*
X60021Y159739D01*
X59746Y159591D01*
X59504Y159393D01*
X59306Y159152D01*
X59159Y158877D01*
X59069Y158578D01*
X59038Y158268D01*
X59069Y157957D01*
X59159Y157659D01*
X59306Y157383D01*
X59504Y157142D01*
X59746Y156944D01*
X60021Y156797D01*
X60319Y156706D01*
X60630Y156676D01*
X60940Y156706D01*
X61239Y156797D01*
X61514Y156944D01*
X61756Y157142D01*
X61954Y157383D01*
X62101Y157659D01*
X62191Y157957D01*
X62222Y158268D01*
X62191Y158578D01*
X62101Y158877D01*
X61954Y159152D01*
X61756Y159393D01*
X61514Y159591D01*
X61239Y159739D01*
X60940Y159829D01*
X60630Y159860D01*
D02*
G37*
G36*
X56693D02*
X56382Y159829D01*
X56084Y159739D01*
X55809Y159591D01*
X55567Y159393D01*
X55369Y159152D01*
X55222Y158877D01*
X55132Y158578D01*
X55101Y158268D01*
X55132Y157957D01*
X55222Y157659D01*
X55369Y157383D01*
X55567Y157142D01*
X55809Y156944D01*
X56084Y156797D01*
X56382Y156706D01*
X56693Y156676D01*
X57003Y156706D01*
X57302Y156797D01*
X57577Y156944D01*
X57819Y157142D01*
X58017Y157383D01*
X58164Y157659D01*
X58254Y157957D01*
X58285Y158268D01*
X58254Y158578D01*
X58164Y158877D01*
X58017Y159152D01*
X57819Y159393D01*
X57577Y159591D01*
X57302Y159739D01*
X57003Y159829D01*
X56693Y159860D01*
D02*
G37*
G36*
X102362Y159072D02*
X102052Y159042D01*
X101753Y158951D01*
X101478Y158804D01*
X101236Y158606D01*
X101039Y158365D01*
X100891Y158089D01*
X100801Y157791D01*
X100770Y157480D01*
X100801Y157170D01*
X100891Y156871D01*
X101039Y156596D01*
X101236Y156355D01*
X101478Y156157D01*
X101753Y156010D01*
X102052Y155919D01*
X102362Y155888D01*
X102673Y155919D01*
X102971Y156010D01*
X103247Y156157D01*
X103488Y156355D01*
X103686Y156596D01*
X103833Y156871D01*
X103923Y157170D01*
X103954Y157480D01*
X103923Y157791D01*
X103833Y158089D01*
X103686Y158365D01*
X103488Y158606D01*
X103247Y158804D01*
X102971Y158951D01*
X102673Y159042D01*
X102362Y159072D01*
D02*
G37*
G36*
X98425D02*
X98115Y159042D01*
X97816Y158951D01*
X97541Y158804D01*
X97299Y158606D01*
X97102Y158365D01*
X96954Y158089D01*
X96864Y157791D01*
X96833Y157480D01*
X96864Y157170D01*
X96954Y156871D01*
X97102Y156596D01*
X97299Y156355D01*
X97541Y156157D01*
X97816Y156010D01*
X98115Y155919D01*
X98425Y155888D01*
X98736Y155919D01*
X99034Y156010D01*
X99310Y156157D01*
X99551Y156355D01*
X99749Y156596D01*
X99896Y156871D01*
X99986Y157170D01*
X100017Y157480D01*
X99986Y157791D01*
X99896Y158089D01*
X99749Y158365D01*
X99551Y158606D01*
X99310Y158804D01*
X99034Y158951D01*
X98736Y159042D01*
X98425Y159072D01*
D02*
G37*
G36*
X94488D02*
X94178Y159042D01*
X93879Y158951D01*
X93604Y158804D01*
X93362Y158606D01*
X93164Y158365D01*
X93017Y158089D01*
X92927Y157791D01*
X92896Y157480D01*
X92927Y157170D01*
X93017Y156871D01*
X93164Y156596D01*
X93362Y156355D01*
X93604Y156157D01*
X93879Y156010D01*
X94178Y155919D01*
X94488Y155888D01*
X94799Y155919D01*
X95097Y156010D01*
X95373Y156157D01*
X95614Y156355D01*
X95812Y156596D01*
X95959Y156871D01*
X96049Y157170D01*
X96080Y157480D01*
X96049Y157791D01*
X95959Y158089D01*
X95812Y158365D01*
X95614Y158606D01*
X95373Y158804D01*
X95097Y158951D01*
X94799Y159042D01*
X94488Y159072D01*
D02*
G37*
G36*
X90551D02*
X90241Y159042D01*
X89942Y158951D01*
X89667Y158804D01*
X89425Y158606D01*
X89227Y158365D01*
X89080Y158089D01*
X88990Y157791D01*
X88959Y157480D01*
X88990Y157170D01*
X89080Y156871D01*
X89227Y156596D01*
X89425Y156355D01*
X89667Y156157D01*
X89942Y156010D01*
X90241Y155919D01*
X90551Y155888D01*
X90862Y155919D01*
X91160Y156010D01*
X91436Y156157D01*
X91677Y156355D01*
X91875Y156596D01*
X92022Y156871D01*
X92112Y157170D01*
X92143Y157480D01*
X92112Y157791D01*
X92022Y158089D01*
X91875Y158365D01*
X91677Y158606D01*
X91436Y158804D01*
X91160Y158951D01*
X90862Y159042D01*
X90551Y159072D01*
D02*
G37*
G36*
X131496Y157104D02*
X131185Y157073D01*
X130887Y156983D01*
X130612Y156835D01*
X130370Y156638D01*
X130172Y156396D01*
X130025Y156121D01*
X129935Y155822D01*
X129904Y155512D01*
X129935Y155201D01*
X130025Y154903D01*
X130172Y154627D01*
X130370Y154386D01*
X130612Y154188D01*
X130887Y154041D01*
X131185Y153951D01*
X131496Y153920D01*
X131807Y153951D01*
X132105Y154041D01*
X132380Y154188D01*
X132622Y154386D01*
X132820Y154627D01*
X132967Y154903D01*
X133057Y155201D01*
X133088Y155512D01*
X133057Y155822D01*
X132967Y156121D01*
X132820Y156396D01*
X132622Y156638D01*
X132380Y156835D01*
X132105Y156983D01*
X131807Y157073D01*
X131496Y157104D01*
D02*
G37*
G36*
X85039Y119308D02*
X84729Y119278D01*
X84430Y119187D01*
X84155Y119040D01*
X84050Y118954D01*
X83910Y118842D01*
X83413Y118842D01*
X83272Y118954D01*
X83168Y119040D01*
X82893Y119187D01*
X82594Y119278D01*
X82284Y119308D01*
X81973Y119278D01*
X81674Y119187D01*
X81399Y119040D01*
X81158Y118842D01*
X80960Y118601D01*
X80813Y118326D01*
X80722Y118027D01*
X80691Y117717D01*
X80722Y117406D01*
X80813Y117107D01*
X80960Y116832D01*
X81158Y116591D01*
X81123Y115965D01*
X80889Y115693D01*
X80657D01*
X80517Y115805D01*
X80412Y115891D01*
X80137Y116038D01*
X79838Y116128D01*
X79528Y116159D01*
X79217Y116128D01*
X78918Y116038D01*
X78643Y115891D01*
X78402Y115693D01*
X78204Y115451D01*
X78057Y115176D01*
X77966Y114877D01*
X77936Y114567D01*
X77966Y114256D01*
X78057Y113958D01*
X78204Y113682D01*
X78402Y113441D01*
X78643Y113243D01*
X78918Y113096D01*
X79217Y113006D01*
X79528Y112975D01*
X79838Y113006D01*
X80137Y113096D01*
X80412Y113243D01*
X80517Y113329D01*
X80657Y113441D01*
X81154Y113441D01*
X81294Y113329D01*
X81399Y113243D01*
X81674Y113096D01*
X81973Y113006D01*
X82284Y112975D01*
X82594Y113006D01*
X82893Y113096D01*
X83168Y113243D01*
X83409Y113441D01*
X83607Y113682D01*
X83754Y113958D01*
X83845Y114256D01*
X83875Y114567D01*
X83845Y114877D01*
X83754Y115176D01*
X83607Y115451D01*
X83409Y115693D01*
X83299Y115783D01*
X83239Y116063D01*
X83393Y116379D01*
X84046Y116482D01*
X84050Y116479D01*
X84155Y116393D01*
X84430Y116246D01*
X84729Y116155D01*
X85039Y116125D01*
X85350Y116155D01*
X85649Y116246D01*
X85924Y116393D01*
X86165Y116591D01*
X86363Y116832D01*
X86510Y117107D01*
X86601Y117406D01*
X86631Y117717D01*
X86601Y118027D01*
X86510Y118326D01*
X86363Y118601D01*
X86165Y118842D01*
X85924Y119040D01*
X85649Y119187D01*
X85350Y119278D01*
X85039Y119308D01*
D02*
G37*
G36*
X88583Y117734D02*
X88272Y117703D01*
X87973Y117613D01*
X87698Y117465D01*
X87457Y117267D01*
X87259Y117026D01*
X87112Y116751D01*
X87021Y116452D01*
X86991Y116142D01*
X87021Y115831D01*
X87112Y115533D01*
X87259Y115257D01*
X87457Y115016D01*
X87698Y114818D01*
X87973Y114671D01*
X88272Y114580D01*
X88583Y114550D01*
X88893Y114580D01*
X89192Y114671D01*
X89467Y114818D01*
X89708Y115016D01*
X89906Y115257D01*
X90053Y115533D01*
X90144Y115831D01*
X90175Y116142D01*
X90144Y116452D01*
X90053Y116751D01*
X89906Y117026D01*
X89708Y117267D01*
X89467Y117465D01*
X89192Y117613D01*
X88893Y117703D01*
X88583Y117734D01*
D02*
G37*
G36*
X79527Y85844D02*
X79217Y85813D01*
X78918Y85723D01*
X78643Y85576D01*
X78402Y85378D01*
X78204Y85136D01*
X78057Y84861D01*
X77966Y84562D01*
X77936Y84252D01*
X77966Y83941D01*
X78057Y83643D01*
X78204Y83368D01*
X78402Y83126D01*
X78643Y82928D01*
X78918Y82781D01*
X79217Y82691D01*
X79527Y82660D01*
X79838Y82691D01*
X80137Y82781D01*
X80412Y82928D01*
X80653Y83126D01*
X80851Y83368D01*
X80998Y83643D01*
X81089Y83941D01*
X81120Y84252D01*
X81089Y84562D01*
X80998Y84861D01*
X80851Y85136D01*
X80653Y85378D01*
X80412Y85576D01*
X80137Y85723D01*
X79838Y85813D01*
X79527Y85844D01*
D02*
G37*
G36*
X116929Y117734D02*
X116619Y117703D01*
X116320Y117613D01*
X116045Y117465D01*
X115804Y117267D01*
X115605Y117026D01*
X115458Y116751D01*
X115368Y116452D01*
X115337Y116142D01*
X115368Y115831D01*
X115458Y115533D01*
X115605Y115257D01*
X115804Y115016D01*
X116045Y114818D01*
X116320Y114671D01*
X116619Y114580D01*
X116929Y114550D01*
X117240Y114580D01*
X117538Y114671D01*
X117814Y114818D01*
X118055Y115016D01*
X118253Y115257D01*
X118400Y115533D01*
X118491Y115831D01*
X118521Y116142D01*
X118491Y116452D01*
X118400Y116751D01*
X118253Y117026D01*
X118055Y117267D01*
X117814Y117465D01*
X117538Y117613D01*
X117240Y117703D01*
X116929Y117734D01*
D02*
G37*
G36*
X120472Y119308D02*
X120162Y119278D01*
X119863Y119187D01*
X119588Y119040D01*
X119347Y118842D01*
X119149Y118601D01*
X119002Y118326D01*
X118911Y118027D01*
X118880Y117717D01*
X118911Y117406D01*
X119002Y117107D01*
X119149Y116832D01*
X119347Y116591D01*
X119588Y116393D01*
X119603Y116385D01*
X119846Y115991D01*
X119822Y115631D01*
X119789Y115570D01*
X119699Y115271D01*
X119668Y114961D01*
X119699Y114650D01*
X119789Y114351D01*
X119936Y114076D01*
X120134Y113835D01*
X120375Y113637D01*
X120651Y113490D01*
X120949Y113399D01*
X121260Y113369D01*
X121570Y113399D01*
X121869Y113490D01*
X122144Y113637D01*
X122386Y113835D01*
X122583Y114076D01*
X122627Y114159D01*
X123228Y114008D01*
X123242Y113863D01*
X123332Y113564D01*
X123479Y113289D01*
X123678Y113048D01*
X123919Y112850D01*
X124194Y112703D01*
X124493Y112612D01*
X124803Y112581D01*
X125114Y112612D01*
X125412Y112703D01*
X125688Y112850D01*
X125929Y113048D01*
X126127Y113289D01*
X126274Y113564D01*
X126365Y113863D01*
X126395Y114173D01*
X126365Y114484D01*
X126274Y114782D01*
X126127Y115058D01*
X125929Y115299D01*
X125688Y115497D01*
X125412Y115644D01*
X125397Y115649D01*
X125335Y115703D01*
X125096Y116243D01*
X125093Y116315D01*
X125099Y116339D01*
X125183Y116619D01*
X125214Y116929D01*
X125183Y117240D01*
X125093Y117538D01*
X124946Y117814D01*
X124748Y118055D01*
X124506Y118253D01*
X124231Y118400D01*
X123933Y118491D01*
X123622Y118521D01*
X123311Y118491D01*
X123013Y118400D01*
X122738Y118253D01*
X122602Y118141D01*
X122182Y118209D01*
X121943Y118326D01*
X121796Y118601D01*
X121598Y118842D01*
X121357Y119040D01*
X121082Y119187D01*
X120783Y119278D01*
X120472Y119308D01*
D02*
G37*
G36*
X114567Y111631D02*
X114256Y111601D01*
X113958Y111510D01*
X113682Y111363D01*
X113441Y111165D01*
X113243Y110924D01*
X113096Y110649D01*
X113006Y110350D01*
X112975Y110039D01*
X113006Y109729D01*
X113096Y109430D01*
X113243Y109155D01*
X113441Y108914D01*
X113682Y108716D01*
X113958Y108569D01*
X114256Y108478D01*
X114567Y108448D01*
X114877Y108478D01*
X115176Y108569D01*
X115451Y108716D01*
X115693Y108914D01*
X115891Y109155D01*
X116038Y109430D01*
X116128Y109729D01*
X116159Y110039D01*
X116128Y110350D01*
X116038Y110649D01*
X115891Y110924D01*
X115693Y111165D01*
X115451Y111363D01*
X115176Y111510D01*
X114877Y111601D01*
X114567Y111631D01*
D02*
G37*
G36*
X105905Y91356D02*
X105595Y91325D01*
X105296Y91234D01*
X105021Y91087D01*
X104780Y90889D01*
X104582Y90648D01*
X104435Y90373D01*
X104344Y90074D01*
X104314Y89764D01*
X104344Y89453D01*
X104435Y89155D01*
X104582Y88879D01*
X104780Y88638D01*
X105021Y88440D01*
X105296Y88293D01*
X105595Y88202D01*
X105905Y88172D01*
X106216Y88202D01*
X106515Y88293D01*
X106790Y88440D01*
X107031Y88638D01*
X107229Y88879D01*
X107376Y89155D01*
X107467Y89453D01*
X107497Y89764D01*
X107467Y90074D01*
X107376Y90373D01*
X107229Y90648D01*
X107031Y90889D01*
X106790Y91087D01*
X106515Y91234D01*
X106216Y91325D01*
X105905Y91356D01*
D02*
G37*
G36*
X106299Y85844D02*
X105989Y85813D01*
X105690Y85723D01*
X105415Y85576D01*
X105174Y85378D01*
X104976Y85136D01*
X104829Y84861D01*
X104738Y84562D01*
X104707Y84252D01*
X104738Y83941D01*
X104829Y83643D01*
X104976Y83368D01*
X105174Y83126D01*
X105415Y82928D01*
X105690Y82781D01*
X105989Y82691D01*
X106299Y82660D01*
X106610Y82691D01*
X106908Y82781D01*
X107184Y82928D01*
X107425Y83126D01*
X107623Y83368D01*
X107770Y83643D01*
X107861Y83941D01*
X107891Y84252D01*
X107861Y84562D01*
X107770Y84861D01*
X107623Y85136D01*
X107425Y85378D01*
X107184Y85576D01*
X106908Y85723D01*
X106610Y85813D01*
X106299Y85844D01*
D02*
G37*
G36*
X47559Y72064D02*
X47249Y72034D01*
X46950Y71943D01*
X46675Y71796D01*
X46433Y71598D01*
X46235Y71357D01*
X46088Y71082D01*
X45998Y70783D01*
X45967Y70472D01*
X45998Y70162D01*
X46088Y69863D01*
X46235Y69588D01*
X46433Y69347D01*
X46675Y69149D01*
X46950Y69002D01*
X47249Y68911D01*
X47559Y68880D01*
X47870Y68911D01*
X48168Y69002D01*
X48443Y69149D01*
X48685Y69347D01*
X48883Y69588D01*
X49030Y69863D01*
X49120Y70162D01*
X49151Y70472D01*
X49120Y70783D01*
X49030Y71082D01*
X48883Y71357D01*
X48685Y71598D01*
X48443Y71796D01*
X48168Y71943D01*
X47870Y72034D01*
X47559Y72064D01*
D02*
G37*
%LPD*%
D37*
X121260Y27165D02*
D03*
X74016Y26772D02*
D03*
X142126Y90551D02*
D03*
X59449D02*
D03*
X100394Y61024D02*
D03*
X124803Y12598D02*
D03*
X90945Y11811D02*
D03*
D38*
X11417Y148031D02*
D03*
X39764D02*
D03*
X11417Y185039D02*
D03*
X39764D02*
D03*
X185039Y156299D02*
D03*
Y184646D02*
D03*
X148031Y156299D02*
D03*
Y184646D02*
D03*
X156693Y12205D02*
D03*
X185039D02*
D03*
X156693Y49213D02*
D03*
X185039D02*
D03*
X40551Y50787D02*
D03*
X12205D02*
D03*
X40551Y13780D02*
D03*
X12205D02*
D03*
D39*
X122047Y142913D02*
D03*
X125591Y140945D02*
D03*
Y136614D02*
D03*
X129134Y134646D02*
D03*
X134252D02*
D03*
X71260Y146063D02*
D03*
X56693D02*
D03*
X61417D02*
D03*
X66142D02*
D03*
X71260Y142126D02*
D03*
X56693D02*
D03*
X61417D02*
D03*
X66142D02*
D03*
X71260Y138189D02*
D03*
X56693D02*
D03*
X61417D02*
D03*
X66142D02*
D03*
Y134252D02*
D03*
X61417D02*
D03*
X56693D02*
D03*
X71260D02*
D03*
X129921Y62598D02*
D03*
Y65354D02*
D03*
X138189D02*
D03*
X135433D02*
D03*
X132677D02*
D03*
X138189Y62598D02*
D03*
X135433D02*
D03*
X132677D02*
D03*
X65748Y65748D02*
D03*
Y62992D02*
D03*
Y60236D02*
D03*
X62992Y62992D02*
D03*
Y65748D02*
D03*
X60236Y62992D02*
D03*
X57480D02*
D03*
X54724D02*
D03*
X60236Y65748D02*
D03*
X57480D02*
D03*
X54724D02*
D03*
X127165Y59842D02*
D03*
Y62598D02*
D03*
Y65354D02*
D03*
X73228Y44094D02*
D03*
Y40157D02*
D03*
Y48031D02*
D03*
X76772Y44094D02*
D03*
X70472Y81890D02*
D03*
Y74016D02*
D03*
Y77953D02*
D03*
X61024Y81890D02*
D03*
X65748Y74016D02*
D03*
X61024D02*
D03*
X65748Y77953D02*
D03*
X61024D02*
D03*
Y70079D02*
D03*
X55905Y81890D02*
D03*
X65748D02*
D03*
X55905Y70079D02*
D03*
Y77953D02*
D03*
Y74016D02*
D03*
X70472Y70079D02*
D03*
X65748D02*
D03*
X80709Y172047D02*
D03*
Y157480D02*
D03*
Y162205D02*
D03*
Y166929D02*
D03*
X76772D02*
D03*
Y162205D02*
D03*
Y157480D02*
D03*
Y172047D02*
D03*
X72835Y166929D02*
D03*
Y162205D02*
D03*
Y157480D02*
D03*
Y172047D02*
D03*
X68898Y166929D02*
D03*
Y162205D02*
D03*
Y157480D02*
D03*
Y172047D02*
D03*
X123228Y172441D02*
D03*
Y157874D02*
D03*
Y162598D02*
D03*
Y167323D02*
D03*
X119291D02*
D03*
Y162598D02*
D03*
Y157874D02*
D03*
Y172441D02*
D03*
X115354Y167323D02*
D03*
Y162598D02*
D03*
Y157874D02*
D03*
Y172441D02*
D03*
X111417Y167323D02*
D03*
Y162598D02*
D03*
Y157874D02*
D03*
Y172441D02*
D03*
X134252Y138583D02*
D03*
X129134D02*
D03*
Y142520D02*
D03*
X134252D02*
D03*
X129134Y146457D02*
D03*
X124409D02*
D03*
X119685D02*
D03*
X134252D02*
D03*
X129134Y150394D02*
D03*
X124409D02*
D03*
X119685D02*
D03*
X134252D02*
D03*
X71260Y91732D02*
D03*
X66142D02*
D03*
Y95669D02*
D03*
X61417D02*
D03*
X56693D02*
D03*
X71260D02*
D03*
X66142Y99606D02*
D03*
X61417D02*
D03*
X56693D02*
D03*
X71260D02*
D03*
X66142Y103543D02*
D03*
X61417D02*
D03*
X56693D02*
D03*
X71260D02*
D03*
X129921Y92126D02*
D03*
X134646D02*
D03*
X139370Y96063D02*
D03*
X134646D02*
D03*
X129921D02*
D03*
X144488D02*
D03*
X139370Y100000D02*
D03*
X134646D02*
D03*
X129921D02*
D03*
X144488D02*
D03*
X139370Y103937D02*
D03*
X134646D02*
D03*
X129921D02*
D03*
X144488D02*
D03*
X138976Y32283D02*
D03*
Y36220D02*
D03*
Y40157D02*
D03*
Y44094D02*
D03*
Y48031D02*
D03*
Y55905D02*
D03*
Y51968D02*
D03*
X142520Y40157D02*
D03*
Y36220D02*
D03*
Y32283D02*
D03*
Y44094D02*
D03*
Y48031D02*
D03*
Y51968D02*
D03*
Y55905D02*
D03*
X135433Y32677D02*
D03*
Y36614D02*
D03*
Y40551D02*
D03*
Y44488D02*
D03*
Y52362D02*
D03*
Y48425D02*
D03*
X59842Y32283D02*
D03*
Y36220D02*
D03*
Y40157D02*
D03*
Y44094D02*
D03*
Y51968D02*
D03*
Y48031D02*
D03*
X52756Y55905D02*
D03*
Y51968D02*
D03*
Y48031D02*
D03*
Y44094D02*
D03*
Y32283D02*
D03*
Y36220D02*
D03*
Y40157D02*
D03*
X56299Y51968D02*
D03*
Y55905D02*
D03*
Y48031D02*
D03*
Y44094D02*
D03*
Y40157D02*
D03*
Y36220D02*
D03*
Y32283D02*
D03*
X66535Y48031D02*
D03*
Y51968D02*
D03*
Y44094D02*
D03*
Y40157D02*
D03*
Y36220D02*
D03*
Y32283D02*
D03*
X69685Y48031D02*
D03*
Y51968D02*
D03*
Y44094D02*
D03*
Y40157D02*
D03*
Y36220D02*
D03*
Y32283D02*
D03*
X73228Y51968D02*
D03*
Y36220D02*
D03*
Y32283D02*
D03*
X76772Y48031D02*
D03*
Y51968D02*
D03*
Y40157D02*
D03*
Y36220D02*
D03*
Y32283D02*
D03*
X79921Y48031D02*
D03*
Y51968D02*
D03*
Y44094D02*
D03*
Y40157D02*
D03*
Y36220D02*
D03*
Y32283D02*
D03*
X83071Y48031D02*
D03*
Y51968D02*
D03*
Y44094D02*
D03*
Y40157D02*
D03*
Y36220D02*
D03*
Y32283D02*
D03*
Y55905D02*
D03*
X79921D02*
D03*
X76772D02*
D03*
X73228D02*
D03*
X69685D02*
D03*
X129134Y48031D02*
D03*
Y51968D02*
D03*
Y44094D02*
D03*
Y40157D02*
D03*
Y36220D02*
D03*
Y32283D02*
D03*
X125984Y48031D02*
D03*
Y51968D02*
D03*
Y44094D02*
D03*
Y40157D02*
D03*
Y36220D02*
D03*
Y32283D02*
D03*
X122441Y48031D02*
D03*
Y51968D02*
D03*
Y44094D02*
D03*
Y40157D02*
D03*
Y36220D02*
D03*
Y32283D02*
D03*
X118898Y48031D02*
D03*
Y51968D02*
D03*
Y44094D02*
D03*
Y40157D02*
D03*
Y36220D02*
D03*
Y32283D02*
D03*
X115748Y48031D02*
D03*
Y51968D02*
D03*
Y44094D02*
D03*
Y40157D02*
D03*
Y36220D02*
D03*
Y32283D02*
D03*
X112598Y48031D02*
D03*
Y51968D02*
D03*
Y44094D02*
D03*
Y40157D02*
D03*
Y36220D02*
D03*
Y32283D02*
D03*
Y55905D02*
D03*
X115748D02*
D03*
X118898D02*
D03*
X122441D02*
D03*
X125984D02*
D03*
X100787Y56299D02*
D03*
Y32677D02*
D03*
Y36614D02*
D03*
Y40551D02*
D03*
Y44488D02*
D03*
Y52362D02*
D03*
Y48425D02*
D03*
X104331Y56299D02*
D03*
Y32677D02*
D03*
Y36614D02*
D03*
Y40551D02*
D03*
Y44488D02*
D03*
Y52362D02*
D03*
Y48425D02*
D03*
X107874Y56299D02*
D03*
Y32677D02*
D03*
Y36614D02*
D03*
Y40551D02*
D03*
Y44488D02*
D03*
Y52362D02*
D03*
Y48425D02*
D03*
X94488D02*
D03*
Y52362D02*
D03*
Y44488D02*
D03*
Y40551D02*
D03*
Y36614D02*
D03*
Y32677D02*
D03*
Y56299D02*
D03*
X90945Y48425D02*
D03*
Y52362D02*
D03*
Y44488D02*
D03*
Y40551D02*
D03*
Y36614D02*
D03*
Y32677D02*
D03*
Y56299D02*
D03*
X87402Y48425D02*
D03*
Y52362D02*
D03*
Y44488D02*
D03*
Y40551D02*
D03*
Y36614D02*
D03*
Y32677D02*
D03*
Y56299D02*
D03*
X85827Y140157D02*
D03*
X130709Y128740D02*
D03*
X75590Y127953D02*
D03*
X59842Y56299D02*
D03*
X66142D02*
D03*
X135433Y55905D02*
D03*
X129134D02*
D03*
X130315Y70079D02*
D03*
X144882D02*
D03*
X140157D02*
D03*
X135433D02*
D03*
X130315Y74016D02*
D03*
X144882D02*
D03*
X140157D02*
D03*
X135433D02*
D03*
X130315Y77953D02*
D03*
X144882D02*
D03*
X140157D02*
D03*
X135433D02*
D03*
Y81890D02*
D03*
X140157D02*
D03*
X144882D02*
D03*
X130315D02*
D03*
X86614Y85039D02*
D03*
X91339D02*
D03*
X96063D02*
D03*
X86614Y81890D02*
D03*
X91339D02*
D03*
X96063D02*
D03*
X113779Y85039D02*
D03*
X118504D02*
D03*
X123228D02*
D03*
X113779Y81890D02*
D03*
X118504D02*
D03*
X123228D02*
D03*
X96063Y92795D02*
D03*
X109449Y93307D02*
D03*
X112205Y107874D02*
D03*
X93307Y108268D02*
D03*
X79527Y77559D02*
D03*
X94095D02*
D03*
X89370D02*
D03*
X84646D02*
D03*
Y73622D02*
D03*
X89370D02*
D03*
X94095D02*
D03*
X79527D02*
D03*
X84646Y69685D02*
D03*
X89370D02*
D03*
X94095D02*
D03*
X79527D02*
D03*
X84646Y65748D02*
D03*
X89370D02*
D03*
X94095D02*
D03*
X79527D02*
D03*
X106299Y77559D02*
D03*
X120866D02*
D03*
X116142D02*
D03*
X111417D02*
D03*
Y73622D02*
D03*
X116142D02*
D03*
X120866D02*
D03*
X106299D02*
D03*
X111417Y69685D02*
D03*
X116142D02*
D03*
X120866D02*
D03*
X106299D02*
D03*
X111417Y65748D02*
D03*
X116142D02*
D03*
X120866D02*
D03*
X106299D02*
D03*
M02*
