G04*
G04 #@! TF.GenerationSoftware,Altium Limited,Altium Designer,19.0.6 (157)*
G04*
G04 Layer_Color=2752767*
%FSLAX25Y25*%
%MOIN*%
G70*
G01*
G75*
%ADD58C,0.00200*%
%ADD59C,0.00267*%
D58*
X120460Y26365D02*
Y27965D01*
X122060D01*
Y26365D01*
X120460D01*
X73216Y25972D02*
Y27572D01*
X74816D01*
Y25972D01*
X73216D01*
X141326Y89751D02*
Y91351D01*
X142926D01*
Y89751D01*
X141326D01*
X58649D02*
Y91351D01*
X60249D01*
Y89751D01*
X58649D01*
X99594Y60224D02*
Y61824D01*
X101194D01*
Y60224D01*
X99594D01*
X124003Y11798D02*
Y13398D01*
X125603D01*
Y11798D01*
X124003D01*
X90145Y11011D02*
Y12611D01*
X91745D01*
Y11011D01*
X90145D01*
X121260Y114161D02*
X120460Y115761D01*
X122060D01*
X121260Y114161D01*
X123622Y116129D02*
X122822Y117729D01*
X124422D01*
X123622Y116129D01*
X124803Y113373D02*
X124003Y114973D01*
X125603D01*
X124803Y113373D01*
X79528Y113767D02*
X78728Y115367D01*
X80328D01*
X79528Y113767D01*
X114567Y109239D02*
X113767Y110839D01*
X115367D01*
X114567Y109239D01*
X120472Y116917D02*
X119672Y118517D01*
X121272D01*
X120472Y116917D01*
X85039D02*
X84239Y118517D01*
X85839D01*
X85039Y116917D01*
X105905Y88964D02*
X105105Y90564D01*
X106705D01*
X105905Y88964D01*
X122047Y142113D02*
X121247Y143713D01*
X122847D01*
X122047Y142113D01*
X125591Y140145D02*
X124791Y141745D01*
X126391D01*
X125591Y140145D01*
Y135814D02*
X124791Y137414D01*
X126391D01*
X125591Y135814D01*
X129134Y133846D02*
X128334Y135446D01*
X129934D01*
X129134Y133846D01*
X134252D02*
X133452Y135446D01*
X135052D01*
X134252Y133846D01*
X71260Y145263D02*
X70460Y146863D01*
X72060D01*
X71260Y145263D01*
X56693D02*
X55893Y146863D01*
X57493D01*
X56693Y145263D01*
X61417D02*
X60617Y146863D01*
X62217D01*
X61417Y145263D01*
X66142D02*
X65342Y146863D01*
X66942D01*
X66142Y145263D01*
X71260Y141326D02*
X70460Y142926D01*
X72060D01*
X71260Y141326D01*
X56693D02*
X55893Y142926D01*
X57493D01*
X56693Y141326D01*
X61417D02*
X60617Y142926D01*
X62217D01*
X61417Y141326D01*
X66142D02*
X65342Y142926D01*
X66942D01*
X66142Y141326D01*
X71260Y137389D02*
X70460Y138989D01*
X72060D01*
X71260Y137389D01*
X56693D02*
X55893Y138989D01*
X57493D01*
X56693Y137389D01*
X61417D02*
X60617Y138989D01*
X62217D01*
X61417Y137389D01*
X66142D02*
X65342Y138989D01*
X66942D01*
X66142Y137389D01*
Y133452D02*
X65342Y135052D01*
X66942D01*
X66142Y133452D01*
X61417D02*
X60617Y135052D01*
X62217D01*
X61417Y133452D01*
X56693D02*
X55893Y135052D01*
X57493D01*
X56693Y133452D01*
X71260D02*
X70460Y135052D01*
X72060D01*
X71260Y133452D01*
X100984Y86208D02*
X100184Y87808D01*
X101784D01*
X100984Y86208D01*
X47559Y69672D02*
X46759Y71272D01*
X48359D01*
X47559Y69672D01*
X129921Y61798D02*
X129121Y63398D01*
X130721D01*
X129921Y61798D01*
Y64554D02*
X129121Y66154D01*
X130721D01*
X129921Y64554D01*
X138189D02*
X137389Y66154D01*
X138989D01*
X138189Y64554D01*
X135433D02*
X134633Y66154D01*
X136233D01*
X135433Y64554D01*
X132677D02*
X131877Y66154D01*
X133477D01*
X132677Y64554D01*
X138189Y61798D02*
X137389Y63398D01*
X138989D01*
X138189Y61798D01*
X135433D02*
X134633Y63398D01*
X136233D01*
X135433Y61798D01*
X132677D02*
X131877Y63398D01*
X133477D01*
X132677Y61798D01*
X65748Y64948D02*
X64948Y66548D01*
X66548D01*
X65748Y64948D01*
Y62192D02*
X64948Y63792D01*
X66548D01*
X65748Y62192D01*
Y59436D02*
X64948Y61036D01*
X66548D01*
X65748Y59436D01*
X62992Y62192D02*
X62192Y63792D01*
X63792D01*
X62992Y62192D01*
Y64948D02*
X62192Y66548D01*
X63792D01*
X62992Y64948D01*
X60236Y62192D02*
X59436Y63792D01*
X61036D01*
X60236Y62192D01*
X57480D02*
X56680Y63792D01*
X58280D01*
X57480Y62192D01*
X54724D02*
X53924Y63792D01*
X55524D01*
X54724Y62192D01*
X60236Y64948D02*
X59436Y66548D01*
X61036D01*
X60236Y64948D01*
X57480D02*
X56680Y66548D01*
X58280D01*
X57480Y64948D01*
X54724D02*
X53924Y66548D01*
X55524D01*
X54724Y64948D01*
X127165Y59043D02*
X126365Y60642D01*
X127965D01*
X127165Y59043D01*
Y61798D02*
X126365Y63398D01*
X127965D01*
X127165Y61798D01*
Y64554D02*
X126365Y66154D01*
X127965D01*
X127165Y64554D01*
X73228Y43295D02*
X72428Y44894D01*
X74028D01*
X73228Y43295D01*
Y39358D02*
X72428Y40957D01*
X74028D01*
X73228Y39358D01*
Y47232D02*
X72428Y48831D01*
X74028D01*
X73228Y47232D01*
X76772Y43295D02*
X75972Y44894D01*
X77572D01*
X76772Y43295D01*
X70472Y62192D02*
X69672Y63792D01*
X71272D01*
X70472Y62192D01*
X70472Y81090D02*
X69672Y82690D01*
X71272D01*
X70472Y81090D01*
Y73216D02*
X69672Y74816D01*
X71272D01*
X70472Y73216D01*
Y77153D02*
X69672Y78753D01*
X71272D01*
X70472Y77153D01*
X61024Y81090D02*
X60224Y82690D01*
X61824D01*
X61024Y81090D01*
X65748Y73216D02*
X64948Y74816D01*
X66548D01*
X65748Y73216D01*
X61024D02*
X60224Y74816D01*
X61824D01*
X61024Y73216D01*
X65748Y77153D02*
X64948Y78753D01*
X66548D01*
X65748Y77153D01*
X61024D02*
X60224Y78753D01*
X61824D01*
X61024Y77153D01*
Y69279D02*
X60224Y70879D01*
X61824D01*
X61024Y69279D01*
X55905Y81090D02*
X55106Y82690D01*
X56705D01*
X55905Y81090D01*
X65748D02*
X64948Y82690D01*
X66548D01*
X65748Y81090D01*
X55905Y69279D02*
X55106Y70879D01*
X56705D01*
X55905Y69279D01*
Y77153D02*
X55106Y78753D01*
X56705D01*
X55905Y77153D01*
Y73216D02*
X55106Y74816D01*
X56705D01*
X55905Y73216D01*
X70472Y69279D02*
X69672Y70879D01*
X71272D01*
X70472Y69279D01*
X65748D02*
X64948Y70879D01*
X66548D01*
X65748Y69279D01*
X135433Y154712D02*
X134633Y156312D01*
X136233D01*
X135433Y154712D01*
Y159436D02*
X134633Y161036D01*
X136233D01*
X135433Y159436D01*
X131496D02*
X130696Y161036D01*
X132296D01*
X131496Y159436D01*
Y154712D02*
X130696Y156312D01*
X132296D01*
X131496Y154712D01*
X60630Y166917D02*
X59830Y168517D01*
X61430D01*
X60630Y166917D01*
Y162192D02*
X59830Y163792D01*
X61430D01*
X60630Y162192D01*
Y157468D02*
X59830Y159068D01*
X61430D01*
X60630Y157468D01*
Y172035D02*
X59830Y173635D01*
X61430D01*
X60630Y172035D01*
X56693Y166917D02*
X55893Y168517D01*
X57493D01*
X56693Y166917D01*
Y162192D02*
X55893Y163792D01*
X57493D01*
X56693Y162192D01*
Y157468D02*
X55893Y159068D01*
X57493D01*
X56693Y157468D01*
Y172035D02*
X55893Y173635D01*
X57493D01*
X56693Y172035D01*
X90551Y171247D02*
X89751Y172847D01*
X91351D01*
X90551Y171247D01*
Y156680D02*
X89751Y158280D01*
X91351D01*
X90551Y156680D01*
Y161405D02*
X89751Y163005D01*
X91351D01*
X90551Y161405D01*
Y166129D02*
X89751Y167729D01*
X91351D01*
X90551Y166129D01*
X94488Y171247D02*
X93688Y172847D01*
X95288D01*
X94488Y171247D01*
Y156680D02*
X93688Y158280D01*
X95288D01*
X94488Y156680D01*
Y161405D02*
X93688Y163005D01*
X95288D01*
X94488Y161405D01*
Y166129D02*
X93688Y167729D01*
X95288D01*
X94488Y166129D01*
X98425Y171247D02*
X97625Y172847D01*
X99225D01*
X98425Y171247D01*
Y156680D02*
X97625Y158280D01*
X99225D01*
X98425Y156680D01*
Y161405D02*
X97625Y163005D01*
X99225D01*
X98425Y161405D01*
Y166129D02*
X97625Y167729D01*
X99225D01*
X98425Y166129D01*
X102362D02*
X101562Y167729D01*
X103162D01*
X102362Y166129D01*
Y161405D02*
X101562Y163005D01*
X103162D01*
X102362Y161405D01*
Y156680D02*
X101562Y158280D01*
X103162D01*
X102362Y156680D01*
Y171247D02*
X101562Y172847D01*
X103162D01*
X102362Y171247D01*
X80709D02*
X79909Y172847D01*
X81509D01*
X80709Y171247D01*
Y156680D02*
X79909Y158280D01*
X81509D01*
X80709Y156680D01*
Y161405D02*
X79909Y163005D01*
X81509D01*
X80709Y161405D01*
Y166129D02*
X79909Y167729D01*
X81509D01*
X80709Y166129D01*
X76772D02*
X75972Y167729D01*
X77572D01*
X76772Y166129D01*
Y161405D02*
X75972Y163005D01*
X77572D01*
X76772Y161405D01*
Y156680D02*
X75972Y158280D01*
X77572D01*
X76772Y156680D01*
Y171247D02*
X75972Y172847D01*
X77572D01*
X76772Y171247D01*
X72835Y166129D02*
X72035Y167729D01*
X73635D01*
X72835Y166129D01*
Y161405D02*
X72035Y163005D01*
X73635D01*
X72835Y161405D01*
Y156680D02*
X72035Y158280D01*
X73635D01*
X72835Y156680D01*
Y171247D02*
X72035Y172847D01*
X73635D01*
X72835Y171247D01*
X68898Y166129D02*
X68098Y167729D01*
X69698D01*
X68898Y166129D01*
Y161405D02*
X68098Y163005D01*
X69698D01*
X68898Y161405D01*
Y156680D02*
X68098Y158280D01*
X69698D01*
X68898Y156680D01*
Y171247D02*
X68098Y172847D01*
X69698D01*
X68898Y171247D01*
X123228Y171641D02*
X122428Y173241D01*
X124028D01*
X123228Y171641D01*
Y157074D02*
X122428Y158674D01*
X124028D01*
X123228Y157074D01*
Y161798D02*
X122428Y163398D01*
X124028D01*
X123228Y161798D01*
Y166523D02*
X122428Y168123D01*
X124028D01*
X123228Y166523D01*
X119291D02*
X118491Y168123D01*
X120091D01*
X119291Y166523D01*
Y161798D02*
X118491Y163398D01*
X120091D01*
X119291Y161798D01*
Y157074D02*
X118491Y158674D01*
X120091D01*
X119291Y157074D01*
Y171641D02*
X118491Y173241D01*
X120091D01*
X119291Y171641D01*
X115354Y166523D02*
X114554Y168123D01*
X116154D01*
X115354Y166523D01*
Y161798D02*
X114554Y163398D01*
X116154D01*
X115354Y161798D01*
Y157074D02*
X114554Y158674D01*
X116154D01*
X115354Y157074D01*
Y171641D02*
X114554Y173241D01*
X116154D01*
X115354Y171641D01*
X111417Y166523D02*
X110617Y168123D01*
X112217D01*
X111417Y166523D01*
Y161798D02*
X110617Y163398D01*
X112217D01*
X111417Y161798D01*
Y157074D02*
X110617Y158674D01*
X112217D01*
X111417Y157074D01*
Y171641D02*
X110617Y173241D01*
X112217D01*
X111417Y171641D01*
X134252Y137783D02*
X133452Y139383D01*
X135052D01*
X134252Y137783D01*
X129134D02*
X128334Y139383D01*
X129934D01*
X129134Y137783D01*
Y141720D02*
X128334Y143320D01*
X129934D01*
X129134Y141720D01*
X134252D02*
X133452Y143320D01*
X135052D01*
X134252Y141720D01*
X129134Y145657D02*
X128334Y147257D01*
X129934D01*
X129134Y145657D01*
X124409D02*
X123609Y147257D01*
X125209D01*
X124409Y145657D01*
X119685D02*
X118885Y147257D01*
X120485D01*
X119685Y145657D01*
X134252D02*
X133452Y147257D01*
X135052D01*
X134252Y145657D01*
X129134Y149594D02*
X128334Y151194D01*
X129934D01*
X129134Y149594D01*
X124409D02*
X123609Y151194D01*
X125209D01*
X124409Y149594D01*
X119685D02*
X118885Y151194D01*
X120485D01*
X119685Y149594D01*
X134252D02*
X133452Y151194D01*
X135052D01*
X134252Y149594D01*
X71260Y90932D02*
X70460Y92532D01*
X72060D01*
X71260Y90932D01*
X66142D02*
X65342Y92532D01*
X66942D01*
X66142Y90932D01*
Y94869D02*
X65342Y96469D01*
X66942D01*
X66142Y94869D01*
X61417D02*
X60617Y96469D01*
X62217D01*
X61417Y94869D01*
X56693D02*
X55893Y96469D01*
X57493D01*
X56693Y94869D01*
X71260D02*
X70460Y96469D01*
X72060D01*
X71260Y94869D01*
X66142Y98806D02*
X65342Y100406D01*
X66942D01*
X66142Y98806D01*
X61417D02*
X60617Y100406D01*
X62217D01*
X61417Y98806D01*
X56693D02*
X55893Y100406D01*
X57493D01*
X56693Y98806D01*
X71260D02*
X70460Y100406D01*
X72060D01*
X71260Y98806D01*
X66142Y102743D02*
X65342Y104343D01*
X66942D01*
X66142Y102743D01*
X61417D02*
X60617Y104343D01*
X62217D01*
X61417Y102743D01*
X56693D02*
X55893Y104343D01*
X57493D01*
X56693Y102743D01*
X71260D02*
X70460Y104343D01*
X72060D01*
X71260Y102743D01*
X129921Y91326D02*
X129121Y92926D01*
X130721D01*
X129921Y91326D01*
X134646D02*
X133846Y92926D01*
X135446D01*
X134646Y91326D01*
X139370Y95263D02*
X138570Y96863D01*
X140170D01*
X139370Y95263D01*
X134646D02*
X133846Y96863D01*
X135446D01*
X134646Y95263D01*
X129921D02*
X129121Y96863D01*
X130721D01*
X129921Y95263D01*
X144488D02*
X143688Y96863D01*
X145288D01*
X144488Y95263D01*
X139370Y99200D02*
X138570Y100800D01*
X140170D01*
X139370Y99200D01*
X134646D02*
X133846Y100800D01*
X135446D01*
X134646Y99200D01*
X129921D02*
X129121Y100800D01*
X130721D01*
X129921Y99200D01*
X144488D02*
X143688Y100800D01*
X145288D01*
X144488Y99200D01*
X139370Y103137D02*
X138570Y104737D01*
X140170D01*
X139370Y103137D01*
X134646D02*
X133846Y104737D01*
X135446D01*
X134646Y103137D01*
X129921D02*
X129121Y104737D01*
X130721D01*
X129921Y103137D01*
X144488D02*
X143688Y104737D01*
X145288D01*
X144488Y103137D01*
X138976Y31484D02*
X138176Y33084D01*
X139776D01*
X138976Y31484D01*
Y35421D02*
X138176Y37020D01*
X139776D01*
X138976Y35421D01*
Y39358D02*
X138176Y40957D01*
X139776D01*
X138976Y39358D01*
Y43295D02*
X138176Y44894D01*
X139776D01*
X138976Y43295D01*
Y47232D02*
X138176Y48831D01*
X139776D01*
X138976Y47232D01*
Y55106D02*
X138176Y56705D01*
X139776D01*
X138976Y55106D01*
Y51169D02*
X138176Y52768D01*
X139776D01*
X138976Y51169D01*
X142520Y39358D02*
X141720Y40957D01*
X143320D01*
X142520Y39358D01*
Y35421D02*
X141720Y37020D01*
X143320D01*
X142520Y35421D01*
Y31483D02*
X141720Y33083D01*
X143320D01*
X142520Y31483D01*
Y43295D02*
X141720Y44894D01*
X143320D01*
X142520Y43295D01*
Y47232D02*
X141720Y48831D01*
X143320D01*
X142520Y47232D01*
Y51169D02*
X141720Y52768D01*
X143320D01*
X142520Y51169D01*
Y55106D02*
X141720Y56705D01*
X143320D01*
X142520Y55106D01*
X135433Y31877D02*
X134633Y33477D01*
X136233D01*
X135433Y31877D01*
Y35814D02*
X134633Y37414D01*
X136233D01*
X135433Y35814D01*
Y39751D02*
X134633Y41351D01*
X136233D01*
X135433Y39751D01*
Y43688D02*
X134633Y45288D01*
X136233D01*
X135433Y43688D01*
Y51562D02*
X134633Y53162D01*
X136233D01*
X135433Y51562D01*
Y47625D02*
X134633Y49225D01*
X136233D01*
X135433Y47625D01*
X59842Y31484D02*
X59043Y33084D01*
X60642D01*
X59842Y31484D01*
Y35421D02*
X59043Y37020D01*
X60642D01*
X59842Y35421D01*
Y39358D02*
X59043Y40957D01*
X60642D01*
X59842Y39358D01*
Y43295D02*
X59043Y44894D01*
X60642D01*
X59842Y43295D01*
Y51169D02*
X59043Y52768D01*
X60642D01*
X59842Y51169D01*
Y47232D02*
X59043Y48831D01*
X60642D01*
X59842Y47232D01*
X52756Y55106D02*
X51956Y56705D01*
X53556D01*
X52756Y55106D01*
Y51169D02*
X51956Y52768D01*
X53556D01*
X52756Y51169D01*
Y47232D02*
X51956Y48831D01*
X53556D01*
X52756Y47232D01*
Y43295D02*
X51956Y44894D01*
X53556D01*
X52756Y43295D01*
Y31483D02*
X51956Y33083D01*
X53556D01*
X52756Y31483D01*
Y35421D02*
X51956Y37020D01*
X53556D01*
X52756Y35421D01*
Y39358D02*
X51956Y40957D01*
X53556D01*
X52756Y39358D01*
X56299Y51169D02*
X55499Y52768D01*
X57099D01*
X56299Y51169D01*
Y55106D02*
X55499Y56705D01*
X57099D01*
X56299Y55106D01*
Y47232D02*
X55499Y48831D01*
X57099D01*
X56299Y47232D01*
Y43295D02*
X55499Y44894D01*
X57099D01*
X56299Y43295D01*
Y39358D02*
X55499Y40957D01*
X57099D01*
X56299Y39358D01*
Y35421D02*
X55499Y37020D01*
X57099D01*
X56299Y35421D01*
Y31484D02*
X55499Y33084D01*
X57099D01*
X56299Y31484D01*
X66535Y47232D02*
X65735Y48831D01*
X67335D01*
X66535Y47232D01*
Y51169D02*
X65735Y52768D01*
X67335D01*
X66535Y51169D01*
Y43295D02*
X65735Y44894D01*
X67335D01*
X66535Y43295D01*
Y39358D02*
X65735Y40957D01*
X67335D01*
X66535Y39358D01*
Y35421D02*
X65735Y37020D01*
X67335D01*
X66535Y35421D01*
Y31484D02*
X65735Y33084D01*
X67335D01*
X66535Y31484D01*
X69685Y47232D02*
X68885Y48831D01*
X70485D01*
X69685Y47232D01*
Y51169D02*
X68885Y52768D01*
X70485D01*
X69685Y51169D01*
Y43295D02*
X68885Y44894D01*
X70485D01*
X69685Y43295D01*
Y39358D02*
X68885Y40957D01*
X70485D01*
X69685Y39358D01*
Y35421D02*
X68885Y37020D01*
X70485D01*
X69685Y35421D01*
Y31484D02*
X68885Y33084D01*
X70485D01*
X69685Y31484D01*
X73228Y51169D02*
X72428Y52768D01*
X74028D01*
X73228Y51169D01*
Y35421D02*
X72428Y37020D01*
X74028D01*
X73228Y35421D01*
Y31484D02*
X72428Y33084D01*
X74028D01*
X73228Y31484D01*
X76772Y47232D02*
X75972Y48831D01*
X77572D01*
X76772Y47232D01*
Y51169D02*
X75972Y52768D01*
X77572D01*
X76772Y51169D01*
Y39358D02*
X75972Y40957D01*
X77572D01*
X76772Y39358D01*
Y35421D02*
X75972Y37020D01*
X77572D01*
X76772Y35421D01*
Y31484D02*
X75972Y33084D01*
X77572D01*
X76772Y31484D01*
X79921Y47232D02*
X79121Y48831D01*
X80721D01*
X79921Y47232D01*
Y51169D02*
X79121Y52768D01*
X80721D01*
X79921Y51169D01*
Y43295D02*
X79121Y44894D01*
X80721D01*
X79921Y43295D01*
Y39358D02*
X79121Y40957D01*
X80721D01*
X79921Y39358D01*
Y35421D02*
X79121Y37020D01*
X80721D01*
X79921Y35421D01*
Y31484D02*
X79121Y33084D01*
X80721D01*
X79921Y31484D01*
X83071Y47232D02*
X82271Y48831D01*
X83871D01*
X83071Y47232D01*
Y51169D02*
X82271Y52768D01*
X83871D01*
X83071Y51169D01*
Y43295D02*
X82271Y44894D01*
X83871D01*
X83071Y43295D01*
Y39358D02*
X82271Y40957D01*
X83871D01*
X83071Y39358D01*
Y35421D02*
X82271Y37020D01*
X83871D01*
X83071Y35421D01*
Y31484D02*
X82271Y33084D01*
X83871D01*
X83071Y31484D01*
Y55106D02*
X82271Y56705D01*
X83871D01*
X83071Y55106D01*
X79921D02*
X79121Y56705D01*
X80721D01*
X79921Y55106D01*
X76772D02*
X75972Y56705D01*
X77572D01*
X76772Y55106D01*
X73228D02*
X72428Y56705D01*
X74028D01*
X73228Y55106D01*
X69685D02*
X68885Y56705D01*
X70485D01*
X69685Y55106D01*
X129134Y47232D02*
X128334Y48831D01*
X129934D01*
X129134Y47232D01*
Y51169D02*
X128334Y52768D01*
X129934D01*
X129134Y51169D01*
Y43295D02*
X128334Y44894D01*
X129934D01*
X129134Y43295D01*
Y39358D02*
X128334Y40957D01*
X129934D01*
X129134Y39358D01*
Y35421D02*
X128334Y37020D01*
X129934D01*
X129134Y35421D01*
Y31484D02*
X128334Y33084D01*
X129934D01*
X129134Y31484D01*
X125984Y47232D02*
X125184Y48831D01*
X126784D01*
X125984Y47232D01*
Y51169D02*
X125184Y52768D01*
X126784D01*
X125984Y51169D01*
Y43295D02*
X125184Y44894D01*
X126784D01*
X125984Y43295D01*
Y39358D02*
X125184Y40957D01*
X126784D01*
X125984Y39358D01*
Y35421D02*
X125184Y37020D01*
X126784D01*
X125984Y35421D01*
Y31484D02*
X125184Y33084D01*
X126784D01*
X125984Y31484D01*
X122441Y47232D02*
X121641Y48831D01*
X123241D01*
X122441Y47232D01*
Y51169D02*
X121641Y52768D01*
X123241D01*
X122441Y51169D01*
Y43295D02*
X121641Y44894D01*
X123241D01*
X122441Y43295D01*
Y39358D02*
X121641Y40957D01*
X123241D01*
X122441Y39358D01*
Y35421D02*
X121641Y37020D01*
X123241D01*
X122441Y35421D01*
Y31484D02*
X121641Y33084D01*
X123241D01*
X122441Y31484D01*
X118898Y47232D02*
X118098Y48831D01*
X119698D01*
X118898Y47232D01*
Y51169D02*
X118098Y52768D01*
X119698D01*
X118898Y51169D01*
Y43295D02*
X118098Y44894D01*
X119698D01*
X118898Y43295D01*
Y39358D02*
X118098Y40957D01*
X119698D01*
X118898Y39358D01*
Y35421D02*
X118098Y37020D01*
X119698D01*
X118898Y35421D01*
Y31484D02*
X118098Y33084D01*
X119698D01*
X118898Y31484D01*
X115748Y47232D02*
X114948Y48831D01*
X116548D01*
X115748Y47232D01*
Y51169D02*
X114948Y52768D01*
X116548D01*
X115748Y51169D01*
Y43295D02*
X114948Y44894D01*
X116548D01*
X115748Y43295D01*
Y39358D02*
X114948Y40957D01*
X116548D01*
X115748Y39358D01*
Y35421D02*
X114948Y37020D01*
X116548D01*
X115748Y35421D01*
Y31484D02*
X114948Y33084D01*
X116548D01*
X115748Y31484D01*
X112598Y47232D02*
X111798Y48831D01*
X113398D01*
X112598Y47232D01*
Y51169D02*
X111798Y52768D01*
X113398D01*
X112598Y51169D01*
Y43295D02*
X111798Y44894D01*
X113398D01*
X112598Y43295D01*
Y39358D02*
X111798Y40957D01*
X113398D01*
X112598Y39358D01*
Y35421D02*
X111798Y37020D01*
X113398D01*
X112598Y35421D01*
Y31484D02*
X111798Y33084D01*
X113398D01*
X112598Y31484D01*
Y55106D02*
X111798Y56705D01*
X113398D01*
X112598Y55106D01*
X115748D02*
X114948Y56705D01*
X116548D01*
X115748Y55106D01*
X118898D02*
X118098Y56705D01*
X119698D01*
X118898Y55106D01*
X122441D02*
X121641Y56705D01*
X123241D01*
X122441Y55106D01*
X125984D02*
X125184Y56705D01*
X126784D01*
X125984Y55106D01*
X100787Y55499D02*
X99987Y57099D01*
X101587D01*
X100787Y55499D01*
Y31877D02*
X99987Y33477D01*
X101587D01*
X100787Y31877D01*
Y35814D02*
X99987Y37414D01*
X101587D01*
X100787Y35814D01*
Y39751D02*
X99987Y41351D01*
X101587D01*
X100787Y39751D01*
Y43688D02*
X99987Y45288D01*
X101587D01*
X100787Y43688D01*
Y51562D02*
X99987Y53162D01*
X101587D01*
X100787Y51562D01*
Y47625D02*
X99987Y49225D01*
X101587D01*
X100787Y47625D01*
X104331Y55499D02*
X103531Y57099D01*
X105131D01*
X104331Y55499D01*
Y31877D02*
X103531Y33477D01*
X105131D01*
X104331Y31877D01*
Y35814D02*
X103531Y37414D01*
X105131D01*
X104331Y35814D01*
Y39751D02*
X103531Y41351D01*
X105131D01*
X104331Y39751D01*
Y43688D02*
X103531Y45288D01*
X105131D01*
X104331Y43688D01*
Y51562D02*
X103531Y53162D01*
X105131D01*
X104331Y51562D01*
Y47625D02*
X103531Y49225D01*
X105131D01*
X104331Y47625D01*
X107874Y55499D02*
X107074Y57099D01*
X108674D01*
X107874Y55499D01*
Y31877D02*
X107074Y33477D01*
X108674D01*
X107874Y31877D01*
Y35814D02*
X107074Y37414D01*
X108674D01*
X107874Y35814D01*
Y39751D02*
X107074Y41351D01*
X108674D01*
X107874Y39751D01*
Y43688D02*
X107074Y45288D01*
X108674D01*
X107874Y43688D01*
Y51562D02*
X107074Y53162D01*
X108674D01*
X107874Y51562D01*
Y47625D02*
X107074Y49225D01*
X108674D01*
X107874Y47625D01*
X94488D02*
X93688Y49225D01*
X95288D01*
X94488Y47625D01*
Y51562D02*
X93688Y53162D01*
X95288D01*
X94488Y51562D01*
Y43688D02*
X93688Y45288D01*
X95288D01*
X94488Y43688D01*
Y39751D02*
X93688Y41351D01*
X95288D01*
X94488Y39751D01*
Y35814D02*
X93688Y37414D01*
X95288D01*
X94488Y35814D01*
Y31877D02*
X93688Y33477D01*
X95288D01*
X94488Y31877D01*
Y55499D02*
X93688Y57099D01*
X95288D01*
X94488Y55499D01*
X90945Y47625D02*
X90145Y49225D01*
X91745D01*
X90945Y47625D01*
Y51562D02*
X90145Y53162D01*
X91745D01*
X90945Y51562D01*
Y43688D02*
X90145Y45288D01*
X91745D01*
X90945Y43688D01*
Y39751D02*
X90145Y41351D01*
X91745D01*
X90945Y39751D01*
Y35814D02*
X90145Y37414D01*
X91745D01*
X90945Y35814D01*
Y31877D02*
X90145Y33477D01*
X91745D01*
X90945Y31877D01*
Y55499D02*
X90145Y57099D01*
X91745D01*
X90945Y55499D01*
X87402Y47625D02*
X86602Y49225D01*
X88202D01*
X87402Y47625D01*
Y51562D02*
X86602Y53162D01*
X88202D01*
X87402Y51562D01*
Y43688D02*
X86602Y45288D01*
X88202D01*
X87402Y43688D01*
Y39751D02*
X86602Y41351D01*
X88202D01*
X87402Y39751D01*
Y35814D02*
X86602Y37414D01*
X88202D01*
X87402Y35814D01*
Y31877D02*
X86602Y33477D01*
X88202D01*
X87402Y31877D01*
Y55499D02*
X86602Y57099D01*
X88202D01*
X87402Y55499D01*
X85827Y139357D02*
X85027Y140957D01*
X86627D01*
X85827Y139357D01*
X110394Y131247D02*
X109594Y132847D01*
X111194D01*
X110394Y131247D01*
X130709Y127940D02*
X129909Y129540D01*
X131509D01*
X130709Y127940D01*
X108661Y135421D02*
X107861Y137021D01*
X109461D01*
X108661Y135421D01*
X75590Y127153D02*
X74791Y128753D01*
X76390D01*
X75590Y127153D01*
X82284Y116917D02*
X81484Y118517D01*
X83083D01*
X82284Y116917D01*
Y113767D02*
X81484Y115367D01*
X83083D01*
X82284Y113767D01*
X88583Y115342D02*
X87783Y116942D01*
X89383D01*
X88583Y115342D01*
X116929D02*
X116129Y116942D01*
X117729D01*
X116929Y115342D01*
X97835Y132074D02*
X97035Y133674D01*
X98635D01*
X97835Y132074D01*
X104331Y120066D02*
X103531Y121666D01*
X105131D01*
X104331Y120066D01*
X101181D02*
X100381Y121666D01*
X101981D01*
X101181Y120066D01*
X107480D02*
X106680Y121666D01*
X108280D01*
X107480Y120066D01*
X98032D02*
X97232Y121666D01*
X98831D01*
X98032Y120066D01*
X104331Y116917D02*
X103531Y118517D01*
X105131D01*
X104331Y116917D01*
X101181D02*
X100381Y118517D01*
X101981D01*
X101181Y116917D01*
X107480D02*
X106680Y118517D01*
X108280D01*
X107480Y116917D01*
X98032D02*
X97232Y118517D01*
X98831D01*
X98032Y116917D01*
Y113767D02*
X97232Y115367D01*
X98831D01*
X98032Y113767D01*
X107480D02*
X106680Y115367D01*
X108280D01*
X107480Y113767D01*
X101181D02*
X100381Y115367D01*
X101981D01*
X101181Y113767D01*
X104331D02*
X103531Y115367D01*
X105131D01*
X104331Y113767D01*
Y123216D02*
X103531Y124816D01*
X105131D01*
X104331Y123216D01*
X101181D02*
X100381Y124816D01*
X101981D01*
X101181Y123216D01*
X107480D02*
X106680Y124816D01*
X108280D01*
X107480Y123216D01*
X98032D02*
X97232Y124816D01*
X98831D01*
X98032Y123216D01*
X59842Y55499D02*
X59043Y57099D01*
X60642D01*
X59842Y55499D01*
X66142D02*
X65342Y57099D01*
X66942D01*
X66142Y55499D01*
X135433Y55106D02*
X134633Y56705D01*
X136233D01*
X135433Y55106D01*
X129134D02*
X128334Y56705D01*
X129934D01*
X129134Y55106D01*
X130315Y69279D02*
X129515Y70879D01*
X131115D01*
X130315Y69279D01*
X144882D02*
X144082Y70879D01*
X145682D01*
X144882Y69279D01*
X140157D02*
X139357Y70879D01*
X140957D01*
X140157Y69279D01*
X135433D02*
X134633Y70879D01*
X136233D01*
X135433Y69279D01*
X130315Y73216D02*
X129515Y74816D01*
X131115D01*
X130315Y73216D01*
X144882D02*
X144082Y74816D01*
X145682D01*
X144882Y73216D01*
X140157D02*
X139357Y74816D01*
X140957D01*
X140157Y73216D01*
X135433D02*
X134633Y74816D01*
X136233D01*
X135433Y73216D01*
X130315Y77153D02*
X129515Y78753D01*
X131115D01*
X130315Y77153D01*
X144882D02*
X144082Y78753D01*
X145682D01*
X144882Y77153D01*
X140157D02*
X139357Y78753D01*
X140957D01*
X140157Y77153D01*
X135433D02*
X134633Y78753D01*
X136233D01*
X135433Y77153D01*
Y81090D02*
X134633Y82690D01*
X136233D01*
X135433Y81090D01*
X140157D02*
X139357Y82690D01*
X140957D01*
X140157Y81090D01*
X144882D02*
X144082Y82690D01*
X145682D01*
X144882Y81090D01*
X130315D02*
X129515Y82690D01*
X131115D01*
X130315Y81090D01*
X86614Y84239D02*
X85814Y85839D01*
X87414D01*
X86614Y84239D01*
X91339D02*
X90539Y85839D01*
X92139D01*
X91339Y84239D01*
X96063D02*
X95263Y85839D01*
X96863D01*
X96063Y84239D01*
X86614Y81090D02*
X85814Y82690D01*
X87414D01*
X86614Y81090D01*
X91339D02*
X90539Y82690D01*
X92139D01*
X91339Y81090D01*
X96063D02*
X95263Y82690D01*
X96863D01*
X96063Y81090D01*
X113779Y84239D02*
X112979Y85839D01*
X114579D01*
X113779Y84239D01*
X118504D02*
X117704Y85839D01*
X119304D01*
X118504Y84239D01*
X123228D02*
X122428Y85839D01*
X124028D01*
X123228Y84239D01*
X113779Y81090D02*
X112979Y82690D01*
X114579D01*
X113779Y81090D01*
X118504D02*
X117704Y82690D01*
X119304D01*
X118504Y81090D01*
X123228D02*
X122428Y82690D01*
X124028D01*
X123228Y81090D01*
X144488Y62192D02*
X143688Y63792D01*
X145288D01*
X144488Y62192D01*
X96063Y91995D02*
X95263Y93595D01*
X96863D01*
X96063Y91995D01*
X109449Y92507D02*
X108649Y94107D01*
X110249D01*
X109449Y92507D01*
X79527Y83452D02*
X78728Y85052D01*
X80327D01*
X79527Y83452D01*
X112205Y107074D02*
X111405Y108674D01*
X113005D01*
X112205Y107074D01*
X106299Y83452D02*
X105499Y85052D01*
X107099D01*
X106299Y83452D01*
X93307Y107468D02*
X92507Y109068D01*
X94107D01*
X93307Y107468D01*
X79527Y76759D02*
X78728Y78359D01*
X80327D01*
X79527Y76759D01*
X94095D02*
X93295Y78359D01*
X94894D01*
X94095Y76759D01*
X89370D02*
X88570Y78359D01*
X90170D01*
X89370Y76759D01*
X84646D02*
X83846Y78359D01*
X85446D01*
X84646Y76759D01*
Y72822D02*
X83846Y74422D01*
X85446D01*
X84646Y72822D01*
X89370D02*
X88570Y74422D01*
X90170D01*
X89370Y72822D01*
X94095D02*
X93295Y74422D01*
X94894D01*
X94095Y72822D01*
X79527D02*
X78728Y74422D01*
X80327D01*
X79527Y72822D01*
X84646Y68885D02*
X83846Y70485D01*
X85446D01*
X84646Y68885D01*
X89370D02*
X88570Y70485D01*
X90170D01*
X89370Y68885D01*
X94095D02*
X93295Y70485D01*
X94894D01*
X94095Y68885D01*
X79527D02*
X78728Y70485D01*
X80327D01*
X79527Y68885D01*
X84646Y64948D02*
X83846Y66548D01*
X85446D01*
X84646Y64948D01*
X89370D02*
X88570Y66548D01*
X90170D01*
X89370Y64948D01*
X94095D02*
X93295Y66548D01*
X94894D01*
X94095Y64948D01*
X79527D02*
X78728Y66548D01*
X80327D01*
X79527Y64948D01*
X106299Y76759D02*
X105499Y78359D01*
X107099D01*
X106299Y76759D01*
X120866D02*
X120066Y78359D01*
X121666D01*
X120866Y76759D01*
X116142D02*
X115342Y78359D01*
X116942D01*
X116142Y76759D01*
X111417D02*
X110617Y78359D01*
X112217D01*
X111417Y76759D01*
Y72822D02*
X110617Y74422D01*
X112217D01*
X111417Y72822D01*
X116142D02*
X115342Y74422D01*
X116942D01*
X116142Y72822D01*
X120866D02*
X120066Y74422D01*
X121666D01*
X120866Y72822D01*
X106299D02*
X105499Y74422D01*
X107099D01*
X106299Y72822D01*
X111417Y68885D02*
X110617Y70485D01*
X112217D01*
X111417Y68885D01*
X116142D02*
X115342Y70485D01*
X116942D01*
X116142Y68885D01*
X120866D02*
X120066Y70485D01*
X121666D01*
X120866Y68885D01*
X106299D02*
X105499Y70485D01*
X107099D01*
X106299Y68885D01*
X111417Y64948D02*
X110617Y66548D01*
X112217D01*
X111417Y64948D01*
X116142D02*
X115342Y66548D01*
X116942D01*
X116142Y64948D01*
X120866D02*
X120066Y66548D01*
X121666D01*
X120866Y64948D01*
X106299D02*
X105499Y66548D01*
X107099D01*
X106299Y64948D01*
D59*
X12217Y148031D02*
G03*
X12217Y148031I-800J0D01*
G01*
X40564D02*
G03*
X40564Y148031I-800J0D01*
G01*
X12217Y185039D02*
G03*
X12217Y185039I-800J0D01*
G01*
X40564D02*
G03*
X40564Y185039I-800J0D01*
G01*
X185839Y156299D02*
G03*
X185839Y156299I-800J0D01*
G01*
Y184646D02*
G03*
X185839Y184646I-800J0D01*
G01*
X148831Y156299D02*
G03*
X148831Y156299I-800J0D01*
G01*
Y184646D02*
G03*
X148831Y184646I-800J0D01*
G01*
X157493Y12205D02*
G03*
X157493Y12205I-800J0D01*
G01*
X185839D02*
G03*
X185839Y12205I-800J0D01*
G01*
X157493Y49213D02*
G03*
X157493Y49213I-800J0D01*
G01*
X185839D02*
G03*
X185839Y49213I-800J0D01*
G01*
X41351Y50787D02*
G03*
X41351Y50787I-800J0D01*
G01*
X13005D02*
G03*
X13005Y50787I-800J0D01*
G01*
X41351Y13780D02*
G03*
X41351Y13780I-800J0D01*
G01*
X13005D02*
G03*
X13005Y13780I-800J0D01*
G01*
M02*
