G04*
G04 #@! TF.GenerationSoftware,Altium Limited,Altium Designer,19.0.6 (157)*
G04*
G04 Layer_Color=3707366*
%FSLAX25Y25*%
%MOIN*%
G70*
G01*
G75*
%ADD21R,0.07087X0.25984*%
%ADD22R,0.07874X0.11000*%
%ADD24R,0.05599X0.28771*%
G04:AMPARAMS|DCode=25|XSize=35.47mil|YSize=33.5mil|CornerRadius=4.15mil|HoleSize=0mil|Usage=FLASHONLY|Rotation=270.000|XOffset=0mil|YOffset=0mil|HoleType=Round|Shape=RoundedRectangle|*
%AMROUNDEDRECTD25*
21,1,0.03547,0.02520,0,0,270.0*
21,1,0.02717,0.03350,0,0,270.0*
1,1,0.00830,-0.01260,-0.01358*
1,1,0.00830,-0.01260,0.01358*
1,1,0.00830,0.01260,0.01358*
1,1,0.00830,0.01260,-0.01358*
%
%ADD25ROUNDEDRECTD25*%
G04:AMPARAMS|DCode=26|XSize=41.37mil|YSize=33.5mil|CornerRadius=4.15mil|HoleSize=0mil|Usage=FLASHONLY|Rotation=90.000|XOffset=0mil|YOffset=0mil|HoleType=Round|Shape=RoundedRectangle|*
%AMROUNDEDRECTD26*
21,1,0.04137,0.02520,0,0,90.0*
21,1,0.03307,0.03350,0,0,90.0*
1,1,0.00830,0.01260,0.01654*
1,1,0.00830,0.01260,-0.01654*
1,1,0.00830,-0.01260,-0.01654*
1,1,0.00830,-0.01260,0.01654*
%
%ADD26ROUNDEDRECTD26*%
%ADD27R,0.03350X0.03350*%
%ADD28R,0.03625X0.03861*%
G04:AMPARAMS|DCode=29|XSize=65mil|YSize=108mil|CornerRadius=5.72mil|HoleSize=0mil|Usage=FLASHONLY|Rotation=180.000|XOffset=0mil|YOffset=0mil|HoleType=Round|Shape=RoundedRectangle|*
%AMROUNDEDRECTD29*
21,1,0.06500,0.09655,0,0,180.0*
21,1,0.05355,0.10800,0,0,180.0*
1,1,0.01145,-0.02678,0.04828*
1,1,0.01145,0.02678,0.04828*
1,1,0.01145,0.02678,-0.04828*
1,1,0.01145,-0.02678,-0.04828*
%
%ADD29ROUNDEDRECTD29*%
G04:AMPARAMS|DCode=30|XSize=198.85mil|YSize=120.11mil|CornerRadius=9.86mil|HoleSize=0mil|Usage=FLASHONLY|Rotation=0.000|XOffset=0mil|YOffset=0mil|HoleType=Round|Shape=RoundedRectangle|*
%AMROUNDEDRECTD30*
21,1,0.19885,0.10039,0,0,0.0*
21,1,0.17913,0.12011,0,0,0.0*
1,1,0.01972,0.08957,-0.05020*
1,1,0.01972,-0.08957,-0.05020*
1,1,0.01972,-0.08957,0.05020*
1,1,0.01972,0.08957,0.05020*
%
%ADD30ROUNDEDRECTD30*%
%ADD31R,0.18310X0.14570*%
%ADD32C,0.06307*%
%ADD33C,0.19885*%
G36*
X10605Y91839D02*
X10717D01*
Y91615D01*
X10829D01*
Y91503D01*
X10941D01*
Y91391D01*
X11165D01*
Y91503D01*
X11389D01*
Y91615D01*
X11501D01*
Y91503D01*
X12732D01*
Y91391D01*
X12844D01*
Y91280D01*
X12732D01*
Y91167D01*
X11837D01*
Y91056D01*
X11725D01*
Y90944D01*
X11613D01*
Y90832D01*
X11501D01*
Y90720D01*
X11389D01*
Y90496D01*
X11501D01*
Y90272D01*
X11613D01*
Y90160D01*
X11949D01*
Y90272D01*
X12285D01*
Y90160D01*
X13516D01*
Y89824D01*
X12509D01*
Y89712D01*
X12397D01*
Y89600D01*
X12285D01*
Y89488D01*
X12173D01*
Y89152D01*
X12285D01*
Y88928D01*
X12397D01*
Y88816D01*
X12621D01*
Y88928D01*
X12844D01*
Y89040D01*
X12957D01*
Y88928D01*
X14300D01*
Y88592D01*
X13292D01*
Y88481D01*
X13180D01*
Y88369D01*
X13068D01*
Y88257D01*
X12957D01*
Y88145D01*
X12844D01*
Y87921D01*
X12957D01*
Y87809D01*
X13068D01*
Y87585D01*
X13404D01*
Y87697D01*
X13740D01*
Y87585D01*
X14972D01*
Y87361D01*
X14860D01*
Y87249D01*
X13964D01*
Y87137D01*
X13852D01*
Y87025D01*
X13740D01*
Y86913D01*
X13628D01*
Y86577D01*
X13740D01*
Y86353D01*
X13852D01*
Y86241D01*
X13964D01*
Y86017D01*
X14076D01*
Y85905D01*
X13964D01*
Y85794D01*
X13292D01*
Y85905D01*
X13068D01*
Y86017D01*
X12957D01*
Y86241D01*
X12844D01*
Y86465D01*
X12732D01*
Y86689D01*
X12621D01*
Y86801D01*
X12509D01*
Y87025D01*
X12397D01*
Y87249D01*
X12285D01*
Y87361D01*
X12173D01*
Y87585D01*
X12061D01*
Y87809D01*
X11949D01*
Y88033D01*
X11837D01*
Y88257D01*
X11725D01*
Y88369D01*
X11613D01*
Y88592D01*
X11501D01*
Y88816D01*
X11389D01*
Y88928D01*
X11277D01*
Y89152D01*
X11165D01*
Y89376D01*
X11053D01*
Y89600D01*
X10941D01*
Y89712D01*
X10829D01*
Y89936D01*
X10717D01*
Y90160D01*
X10605D01*
Y90384D01*
X10493D01*
Y90496D01*
X10381D01*
Y90720D01*
X10270D01*
Y90944D01*
X10158D01*
Y91167D01*
X10046D01*
Y91280D01*
X9934D01*
Y91503D01*
X9822D01*
Y91615D01*
X9598D01*
Y91503D01*
X9486D01*
Y91280D01*
X9374D01*
Y91056D01*
X9262D01*
Y90832D01*
X9150D01*
Y90720D01*
X9038D01*
Y90496D01*
X8926D01*
Y90384D01*
X8814D01*
Y90160D01*
X8702D01*
Y89936D01*
X8590D01*
Y89712D01*
X8478D01*
Y89600D01*
X8366D01*
Y89376D01*
X8254D01*
Y89264D01*
X8142D01*
Y89040D01*
X8030D01*
Y88816D01*
X7918D01*
Y88704D01*
X7806D01*
Y88481D01*
X7694D01*
Y88257D01*
X7582D01*
Y88033D01*
X7470D01*
Y87921D01*
X7359D01*
Y87697D01*
X7247D01*
Y87473D01*
X7135D01*
Y87361D01*
X7023D01*
Y87137D01*
X6911D01*
Y86913D01*
X6799D01*
Y86801D01*
X6687D01*
Y86577D01*
X6575D01*
Y86353D01*
X6463D01*
Y86129D01*
X6351D01*
Y86017D01*
X6239D01*
Y85794D01*
X6127D01*
Y85570D01*
X6239D01*
Y85458D01*
X6351D01*
Y85234D01*
X6463D01*
Y85010D01*
X6575D01*
Y84898D01*
X6687D01*
Y84674D01*
X6799D01*
Y84450D01*
X6911D01*
Y84338D01*
X7023D01*
Y84114D01*
X7135D01*
Y84002D01*
X7247D01*
Y83778D01*
X7359D01*
Y83554D01*
X7470D01*
Y83330D01*
X7582D01*
Y83218D01*
X7694D01*
Y82995D01*
X7806D01*
Y82771D01*
X7918D01*
Y82659D01*
X8030D01*
Y82435D01*
X8142D01*
Y82211D01*
X8254D01*
Y82099D01*
X8366D01*
Y81875D01*
X8478D01*
Y81651D01*
X8590D01*
Y81427D01*
X8702D01*
Y81315D01*
X8814D01*
Y81091D01*
X8926D01*
Y80867D01*
X9038D01*
Y80755D01*
X9150D01*
Y80532D01*
X9262D01*
Y80308D01*
X9374D01*
Y80084D01*
X9486D01*
Y79972D01*
X9598D01*
Y79860D01*
X9934D01*
Y80084D01*
X10046D01*
Y80308D01*
X10158D01*
Y80532D01*
X10270D01*
Y80643D01*
X10381D01*
Y80867D01*
X10493D01*
Y81091D01*
X10605D01*
Y81315D01*
X10717D01*
Y81539D01*
X10829D01*
Y81651D01*
X10941D01*
Y81875D01*
X11053D01*
Y81987D01*
X11165D01*
Y82211D01*
X11277D01*
Y82435D01*
X11389D01*
Y82659D01*
X11501D01*
Y82771D01*
X11613D01*
Y82995D01*
X11725D01*
Y83218D01*
X11837D01*
Y83442D01*
X11949D01*
Y83554D01*
X12061D01*
Y83778D01*
X12173D01*
Y84002D01*
X12285D01*
Y84226D01*
X12397D01*
Y84450D01*
X12509D01*
Y84562D01*
X12621D01*
Y84786D01*
X12732D01*
Y85010D01*
X12844D01*
Y85122D01*
X12957D01*
Y85346D01*
X13068D01*
Y85458D01*
X13180D01*
Y85570D01*
X13292D01*
Y85682D01*
X13964D01*
Y85570D01*
X14076D01*
Y85458D01*
X13964D01*
Y85234D01*
X13852D01*
Y85010D01*
X13740D01*
Y84786D01*
X13628D01*
Y84562D01*
X13740D01*
Y84450D01*
X13852D01*
Y84338D01*
X13964D01*
Y84226D01*
X14972D01*
Y83890D01*
X13740D01*
Y83666D01*
X13628D01*
Y83778D01*
X13404D01*
Y83890D01*
X13068D01*
Y83666D01*
X12957D01*
Y83442D01*
X12844D01*
Y83330D01*
X12957D01*
Y83218D01*
X13068D01*
Y83106D01*
X13180D01*
Y82995D01*
X13292D01*
Y82883D01*
X14300D01*
Y82659D01*
X14188D01*
Y82547D01*
X12957D01*
Y82435D01*
X12844D01*
Y82547D01*
X12621D01*
Y82659D01*
X12397D01*
Y82547D01*
X12285D01*
Y82323D01*
X12173D01*
Y81987D01*
X12285D01*
Y81875D01*
X12397D01*
Y81763D01*
X12509D01*
Y81651D01*
X13516D01*
Y81315D01*
X12285D01*
Y81203D01*
X11949D01*
Y81315D01*
X11613D01*
Y81203D01*
X11501D01*
Y80979D01*
X11389D01*
Y80755D01*
X11501D01*
Y80643D01*
X11613D01*
Y80532D01*
X11725D01*
Y80419D01*
X11837D01*
Y80308D01*
X12732D01*
Y80196D01*
X12844D01*
Y80084D01*
X12732D01*
Y79972D01*
X11501D01*
Y79860D01*
X11389D01*
Y79972D01*
X11165D01*
Y80084D01*
X10941D01*
Y79972D01*
X10829D01*
Y79748D01*
X10717D01*
Y79636D01*
X10605D01*
Y79524D01*
X9598D01*
Y79636D01*
X9486D01*
Y79748D01*
X9374D01*
Y79972D01*
X9262D01*
Y80196D01*
X9150D01*
Y80308D01*
X9038D01*
Y80532D01*
X8926D01*
Y80755D01*
X8814D01*
Y80867D01*
X8702D01*
Y81091D01*
X8590D01*
Y81315D01*
X8478D01*
Y81427D01*
X8366D01*
Y81651D01*
X8254D01*
Y81875D01*
X8142D01*
Y81987D01*
X8030D01*
Y82211D01*
X7918D01*
Y82435D01*
X7806D01*
Y82659D01*
X7694D01*
Y82771D01*
X7582D01*
Y82995D01*
X7470D01*
Y83218D01*
X7359D01*
Y83330D01*
X7247D01*
Y83554D01*
X7135D01*
Y83778D01*
X7023D01*
Y84002D01*
X6911D01*
Y84114D01*
X6799D01*
Y84338D01*
X6687D01*
Y84562D01*
X6575D01*
Y84674D01*
X6463D01*
Y84898D01*
X6351D01*
Y85122D01*
X6239D01*
Y85346D01*
X6127D01*
Y85458D01*
X6015D01*
Y85682D01*
X5903D01*
Y85794D01*
X6015D01*
Y86017D01*
X6127D01*
Y86129D01*
X6239D01*
Y86353D01*
X6351D01*
Y86577D01*
X6463D01*
Y86689D01*
X6575D01*
Y86913D01*
X6687D01*
Y87137D01*
X6799D01*
Y87361D01*
X6911D01*
Y87473D01*
X7023D01*
Y87697D01*
X7135D01*
Y87921D01*
X7247D01*
Y88033D01*
X7359D01*
Y88257D01*
X7470D01*
Y88481D01*
X7582D01*
Y88592D01*
X7694D01*
Y88816D01*
X7806D01*
Y89040D01*
X7918D01*
Y89152D01*
X8030D01*
Y89376D01*
X8142D01*
Y89488D01*
X8254D01*
Y89712D01*
X8366D01*
Y89936D01*
X8478D01*
Y90160D01*
X8590D01*
Y90272D01*
X8702D01*
Y90496D01*
X8814D01*
Y90720D01*
X8926D01*
Y90832D01*
X9038D01*
Y91056D01*
X9150D01*
Y91280D01*
X9262D01*
Y91503D01*
X9374D01*
Y91615D01*
X9486D01*
Y91839D01*
X9598D01*
Y91951D01*
X10605D01*
Y91839D01*
D02*
G37*
G36*
X17995Y84898D02*
X18106D01*
Y84786D01*
X18218D01*
Y84674D01*
X18330D01*
Y84002D01*
X18218D01*
Y83890D01*
X17995D01*
Y83778D01*
X17659D01*
Y83666D01*
X17547D01*
Y83554D01*
X17435D01*
Y83442D01*
X17547D01*
Y83330D01*
X17659D01*
Y83106D01*
X17771D01*
Y82995D01*
X17883D01*
Y82771D01*
X17995D01*
Y82659D01*
X18218D01*
Y82547D01*
X18330D01*
Y82323D01*
X18442D01*
Y82211D01*
X18554D01*
Y82099D01*
X18666D01*
Y81987D01*
X18778D01*
Y81875D01*
X18890D01*
Y81651D01*
X19002D01*
Y81315D01*
X18330D01*
Y81427D01*
X18106D01*
Y81539D01*
X17883D01*
Y81651D01*
X17659D01*
Y81763D01*
X17435D01*
Y81875D01*
X17211D01*
Y81651D01*
X17323D01*
Y81539D01*
X17435D01*
Y81427D01*
X17547D01*
Y81315D01*
X17659D01*
Y81203D01*
X17771D01*
Y80979D01*
X17883D01*
Y80755D01*
X17435D01*
Y80867D01*
X17323D01*
Y80979D01*
X17211D01*
Y81091D01*
X17099D01*
Y81203D01*
X16987D01*
Y81315D01*
X16875D01*
Y81427D01*
X16763D01*
Y81539D01*
X16651D01*
Y81651D01*
X16539D01*
Y81875D01*
X16427D01*
Y81987D01*
X16315D01*
Y82099D01*
X16203D01*
Y82211D01*
X16091D01*
Y82323D01*
X15979D01*
Y82435D01*
X15867D01*
Y82659D01*
X15755D01*
Y82995D01*
X15867D01*
Y83106D01*
X15979D01*
Y83218D01*
X16315D01*
Y83106D01*
X16539D01*
Y82995D01*
X16763D01*
Y82883D01*
X17099D01*
Y82771D01*
X17323D01*
Y82659D01*
X17435D01*
Y82771D01*
X17323D01*
Y82883D01*
X17211D01*
Y82995D01*
X17099D01*
Y83106D01*
X16987D01*
Y83218D01*
X16875D01*
Y83442D01*
X16763D01*
Y83554D01*
X16651D01*
Y83778D01*
X16539D01*
Y84338D01*
X16651D01*
Y84450D01*
X16875D01*
Y84562D01*
X17435D01*
Y84674D01*
X17547D01*
Y85010D01*
X17883D01*
Y85122D01*
X17995D01*
Y84898D01*
D02*
G37*
G36*
Y80532D02*
X18106D01*
Y80419D01*
X18218D01*
Y80308D01*
X18330D01*
Y80084D01*
X18442D01*
Y79860D01*
X18554D01*
Y79300D01*
X18442D01*
Y79188D01*
X18330D01*
Y79076D01*
X17771D01*
Y78964D01*
X17883D01*
Y78852D01*
X17995D01*
Y78628D01*
X18106D01*
Y78516D01*
X18218D01*
Y78404D01*
X18330D01*
Y78292D01*
X18442D01*
Y78068D01*
X18554D01*
Y77956D01*
X18666D01*
Y77732D01*
X18778D01*
Y77509D01*
X18890D01*
Y76949D01*
X18666D01*
Y76837D01*
X18442D01*
Y76949D01*
X18218D01*
Y77061D01*
X18106D01*
Y77173D01*
X17323D01*
Y77397D01*
X17211D01*
Y77509D01*
X17099D01*
Y77732D01*
X16987D01*
Y77845D01*
X16875D01*
Y77956D01*
X16763D01*
Y78068D01*
X16651D01*
Y78180D01*
X16539D01*
Y78404D01*
X16427D01*
Y78516D01*
X16315D01*
Y78740D01*
X16203D01*
Y78852D01*
X16091D01*
Y78964D01*
X15979D01*
Y79188D01*
X15867D01*
Y79300D01*
X15755D01*
Y79524D01*
X15643D01*
Y79748D01*
X15531D01*
Y80308D01*
X15867D01*
Y80196D01*
X15979D01*
Y80084D01*
X16091D01*
Y79972D01*
X16203D01*
Y79860D01*
X16315D01*
Y79636D01*
X16427D01*
Y79524D01*
X16539D01*
Y79412D01*
X16651D01*
Y79300D01*
X16763D01*
Y79188D01*
X16875D01*
Y78964D01*
X16987D01*
Y78852D01*
X17099D01*
Y78740D01*
X17211D01*
Y78628D01*
X17323D01*
Y78516D01*
X17435D01*
Y78404D01*
X17547D01*
Y78292D01*
X17659D01*
Y78180D01*
X17771D01*
Y78292D01*
X17659D01*
Y78404D01*
X17547D01*
Y78516D01*
X17435D01*
Y78628D01*
X17323D01*
Y78852D01*
X17211D01*
Y78964D01*
X17099D01*
Y79188D01*
X16987D01*
Y79300D01*
X16875D01*
Y79412D01*
X16763D01*
Y79972D01*
X17323D01*
Y79860D01*
X17659D01*
Y79972D01*
X17771D01*
Y80196D01*
X17659D01*
Y80308D01*
X17547D01*
Y80532D01*
X17659D01*
Y80643D01*
X17995D01*
Y80532D01*
D02*
G37*
G36*
X14300Y76949D02*
X14524D01*
Y76837D01*
X14748D01*
Y76725D01*
X14972D01*
Y76613D01*
X15084D01*
Y76501D01*
X15196D01*
Y76277D01*
X15308D01*
Y75829D01*
X15196D01*
Y75717D01*
X14748D01*
Y75829D01*
X14636D01*
Y75941D01*
X14524D01*
Y76053D01*
X14412D01*
Y76165D01*
X14300D01*
Y76277D01*
X14188D01*
Y76501D01*
X14076D01*
Y77061D01*
X14300D01*
Y76949D01*
D02*
G37*
G36*
X17995Y76837D02*
X18106D01*
Y76725D01*
X18218D01*
Y76501D01*
X18330D01*
Y76389D01*
X18442D01*
Y76165D01*
X18554D01*
Y75381D01*
X18442D01*
Y75269D01*
X17995D01*
Y75157D01*
X17771D01*
Y75046D01*
X17659D01*
Y74822D01*
X17771D01*
Y74710D01*
X17883D01*
Y74598D01*
X17995D01*
Y74486D01*
X17883D01*
Y74374D01*
X17435D01*
Y74486D01*
X17323D01*
Y74598D01*
X17211D01*
Y74710D01*
X17099D01*
Y74822D01*
X16987D01*
Y74934D01*
X16875D01*
Y75157D01*
X16763D01*
Y75269D01*
X16651D01*
Y75381D01*
X16539D01*
Y75493D01*
X16427D01*
Y75829D01*
X16539D01*
Y75941D01*
X16651D01*
Y76053D01*
X17771D01*
Y76165D01*
X17883D01*
Y76277D01*
X17771D01*
Y76501D01*
X17659D01*
Y76725D01*
X17547D01*
Y76949D01*
X17883D01*
Y77061D01*
X17995D01*
Y76837D01*
D02*
G37*
G36*
Y74150D02*
X18106D01*
Y73926D01*
X18218D01*
Y73814D01*
X18330D01*
Y73590D01*
X18442D01*
Y73366D01*
X18554D01*
Y73254D01*
X18666D01*
Y73030D01*
X18778D01*
Y72806D01*
X18890D01*
Y72470D01*
X18778D01*
Y72359D01*
X18330D01*
Y72470D01*
X18218D01*
Y72582D01*
X17995D01*
Y72694D01*
X17771D01*
Y72806D01*
X17547D01*
Y72918D01*
X17099D01*
Y73030D01*
X16875D01*
Y72918D01*
X16763D01*
Y72694D01*
X16875D01*
Y72470D01*
X16987D01*
Y72359D01*
X17099D01*
Y72247D01*
X17211D01*
Y72135D01*
X17323D01*
Y72023D01*
X17435D01*
Y71911D01*
X17547D01*
Y71799D01*
X17659D01*
Y71575D01*
X17771D01*
Y71463D01*
X17883D01*
Y71239D01*
X17323D01*
Y71351D01*
X17211D01*
Y71575D01*
X17099D01*
Y71687D01*
X16987D01*
Y71799D01*
X16875D01*
Y71911D01*
X16763D01*
Y72023D01*
X16651D01*
Y72135D01*
X16539D01*
Y72247D01*
X16427D01*
Y72359D01*
X15979D01*
Y72582D01*
X15867D01*
Y72694D01*
X15755D01*
Y73366D01*
X15867D01*
Y73478D01*
X15979D01*
Y73590D01*
X16091D01*
Y73702D01*
X16315D01*
Y73814D01*
X16987D01*
Y73702D01*
X17323D01*
Y73590D01*
X17547D01*
Y73478D01*
X17771D01*
Y73366D01*
X17995D01*
Y73478D01*
X17883D01*
Y73590D01*
X17771D01*
Y73702D01*
X17659D01*
Y73926D01*
X17547D01*
Y74038D01*
X17435D01*
Y74150D01*
X17659D01*
Y74262D01*
X17995D01*
Y74150D01*
D02*
G37*
G36*
X13852Y71799D02*
X14076D01*
Y71687D01*
X14300D01*
Y71575D01*
X14412D01*
Y71463D01*
X14524D01*
Y71239D01*
X14636D01*
Y71015D01*
X14748D01*
Y70903D01*
X14860D01*
Y70679D01*
X14972D01*
Y70567D01*
X15084D01*
Y70343D01*
X15196D01*
Y70231D01*
X15308D01*
Y70007D01*
X15419D01*
Y69784D01*
X15531D01*
Y69560D01*
X15643D01*
Y69336D01*
X15755D01*
Y69112D01*
X15867D01*
Y69000D01*
X15979D01*
Y68888D01*
X16091D01*
Y69000D01*
X16203D01*
Y69224D01*
X16315D01*
Y69448D01*
X16427D01*
Y69784D01*
X16539D01*
Y70007D01*
X16651D01*
Y70231D01*
X16763D01*
Y70455D01*
X16875D01*
Y70679D01*
X16987D01*
Y70791D01*
X17099D01*
Y70903D01*
X17771D01*
Y70791D01*
X17995D01*
Y70567D01*
X18106D01*
Y70455D01*
X18218D01*
Y70231D01*
X18330D01*
Y70007D01*
X18442D01*
Y69784D01*
X18554D01*
Y69448D01*
X18666D01*
Y69112D01*
X18778D01*
Y68664D01*
X18890D01*
Y68216D01*
X19002D01*
Y67880D01*
X19114D01*
Y67768D01*
X19338D01*
Y67320D01*
X19114D01*
Y66761D01*
X18778D01*
Y66873D01*
X18666D01*
Y67097D01*
X18554D01*
Y67208D01*
X18442D01*
Y67320D01*
X18330D01*
Y67432D01*
X17883D01*
Y67544D01*
X17323D01*
Y67656D01*
X16987D01*
Y67768D01*
X16539D01*
Y67656D01*
X16427D01*
Y67432D01*
X15979D01*
Y67656D01*
X15867D01*
Y67880D01*
X15755D01*
Y67992D01*
X15419D01*
Y68104D01*
X15084D01*
Y68216D01*
X14748D01*
Y68328D01*
X14300D01*
Y68440D01*
X14076D01*
Y68552D01*
X13964D01*
Y68664D01*
X13852D01*
Y68776D01*
X13740D01*
Y68888D01*
X13516D01*
Y68776D01*
X13628D01*
Y68328D01*
X13740D01*
Y67768D01*
X13516D01*
Y67880D01*
X13292D01*
Y68104D01*
X13068D01*
Y68440D01*
X12957D01*
Y68776D01*
X12844D01*
Y69224D01*
X12732D01*
Y70343D01*
X12621D01*
Y70567D01*
X12732D01*
Y71351D01*
X12844D01*
Y71463D01*
X12957D01*
Y71799D01*
X13068D01*
Y71911D01*
X13852D01*
Y71799D01*
D02*
G37*
G36*
X25608Y82883D02*
X25720D01*
Y82659D01*
X25832D01*
Y82323D01*
X25944D01*
Y82099D01*
X25832D01*
Y81875D01*
X25720D01*
Y81763D01*
X25384D01*
Y81539D01*
X25496D01*
Y81427D01*
X25608D01*
Y81315D01*
X25720D01*
Y81203D01*
X25832D01*
Y81091D01*
X25944D01*
Y80979D01*
X26056D01*
Y80755D01*
X26168D01*
Y80643D01*
X26280D01*
Y80419D01*
X26392D01*
Y79972D01*
X26280D01*
Y79860D01*
X26056D01*
Y79748D01*
X25384D01*
Y79860D01*
X25272D01*
Y79636D01*
X25384D01*
Y79524D01*
X25496D01*
Y79412D01*
X25608D01*
Y79300D01*
X25272D01*
Y79188D01*
X25048D01*
Y79300D01*
X24936D01*
Y79412D01*
X24824D01*
Y79524D01*
X24712D01*
Y79636D01*
X24600D01*
Y79748D01*
X24488D01*
Y79860D01*
X24376D01*
Y79972D01*
X24264D01*
Y80084D01*
X24152D01*
Y80196D01*
X24040D01*
Y80308D01*
X23928D01*
Y80419D01*
X23816D01*
Y80532D01*
X23705D01*
Y80643D01*
X23593D01*
Y80755D01*
X23481D01*
Y80979D01*
X23369D01*
Y81315D01*
X23705D01*
Y81203D01*
X23928D01*
Y81091D01*
X24152D01*
Y80979D01*
X24376D01*
Y80867D01*
X24712D01*
Y80755D01*
X25048D01*
Y80643D01*
X25608D01*
Y80755D01*
X25496D01*
Y80867D01*
X25384D01*
Y80979D01*
X25272D01*
Y81091D01*
X25160D01*
Y81203D01*
X25048D01*
Y81315D01*
X24936D01*
Y81427D01*
X24824D01*
Y81539D01*
X24712D01*
Y81651D01*
X24600D01*
Y81763D01*
X24488D01*
Y81875D01*
X24264D01*
Y81987D01*
X24152D01*
Y82547D01*
X25160D01*
Y82995D01*
X25608D01*
Y82883D01*
D02*
G37*
G36*
X20570Y79972D02*
X20906D01*
Y79860D01*
X21017D01*
Y79636D01*
X21129D01*
Y79524D01*
X21241D01*
Y79300D01*
X21353D01*
Y79188D01*
X21465D01*
Y78964D01*
X21577D01*
Y78740D01*
X21689D01*
Y78292D01*
X21465D01*
Y78180D01*
X21577D01*
Y78068D01*
X21689D01*
Y77956D01*
X21801D01*
Y77845D01*
X21913D01*
Y77732D01*
X22585D01*
Y77845D01*
X22921D01*
Y77956D01*
X23033D01*
Y78068D01*
X23257D01*
Y78180D01*
X23369D01*
Y78292D01*
X23481D01*
Y78404D01*
X23705D01*
Y78516D01*
X23816D01*
Y78628D01*
X24040D01*
Y78740D01*
X24264D01*
Y78852D01*
X25160D01*
Y79076D01*
X25608D01*
Y78740D01*
X25720D01*
Y78180D01*
X25832D01*
Y78068D01*
X25944D01*
Y77956D01*
X26056D01*
Y77732D01*
X26168D01*
Y77621D01*
X26280D01*
Y77397D01*
X26392D01*
Y77173D01*
X26503D01*
Y76949D01*
X26615D01*
Y76725D01*
X26727D01*
Y76053D01*
X26615D01*
Y75829D01*
X26168D01*
Y75941D01*
X26056D01*
Y76053D01*
X25944D01*
Y76277D01*
X25832D01*
Y76501D01*
X25720D01*
Y76837D01*
X25608D01*
Y77061D01*
X25496D01*
Y77285D01*
X25384D01*
Y77621D01*
X25496D01*
Y77732D01*
X25272D01*
Y77845D01*
X25160D01*
Y77956D01*
X24712D01*
Y77845D01*
X24488D01*
Y77732D01*
X24376D01*
Y77621D01*
X24152D01*
Y77509D01*
X24040D01*
Y77397D01*
X23928D01*
Y77285D01*
X23816D01*
Y77173D01*
X23705D01*
Y77061D01*
X23481D01*
Y76949D01*
X23257D01*
Y76837D01*
X23145D01*
Y76725D01*
X22137D01*
Y76837D01*
X21913D01*
Y76949D01*
X21801D01*
Y77061D01*
X21577D01*
Y77173D01*
X21465D01*
Y77285D01*
X21353D01*
Y77397D01*
X21241D01*
Y77509D01*
X21129D01*
Y77732D01*
X21017D01*
Y77845D01*
X20906D01*
Y77956D01*
X20794D01*
Y78180D01*
X20682D01*
Y78404D01*
X20570D01*
Y78628D01*
X20458D01*
Y78740D01*
X20346D01*
Y79076D01*
X20234D01*
Y79300D01*
X20122D01*
Y79636D01*
X20010D01*
Y79860D01*
X20122D01*
Y80084D01*
X20570D01*
Y79972D01*
D02*
G37*
G36*
X23481Y85458D02*
Y85570D01*
X23593D01*
X23705D01*
X23816D01*
X23928D01*
Y85458D01*
X24040D01*
X24152D01*
X24264D01*
Y85346D01*
X24376D01*
X24488D01*
Y85234D01*
X24600D01*
X24712D01*
Y85122D01*
X24824D01*
X24936D01*
Y85234D01*
X24824D01*
Y85346D01*
X24712D01*
Y85570D01*
X24600D01*
Y85682D01*
X24488D01*
Y85794D01*
X24376D01*
Y85905D01*
X24264D01*
Y86129D01*
X24152D01*
Y86689D01*
X24264D01*
Y86801D01*
X24376D01*
Y86913D01*
X24488D01*
X24600D01*
X24712D01*
X24824D01*
X24936D01*
X25048D01*
Y87025D01*
X25160D01*
Y87361D01*
X25272D01*
X25384D01*
Y87473D01*
X25496D01*
X25608D01*
Y87361D01*
X25720D01*
Y87137D01*
X25832D01*
Y87025D01*
X25944D01*
Y86353D01*
X25832D01*
Y86241D01*
X25720D01*
X25608D01*
X25496D01*
Y86129D01*
X25384D01*
X25272D01*
Y86017D01*
X25160D01*
Y85682D01*
X25272D01*
Y85570D01*
X25384D01*
Y85346D01*
X25496D01*
Y85234D01*
X25608D01*
Y85122D01*
X25720D01*
Y85010D01*
X25832D01*
Y84898D01*
X25944D01*
Y84786D01*
X26056D01*
Y84562D01*
X26168D01*
Y84450D01*
X26280D01*
Y84338D01*
X26392D01*
Y84226D01*
X26503D01*
Y84002D01*
X26615D01*
Y83666D01*
X26503D01*
X26392D01*
X26280D01*
X26168D01*
X26056D01*
X25944D01*
Y83778D01*
X25832D01*
X25720D01*
Y83890D01*
X25608D01*
X25496D01*
Y84002D01*
X25384D01*
X25272D01*
Y84114D01*
X25160D01*
X25048D01*
Y84226D01*
X24936D01*
X24824D01*
Y84114D01*
X24936D01*
Y83890D01*
X25048D01*
Y83778D01*
X25160D01*
Y83666D01*
X25272D01*
Y83554D01*
X25384D01*
Y83442D01*
X25496D01*
Y83330D01*
X25608D01*
Y83218D01*
X25496D01*
X25384D01*
Y83106D01*
X25272D01*
X25160D01*
X25048D01*
Y83218D01*
X24936D01*
Y83330D01*
X24824D01*
Y83442D01*
X24712D01*
Y83554D01*
X24600D01*
Y83666D01*
X24488D01*
Y83890D01*
X24376D01*
Y84002D01*
X24264D01*
Y84114D01*
X24152D01*
Y84226D01*
X24040D01*
Y84338D01*
X23928D01*
Y84450D01*
X23816D01*
Y84562D01*
X23705D01*
Y84674D01*
X23593D01*
Y84786D01*
X23481D01*
Y85010D01*
X23369D01*
Y85458D01*
X23481D01*
D02*
G37*
G36*
X22921Y89824D02*
Y89936D01*
X23033D01*
X23145D01*
X23257D01*
X23369D01*
X23481D01*
X23593D01*
X23705D01*
Y89824D01*
X23816D01*
X23928D01*
Y89712D01*
X24040D01*
Y89600D01*
X24152D01*
Y89488D01*
X24264D01*
Y89376D01*
X24376D01*
Y89264D01*
X24488D01*
Y89152D01*
X24600D01*
Y89040D01*
X24712D01*
Y88928D01*
X24824D01*
Y88816D01*
X24936D01*
Y88704D01*
X25048D01*
X25160D01*
X25272D01*
Y88928D01*
X25384D01*
Y89152D01*
X25272D01*
Y89488D01*
X25160D01*
Y89824D01*
X25272D01*
Y89936D01*
X25384D01*
X25496D01*
X25608D01*
Y89824D01*
X25720D01*
Y89600D01*
X25832D01*
Y89488D01*
X25944D01*
Y89264D01*
X26056D01*
Y88816D01*
X26168D01*
Y88369D01*
X26056D01*
Y88145D01*
X25944D01*
Y88033D01*
X25832D01*
X25720D01*
Y87921D01*
X25608D01*
X25496D01*
Y87585D01*
X25384D01*
X25272D01*
X25160D01*
X25048D01*
X24936D01*
Y87697D01*
X24824D01*
Y87921D01*
X24712D01*
X24600D01*
Y88033D01*
X24488D01*
X24376D01*
X24264D01*
Y88145D01*
X24152D01*
X24040D01*
Y88257D01*
X23928D01*
Y88369D01*
X23816D01*
X23705D01*
Y88481D01*
X23593D01*
Y88592D01*
X23481D01*
Y88704D01*
X23369D01*
Y88816D01*
X23257D01*
Y88928D01*
X23145D01*
Y89040D01*
X23033D01*
Y89152D01*
X22921D01*
Y89376D01*
X22809D01*
Y89824D01*
X22921D01*
D02*
G37*
G36*
X58403Y71793D02*
D01*
D01*
D01*
D01*
D01*
D01*
D01*
D01*
D02*
G37*
G36*
X67581D02*
D01*
D01*
D01*
D01*
D01*
D01*
D01*
D01*
D02*
G37*
G36*
X82419Y75845D02*
D01*
D01*
D01*
D01*
D01*
D01*
D01*
D01*
D02*
G37*
G36*
X91597D02*
D01*
D01*
D01*
D01*
D01*
D01*
D01*
D01*
D02*
G37*
G36*
X181095Y111084D02*
X181207D01*
Y110860D01*
X181319D01*
Y110748D01*
X181431D01*
Y110524D01*
X181543D01*
Y110076D01*
X181655D01*
Y109628D01*
X181543D01*
Y109405D01*
X181431D01*
Y109292D01*
X181207D01*
Y109181D01*
X180983D01*
Y108845D01*
X180423D01*
Y108957D01*
X180311D01*
Y109181D01*
X180087D01*
Y109292D01*
X179752D01*
Y109405D01*
X179528D01*
Y109517D01*
X179416D01*
Y109628D01*
X179192D01*
Y109740D01*
X179080D01*
Y109852D01*
X178968D01*
Y109964D01*
X178856D01*
Y110076D01*
X178744D01*
Y110188D01*
X178632D01*
Y110300D01*
X178520D01*
Y110412D01*
X178408D01*
Y110636D01*
X178296D01*
Y111084D01*
X178408D01*
Y111196D01*
X179192D01*
Y111084D01*
X179416D01*
Y110972D01*
X179528D01*
Y110860D01*
X179639D01*
Y110748D01*
X179752D01*
Y110636D01*
X179863D01*
Y110524D01*
X179975D01*
Y110412D01*
X180087D01*
Y110300D01*
X180199D01*
Y110188D01*
X180311D01*
Y110076D01*
X180423D01*
Y109964D01*
X180759D01*
Y110188D01*
X180871D01*
Y110412D01*
X180759D01*
Y110748D01*
X180647D01*
Y111084D01*
X180759D01*
Y111196D01*
X181095D01*
Y111084D01*
D02*
G37*
G36*
X166093Y113099D02*
X166205D01*
Y112875D01*
X166316D01*
Y112763D01*
X166428D01*
Y112651D01*
X166652D01*
Y112763D01*
X166876D01*
Y112875D01*
X166988D01*
Y112763D01*
X168220D01*
Y112651D01*
X168332D01*
Y112539D01*
X168220D01*
Y112427D01*
X167324D01*
Y112315D01*
X167212D01*
Y112203D01*
X167100D01*
Y112092D01*
X166988D01*
Y111979D01*
X166876D01*
Y111756D01*
X166988D01*
Y111532D01*
X167100D01*
Y111420D01*
X167436D01*
Y111532D01*
X167772D01*
Y111420D01*
X169003D01*
Y111084D01*
X167996D01*
Y110972D01*
X167884D01*
Y110860D01*
X167772D01*
Y110748D01*
X167660D01*
Y110412D01*
X167772D01*
Y110188D01*
X167884D01*
Y110076D01*
X168108D01*
Y110188D01*
X168332D01*
Y110300D01*
X168444D01*
Y110188D01*
X169787D01*
Y109852D01*
X168780D01*
Y109740D01*
X168668D01*
Y109628D01*
X168556D01*
Y109517D01*
X168444D01*
Y109405D01*
X168332D01*
Y109181D01*
X168444D01*
Y109069D01*
X168556D01*
Y108845D01*
X168892D01*
Y108957D01*
X169227D01*
Y108845D01*
X170459D01*
Y108621D01*
X170347D01*
Y108509D01*
X169451D01*
Y108397D01*
X169339D01*
Y108285D01*
X169227D01*
Y108173D01*
X169115D01*
Y107837D01*
X169227D01*
Y107613D01*
X169339D01*
Y107501D01*
X169451D01*
Y107277D01*
X169563D01*
Y107165D01*
X169451D01*
Y107053D01*
X168780D01*
Y107165D01*
X168556D01*
Y107277D01*
X168444D01*
Y107501D01*
X168332D01*
Y107725D01*
X168220D01*
Y107949D01*
X168108D01*
Y108061D01*
X167996D01*
Y108285D01*
X167884D01*
Y108509D01*
X167772D01*
Y108621D01*
X167660D01*
Y108845D01*
X167548D01*
Y109069D01*
X167436D01*
Y109292D01*
X167324D01*
Y109517D01*
X167212D01*
Y109628D01*
X167100D01*
Y109852D01*
X166988D01*
Y110076D01*
X166876D01*
Y110188D01*
X166764D01*
Y110412D01*
X166652D01*
Y110636D01*
X166540D01*
Y110860D01*
X166428D01*
Y110972D01*
X166316D01*
Y111196D01*
X166205D01*
Y111420D01*
X166093D01*
Y111644D01*
X165981D01*
Y111756D01*
X165869D01*
Y111979D01*
X165757D01*
Y112203D01*
X165645D01*
Y112427D01*
X165533D01*
Y112539D01*
X165421D01*
Y112763D01*
X165309D01*
Y112875D01*
X165085D01*
Y112763D01*
X164973D01*
Y112539D01*
X164861D01*
Y112315D01*
X164749D01*
Y112092D01*
X164637D01*
Y111979D01*
X164525D01*
Y111756D01*
X164413D01*
Y111644D01*
X164301D01*
Y111420D01*
X164189D01*
Y111196D01*
X164077D01*
Y110972D01*
X163965D01*
Y110860D01*
X163853D01*
Y110636D01*
X163741D01*
Y110524D01*
X163629D01*
Y110300D01*
X163517D01*
Y110076D01*
X163406D01*
Y109964D01*
X163294D01*
Y109740D01*
X163182D01*
Y109517D01*
X163070D01*
Y109292D01*
X162958D01*
Y109181D01*
X162846D01*
Y108957D01*
X162734D01*
Y108733D01*
X162622D01*
Y108621D01*
X162510D01*
Y108397D01*
X162398D01*
Y108173D01*
X162286D01*
Y108061D01*
X162174D01*
Y107837D01*
X162062D01*
Y107613D01*
X161950D01*
Y107389D01*
X161838D01*
Y107277D01*
X161726D01*
Y107053D01*
X161614D01*
Y106829D01*
X161726D01*
Y106718D01*
X161838D01*
Y106494D01*
X161950D01*
Y106270D01*
X162062D01*
Y106158D01*
X162174D01*
Y105934D01*
X162286D01*
Y105710D01*
X162398D01*
Y105598D01*
X162510D01*
Y105374D01*
X162622D01*
Y105262D01*
X162734D01*
Y105038D01*
X162846D01*
Y104814D01*
X162958D01*
Y104590D01*
X163070D01*
Y104478D01*
X163182D01*
Y104254D01*
X163294D01*
Y104031D01*
X163406D01*
Y103919D01*
X163517D01*
Y103695D01*
X163629D01*
Y103471D01*
X163741D01*
Y103359D01*
X163853D01*
Y103135D01*
X163965D01*
Y102911D01*
X164077D01*
Y102687D01*
X164189D01*
Y102575D01*
X164301D01*
Y102351D01*
X164413D01*
Y102127D01*
X164525D01*
Y102015D01*
X164637D01*
Y101791D01*
X164749D01*
Y101567D01*
X164861D01*
Y101344D01*
X164973D01*
Y101232D01*
X165085D01*
Y101120D01*
X165421D01*
Y101344D01*
X165533D01*
Y101567D01*
X165645D01*
Y101791D01*
X165757D01*
Y101903D01*
X165869D01*
Y102127D01*
X165981D01*
Y102351D01*
X166093D01*
Y102575D01*
X166205D01*
Y102799D01*
X166316D01*
Y102911D01*
X166428D01*
Y103135D01*
X166540D01*
Y103247D01*
X166652D01*
Y103471D01*
X166764D01*
Y103695D01*
X166876D01*
Y103919D01*
X166988D01*
Y104031D01*
X167100D01*
Y104254D01*
X167212D01*
Y104478D01*
X167324D01*
Y104702D01*
X167436D01*
Y104814D01*
X167548D01*
Y105038D01*
X167660D01*
Y105262D01*
X167772D01*
Y105486D01*
X167884D01*
Y105710D01*
X167996D01*
Y105822D01*
X168108D01*
Y106046D01*
X168220D01*
Y106270D01*
X168332D01*
Y106382D01*
X168444D01*
Y106606D01*
X168556D01*
Y106718D01*
X168668D01*
Y106829D01*
X168780D01*
Y106941D01*
X169451D01*
Y106829D01*
X169563D01*
Y106718D01*
X169451D01*
Y106494D01*
X169339D01*
Y106270D01*
X169227D01*
Y106046D01*
X169115D01*
Y105822D01*
X169227D01*
Y105710D01*
X169339D01*
Y105598D01*
X169451D01*
Y105486D01*
X170459D01*
Y105150D01*
X169227D01*
Y104926D01*
X169115D01*
Y105038D01*
X168892D01*
Y105150D01*
X168556D01*
Y104926D01*
X168444D01*
Y104702D01*
X168332D01*
Y104590D01*
X168444D01*
Y104478D01*
X168556D01*
Y104366D01*
X168668D01*
Y104254D01*
X168780D01*
Y104142D01*
X169787D01*
Y103919D01*
X169675D01*
Y103807D01*
X168444D01*
Y103695D01*
X168332D01*
Y103807D01*
X168108D01*
Y103919D01*
X167884D01*
Y103807D01*
X167772D01*
Y103583D01*
X167660D01*
Y103247D01*
X167772D01*
Y103135D01*
X167884D01*
Y103023D01*
X167996D01*
Y102911D01*
X169003D01*
Y102575D01*
X167772D01*
Y102463D01*
X167436D01*
Y102575D01*
X167100D01*
Y102463D01*
X166988D01*
Y102239D01*
X166876D01*
Y102015D01*
X166988D01*
Y101903D01*
X167100D01*
Y101791D01*
X167212D01*
Y101679D01*
X167324D01*
Y101567D01*
X168220D01*
Y101455D01*
X168332D01*
Y101344D01*
X168220D01*
Y101232D01*
X166988D01*
Y101120D01*
X166876D01*
Y101232D01*
X166652D01*
Y101344D01*
X166428D01*
Y101232D01*
X166316D01*
Y101008D01*
X166205D01*
Y100896D01*
X166093D01*
Y100784D01*
X165085D01*
Y100896D01*
X164973D01*
Y101008D01*
X164861D01*
Y101232D01*
X164749D01*
Y101455D01*
X164637D01*
Y101567D01*
X164525D01*
Y101791D01*
X164413D01*
Y102015D01*
X164301D01*
Y102127D01*
X164189D01*
Y102351D01*
X164077D01*
Y102575D01*
X163965D01*
Y102687D01*
X163853D01*
Y102911D01*
X163741D01*
Y103135D01*
X163629D01*
Y103247D01*
X163517D01*
Y103471D01*
X163406D01*
Y103695D01*
X163294D01*
Y103919D01*
X163182D01*
Y104031D01*
X163070D01*
Y104254D01*
X162958D01*
Y104478D01*
X162846D01*
Y104590D01*
X162734D01*
Y104814D01*
X162622D01*
Y105038D01*
X162510D01*
Y105262D01*
X162398D01*
Y105374D01*
X162286D01*
Y105598D01*
X162174D01*
Y105822D01*
X162062D01*
Y105934D01*
X161950D01*
Y106158D01*
X161838D01*
Y106382D01*
X161726D01*
Y106606D01*
X161614D01*
Y106718D01*
X161502D01*
Y106941D01*
X161390D01*
Y107053D01*
X161502D01*
Y107277D01*
X161614D01*
Y107389D01*
X161726D01*
Y107613D01*
X161838D01*
Y107837D01*
X161950D01*
Y107949D01*
X162062D01*
Y108173D01*
X162174D01*
Y108397D01*
X162286D01*
Y108621D01*
X162398D01*
Y108733D01*
X162510D01*
Y108957D01*
X162622D01*
Y109181D01*
X162734D01*
Y109292D01*
X162846D01*
Y109517D01*
X162958D01*
Y109740D01*
X163070D01*
Y109852D01*
X163182D01*
Y110076D01*
X163294D01*
Y110300D01*
X163406D01*
Y110412D01*
X163517D01*
Y110636D01*
X163629D01*
Y110748D01*
X163741D01*
Y110972D01*
X163853D01*
Y111196D01*
X163965D01*
Y111420D01*
X164077D01*
Y111532D01*
X164189D01*
Y111756D01*
X164301D01*
Y111979D01*
X164413D01*
Y112092D01*
X164525D01*
Y112315D01*
X164637D01*
Y112539D01*
X164749D01*
Y112763D01*
X164861D01*
Y112875D01*
X164973D01*
Y113099D01*
X165085D01*
Y113211D01*
X166093D01*
Y113099D01*
D02*
G37*
G36*
X181095Y108621D02*
X181207D01*
Y108397D01*
X181319D01*
Y108285D01*
X181431D01*
Y107613D01*
X181319D01*
Y107501D01*
X180983D01*
Y107389D01*
X180759D01*
Y107277D01*
X180647D01*
Y106941D01*
X180759D01*
Y106829D01*
X180871D01*
Y106606D01*
X180983D01*
Y106494D01*
X181095D01*
Y106382D01*
X181207D01*
Y106270D01*
X181319D01*
Y106158D01*
X181431D01*
Y106046D01*
X181543D01*
Y105822D01*
X181655D01*
Y105710D01*
X181767D01*
Y105598D01*
X181879D01*
Y105486D01*
X181991D01*
Y105262D01*
X182103D01*
Y104926D01*
X181431D01*
Y105038D01*
X181207D01*
Y105150D01*
X180983D01*
Y105262D01*
X180759D01*
Y105374D01*
X180535D01*
Y105486D01*
X180311D01*
Y105598D01*
X180199D01*
Y105486D01*
X180311D01*
Y105374D01*
X180423D01*
Y105150D01*
X180535D01*
Y105038D01*
X180647D01*
Y104926D01*
X180759D01*
Y104814D01*
X180871D01*
Y104702D01*
X180983D01*
Y104590D01*
X181095D01*
Y104478D01*
X180871D01*
Y104366D01*
X180535D01*
Y104478D01*
X180423D01*
Y104590D01*
X180311D01*
Y104702D01*
X180199D01*
Y104814D01*
X180087D01*
Y104926D01*
X179975D01*
Y105150D01*
X179863D01*
Y105262D01*
X179752D01*
Y105374D01*
X179639D01*
Y105486D01*
X179528D01*
Y105598D01*
X179416D01*
Y105710D01*
X179304D01*
Y105822D01*
X179192D01*
Y105934D01*
X179080D01*
Y106046D01*
X178968D01*
Y106270D01*
X178856D01*
Y106718D01*
X178968D01*
Y106829D01*
X179416D01*
Y106718D01*
X179752D01*
Y106606D01*
X179975D01*
Y106494D01*
X180199D01*
Y106382D01*
X180423D01*
Y106270D01*
X180535D01*
Y106382D01*
X180423D01*
Y106494D01*
X180311D01*
Y106606D01*
X180199D01*
Y106829D01*
X180087D01*
Y106941D01*
X179975D01*
Y107053D01*
X179863D01*
Y107165D01*
X179752D01*
Y107389D01*
X179639D01*
Y107949D01*
X179752D01*
Y108061D01*
X179863D01*
Y108173D01*
X180535D01*
Y108285D01*
X180647D01*
Y108621D01*
X180871D01*
Y108733D01*
X181095D01*
Y108621D01*
D02*
G37*
G36*
X173482Y106158D02*
X173594D01*
Y106046D01*
X173706D01*
Y105934D01*
X173818D01*
Y105262D01*
X173706D01*
Y105150D01*
X173482D01*
Y105038D01*
X173146D01*
Y104926D01*
X173034D01*
Y104814D01*
X172922D01*
Y104702D01*
X173034D01*
Y104590D01*
X173146D01*
Y104366D01*
X173258D01*
Y104254D01*
X173370D01*
Y104031D01*
X173482D01*
Y103919D01*
X173706D01*
Y103807D01*
X173818D01*
Y103583D01*
X173930D01*
Y103471D01*
X174042D01*
Y103359D01*
X174154D01*
Y103247D01*
X174266D01*
Y103135D01*
X174378D01*
Y102911D01*
X174489D01*
Y102575D01*
X173818D01*
Y102687D01*
X173594D01*
Y102799D01*
X173370D01*
Y102911D01*
X173146D01*
Y103023D01*
X172922D01*
Y103135D01*
X172698D01*
Y102911D01*
X172810D01*
Y102799D01*
X172922D01*
Y102687D01*
X173034D01*
Y102575D01*
X173146D01*
Y102463D01*
X173258D01*
Y102239D01*
X173370D01*
Y102015D01*
X172922D01*
Y102127D01*
X172810D01*
Y102239D01*
X172698D01*
Y102351D01*
X172586D01*
Y102463D01*
X172474D01*
Y102575D01*
X172362D01*
Y102687D01*
X172250D01*
Y102799D01*
X172138D01*
Y102911D01*
X172026D01*
Y103135D01*
X171914D01*
Y103247D01*
X171802D01*
Y103359D01*
X171690D01*
Y103471D01*
X171579D01*
Y103583D01*
X171467D01*
Y103695D01*
X171355D01*
Y103919D01*
X171243D01*
Y104254D01*
X171355D01*
Y104366D01*
X171467D01*
Y104478D01*
X171802D01*
Y104366D01*
X172026D01*
Y104254D01*
X172250D01*
Y104142D01*
X172586D01*
Y104031D01*
X172810D01*
Y103919D01*
X172922D01*
Y104031D01*
X172810D01*
Y104142D01*
X172698D01*
Y104254D01*
X172586D01*
Y104366D01*
X172474D01*
Y104478D01*
X172362D01*
Y104702D01*
X172250D01*
Y104814D01*
X172138D01*
Y105038D01*
X172026D01*
Y105598D01*
X172138D01*
Y105710D01*
X172362D01*
Y105822D01*
X172922D01*
Y105934D01*
X173034D01*
Y106270D01*
X173370D01*
Y106382D01*
X173482D01*
Y106158D01*
D02*
G37*
G36*
X181095Y104142D02*
X181207D01*
Y103919D01*
X181319D01*
Y103583D01*
X181431D01*
Y103359D01*
X181319D01*
Y103135D01*
X181207D01*
Y103023D01*
X180871D01*
Y102799D01*
X180983D01*
Y102687D01*
X181095D01*
Y102575D01*
X181207D01*
Y102463D01*
X181319D01*
Y102351D01*
X181431D01*
Y102239D01*
X181543D01*
Y102015D01*
X181655D01*
Y101903D01*
X181767D01*
Y101679D01*
X181879D01*
Y101232D01*
X181767D01*
Y101120D01*
X181543D01*
Y101008D01*
X180871D01*
Y101120D01*
X180759D01*
Y100896D01*
X180871D01*
Y100784D01*
X180983D01*
Y100672D01*
X181095D01*
Y100560D01*
X180759D01*
Y100448D01*
X180535D01*
Y100560D01*
X180423D01*
Y100672D01*
X180311D01*
Y100784D01*
X180199D01*
Y100896D01*
X180087D01*
Y101008D01*
X179975D01*
Y101120D01*
X179863D01*
Y101232D01*
X179752D01*
Y101344D01*
X179639D01*
Y101455D01*
X179528D01*
Y101567D01*
X179416D01*
Y101679D01*
X179304D01*
Y101791D01*
X179192D01*
Y101903D01*
X179080D01*
Y102015D01*
X178968D01*
Y102239D01*
X178856D01*
Y102575D01*
X179192D01*
Y102463D01*
X179416D01*
Y102351D01*
X179639D01*
Y102239D01*
X179863D01*
Y102127D01*
X180199D01*
Y102015D01*
X180535D01*
Y101903D01*
X181095D01*
Y102015D01*
X180983D01*
Y102127D01*
X180871D01*
Y102239D01*
X180759D01*
Y102351D01*
X180647D01*
Y102463D01*
X180535D01*
Y102575D01*
X180423D01*
Y102687D01*
X180311D01*
Y102799D01*
X180199D01*
Y102911D01*
X180087D01*
Y103023D01*
X179975D01*
Y103135D01*
X179752D01*
Y103247D01*
X179639D01*
Y103807D01*
X180647D01*
Y104254D01*
X181095D01*
Y104142D01*
D02*
G37*
G36*
X173482Y101791D02*
X173594D01*
Y101679D01*
X173706D01*
Y101567D01*
X173818D01*
Y101344D01*
X173930D01*
Y101120D01*
X174042D01*
Y100560D01*
X173930D01*
Y100448D01*
X173818D01*
Y100336D01*
X173258D01*
Y100224D01*
X173370D01*
Y100112D01*
X173482D01*
Y99888D01*
X173594D01*
Y99776D01*
X173706D01*
Y99664D01*
X173818D01*
Y99552D01*
X173930D01*
Y99328D01*
X174042D01*
Y99216D01*
X174154D01*
Y98992D01*
X174266D01*
Y98768D01*
X174378D01*
Y98209D01*
X174154D01*
Y98097D01*
X173930D01*
Y98209D01*
X173706D01*
Y98321D01*
X173594D01*
Y98433D01*
X172810D01*
Y98656D01*
X172698D01*
Y98768D01*
X172586D01*
Y98992D01*
X172474D01*
Y99104D01*
X172362D01*
Y99216D01*
X172250D01*
Y99328D01*
X172138D01*
Y99440D01*
X172026D01*
Y99664D01*
X171914D01*
Y99776D01*
X171802D01*
Y100000D01*
X171690D01*
Y100112D01*
X171579D01*
Y100224D01*
X171467D01*
Y100448D01*
X171355D01*
Y100560D01*
X171243D01*
Y100784D01*
X171131D01*
Y101008D01*
X171019D01*
Y101567D01*
X171355D01*
Y101455D01*
X171467D01*
Y101344D01*
X171579D01*
Y101232D01*
X171690D01*
Y101120D01*
X171802D01*
Y100896D01*
X171914D01*
Y100784D01*
X172026D01*
Y100672D01*
X172138D01*
Y100560D01*
X172250D01*
Y100448D01*
X172362D01*
Y100224D01*
X172474D01*
Y100112D01*
X172586D01*
Y100000D01*
X172698D01*
Y99888D01*
X172810D01*
Y99776D01*
X172922D01*
Y99664D01*
X173034D01*
Y99552D01*
X173146D01*
Y99440D01*
X173258D01*
Y99552D01*
X173146D01*
Y99664D01*
X173034D01*
Y99776D01*
X172922D01*
Y99888D01*
X172810D01*
Y100112D01*
X172698D01*
Y100224D01*
X172586D01*
Y100448D01*
X172474D01*
Y100560D01*
X172362D01*
Y100672D01*
X172250D01*
Y101232D01*
X172810D01*
Y101120D01*
X173146D01*
Y101232D01*
X173258D01*
Y101455D01*
X173146D01*
Y101567D01*
X173034D01*
Y101791D01*
X173146D01*
Y101903D01*
X173482D01*
Y101791D01*
D02*
G37*
G36*
X176057Y101232D02*
X176393D01*
Y101120D01*
X176505D01*
Y100896D01*
X176617D01*
Y100784D01*
X176729D01*
Y100560D01*
X176841D01*
Y100448D01*
X176953D01*
Y100224D01*
X177065D01*
Y100000D01*
X177176D01*
Y99552D01*
X176953D01*
Y99440D01*
X177065D01*
Y99328D01*
X177176D01*
Y99216D01*
X177288D01*
Y99104D01*
X177400D01*
Y98992D01*
X178072D01*
Y99104D01*
X178408D01*
Y99216D01*
X178520D01*
Y99328D01*
X178744D01*
Y99440D01*
X178856D01*
Y99552D01*
X178968D01*
Y99664D01*
X179192D01*
Y99776D01*
X179304D01*
Y99888D01*
X179528D01*
Y100000D01*
X179752D01*
Y100112D01*
X180647D01*
Y100336D01*
X181095D01*
Y100000D01*
X181207D01*
Y99440D01*
X181319D01*
Y99328D01*
X181431D01*
Y99216D01*
X181543D01*
Y98992D01*
X181655D01*
Y98880D01*
X181767D01*
Y98656D01*
X181879D01*
Y98433D01*
X181991D01*
Y98209D01*
X182103D01*
Y97985D01*
X182215D01*
Y97313D01*
X182103D01*
Y97089D01*
X181655D01*
Y97201D01*
X181543D01*
Y97313D01*
X181431D01*
Y97537D01*
X181319D01*
Y97761D01*
X181207D01*
Y98097D01*
X181095D01*
Y98321D01*
X180983D01*
Y98545D01*
X180871D01*
Y98880D01*
X180983D01*
Y98992D01*
X180759D01*
Y99104D01*
X180647D01*
Y99216D01*
X180199D01*
Y99104D01*
X179975D01*
Y98992D01*
X179863D01*
Y98880D01*
X179639D01*
Y98768D01*
X179528D01*
Y98656D01*
X179416D01*
Y98545D01*
X179304D01*
Y98433D01*
X179192D01*
Y98321D01*
X178968D01*
Y98209D01*
X178744D01*
Y98097D01*
X178632D01*
Y97985D01*
X177624D01*
Y98097D01*
X177400D01*
Y98209D01*
X177288D01*
Y98321D01*
X177065D01*
Y98433D01*
X176953D01*
Y98545D01*
X176841D01*
Y98656D01*
X176729D01*
Y98768D01*
X176617D01*
Y98992D01*
X176505D01*
Y99104D01*
X176393D01*
Y99216D01*
X176281D01*
Y99440D01*
X176169D01*
Y99664D01*
X176057D01*
Y99888D01*
X175945D01*
Y100000D01*
X175833D01*
Y100336D01*
X175721D01*
Y100560D01*
X175609D01*
Y100896D01*
X175497D01*
Y101120D01*
X175609D01*
Y101344D01*
X176057D01*
Y101232D01*
D02*
G37*
G36*
X169787Y98209D02*
X170011D01*
Y98097D01*
X170235D01*
Y97985D01*
X170459D01*
Y97873D01*
X170571D01*
Y97761D01*
X170683D01*
Y97537D01*
X170795D01*
Y97089D01*
X170683D01*
Y96977D01*
X170235D01*
Y97089D01*
X170123D01*
Y97201D01*
X170011D01*
Y97313D01*
X169899D01*
Y97425D01*
X169787D01*
Y97537D01*
X169675D01*
Y97761D01*
X169563D01*
Y98321D01*
X169787D01*
Y98209D01*
D02*
G37*
G36*
X173482Y98097D02*
X173594D01*
Y97985D01*
X173706D01*
Y97761D01*
X173818D01*
Y97649D01*
X173930D01*
Y97425D01*
X174042D01*
Y96641D01*
X173930D01*
Y96529D01*
X173482D01*
Y96417D01*
X173258D01*
Y96305D01*
X173146D01*
Y96082D01*
X173258D01*
Y95969D01*
X173370D01*
Y95858D01*
X173482D01*
Y95746D01*
X173370D01*
Y95634D01*
X172922D01*
Y95746D01*
X172810D01*
Y95858D01*
X172698D01*
Y95969D01*
X172586D01*
Y96082D01*
X172474D01*
Y96193D01*
X172362D01*
Y96417D01*
X172250D01*
Y96529D01*
X172138D01*
Y96641D01*
X172026D01*
Y96753D01*
X171914D01*
Y97089D01*
X172026D01*
Y97201D01*
X172138D01*
Y97313D01*
X173258D01*
Y97425D01*
X173370D01*
Y97537D01*
X173258D01*
Y97761D01*
X173146D01*
Y97985D01*
X173034D01*
Y98209D01*
X173370D01*
Y98321D01*
X173482D01*
Y98097D01*
D02*
G37*
G36*
Y95410D02*
X173594D01*
Y95186D01*
X173706D01*
Y95074D01*
X173818D01*
Y94850D01*
X173930D01*
Y94626D01*
X174042D01*
Y94514D01*
X174154D01*
Y94290D01*
X174266D01*
Y94066D01*
X174378D01*
Y93730D01*
X174266D01*
Y93618D01*
X173818D01*
Y93730D01*
X173706D01*
Y93842D01*
X173482D01*
Y93954D01*
X173258D01*
Y94066D01*
X173034D01*
Y94178D01*
X172586D01*
Y94290D01*
X172362D01*
Y94178D01*
X172250D01*
Y93954D01*
X172362D01*
Y93730D01*
X172474D01*
Y93618D01*
X172586D01*
Y93506D01*
X172698D01*
Y93395D01*
X172810D01*
Y93283D01*
X172922D01*
Y93170D01*
X173034D01*
Y93059D01*
X173146D01*
Y92835D01*
X173258D01*
Y92723D01*
X173370D01*
Y92499D01*
X172810D01*
Y92611D01*
X172698D01*
Y92835D01*
X172586D01*
Y92947D01*
X172474D01*
Y93059D01*
X172362D01*
Y93170D01*
X172250D01*
Y93283D01*
X172138D01*
Y93395D01*
X172026D01*
Y93506D01*
X171914D01*
Y93618D01*
X171467D01*
Y93842D01*
X171355D01*
Y93954D01*
X171243D01*
Y94626D01*
X171355D01*
Y94738D01*
X171467D01*
Y94850D01*
X171579D01*
Y94962D01*
X171802D01*
Y95074D01*
X172474D01*
Y94962D01*
X172810D01*
Y94850D01*
X173034D01*
Y94738D01*
X173258D01*
Y94626D01*
X173482D01*
Y94738D01*
X173370D01*
Y94850D01*
X173258D01*
Y94962D01*
X173146D01*
Y95186D01*
X173034D01*
Y95298D01*
X172922D01*
Y95410D01*
X173146D01*
Y95522D01*
X173482D01*
Y95410D01*
D02*
G37*
G36*
X169339Y93059D02*
X169563D01*
Y92947D01*
X169787D01*
Y92835D01*
X169899D01*
Y92723D01*
X170011D01*
Y92499D01*
X170123D01*
Y92275D01*
X170235D01*
Y92163D01*
X170347D01*
Y91939D01*
X170459D01*
Y91827D01*
X170571D01*
Y91603D01*
X170683D01*
Y91491D01*
X170795D01*
Y91267D01*
X170907D01*
Y91043D01*
X171019D01*
Y90819D01*
X171131D01*
Y90596D01*
X171243D01*
Y90372D01*
X171355D01*
Y90260D01*
X171467D01*
Y90148D01*
X171579D01*
Y90260D01*
X171690D01*
Y90483D01*
X171802D01*
Y90707D01*
X171914D01*
Y91043D01*
X172026D01*
Y91267D01*
X172138D01*
Y91491D01*
X172250D01*
Y91715D01*
X172362D01*
Y91939D01*
X172474D01*
Y92051D01*
X172586D01*
Y92163D01*
X173258D01*
Y92051D01*
X173482D01*
Y91827D01*
X173594D01*
Y91715D01*
X173706D01*
Y91491D01*
X173818D01*
Y91267D01*
X173930D01*
Y91043D01*
X174042D01*
Y90707D01*
X174154D01*
Y90372D01*
X174266D01*
Y89924D01*
X174378D01*
Y89476D01*
X174489D01*
Y89140D01*
X174601D01*
Y89028D01*
X174825D01*
Y88580D01*
X174601D01*
Y88020D01*
X174266D01*
Y88132D01*
X174154D01*
Y88356D01*
X174042D01*
Y88468D01*
X173930D01*
Y88580D01*
X173818D01*
Y88692D01*
X173370D01*
Y88804D01*
X172810D01*
Y88916D01*
X172474D01*
Y89028D01*
X172026D01*
Y88916D01*
X171914D01*
Y88692D01*
X171467D01*
Y88916D01*
X171355D01*
Y89140D01*
X171243D01*
Y89252D01*
X170907D01*
Y89364D01*
X170571D01*
Y89476D01*
X170235D01*
Y89588D01*
X169787D01*
Y89700D01*
X169563D01*
Y89812D01*
X169451D01*
Y89924D01*
X169339D01*
Y90036D01*
X169227D01*
Y90148D01*
X169003D01*
Y90036D01*
X169115D01*
Y89588D01*
X169227D01*
Y89028D01*
X169003D01*
Y89140D01*
X168780D01*
Y89364D01*
X168556D01*
Y89700D01*
X168444D01*
Y90036D01*
X168332D01*
Y90483D01*
X168220D01*
Y91603D01*
X168108D01*
Y91827D01*
X168220D01*
Y92611D01*
X168332D01*
Y92723D01*
X168444D01*
Y93059D01*
X168556D01*
Y93170D01*
X169339D01*
Y93059D01*
D02*
G37*
%LPC*%
G36*
X14076Y70903D02*
X13740D01*
Y70679D01*
X13628D01*
Y70343D01*
X13516D01*
Y69671D01*
X13628D01*
Y69560D01*
X13740D01*
Y69448D01*
X14076D01*
Y69336D01*
X14524D01*
Y69224D01*
X14636D01*
Y69112D01*
X14972D01*
Y69000D01*
X15308D01*
Y69224D01*
X15196D01*
Y69336D01*
X15084D01*
Y69560D01*
X14972D01*
Y69784D01*
X14860D01*
Y70007D01*
X14748D01*
Y70119D01*
X14636D01*
Y70343D01*
X14524D01*
Y70455D01*
X14412D01*
Y70567D01*
X14300D01*
Y70679D01*
X14188D01*
Y70791D01*
X14076D01*
Y70903D01*
D02*
G37*
G36*
X17547Y70007D02*
X17435D01*
Y69895D01*
X17323D01*
Y69784D01*
X17211D01*
Y69560D01*
X17099D01*
Y69336D01*
X16987D01*
Y69000D01*
X16875D01*
Y68776D01*
X16763D01*
Y68552D01*
X16875D01*
Y68440D01*
X17211D01*
Y68328D01*
X17547D01*
Y68216D01*
X17995D01*
Y68104D01*
X18330D01*
Y68216D01*
X18218D01*
Y68664D01*
X18106D01*
Y68888D01*
X17995D01*
Y69224D01*
X17883D01*
Y69448D01*
X17771D01*
Y69671D01*
X17659D01*
Y69895D01*
X17547D01*
Y70007D01*
D02*
G37*
G36*
X24712Y84338D02*
Y84226D01*
X24824D01*
Y84338D01*
X24712D01*
D02*
G37*
G36*
X24936Y85122D02*
Y85010D01*
X25048D01*
Y85122D01*
X24936D01*
D02*
G37*
G36*
X23816Y89152D02*
Y89040D01*
X23928D01*
Y88928D01*
X24040D01*
Y89152D01*
X23928D01*
X23816D01*
D02*
G37*
G36*
X179528Y110412D02*
X179304D01*
Y110300D01*
X179416D01*
Y110188D01*
X179528D01*
Y110412D01*
D02*
G37*
G36*
X169563Y92163D02*
X169227D01*
Y91939D01*
X169115D01*
Y91603D01*
X169003D01*
Y90931D01*
X169115D01*
Y90819D01*
X169227D01*
Y90707D01*
X169563D01*
Y90596D01*
X170011D01*
Y90483D01*
X170123D01*
Y90372D01*
X170459D01*
Y90260D01*
X170795D01*
Y90483D01*
X170683D01*
Y90596D01*
X170571D01*
Y90819D01*
X170459D01*
Y91043D01*
X170347D01*
Y91267D01*
X170235D01*
Y91379D01*
X170123D01*
Y91603D01*
X170011D01*
Y91715D01*
X169899D01*
Y91827D01*
X169787D01*
Y91939D01*
X169675D01*
Y92051D01*
X169563D01*
Y92163D01*
D02*
G37*
G36*
X173034Y91267D02*
X172922D01*
Y91155D01*
X172810D01*
Y91043D01*
X172698D01*
Y90819D01*
X172586D01*
Y90596D01*
X172474D01*
Y90260D01*
X172362D01*
Y90036D01*
X172250D01*
Y89812D01*
X172362D01*
Y89700D01*
X172698D01*
Y89588D01*
X173034D01*
Y89476D01*
X173482D01*
Y89364D01*
X173818D01*
Y89476D01*
X173706D01*
Y89924D01*
X173594D01*
Y90148D01*
X173482D01*
Y90483D01*
X173370D01*
Y90707D01*
X173258D01*
Y90931D01*
X173146D01*
Y91155D01*
X173034D01*
Y91267D01*
D02*
G37*
%LPD*%
D21*
X137992Y44094D02*
D03*
X126575D02*
D03*
X57284Y44488D02*
D03*
X68701D02*
D03*
D22*
X116736Y51181D02*
D03*
X103736D02*
D03*
X116736Y36614D02*
D03*
X103736D02*
D03*
X78933D02*
D03*
X91933D02*
D03*
X78933Y51575D02*
D03*
X91933D02*
D03*
D24*
X9038Y118096D02*
D03*
D25*
X55492Y84793D02*
D03*
X60492D02*
D03*
X65492D02*
D03*
X70492D02*
D03*
X79508Y62845D02*
D03*
X84508D02*
D03*
X89508D02*
D03*
X94508D02*
D03*
X106280D02*
D03*
X111279D02*
D03*
X116279D02*
D03*
X121280D02*
D03*
X144902Y84400D02*
D03*
X139902D02*
D03*
X134902D02*
D03*
X129902D02*
D03*
D26*
X70492Y63238D02*
D03*
X65492D02*
D03*
X60492D02*
D03*
X55492D02*
D03*
X94508Y84400D02*
D03*
X89508D02*
D03*
X84508D02*
D03*
X79508D02*
D03*
X121280D02*
D03*
X116279D02*
D03*
X111279D02*
D03*
X106280D02*
D03*
X129902Y62845D02*
D03*
X134902D02*
D03*
X139902D02*
D03*
X144902D02*
D03*
D27*
X47441Y78740D02*
D03*
X41535D02*
D03*
X152953Y81102D02*
D03*
X158858D02*
D03*
D28*
X47559Y73228D02*
D03*
X41417D02*
D03*
X153228Y75590D02*
D03*
X159370D02*
D03*
D29*
X58667Y157874D02*
D03*
X70467D02*
D03*
X101187Y171260D02*
D03*
X112987D02*
D03*
X91333Y171260D02*
D03*
X79533D02*
D03*
X91333Y157874D02*
D03*
X79533D02*
D03*
X101187D02*
D03*
X112987D02*
D03*
X133459D02*
D03*
X121659D02*
D03*
D30*
X126772Y141732D02*
D03*
Y96063D02*
D03*
X75590D02*
D03*
Y141732D02*
D03*
D31*
X62992Y75935D02*
D03*
X87008Y71702D02*
D03*
X113779Y71703D02*
D03*
X137402Y75541D02*
D03*
D32*
X121260Y27165D02*
D03*
X74016Y26772D02*
D03*
X142126Y90551D02*
D03*
X59449D02*
D03*
X100394Y61024D02*
D03*
X124803Y12598D02*
D03*
X90945Y11811D02*
D03*
D33*
X11417Y148031D02*
D03*
X39764D02*
D03*
X11417Y185039D02*
D03*
X39764D02*
D03*
X185039Y156299D02*
D03*
Y184646D02*
D03*
X148031Y156299D02*
D03*
Y184646D02*
D03*
X156693Y12205D02*
D03*
X185039D02*
D03*
X156693Y49213D02*
D03*
X185039D02*
D03*
X40551Y50787D02*
D03*
X12205D02*
D03*
X40551Y13780D02*
D03*
X12205D02*
D03*
M02*
