G04*
G04 #@! TF.GenerationSoftware,Altium Limited,Altium Designer,19.0.6 (157)*
G04*
G04 Layer_Physical_Order=1*
G04 Layer_Color=255*
%FSLAX25Y25*%
%MOIN*%
G70*
G01*
G75*
%ADD10C,0.00600*%
G04:AMPARAMS|DCode=15|XSize=33.47mil|YSize=31.5mil|CornerRadius=3.15mil|HoleSize=0mil|Usage=FLASHONLY|Rotation=270.000|XOffset=0mil|YOffset=0mil|HoleType=Round|Shape=RoundedRectangle|*
%AMROUNDEDRECTD15*
21,1,0.03347,0.02520,0,0,270.0*
21,1,0.02717,0.03150,0,0,270.0*
1,1,0.00630,-0.01260,-0.01358*
1,1,0.00630,-0.01260,0.01358*
1,1,0.00630,0.01260,0.01358*
1,1,0.00630,0.01260,-0.01358*
%
%ADD15ROUNDEDRECTD15*%
G04:AMPARAMS|DCode=16|XSize=39.37mil|YSize=31.5mil|CornerRadius=3.15mil|HoleSize=0mil|Usage=FLASHONLY|Rotation=90.000|XOffset=0mil|YOffset=0mil|HoleType=Round|Shape=RoundedRectangle|*
%AMROUNDEDRECTD16*
21,1,0.03937,0.02520,0,0,90.0*
21,1,0.03307,0.03150,0,0,90.0*
1,1,0.00630,0.01260,0.01654*
1,1,0.00630,0.01260,-0.01654*
1,1,0.00630,-0.01260,-0.01654*
1,1,0.00630,-0.01260,0.01654*
%
%ADD16ROUNDEDRECTD16*%
%ADD17R,0.03150X0.03150*%
%ADD18R,0.03425X0.03661*%
G04:AMPARAMS|DCode=19|XSize=63mil|YSize=106mil|CornerRadius=4.72mil|HoleSize=0mil|Usage=FLASHONLY|Rotation=180.000|XOffset=0mil|YOffset=0mil|HoleType=Round|Shape=RoundedRectangle|*
%AMROUNDEDRECTD19*
21,1,0.06300,0.09655,0,0,180.0*
21,1,0.05355,0.10600,0,0,180.0*
1,1,0.00945,-0.02678,0.04828*
1,1,0.00945,0.02678,0.04828*
1,1,0.00945,0.02678,-0.04828*
1,1,0.00945,-0.02678,-0.04828*
%
%ADD19ROUNDEDRECTD19*%
G04:AMPARAMS|DCode=20|XSize=196.85mil|YSize=118.11mil|CornerRadius=8.86mil|HoleSize=0mil|Usage=FLASHONLY|Rotation=0.000|XOffset=0mil|YOffset=0mil|HoleType=Round|Shape=RoundedRectangle|*
%AMROUNDEDRECTD20*
21,1,0.19685,0.10039,0,0,0.0*
21,1,0.17913,0.11811,0,0,0.0*
1,1,0.01772,0.08957,-0.05020*
1,1,0.01772,-0.08957,-0.05020*
1,1,0.01772,-0.08957,0.05020*
1,1,0.01772,0.08957,0.05020*
%
%ADD20ROUNDEDRECTD20*%
%ADD21R,0.07087X0.25984*%
%ADD22R,0.07874X0.11000*%
%ADD23R,0.18110X0.14370*%
%ADD34C,0.01000*%
%ADD35C,0.01600*%
%ADD36R,0.03150X0.01000*%
%ADD37C,0.06299*%
%ADD38C,0.19685*%
%ADD39C,0.01968*%
G36*
X195343Y1507D02*
X111043D01*
X111043Y56876D01*
X122432Y56876D01*
X122458Y56880D01*
X124803D01*
X125012Y56907D01*
X125207Y56988D01*
X125374Y57116D01*
X125502Y57283D01*
X125583Y57478D01*
X125610Y57683D01*
X131476D01*
Y29528D01*
X131504Y29319D01*
X131585Y29124D01*
X131713Y28957D01*
X131880Y28829D01*
X132075Y28748D01*
X132283Y28721D01*
X145669D01*
X145878Y28748D01*
X146073Y28829D01*
X146240Y28957D01*
X146368Y29124D01*
X146449Y29319D01*
X146476Y29528D01*
Y58661D01*
X146476Y58661D01*
X150374D01*
Y67399D01*
X150403Y67411D01*
X150570Y67540D01*
X150699Y67707D01*
X150779Y67901D01*
X150807Y68110D01*
X150807Y78928D01*
X155128D01*
Y83277D01*
X150807D01*
X150807Y129921D01*
X150779Y130130D01*
X150699Y130325D01*
X150571Y130492D01*
X150403Y130620D01*
X150374Y130632D01*
Y130728D01*
X137421D01*
X137421Y151262D01*
X137417Y151292D01*
X137419Y151321D01*
X137404Y151396D01*
X137394Y151471D01*
X137382Y151499D01*
X137376Y151528D01*
X137342Y151596D01*
X137313Y151666D01*
X137295Y151689D01*
X137281Y151716D01*
X136804Y152418D01*
X136753Y152475D01*
X136707Y152535D01*
X136683Y152553D01*
X136664Y152576D01*
X136600Y152617D01*
X136540Y152664D01*
X136512Y152675D01*
X136488Y152691D01*
X136416Y152715D01*
X136345Y152744D01*
X136316Y152748D01*
X136288Y152757D01*
X136212Y152762D01*
X136136Y152772D01*
X130834D01*
X130712Y152788D01*
X130648Y152814D01*
X130592Y152857D01*
X130550Y152913D01*
X130523Y152977D01*
X130507Y153099D01*
Y162649D01*
X130523Y162771D01*
X130550Y162835D01*
X130592Y162891D01*
X130648Y162934D01*
X130712Y162960D01*
X130834Y162976D01*
X135814D01*
X135863Y162983D01*
X135912Y162982D01*
X135967Y162996D01*
X136023Y163004D01*
X136068Y163023D01*
X136116Y163035D01*
X136165Y163063D01*
X136218Y163084D01*
X136257Y163114D01*
X136299Y163139D01*
X136960Y163636D01*
X136979Y163654D01*
X137002Y163669D01*
X137054Y163728D01*
X137110Y163783D01*
X137124Y163806D01*
X137142Y163827D01*
X137281Y164032D01*
X137295Y164059D01*
X137313Y164082D01*
X137342Y164152D01*
X137376Y164220D01*
X137382Y164249D01*
X137394Y164277D01*
X137404Y164352D01*
X137419Y164427D01*
X137417Y164456D01*
X137421Y164486D01*
X137421Y195343D01*
X195343D01*
X195343Y1507D01*
D02*
G37*
G36*
X136614Y164486D02*
X136475Y164280D01*
X135814Y163783D01*
X130781D01*
X130502Y163746D01*
X130241Y163638D01*
X130017Y163466D01*
X129845Y163242D01*
X129737Y162981D01*
X129700Y162701D01*
Y153047D01*
X129737Y152767D01*
X129845Y152506D01*
X130017Y152282D01*
X130241Y152110D01*
X130502Y152002D01*
X130781Y151965D01*
X136136D01*
X136614Y151262D01*
X136614Y130728D01*
X114173Y130728D01*
X114173Y138583D01*
X95276Y138583D01*
X95276Y130728D01*
X51575Y130728D01*
X51366Y130701D01*
X51171Y130620D01*
X51004Y130492D01*
X50876Y130325D01*
X50795Y130130D01*
X50768Y129921D01*
Y129921D01*
X50394D01*
X50394Y101969D01*
X1507Y101969D01*
Y195343D01*
X136614D01*
X136614Y164486D01*
D02*
G37*
G36*
X100000Y125457D02*
X99281Y125131D01*
X99237Y125134D01*
X99103Y125186D01*
X98916Y125339D01*
X98641Y125487D01*
X98342Y125577D01*
X98032Y125608D01*
X97721Y125577D01*
X97422Y125487D01*
X97147Y125339D01*
X96906Y125141D01*
X96708Y124900D01*
X96561Y124625D01*
X96470Y124326D01*
X96440Y124016D01*
X96470Y123705D01*
X96561Y123407D01*
X96708Y123131D01*
X96861Y122944D01*
X96907Y122827D01*
Y122055D01*
X96861Y121938D01*
X96708Y121750D01*
X96561Y121475D01*
X96470Y121177D01*
X96440Y120866D01*
X96470Y120556D01*
X96561Y120257D01*
X96708Y119982D01*
X96861Y119795D01*
X96907Y119677D01*
Y118906D01*
X96861Y118788D01*
X96708Y118601D01*
X96561Y118326D01*
X96470Y118027D01*
X96440Y117717D01*
X96470Y117406D01*
X96561Y117107D01*
X96708Y116832D01*
X96861Y116645D01*
X96907Y116527D01*
Y115756D01*
X96861Y115638D01*
X96708Y115451D01*
X96561Y115176D01*
X96470Y114877D01*
X96440Y114567D01*
X96470Y114256D01*
X96561Y113958D01*
X96708Y113682D01*
X96906Y113441D01*
X97147Y113243D01*
X97422Y113096D01*
X97721Y113006D01*
X98032Y112975D01*
X98342Y113006D01*
X98641Y113096D01*
X98916Y113243D01*
X99103Y113397D01*
X99237Y113449D01*
X99281Y113452D01*
X100000Y113126D01*
X100000Y88250D01*
X99859Y88134D01*
X99661Y87892D01*
X99514Y87617D01*
X99423Y87318D01*
X99392Y87008D01*
X99423Y86697D01*
X99514Y86399D01*
X99661Y86124D01*
X99859Y85882D01*
X100000Y85766D01*
Y80709D01*
X75197Y80709D01*
Y68504D01*
X51575Y68504D01*
X51575Y129921D01*
X100000Y129921D01*
Y125457D01*
D02*
G37*
G36*
X150000Y129921D02*
X150000Y68110D01*
X125984Y68110D01*
X125984Y80709D01*
X100807Y80709D01*
Y85255D01*
X100984Y85416D01*
X101295Y85447D01*
X101593Y85537D01*
X101869Y85684D01*
X102110Y85882D01*
X102308Y86124D01*
X102455Y86399D01*
X102546Y86697D01*
X102576Y87008D01*
X102546Y87318D01*
X102455Y87617D01*
X102308Y87892D01*
X102110Y88134D01*
X101869Y88332D01*
X101593Y88479D01*
X101295Y88569D01*
X100984Y88600D01*
X100807Y88761D01*
X100807Y112208D01*
X101181Y112975D01*
X101492Y113006D01*
X101790Y113096D01*
X102066Y113243D01*
X102253Y113397D01*
X102370Y113442D01*
X103142D01*
X103259Y113397D01*
X103446Y113243D01*
X103721Y113096D01*
X104020Y113006D01*
X104331Y112975D01*
X104641Y113006D01*
X104940Y113096D01*
X105215Y113243D01*
X105402Y113397D01*
X105520Y113442D01*
X106291D01*
X106409Y113397D01*
X106596Y113243D01*
X106871Y113096D01*
X107170Y113006D01*
X107480Y112975D01*
X107791Y113006D01*
X108089Y113096D01*
X108365Y113243D01*
X108571Y113412D01*
X108648Y113447D01*
X108808Y113467D01*
X109399Y113423D01*
X109540Y113362D01*
X109541Y113360D01*
X112987Y109914D01*
X113006Y109729D01*
X113096Y109430D01*
X113243Y109155D01*
X113441Y108914D01*
X113682Y108716D01*
X113958Y108569D01*
X114256Y108478D01*
X114567Y108448D01*
X114877Y108478D01*
X115176Y108569D01*
X115451Y108716D01*
X115693Y108914D01*
X115891Y109155D01*
X116038Y109430D01*
X116128Y109729D01*
X116159Y110039D01*
X116128Y110350D01*
X116038Y110649D01*
X115891Y110924D01*
X115693Y111165D01*
X115451Y111363D01*
X115176Y111510D01*
X114877Y111601D01*
X114693Y111619D01*
X111600Y114712D01*
Y129921D01*
X150000Y129921D01*
D02*
G37*
G36*
X67716Y66929D02*
X67716Y58661D01*
X62992Y58661D01*
Y29528D01*
X51575Y29528D01*
X51575Y66929D01*
X67716Y66929D01*
D02*
G37*
G36*
X50394Y100000D02*
X50394Y80968D01*
X49594Y80915D01*
X45266D01*
Y76565D01*
X49479D01*
X49545Y76459D01*
X49401Y76064D01*
X48932Y75659D01*
X45246D01*
Y70798D01*
X45967Y70472D01*
X45998Y70162D01*
X46088Y69863D01*
X46235Y69588D01*
X46433Y69347D01*
X46675Y69149D01*
X46950Y69002D01*
X47249Y68911D01*
X47559Y68880D01*
X47870Y68911D01*
X48168Y69002D01*
X48443Y69149D01*
X48685Y69347D01*
X48883Y69588D01*
X49030Y69863D01*
X49120Y70162D01*
X49151Y70472D01*
X49872Y70798D01*
X50394Y70214D01*
X50394Y28842D01*
X51154D01*
X51171Y28829D01*
X51366Y28748D01*
X51575Y28721D01*
X62185Y28721D01*
Y23622D01*
X62213Y23413D01*
X62293Y23219D01*
X62422Y23052D01*
X62589Y22923D01*
X62783Y22843D01*
X62992Y22815D01*
X73992D01*
X74016Y22814D01*
X74040Y22815D01*
X85039D01*
X85248Y22843D01*
X85443Y22923D01*
X85610Y23052D01*
X85738Y23219D01*
X85819Y23413D01*
X85846Y23622D01*
X85846Y57480D01*
X85819Y57689D01*
X85738Y57884D01*
X85610Y58051D01*
X85443Y58179D01*
X85248Y58260D01*
X85039Y58287D01*
X76378Y58287D01*
X76378Y79134D01*
X124803Y79134D01*
X124803Y57687D01*
X122432D01*
Y57683D01*
X110236Y57683D01*
X110236Y1507D01*
X1507Y1507D01*
X1507Y100000D01*
X50394Y100000D01*
D02*
G37*
G36*
X141732Y58661D02*
X145669D01*
Y29528D01*
X132283D01*
Y58661D01*
X125984Y58661D01*
X125984Y66929D01*
X141732Y66929D01*
X141732Y58661D01*
D02*
G37*
G36*
X85039Y23622D02*
X62992Y23622D01*
Y28721D01*
X63201Y28748D01*
X63396Y28829D01*
X63563Y28957D01*
X63691Y29124D01*
X63771Y29319D01*
X63799Y29528D01*
Y57480D01*
X85039Y57480D01*
X85039Y23622D01*
D02*
G37*
%LPC*%
G36*
X166093Y114018D02*
X165085D01*
X164876Y113990D01*
X164681Y113910D01*
X164514Y113782D01*
X164466Y113718D01*
X164402Y113670D01*
X164274Y113503D01*
X164216Y113363D01*
X164179Y113334D01*
X164050Y113167D01*
X163980Y112997D01*
X163938Y112943D01*
X163868Y112773D01*
X163826Y112719D01*
X163768Y112579D01*
X163731Y112550D01*
X163602Y112383D01*
X163532Y112214D01*
X163490Y112159D01*
X163433Y112019D01*
X163395Y111990D01*
X163267Y111823D01*
X163196Y111654D01*
X163155Y111599D01*
X163084Y111430D01*
X163043Y111375D01*
X162985Y111236D01*
X162947Y111207D01*
X162819Y111039D01*
X162761Y110900D01*
X162723Y110871D01*
X162595Y110704D01*
X162525Y110534D01*
X162483Y110480D01*
X162425Y110340D01*
X162387Y110311D01*
X162259Y110144D01*
X162189Y109974D01*
X162147Y109920D01*
X162089Y109780D01*
X162051Y109751D01*
X161923Y109584D01*
X161853Y109415D01*
X161811Y109360D01*
X161753Y109220D01*
X161715Y109191D01*
X161587Y109024D01*
X161517Y108855D01*
X161475Y108800D01*
X161405Y108631D01*
X161363Y108576D01*
X161305Y108437D01*
X161268Y108408D01*
X161139Y108240D01*
X161069Y108071D01*
X161027Y108017D01*
X160969Y107877D01*
X160932Y107848D01*
X160803Y107681D01*
X160733Y107511D01*
X160691Y107457D01*
X160611Y107262D01*
X160583Y107053D01*
Y106941D01*
X160611Y106733D01*
X160691Y106538D01*
X160733Y106484D01*
X160803Y106314D01*
X160932Y106147D01*
X160969Y106118D01*
X161027Y105978D01*
X161069Y105924D01*
X161139Y105754D01*
X161181Y105700D01*
X161251Y105530D01*
X161380Y105363D01*
X161417Y105334D01*
X161475Y105194D01*
X161517Y105140D01*
X161587Y104971D01*
X161715Y104803D01*
X161753Y104774D01*
X161811Y104635D01*
X161853Y104580D01*
X161923Y104411D01*
X161965Y104356D01*
X162035Y104187D01*
X162163Y104020D01*
X162201Y103991D01*
X162259Y103851D01*
X162301Y103797D01*
X162371Y103627D01*
X162499Y103460D01*
X162537Y103431D01*
X162595Y103291D01*
X162636Y103237D01*
X162707Y103067D01*
X162749Y103013D01*
X162819Y102843D01*
X162947Y102676D01*
X162985Y102647D01*
X163043Y102507D01*
X163084Y102453D01*
X163155Y102284D01*
X163283Y102116D01*
X163321Y102087D01*
X163379Y101948D01*
X163420Y101893D01*
X163490Y101724D01*
X163619Y101557D01*
X163656Y101528D01*
X163714Y101388D01*
X163756Y101333D01*
X163826Y101164D01*
X163955Y100997D01*
X163992Y100968D01*
X164050Y100828D01*
X164092Y100774D01*
X164162Y100604D01*
X164290Y100437D01*
X164354Y100389D01*
X164402Y100325D01*
X164466Y100277D01*
X164514Y100213D01*
X164681Y100085D01*
X164876Y100004D01*
X165085Y99977D01*
X166093D01*
X166301Y100004D01*
X166496Y100085D01*
X166663Y100213D01*
X166712Y100277D01*
X166775Y100325D01*
X166776Y100326D01*
X166876Y100313D01*
X166988D01*
X167197Y100340D01*
X167392Y100421D01*
X167397Y100425D01*
X168220D01*
X168429Y100452D01*
X168623Y100533D01*
X168790Y100661D01*
X168839Y100724D01*
X168902Y100773D01*
X169030Y100940D01*
X169111Y101135D01*
X169125Y101241D01*
X169412Y101493D01*
X169768Y101406D01*
X170212Y101015D01*
Y101008D01*
X170239Y100799D01*
X170320Y100604D01*
X170362Y100550D01*
X170432Y100380D01*
X170474Y100326D01*
X170544Y100156D01*
X170672Y99989D01*
X170710Y99960D01*
X170731Y99909D01*
X170534Y99347D01*
X170404Y99084D01*
X170191Y99019D01*
X169996Y99100D01*
X169787Y99128D01*
X169563D01*
X169354Y99100D01*
X169160Y99019D01*
X168993Y98891D01*
X168865Y98724D01*
X168784Y98529D01*
X168756Y98321D01*
Y97761D01*
X168784Y97552D01*
X168865Y97357D01*
X168906Y97303D01*
X168976Y97133D01*
X169105Y96966D01*
X169168Y96918D01*
X169217Y96854D01*
X169280Y96806D01*
X169329Y96742D01*
X169392Y96694D01*
X169440Y96631D01*
X169504Y96582D01*
X169553Y96518D01*
X169616Y96470D01*
X169665Y96407D01*
X169832Y96278D01*
X170026Y96198D01*
X170235Y96170D01*
X170525D01*
X170792Y95817D01*
X170871Y95388D01*
X170847Y95357D01*
X170784Y95309D01*
X170735Y95245D01*
X170672Y95197D01*
X170544Y95029D01*
X170463Y94835D01*
X170436Y94626D01*
Y94410D01*
X170394Y94340D01*
X170325Y94246D01*
X170146Y94104D01*
X169656Y93905D01*
X169548Y93950D01*
X169339Y93977D01*
X168556D01*
X168347Y93950D01*
X168152Y93869D01*
X167985Y93741D01*
X167937Y93678D01*
X167873Y93629D01*
X167745Y93462D01*
X167664Y93267D01*
X167653Y93185D01*
X167649Y93181D01*
X167521Y93014D01*
X167440Y92820D01*
X167413Y92611D01*
Y92235D01*
X167409Y92230D01*
X167328Y92036D01*
X167301Y91827D01*
Y91603D01*
X167328Y91394D01*
X167409Y91200D01*
X167413Y91195D01*
Y90483D01*
X167440Y90275D01*
X167521Y90080D01*
X167525Y90075D01*
Y90036D01*
X167552Y89827D01*
X167633Y89632D01*
X167648Y89612D01*
X167664Y89491D01*
X167745Y89296D01*
X167760Y89276D01*
X167776Y89155D01*
X167857Y88960D01*
X167985Y88793D01*
X168112Y88696D01*
X168209Y88569D01*
X168376Y88441D01*
X168546Y88371D01*
X168600Y88329D01*
X168795Y88249D01*
X169003Y88221D01*
X169227D01*
X169436Y88249D01*
X169631Y88329D01*
X169798Y88458D01*
X170360Y88534D01*
X170552Y88494D01*
X170705Y88439D01*
X170768Y88289D01*
X170896Y88122D01*
X171063Y87993D01*
X171258Y87913D01*
X171467Y87885D01*
X171914D01*
X172123Y87913D01*
X172318Y87993D01*
X172444Y88090D01*
X172601Y88025D01*
X172810Y87997D01*
X172961D01*
X172966Y87993D01*
X173161Y87913D01*
X173370Y87885D01*
X173375D01*
X173397Y87869D01*
X173455Y87729D01*
X173583Y87562D01*
X173646Y87513D01*
X173695Y87450D01*
X173862Y87322D01*
X174057Y87241D01*
X174266Y87214D01*
X174601D01*
X174810Y87241D01*
X175005Y87322D01*
X175172Y87450D01*
X175300Y87617D01*
X175381Y87812D01*
X175408Y88020D01*
Y88026D01*
X175524Y88177D01*
X175605Y88371D01*
X175632Y88580D01*
Y89028D01*
X175605Y89237D01*
X175524Y89432D01*
X175396Y89599D01*
X175262Y89701D01*
X175188Y89879D01*
X175184Y89884D01*
Y89924D01*
X175157Y90133D01*
X175076Y90327D01*
X175072Y90332D01*
Y90372D01*
X175045Y90580D01*
X174964Y90775D01*
X174949Y90795D01*
X174933Y90916D01*
X174852Y91111D01*
X174837Y91131D01*
X174821Y91252D01*
X174740Y91447D01*
X174699Y91501D01*
X174628Y91671D01*
X174587Y91725D01*
X174516Y91895D01*
X174475Y91949D01*
X174442Y92028D01*
X174451Y92264D01*
X174654Y92892D01*
X174752Y92984D01*
X174836Y93048D01*
X174885Y93111D01*
X174948Y93160D01*
X175076Y93327D01*
X175157Y93521D01*
X175184Y93730D01*
Y94066D01*
X175157Y94275D01*
X175076Y94470D01*
X175034Y94524D01*
X174964Y94694D01*
X174923Y94748D01*
X174852Y94918D01*
X174724Y95085D01*
X174686Y95114D01*
X174628Y95253D01*
X174528Y95450D01*
X174516Y95477D01*
X174409Y95684D01*
X174612Y96071D01*
X174740Y96238D01*
X174821Y96432D01*
X174848Y96641D01*
Y97425D01*
X174832Y97549D01*
X174948Y97638D01*
X175076Y97805D01*
X175157Y98000D01*
X175167Y98074D01*
X175213Y98106D01*
X175530Y98260D01*
X175984Y98278D01*
X176046Y98198D01*
X176109Y98149D01*
X176158Y98086D01*
X176221Y98037D01*
X176270Y97974D01*
X176333Y97925D01*
X176382Y97862D01*
X176445Y97813D01*
X176494Y97750D01*
X176661Y97622D01*
X176801Y97564D01*
X176830Y97526D01*
X176997Y97398D01*
X177166Y97328D01*
X177221Y97286D01*
X177415Y97205D01*
X177624Y97178D01*
X178632D01*
X178841Y97205D01*
X179035Y97286D01*
X179202Y97414D01*
X179231Y97452D01*
X179371Y97510D01*
X179426Y97552D01*
X179595Y97622D01*
X179785Y97639D01*
X179975Y97613D01*
X180296Y97523D01*
X180327Y97508D01*
X180502Y97371D01*
X180508Y97357D01*
X180550Y97303D01*
X180620Y97133D01*
X180662Y97079D01*
X180732Y96910D01*
X180860Y96742D01*
X180924Y96694D01*
X180972Y96631D01*
X181036Y96582D01*
X181084Y96518D01*
X181251Y96390D01*
X181446Y96310D01*
X181655Y96282D01*
X182103D01*
X182311Y96310D01*
X182506Y96390D01*
X182673Y96518D01*
X182801Y96686D01*
X182872Y96855D01*
X182913Y96910D01*
X182994Y97104D01*
X183021Y97313D01*
Y97985D01*
X182994Y98194D01*
X182913Y98388D01*
X182872Y98443D01*
X182801Y98612D01*
X182760Y98667D01*
X182689Y98836D01*
X182648Y98890D01*
X182578Y99060D01*
X182536Y99114D01*
X182466Y99284D01*
X182337Y99451D01*
X182299Y99480D01*
X182242Y99620D01*
X182198Y100104D01*
X182279Y100404D01*
X182337Y100549D01*
X182386Y100612D01*
X182449Y100661D01*
X182578Y100828D01*
X182658Y101023D01*
X182686Y101232D01*
Y101679D01*
X182658Y101888D01*
X182578Y102083D01*
X182536Y102137D01*
X182466Y102307D01*
X182337Y102474D01*
X182130Y102955D01*
X182210Y103150D01*
X182238Y103359D01*
Y103583D01*
X182210Y103791D01*
X182296Y104093D01*
X182506Y104227D01*
X182673Y104356D01*
X182801Y104523D01*
X182882Y104717D01*
X182910Y104926D01*
Y105262D01*
X182882Y105471D01*
X182801Y105666D01*
X182760Y105720D01*
X182689Y105889D01*
X182561Y106056D01*
X182498Y106105D01*
X182449Y106168D01*
X182386Y106217D01*
X182337Y106280D01*
X182279Y106358D01*
X182242Y106449D01*
X182052Y106918D01*
X182130Y107210D01*
X182210Y107404D01*
X182238Y107613D01*
Y108285D01*
X182210Y108494D01*
X182130Y108688D01*
X182053Y108788D01*
X182113Y108834D01*
X182242Y109001D01*
X182312Y109171D01*
X182354Y109225D01*
X182434Y109420D01*
X182462Y109628D01*
Y110076D01*
X182434Y110285D01*
X182354Y110480D01*
X182350Y110485D01*
Y110524D01*
X182322Y110733D01*
X182242Y110927D01*
X182200Y110982D01*
X182130Y111151D01*
X182001Y111319D01*
X181964Y111348D01*
X181906Y111487D01*
X181778Y111654D01*
X181714Y111703D01*
X181666Y111766D01*
X181498Y111895D01*
X181304Y111975D01*
X181095Y112003D01*
X180759D01*
X180550Y111975D01*
X180356Y111895D01*
X180166Y111771D01*
X179595Y111895D01*
X179401Y111975D01*
X179192Y112003D01*
X178408D01*
X178199Y111975D01*
X178005Y111895D01*
X177837Y111766D01*
X177789Y111703D01*
X177726Y111654D01*
X177597Y111487D01*
X177517Y111293D01*
X177489Y111084D01*
Y110636D01*
X177517Y110427D01*
X177597Y110233D01*
X177639Y110178D01*
X177709Y110009D01*
X177837Y109842D01*
X177901Y109793D01*
X177949Y109730D01*
X178013Y109681D01*
X178061Y109618D01*
X178125Y109569D01*
X178173Y109506D01*
X178237Y109457D01*
X178285Y109394D01*
X178349Y109345D01*
X178397Y109282D01*
X178461Y109233D01*
X178509Y109170D01*
X178563Y109128D01*
X178575Y109118D01*
X178621Y109058D01*
X178796Y108848D01*
X178860Y108158D01*
X178833Y107949D01*
Y107619D01*
X178759Y107609D01*
X178564Y107528D01*
X178397Y107400D01*
X178349Y107337D01*
X178285Y107288D01*
X178157Y107121D01*
X178076Y106926D01*
X178049Y106718D01*
Y106270D01*
X178076Y106061D01*
X178157Y105866D01*
X178199Y105812D01*
X178269Y105642D01*
X178397Y105475D01*
X178461Y105427D01*
X178509Y105363D01*
X178572Y105315D01*
X178621Y105251D01*
X178684Y105203D01*
X178733Y105139D01*
X178741Y105134D01*
X178846Y104962D01*
X178952Y104684D01*
X178941Y104210D01*
X178860Y104015D01*
X178833Y103807D01*
Y103379D01*
X178647Y103354D01*
X178452Y103274D01*
X178285Y103146D01*
X178157Y102979D01*
X178076Y102784D01*
X178049Y102575D01*
Y102239D01*
X178076Y102030D01*
X178157Y101836D01*
X178199Y101781D01*
X178269Y101612D01*
X178322Y101542D01*
X178189Y100933D01*
X178131Y100924D01*
X177906Y100936D01*
X177427Y101187D01*
X177299Y101354D01*
X177261Y101383D01*
X177204Y101523D01*
X177075Y101690D01*
X177012Y101739D01*
X176963Y101802D01*
X176796Y101930D01*
X176602Y102011D01*
X176480Y102027D01*
X176460Y102042D01*
X176266Y102123D01*
X176057Y102150D01*
X176008D01*
X175988Y102156D01*
X175480Y102464D01*
X175296Y102911D01*
X175269Y103120D01*
X175188Y103314D01*
X175146Y103369D01*
X175076Y103538D01*
X174948Y103705D01*
X174885Y103754D01*
X174836Y103817D01*
X174773Y103866D01*
X174731Y103920D01*
X174710Y103949D01*
X174610Y104095D01*
X174604Y104106D01*
X174513Y104844D01*
X174516Y104859D01*
X174597Y105053D01*
X174625Y105262D01*
Y105934D01*
X174597Y106143D01*
X174516Y106337D01*
X174388Y106504D01*
X174325Y106553D01*
X174276Y106616D01*
X174239Y106645D01*
X174181Y106785D01*
X174052Y106952D01*
X173885Y107080D01*
X173691Y107161D01*
X173482Y107188D01*
X173370D01*
X173161Y107161D01*
X172966Y107080D01*
X172946Y107065D01*
X172825Y107049D01*
X172631Y106968D01*
X172463Y106840D01*
X172335Y106673D01*
X172314Y106622D01*
X172153Y106601D01*
X171959Y106521D01*
X171904Y106479D01*
X171735Y106409D01*
X171568Y106280D01*
X171222Y106137D01*
X170481Y106508D01*
X170368Y106964D01*
X170361Y107093D01*
X170370Y107165D01*
Y107277D01*
X170358Y107503D01*
X170556Y107729D01*
X170750Y107810D01*
X170917Y107938D01*
X170966Y108002D01*
X171029Y108050D01*
X171158Y108217D01*
X171238Y108412D01*
X171266Y108621D01*
Y108845D01*
X171238Y109054D01*
X171158Y109248D01*
X171029Y109415D01*
X170862Y109544D01*
X170668Y109624D01*
X170594Y109852D01*
Y110188D01*
X170567Y110397D01*
X170486Y110592D01*
X170358Y110759D01*
X170191Y110887D01*
X169996Y110968D01*
X169799Y110994D01*
X169810Y111084D01*
Y111420D01*
X169783Y111629D01*
X169702Y111823D01*
X169574Y111990D01*
X169407Y112119D01*
X169197Y112269D01*
X169139Y112539D01*
Y112651D01*
X169111Y112860D01*
X169030Y113055D01*
X168902Y113222D01*
X168839Y113270D01*
X168790Y113334D01*
X168623Y113462D01*
X168429Y113543D01*
X168220Y113570D01*
X167397D01*
X167392Y113574D01*
X167197Y113655D01*
X166988Y113682D01*
X166876D01*
X166776Y113669D01*
X166775Y113670D01*
X166712Y113718D01*
X166663Y113782D01*
X166496Y113910D01*
X166301Y113990D01*
X166093Y114018D01*
D02*
G37*
G36*
X161033Y83277D02*
X156684D01*
Y78928D01*
X157351D01*
Y78021D01*
X157057D01*
Y73160D01*
X161683D01*
Y78021D01*
X160365D01*
Y78928D01*
X161033D01*
Y83277D01*
D02*
G37*
%LPD*%
G36*
X181095Y111084D02*
X181207D01*
Y110860D01*
X181319D01*
Y110748D01*
X181431D01*
Y110524D01*
X181543D01*
Y110076D01*
X181655D01*
Y109628D01*
X181543D01*
Y109405D01*
X181431D01*
Y109292D01*
X181207D01*
Y109181D01*
X180983D01*
Y108845D01*
X180423D01*
Y108957D01*
X180311D01*
Y109181D01*
X180087D01*
Y109292D01*
X179752D01*
Y109405D01*
X179528D01*
Y109517D01*
X179416D01*
Y109628D01*
X179192D01*
Y109740D01*
X179080D01*
Y109852D01*
X178968D01*
Y109964D01*
X178856D01*
Y110076D01*
X178744D01*
Y110188D01*
X178632D01*
Y110300D01*
X178520D01*
Y110412D01*
X178408D01*
Y110636D01*
X178296D01*
Y111084D01*
X178408D01*
Y111196D01*
X179192D01*
Y111084D01*
X179416D01*
Y110972D01*
X179528D01*
Y110860D01*
X179639D01*
Y110748D01*
X179752D01*
Y110636D01*
X179863D01*
Y110524D01*
X179975D01*
Y110412D01*
X180087D01*
Y110300D01*
X180199D01*
Y110188D01*
X180311D01*
Y110076D01*
X180423D01*
Y109964D01*
X180759D01*
Y110188D01*
X180871D01*
Y110412D01*
X180759D01*
Y110748D01*
X180647D01*
Y111084D01*
X180759D01*
Y111196D01*
X181095D01*
Y111084D01*
D02*
G37*
G36*
X166093Y113099D02*
X166205D01*
Y112875D01*
X166316D01*
Y112763D01*
X166428D01*
Y112651D01*
X166652D01*
Y112763D01*
X166876D01*
Y112875D01*
X166988D01*
Y112763D01*
X168220D01*
Y112651D01*
X168332D01*
Y112539D01*
X168220D01*
Y112427D01*
X167324D01*
Y112315D01*
X167212D01*
Y112203D01*
X167100D01*
Y112092D01*
X166988D01*
Y111979D01*
X166876D01*
Y111756D01*
X166988D01*
Y111532D01*
X167100D01*
Y111420D01*
X167436D01*
Y111532D01*
X167772D01*
Y111420D01*
X169003D01*
Y111084D01*
X167996D01*
Y110972D01*
X167884D01*
Y110860D01*
X167772D01*
Y110748D01*
X167660D01*
Y110412D01*
X167772D01*
Y110188D01*
X167884D01*
Y110076D01*
X168108D01*
Y110188D01*
X168332D01*
Y110300D01*
X168444D01*
Y110188D01*
X169787D01*
Y109852D01*
X168780D01*
Y109740D01*
X168668D01*
Y109628D01*
X168556D01*
Y109517D01*
X168444D01*
Y109405D01*
X168332D01*
Y109181D01*
X168444D01*
Y109069D01*
X168556D01*
Y108845D01*
X168892D01*
Y108957D01*
X169227D01*
Y108845D01*
X170459D01*
Y108621D01*
X170347D01*
Y108509D01*
X169451D01*
Y108397D01*
X169339D01*
Y108285D01*
X169227D01*
Y108173D01*
X169115D01*
Y107837D01*
X169227D01*
Y107613D01*
X169339D01*
Y107501D01*
X169451D01*
Y107277D01*
X169563D01*
Y107165D01*
X169451D01*
Y107053D01*
X168780D01*
Y107165D01*
X168556D01*
Y107277D01*
X168444D01*
Y107501D01*
X168332D01*
Y107725D01*
X168220D01*
Y107949D01*
X168108D01*
Y108061D01*
X167996D01*
Y108285D01*
X167884D01*
Y108509D01*
X167772D01*
Y108621D01*
X167660D01*
Y108845D01*
X167548D01*
Y109069D01*
X167436D01*
Y109292D01*
X167324D01*
Y109517D01*
X167212D01*
Y109628D01*
X167100D01*
Y109852D01*
X166988D01*
Y110076D01*
X166876D01*
Y110188D01*
X166764D01*
Y110412D01*
X166652D01*
Y110636D01*
X166540D01*
Y110860D01*
X166428D01*
Y110972D01*
X166316D01*
Y111196D01*
X166205D01*
Y111420D01*
X166093D01*
Y111644D01*
X165981D01*
Y111756D01*
X165869D01*
Y111979D01*
X165757D01*
Y112203D01*
X165645D01*
Y112427D01*
X165533D01*
Y112539D01*
X165421D01*
Y112763D01*
X165309D01*
Y112875D01*
X165085D01*
Y112763D01*
X164973D01*
Y112539D01*
X164861D01*
Y112315D01*
X164749D01*
Y112092D01*
X164637D01*
Y111979D01*
X164525D01*
Y111756D01*
X164413D01*
Y111644D01*
X164301D01*
Y111420D01*
X164189D01*
Y111196D01*
X164077D01*
Y110972D01*
X163965D01*
Y110860D01*
X163853D01*
Y110636D01*
X163741D01*
Y110524D01*
X163629D01*
Y110300D01*
X163517D01*
Y110076D01*
X163406D01*
Y109964D01*
X163294D01*
Y109740D01*
X163182D01*
Y109517D01*
X163070D01*
Y109292D01*
X162958D01*
Y109181D01*
X162846D01*
Y108957D01*
X162734D01*
Y108733D01*
X162622D01*
Y108621D01*
X162510D01*
Y108397D01*
X162398D01*
Y108173D01*
X162286D01*
Y108061D01*
X162174D01*
Y107837D01*
X162062D01*
Y107613D01*
X161950D01*
Y107389D01*
X161838D01*
Y107277D01*
X161726D01*
Y107053D01*
X161614D01*
Y106829D01*
X161726D01*
Y106718D01*
X161838D01*
Y106494D01*
X161950D01*
Y106270D01*
X162062D01*
Y106158D01*
X162174D01*
Y105934D01*
X162286D01*
Y105710D01*
X162398D01*
Y105598D01*
X162510D01*
Y105374D01*
X162622D01*
Y105262D01*
X162734D01*
Y105038D01*
X162846D01*
Y104814D01*
X162958D01*
Y104590D01*
X163070D01*
Y104478D01*
X163182D01*
Y104254D01*
X163294D01*
Y104031D01*
X163406D01*
Y103919D01*
X163517D01*
Y103695D01*
X163629D01*
Y103471D01*
X163741D01*
Y103359D01*
X163853D01*
Y103135D01*
X163965D01*
Y102911D01*
X164077D01*
Y102687D01*
X164189D01*
Y102575D01*
X164301D01*
Y102351D01*
X164413D01*
Y102127D01*
X164525D01*
Y102015D01*
X164637D01*
Y101791D01*
X164749D01*
Y101567D01*
X164861D01*
Y101344D01*
X164973D01*
Y101232D01*
X165085D01*
Y101120D01*
X165421D01*
Y101344D01*
X165533D01*
Y101567D01*
X165645D01*
Y101791D01*
X165757D01*
Y101903D01*
X165869D01*
Y102127D01*
X165981D01*
Y102351D01*
X166093D01*
Y102575D01*
X166205D01*
Y102799D01*
X166316D01*
Y102911D01*
X166428D01*
Y103135D01*
X166540D01*
Y103247D01*
X166652D01*
Y103471D01*
X166764D01*
Y103695D01*
X166876D01*
Y103919D01*
X166988D01*
Y104031D01*
X167100D01*
Y104254D01*
X167212D01*
Y104478D01*
X167324D01*
Y104702D01*
X167436D01*
Y104814D01*
X167548D01*
Y105038D01*
X167660D01*
Y105262D01*
X167772D01*
Y105486D01*
X167884D01*
Y105710D01*
X167996D01*
Y105822D01*
X168108D01*
Y106046D01*
X168220D01*
Y106270D01*
X168332D01*
Y106382D01*
X168444D01*
Y106606D01*
X168556D01*
Y106718D01*
X168668D01*
Y106829D01*
X168780D01*
Y106941D01*
X169451D01*
Y106829D01*
X169563D01*
Y106718D01*
X169451D01*
Y106494D01*
X169339D01*
Y106270D01*
X169227D01*
Y106046D01*
X169115D01*
Y105822D01*
X169227D01*
Y105710D01*
X169339D01*
Y105598D01*
X169451D01*
Y105486D01*
X170459D01*
Y105150D01*
X169227D01*
Y104926D01*
X169115D01*
Y105038D01*
X168892D01*
Y105150D01*
X168556D01*
Y104926D01*
X168444D01*
Y104702D01*
X168332D01*
Y104590D01*
X168444D01*
Y104478D01*
X168556D01*
Y104366D01*
X168668D01*
Y104254D01*
X168780D01*
Y104142D01*
X169787D01*
Y103919D01*
X169675D01*
Y103807D01*
X168444D01*
Y103695D01*
X168332D01*
Y103807D01*
X168108D01*
Y103919D01*
X167884D01*
Y103807D01*
X167772D01*
Y103583D01*
X167660D01*
Y103247D01*
X167772D01*
Y103135D01*
X167884D01*
Y103023D01*
X167996D01*
Y102911D01*
X169003D01*
Y102575D01*
X167772D01*
Y102463D01*
X167436D01*
Y102575D01*
X167100D01*
Y102463D01*
X166988D01*
Y102239D01*
X166876D01*
Y102015D01*
X166988D01*
Y101903D01*
X167100D01*
Y101791D01*
X167212D01*
Y101679D01*
X167324D01*
Y101567D01*
X168220D01*
Y101455D01*
X168332D01*
Y101344D01*
X168220D01*
Y101232D01*
X166988D01*
Y101120D01*
X166876D01*
Y101232D01*
X166652D01*
Y101344D01*
X166428D01*
Y101232D01*
X166316D01*
Y101008D01*
X166205D01*
Y100896D01*
X166093D01*
Y100784D01*
X165085D01*
Y100896D01*
X164973D01*
Y101008D01*
X164861D01*
Y101232D01*
X164749D01*
Y101455D01*
X164637D01*
Y101567D01*
X164525D01*
Y101791D01*
X164413D01*
Y102015D01*
X164301D01*
Y102127D01*
X164189D01*
Y102351D01*
X164077D01*
Y102575D01*
X163965D01*
Y102687D01*
X163853D01*
Y102911D01*
X163741D01*
Y103135D01*
X163629D01*
Y103247D01*
X163517D01*
Y103471D01*
X163406D01*
Y103695D01*
X163294D01*
Y103919D01*
X163182D01*
Y104031D01*
X163070D01*
Y104254D01*
X162958D01*
Y104478D01*
X162846D01*
Y104590D01*
X162734D01*
Y104814D01*
X162622D01*
Y105038D01*
X162510D01*
Y105262D01*
X162398D01*
Y105374D01*
X162286D01*
Y105598D01*
X162174D01*
Y105822D01*
X162062D01*
Y105934D01*
X161950D01*
Y106158D01*
X161838D01*
Y106382D01*
X161726D01*
Y106606D01*
X161614D01*
Y106718D01*
X161502D01*
Y106941D01*
X161390D01*
Y107053D01*
X161502D01*
Y107277D01*
X161614D01*
Y107389D01*
X161726D01*
Y107613D01*
X161838D01*
Y107837D01*
X161950D01*
Y107949D01*
X162062D01*
Y108173D01*
X162174D01*
Y108397D01*
X162286D01*
Y108621D01*
X162398D01*
Y108733D01*
X162510D01*
Y108957D01*
X162622D01*
Y109181D01*
X162734D01*
Y109292D01*
X162846D01*
Y109517D01*
X162958D01*
Y109740D01*
X163070D01*
Y109852D01*
X163182D01*
Y110076D01*
X163294D01*
Y110300D01*
X163406D01*
Y110412D01*
X163517D01*
Y110636D01*
X163629D01*
Y110748D01*
X163741D01*
Y110972D01*
X163853D01*
Y111196D01*
X163965D01*
Y111420D01*
X164077D01*
Y111532D01*
X164189D01*
Y111756D01*
X164301D01*
Y111979D01*
X164413D01*
Y112092D01*
X164525D01*
Y112315D01*
X164637D01*
Y112539D01*
X164749D01*
Y112763D01*
X164861D01*
Y112875D01*
X164973D01*
Y113099D01*
X165085D01*
Y113211D01*
X166093D01*
Y113099D01*
D02*
G37*
G36*
X181095Y108621D02*
X181207D01*
Y108397D01*
X181319D01*
Y108285D01*
X181431D01*
Y107613D01*
X181319D01*
Y107501D01*
X180983D01*
Y107389D01*
X180759D01*
Y107277D01*
X180647D01*
Y106941D01*
X180759D01*
Y106829D01*
X180871D01*
Y106606D01*
X180983D01*
Y106494D01*
X181095D01*
Y106382D01*
X181207D01*
Y106270D01*
X181319D01*
Y106158D01*
X181431D01*
Y106046D01*
X181543D01*
Y105822D01*
X181655D01*
Y105710D01*
X181767D01*
Y105598D01*
X181879D01*
Y105486D01*
X181991D01*
Y105262D01*
X182103D01*
Y104926D01*
X181431D01*
Y105038D01*
X181207D01*
Y105150D01*
X180983D01*
Y105262D01*
X180759D01*
Y105374D01*
X180535D01*
Y105486D01*
X180311D01*
Y105598D01*
X180199D01*
Y105486D01*
X180311D01*
Y105374D01*
X180423D01*
Y105150D01*
X180535D01*
Y105038D01*
X180647D01*
Y104926D01*
X180759D01*
Y104814D01*
X180871D01*
Y104702D01*
X180983D01*
Y104590D01*
X181095D01*
Y104478D01*
X180871D01*
Y104366D01*
X180535D01*
Y104478D01*
X180423D01*
Y104590D01*
X180311D01*
Y104702D01*
X180199D01*
Y104814D01*
X180087D01*
Y104926D01*
X179975D01*
Y105150D01*
X179863D01*
Y105262D01*
X179752D01*
Y105374D01*
X179639D01*
Y105486D01*
X179528D01*
Y105598D01*
X179416D01*
Y105710D01*
X179304D01*
Y105822D01*
X179192D01*
Y105934D01*
X179080D01*
Y106046D01*
X178968D01*
Y106270D01*
X178856D01*
Y106718D01*
X178968D01*
Y106829D01*
X179416D01*
Y106718D01*
X179752D01*
Y106606D01*
X179975D01*
Y106494D01*
X180199D01*
Y106382D01*
X180423D01*
Y106270D01*
X180535D01*
Y106382D01*
X180423D01*
Y106494D01*
X180311D01*
Y106606D01*
X180199D01*
Y106829D01*
X180087D01*
Y106941D01*
X179975D01*
Y107053D01*
X179863D01*
Y107165D01*
X179752D01*
Y107389D01*
X179639D01*
Y107949D01*
X179752D01*
Y108061D01*
X179863D01*
Y108173D01*
X180535D01*
Y108285D01*
X180647D01*
Y108621D01*
X180871D01*
Y108733D01*
X181095D01*
Y108621D01*
D02*
G37*
G36*
X173482Y106158D02*
X173594D01*
Y106046D01*
X173706D01*
Y105934D01*
X173818D01*
Y105262D01*
X173706D01*
Y105150D01*
X173482D01*
Y105038D01*
X173146D01*
Y104926D01*
X173034D01*
Y104814D01*
X172922D01*
Y104702D01*
X173034D01*
Y104590D01*
X173146D01*
Y104366D01*
X173258D01*
Y104254D01*
X173370D01*
Y104031D01*
X173482D01*
Y103919D01*
X173706D01*
Y103807D01*
X173818D01*
Y103583D01*
X173930D01*
Y103471D01*
X174042D01*
Y103359D01*
X174154D01*
Y103247D01*
X174266D01*
Y103135D01*
X174378D01*
Y102911D01*
X174489D01*
Y102575D01*
X173818D01*
Y102687D01*
X173594D01*
Y102799D01*
X173370D01*
Y102911D01*
X173146D01*
Y103023D01*
X172922D01*
Y103135D01*
X172698D01*
Y102911D01*
X172810D01*
Y102799D01*
X172922D01*
Y102687D01*
X173034D01*
Y102575D01*
X173146D01*
Y102463D01*
X173258D01*
Y102239D01*
X173370D01*
Y102015D01*
X172922D01*
Y102127D01*
X172810D01*
Y102239D01*
X172698D01*
Y102351D01*
X172586D01*
Y102463D01*
X172474D01*
Y102575D01*
X172362D01*
Y102687D01*
X172250D01*
Y102799D01*
X172138D01*
Y102911D01*
X172026D01*
Y103135D01*
X171914D01*
Y103247D01*
X171802D01*
Y103359D01*
X171690D01*
Y103471D01*
X171579D01*
Y103583D01*
X171467D01*
Y103695D01*
X171355D01*
Y103919D01*
X171243D01*
Y104254D01*
X171355D01*
Y104366D01*
X171467D01*
Y104478D01*
X171802D01*
Y104366D01*
X172026D01*
Y104254D01*
X172250D01*
Y104142D01*
X172586D01*
Y104031D01*
X172810D01*
Y103919D01*
X172922D01*
Y104031D01*
X172810D01*
Y104142D01*
X172698D01*
Y104254D01*
X172586D01*
Y104366D01*
X172474D01*
Y104478D01*
X172362D01*
Y104702D01*
X172250D01*
Y104814D01*
X172138D01*
Y105038D01*
X172026D01*
Y105598D01*
X172138D01*
Y105710D01*
X172362D01*
Y105822D01*
X172922D01*
Y105934D01*
X173034D01*
Y106270D01*
X173370D01*
Y106382D01*
X173482D01*
Y106158D01*
D02*
G37*
G36*
X181095Y104142D02*
X181207D01*
Y103919D01*
X181319D01*
Y103583D01*
X181431D01*
Y103359D01*
X181319D01*
Y103135D01*
X181207D01*
Y103023D01*
X180871D01*
Y102799D01*
X180983D01*
Y102687D01*
X181095D01*
Y102575D01*
X181207D01*
Y102463D01*
X181319D01*
Y102351D01*
X181431D01*
Y102239D01*
X181543D01*
Y102015D01*
X181655D01*
Y101903D01*
X181767D01*
Y101679D01*
X181879D01*
Y101232D01*
X181767D01*
Y101120D01*
X181543D01*
Y101008D01*
X180871D01*
Y101120D01*
X180759D01*
Y100896D01*
X180871D01*
Y100784D01*
X180983D01*
Y100672D01*
X181095D01*
Y100560D01*
X180759D01*
Y100448D01*
X180535D01*
Y100560D01*
X180423D01*
Y100672D01*
X180311D01*
Y100784D01*
X180199D01*
Y100896D01*
X180087D01*
Y101008D01*
X179975D01*
Y101120D01*
X179863D01*
Y101232D01*
X179752D01*
Y101344D01*
X179639D01*
Y101455D01*
X179528D01*
Y101567D01*
X179416D01*
Y101679D01*
X179304D01*
Y101791D01*
X179192D01*
Y101903D01*
X179080D01*
Y102015D01*
X178968D01*
Y102239D01*
X178856D01*
Y102575D01*
X179192D01*
Y102463D01*
X179416D01*
Y102351D01*
X179639D01*
Y102239D01*
X179863D01*
Y102127D01*
X180199D01*
Y102015D01*
X180535D01*
Y101903D01*
X181095D01*
Y102015D01*
X180983D01*
Y102127D01*
X180871D01*
Y102239D01*
X180759D01*
Y102351D01*
X180647D01*
Y102463D01*
X180535D01*
Y102575D01*
X180423D01*
Y102687D01*
X180311D01*
Y102799D01*
X180199D01*
Y102911D01*
X180087D01*
Y103023D01*
X179975D01*
Y103135D01*
X179752D01*
Y103247D01*
X179639D01*
Y103807D01*
X180647D01*
Y104254D01*
X181095D01*
Y104142D01*
D02*
G37*
G36*
X173482Y101791D02*
X173594D01*
Y101679D01*
X173706D01*
Y101567D01*
X173818D01*
Y101344D01*
X173930D01*
Y101120D01*
X174042D01*
Y100560D01*
X173930D01*
Y100448D01*
X173818D01*
Y100336D01*
X173258D01*
Y100224D01*
X173370D01*
Y100112D01*
X173482D01*
Y99888D01*
X173594D01*
Y99776D01*
X173706D01*
Y99664D01*
X173818D01*
Y99552D01*
X173930D01*
Y99328D01*
X174042D01*
Y99216D01*
X174154D01*
Y98992D01*
X174266D01*
Y98768D01*
X174378D01*
Y98209D01*
X174154D01*
Y98097D01*
X173930D01*
Y98209D01*
X173706D01*
Y98321D01*
X173594D01*
Y98433D01*
X172810D01*
Y98656D01*
X172698D01*
Y98768D01*
X172586D01*
Y98992D01*
X172474D01*
Y99104D01*
X172362D01*
Y99216D01*
X172250D01*
Y99328D01*
X172138D01*
Y99440D01*
X172026D01*
Y99664D01*
X171914D01*
Y99776D01*
X171802D01*
Y100000D01*
X171690D01*
Y100112D01*
X171579D01*
Y100224D01*
X171467D01*
Y100448D01*
X171355D01*
Y100560D01*
X171243D01*
Y100784D01*
X171131D01*
Y101008D01*
X171019D01*
Y101567D01*
X171355D01*
Y101455D01*
X171467D01*
Y101344D01*
X171579D01*
Y101232D01*
X171690D01*
Y101120D01*
X171802D01*
Y100896D01*
X171914D01*
Y100784D01*
X172026D01*
Y100672D01*
X172138D01*
Y100560D01*
X172250D01*
Y100448D01*
X172362D01*
Y100224D01*
X172474D01*
Y100112D01*
X172586D01*
Y100000D01*
X172698D01*
Y99888D01*
X172810D01*
Y99776D01*
X172922D01*
Y99664D01*
X173034D01*
Y99552D01*
X173146D01*
Y99440D01*
X173258D01*
Y99552D01*
X173146D01*
Y99664D01*
X173034D01*
Y99776D01*
X172922D01*
Y99888D01*
X172810D01*
Y100112D01*
X172698D01*
Y100224D01*
X172586D01*
Y100448D01*
X172474D01*
Y100560D01*
X172362D01*
Y100672D01*
X172250D01*
Y101232D01*
X172810D01*
Y101120D01*
X173146D01*
Y101232D01*
X173258D01*
Y101455D01*
X173146D01*
Y101567D01*
X173034D01*
Y101791D01*
X173146D01*
Y101903D01*
X173482D01*
Y101791D01*
D02*
G37*
G36*
X176057Y101232D02*
X176393D01*
Y101120D01*
X176505D01*
Y100896D01*
X176617D01*
Y100784D01*
X176729D01*
Y100560D01*
X176841D01*
Y100448D01*
X176953D01*
Y100224D01*
X177065D01*
Y100000D01*
X177176D01*
Y99552D01*
X176953D01*
Y99440D01*
X177065D01*
Y99328D01*
X177176D01*
Y99216D01*
X177288D01*
Y99104D01*
X177400D01*
Y98992D01*
X178072D01*
Y99104D01*
X178408D01*
Y99216D01*
X178520D01*
Y99328D01*
X178744D01*
Y99440D01*
X178856D01*
Y99552D01*
X178968D01*
Y99664D01*
X179192D01*
Y99776D01*
X179304D01*
Y99888D01*
X179528D01*
Y100000D01*
X179752D01*
Y100112D01*
X180647D01*
Y100336D01*
X181095D01*
Y100000D01*
X181207D01*
Y99440D01*
X181319D01*
Y99328D01*
X181431D01*
Y99216D01*
X181543D01*
Y98992D01*
X181655D01*
Y98880D01*
X181767D01*
Y98656D01*
X181879D01*
Y98433D01*
X181991D01*
Y98209D01*
X182103D01*
Y97985D01*
X182215D01*
Y97313D01*
X182103D01*
Y97089D01*
X181655D01*
Y97201D01*
X181543D01*
Y97313D01*
X181431D01*
Y97537D01*
X181319D01*
Y97761D01*
X181207D01*
Y98097D01*
X181095D01*
Y98321D01*
X180983D01*
Y98545D01*
X180871D01*
Y98880D01*
X180983D01*
Y98992D01*
X180759D01*
Y99104D01*
X180647D01*
Y99216D01*
X180199D01*
Y99104D01*
X179975D01*
Y98992D01*
X179863D01*
Y98880D01*
X179639D01*
Y98768D01*
X179528D01*
Y98656D01*
X179416D01*
Y98545D01*
X179304D01*
Y98433D01*
X179192D01*
Y98321D01*
X178968D01*
Y98209D01*
X178744D01*
Y98097D01*
X178632D01*
Y97985D01*
X177624D01*
Y98097D01*
X177400D01*
Y98209D01*
X177288D01*
Y98321D01*
X177065D01*
Y98433D01*
X176953D01*
Y98545D01*
X176841D01*
Y98656D01*
X176729D01*
Y98768D01*
X176617D01*
Y98992D01*
X176505D01*
Y99104D01*
X176393D01*
Y99216D01*
X176281D01*
Y99440D01*
X176169D01*
Y99664D01*
X176057D01*
Y99888D01*
X175945D01*
Y100000D01*
X175833D01*
Y100336D01*
X175721D01*
Y100560D01*
X175609D01*
Y100896D01*
X175497D01*
Y101120D01*
X175609D01*
Y101344D01*
X176057D01*
Y101232D01*
D02*
G37*
G36*
X169787Y98209D02*
X170011D01*
Y98097D01*
X170235D01*
Y97985D01*
X170459D01*
Y97873D01*
X170571D01*
Y97761D01*
X170683D01*
Y97537D01*
X170795D01*
Y97089D01*
X170683D01*
Y96977D01*
X170235D01*
Y97089D01*
X170123D01*
Y97201D01*
X170011D01*
Y97313D01*
X169899D01*
Y97425D01*
X169787D01*
Y97537D01*
X169675D01*
Y97761D01*
X169563D01*
Y98321D01*
X169787D01*
Y98209D01*
D02*
G37*
G36*
X173482Y98097D02*
X173594D01*
Y97985D01*
X173706D01*
Y97761D01*
X173818D01*
Y97649D01*
X173930D01*
Y97425D01*
X174042D01*
Y96641D01*
X173930D01*
Y96529D01*
X173482D01*
Y96417D01*
X173258D01*
Y96305D01*
X173146D01*
Y96082D01*
X173258D01*
Y95969D01*
X173370D01*
Y95858D01*
X173482D01*
Y95746D01*
X173370D01*
Y95634D01*
X172922D01*
Y95746D01*
X172810D01*
Y95858D01*
X172698D01*
Y95969D01*
X172586D01*
Y96082D01*
X172474D01*
Y96193D01*
X172362D01*
Y96417D01*
X172250D01*
Y96529D01*
X172138D01*
Y96641D01*
X172026D01*
Y96753D01*
X171914D01*
Y97089D01*
X172026D01*
Y97201D01*
X172138D01*
Y97313D01*
X173258D01*
Y97425D01*
X173370D01*
Y97537D01*
X173258D01*
Y97761D01*
X173146D01*
Y97985D01*
X173034D01*
Y98209D01*
X173370D01*
Y98321D01*
X173482D01*
Y98097D01*
D02*
G37*
G36*
Y95410D02*
X173594D01*
Y95186D01*
X173706D01*
Y95074D01*
X173818D01*
Y94850D01*
X173930D01*
Y94626D01*
X174042D01*
Y94514D01*
X174154D01*
Y94290D01*
X174266D01*
Y94066D01*
X174378D01*
Y93730D01*
X174266D01*
Y93618D01*
X173818D01*
Y93730D01*
X173706D01*
Y93842D01*
X173482D01*
Y93954D01*
X173258D01*
Y94066D01*
X173034D01*
Y94178D01*
X172586D01*
Y94290D01*
X172362D01*
Y94178D01*
X172250D01*
Y93954D01*
X172362D01*
Y93730D01*
X172474D01*
Y93618D01*
X172586D01*
Y93506D01*
X172698D01*
Y93395D01*
X172810D01*
Y93283D01*
X172922D01*
Y93170D01*
X173034D01*
Y93059D01*
X173146D01*
Y92835D01*
X173258D01*
Y92723D01*
X173370D01*
Y92499D01*
X172810D01*
Y92611D01*
X172698D01*
Y92835D01*
X172586D01*
Y92947D01*
X172474D01*
Y93059D01*
X172362D01*
Y93170D01*
X172250D01*
Y93283D01*
X172138D01*
Y93395D01*
X172026D01*
Y93506D01*
X171914D01*
Y93618D01*
X171467D01*
Y93842D01*
X171355D01*
Y93954D01*
X171243D01*
Y94626D01*
X171355D01*
Y94738D01*
X171467D01*
Y94850D01*
X171579D01*
Y94962D01*
X171802D01*
Y95074D01*
X172474D01*
Y94962D01*
X172810D01*
Y94850D01*
X173034D01*
Y94738D01*
X173258D01*
Y94626D01*
X173482D01*
Y94738D01*
X173370D01*
Y94850D01*
X173258D01*
Y94962D01*
X173146D01*
Y95186D01*
X173034D01*
Y95298D01*
X172922D01*
Y95410D01*
X173146D01*
Y95522D01*
X173482D01*
Y95410D01*
D02*
G37*
G36*
X169339Y93059D02*
X169563D01*
Y92947D01*
X169787D01*
Y92835D01*
X169899D01*
Y92723D01*
X170011D01*
Y92499D01*
X170123D01*
Y92275D01*
X170235D01*
Y92163D01*
X170347D01*
Y91939D01*
X170459D01*
Y91827D01*
X170571D01*
Y91603D01*
X170683D01*
Y91491D01*
X170795D01*
Y91267D01*
X170907D01*
Y91043D01*
X171019D01*
Y90819D01*
X171131D01*
Y90596D01*
X171243D01*
Y90372D01*
X171355D01*
Y90260D01*
X171467D01*
Y90148D01*
X171579D01*
Y90260D01*
X171690D01*
Y90483D01*
X171802D01*
Y90707D01*
X171914D01*
Y91043D01*
X172026D01*
Y91267D01*
X172138D01*
Y91491D01*
X172250D01*
Y91715D01*
X172362D01*
Y91939D01*
X172474D01*
Y92051D01*
X172586D01*
Y92163D01*
X173258D01*
Y92051D01*
X173482D01*
Y91827D01*
X173594D01*
Y91715D01*
X173706D01*
Y91491D01*
X173818D01*
Y91267D01*
X173930D01*
Y91043D01*
X174042D01*
Y90707D01*
X174154D01*
Y90372D01*
X174266D01*
Y89924D01*
X174378D01*
Y89476D01*
X174489D01*
Y89140D01*
X174601D01*
Y89028D01*
X174825D01*
Y88580D01*
X174601D01*
Y88020D01*
X174266D01*
Y88132D01*
X174154D01*
Y88356D01*
X174042D01*
Y88468D01*
X173930D01*
Y88580D01*
X173818D01*
Y88692D01*
X173370D01*
Y88804D01*
X172810D01*
Y88916D01*
X172474D01*
Y89028D01*
X172026D01*
Y88916D01*
X171914D01*
Y88692D01*
X171467D01*
Y88916D01*
X171355D01*
Y89140D01*
X171243D01*
Y89252D01*
X170907D01*
Y89364D01*
X170571D01*
Y89476D01*
X170235D01*
Y89588D01*
X169787D01*
Y89700D01*
X169563D01*
Y89812D01*
X169451D01*
Y89924D01*
X169339D01*
Y90036D01*
X169227D01*
Y90148D01*
X169003D01*
Y90036D01*
X169115D01*
Y89588D01*
X169227D01*
Y89028D01*
X169003D01*
Y89140D01*
X168780D01*
Y89364D01*
X168556D01*
Y89700D01*
X168444D01*
Y90036D01*
X168332D01*
Y90483D01*
X168220D01*
Y91603D01*
X168108D01*
Y91827D01*
X168220D01*
Y92611D01*
X168332D01*
Y92723D01*
X168444D01*
Y93059D01*
X168556D01*
Y93170D01*
X169339D01*
Y93059D01*
D02*
G37*
%LPC*%
G36*
X179528Y110412D02*
X179304D01*
Y110300D01*
X179416D01*
Y110188D01*
X179528D01*
Y110412D01*
D02*
G37*
G36*
X169563Y92163D02*
X169227D01*
Y91939D01*
X169115D01*
Y91603D01*
X169003D01*
Y90931D01*
X169115D01*
Y90819D01*
X169227D01*
Y90707D01*
X169563D01*
Y90596D01*
X170011D01*
Y90483D01*
X170123D01*
Y90372D01*
X170459D01*
Y90260D01*
X170795D01*
Y90483D01*
X170683D01*
Y90596D01*
X170571D01*
Y90819D01*
X170459D01*
Y91043D01*
X170347D01*
Y91267D01*
X170235D01*
Y91379D01*
X170123D01*
Y91603D01*
X170011D01*
Y91715D01*
X169899D01*
Y91827D01*
X169787D01*
Y91939D01*
X169675D01*
Y92051D01*
X169563D01*
Y92163D01*
D02*
G37*
G36*
X173034Y91267D02*
X172922D01*
Y91155D01*
X172810D01*
Y91043D01*
X172698D01*
Y90819D01*
X172586D01*
Y90596D01*
X172474D01*
Y90260D01*
X172362D01*
Y90036D01*
X172250D01*
Y89812D01*
X172362D01*
Y89700D01*
X172698D01*
Y89588D01*
X173034D01*
Y89476D01*
X173482D01*
Y89364D01*
X173818D01*
Y89476D01*
X173706D01*
Y89924D01*
X173594D01*
Y90148D01*
X173482D01*
Y90483D01*
X173370D01*
Y90707D01*
X173258D01*
Y90931D01*
X173146D01*
Y91155D01*
X173034D01*
Y91267D01*
D02*
G37*
G36*
X64567Y179547D02*
X52756Y179547D01*
X52547Y179520D01*
X52352Y179439D01*
X52185Y179311D01*
X52057Y179144D01*
X51977Y178949D01*
X51949Y178740D01*
X51949Y150787D01*
X51977Y150578D01*
X52057Y150384D01*
X52185Y150217D01*
X52352Y150089D01*
X52547Y150008D01*
X52756Y149980D01*
X64567Y149980D01*
X64776Y150008D01*
X64970Y150089D01*
X65137Y150217D01*
X65266Y150384D01*
X65346Y150579D01*
X65374Y150787D01*
X65374Y178740D01*
X65346Y178949D01*
X65266Y179144D01*
X65137Y179311D01*
X64970Y179439D01*
X64776Y179520D01*
X64567Y179547D01*
D02*
G37*
G36*
X107087Y179153D02*
X85039Y179153D01*
X84830Y179126D01*
X84636Y179045D01*
X84469Y178917D01*
X84341Y178750D01*
X84260Y178555D01*
X84232Y178347D01*
X84232Y150394D01*
X84260Y150185D01*
X84341Y149990D01*
X84469Y149823D01*
X84636Y149695D01*
X84831Y149614D01*
X85039Y149587D01*
X107087Y149587D01*
X107296Y149614D01*
X107490Y149695D01*
X107657Y149823D01*
X107785Y149990D01*
X107866Y150185D01*
X107894Y150394D01*
X107894Y178347D01*
X107866Y178555D01*
X107785Y178750D01*
X107657Y178917D01*
X107490Y179045D01*
X107296Y179126D01*
X107087Y179153D01*
D02*
G37*
G36*
X11838Y132482D02*
X6239D01*
Y103711D01*
X11838D01*
Y132482D01*
D02*
G37*
%LPD*%
G36*
X64567Y150787D02*
X52756Y150787D01*
X52756Y178740D01*
X64567Y178740D01*
X64567Y150787D01*
D02*
G37*
G36*
X107087Y150394D02*
X85039Y150394D01*
X85039Y178347D01*
X107087Y178347D01*
X107087Y150394D01*
D02*
G37*
%LPC*%
G36*
X85039Y119308D02*
X84729Y119278D01*
X84430Y119187D01*
X84155Y119040D01*
X83908Y118842D01*
X83415Y118842D01*
X83168Y119040D01*
X82893Y119187D01*
X82594Y119278D01*
X82284Y119308D01*
X81973Y119278D01*
X81674Y119187D01*
X81399Y119040D01*
X81158Y118842D01*
X80960Y118601D01*
X80813Y118326D01*
X80722Y118027D01*
X80691Y117717D01*
X80722Y117406D01*
X80813Y117107D01*
X80960Y116832D01*
X80675Y116041D01*
X80563Y115977D01*
X80359Y115919D01*
X80137Y116038D01*
X79838Y116128D01*
X79528Y116159D01*
X79217Y116128D01*
X78918Y116038D01*
X78643Y115891D01*
X78402Y115693D01*
X78204Y115451D01*
X78057Y115176D01*
X77966Y114877D01*
X77936Y114567D01*
X77966Y114256D01*
X78057Y113958D01*
X78204Y113682D01*
X78402Y113441D01*
X78643Y113243D01*
X78918Y113096D01*
X79217Y113006D01*
X79528Y112975D01*
X79838Y113006D01*
X80137Y113096D01*
X80412Y113243D01*
X80659Y113441D01*
X81152Y113441D01*
X81399Y113243D01*
X81674Y113096D01*
X81973Y113006D01*
X82284Y112975D01*
X82594Y113006D01*
X82893Y113096D01*
X83168Y113243D01*
X83409Y113441D01*
X83607Y113682D01*
X83754Y113958D01*
X83845Y114256D01*
X83875Y114567D01*
X83845Y114877D01*
X83754Y115176D01*
X83607Y115451D01*
X83891Y116242D01*
X84004Y116307D01*
X84208Y116365D01*
X84430Y116246D01*
X84729Y116155D01*
X85039Y116125D01*
X85350Y116155D01*
X85649Y116246D01*
X85924Y116393D01*
X86165Y116591D01*
X86363Y116832D01*
X87021Y116452D01*
X87008Y116314D01*
X86991Y116142D01*
X87021Y115831D01*
X87112Y115533D01*
X87259Y115257D01*
X87457Y115016D01*
X87698Y114818D01*
X87973Y114671D01*
X88272Y114580D01*
X88583Y114550D01*
X88893Y114580D01*
X89192Y114671D01*
X89467Y114818D01*
X89708Y115016D01*
X89906Y115257D01*
X90053Y115533D01*
X90144Y115831D01*
X90175Y116142D01*
X90144Y116452D01*
X90053Y116751D01*
X89906Y117026D01*
X89708Y117267D01*
X89467Y117465D01*
X89192Y117613D01*
X88893Y117703D01*
X88583Y117734D01*
X88272Y117703D01*
X87973Y117613D01*
X87698Y117465D01*
X87457Y117267D01*
X87259Y117026D01*
X86601Y117406D01*
X86614Y117545D01*
X86631Y117717D01*
X86601Y118027D01*
X86510Y118326D01*
X86363Y118601D01*
X86165Y118842D01*
X85924Y119040D01*
X85649Y119187D01*
X85350Y119278D01*
X85039Y119308D01*
D02*
G37*
G36*
X80768Y86976D02*
X78248D01*
X78009Y86945D01*
X77787Y86852D01*
X77596Y86706D01*
X77449Y86515D01*
X77357Y86292D01*
X77325Y86053D01*
Y82746D01*
X77357Y82507D01*
X77449Y82285D01*
X77596Y82094D01*
X77787Y81947D01*
X78009Y81855D01*
X78248Y81823D01*
X80768D01*
X81007Y81855D01*
X81229Y81947D01*
X81420Y82094D01*
X81567Y82285D01*
X81659Y82507D01*
X81691Y82746D01*
Y86053D01*
X81659Y86292D01*
X81567Y86515D01*
X81420Y86706D01*
X81229Y86852D01*
X81007Y86945D01*
X80768Y86976D01*
D02*
G37*
G36*
X120472Y119308D02*
X120162Y119278D01*
X119863Y119187D01*
X119588Y119040D01*
X119347Y118842D01*
X119149Y118601D01*
X119002Y118326D01*
X118911Y118027D01*
X118880Y117717D01*
X118911Y117406D01*
X118253Y117026D01*
X118055Y117267D01*
X117814Y117465D01*
X117538Y117613D01*
X117240Y117703D01*
X116929Y117734D01*
X116619Y117703D01*
X116320Y117613D01*
X116045Y117465D01*
X115804Y117267D01*
X115605Y117026D01*
X115458Y116751D01*
X115368Y116452D01*
X115337Y116142D01*
X115368Y115831D01*
X115458Y115533D01*
X115605Y115257D01*
X115804Y115016D01*
X116045Y114818D01*
X116320Y114671D01*
X116619Y114580D01*
X116929Y114550D01*
X117240Y114580D01*
X117538Y114671D01*
X117814Y114818D01*
X118055Y115016D01*
X118253Y115257D01*
X118400Y115533D01*
X118491Y115831D01*
X118521Y116142D01*
X118491Y116452D01*
X119149Y116832D01*
X119347Y116591D01*
X119588Y116393D01*
X119836Y116002D01*
X119789Y115570D01*
X119699Y115271D01*
X119668Y114961D01*
X119699Y114650D01*
X119789Y114351D01*
X119936Y114076D01*
X120134Y113835D01*
X120375Y113637D01*
X120651Y113490D01*
X120949Y113399D01*
X121260Y113369D01*
X121570Y113399D01*
X121869Y113490D01*
X122144Y113637D01*
X122386Y113835D01*
X122435Y113895D01*
X122924Y113875D01*
X123005Y113853D01*
X123291Y113702D01*
X123332Y113564D01*
X123479Y113289D01*
X123678Y113048D01*
X123919Y112850D01*
X124194Y112703D01*
X124493Y112612D01*
X124803Y112581D01*
X125114Y112612D01*
X125412Y112703D01*
X125688Y112850D01*
X125929Y113048D01*
X126127Y113289D01*
X126274Y113564D01*
X126365Y113863D01*
X126395Y114173D01*
X126365Y114484D01*
X126274Y114782D01*
X126127Y115058D01*
X125929Y115299D01*
X125688Y115497D01*
X125571Y115559D01*
X125384Y115705D01*
X125140Y116219D01*
X125158Y116534D01*
X125183Y116619D01*
X125214Y116929D01*
X125183Y117240D01*
X125093Y117538D01*
X124946Y117814D01*
X124748Y118055D01*
X124506Y118253D01*
X124231Y118400D01*
X123933Y118491D01*
X123622Y118521D01*
X123311Y118491D01*
X123013Y118400D01*
X122792Y118282D01*
X122683Y118258D01*
X122505Y118274D01*
X121964Y118431D01*
X121841Y118517D01*
X121796Y118601D01*
X121598Y118842D01*
X121357Y119040D01*
X121082Y119187D01*
X120783Y119278D01*
X120472Y119308D01*
D02*
G37*
G36*
X105905Y91356D02*
X105595Y91325D01*
X105296Y91234D01*
X105021Y91087D01*
X104780Y90889D01*
X104582Y90648D01*
X104435Y90373D01*
X104344Y90074D01*
X104314Y89764D01*
X104344Y89453D01*
X104435Y89155D01*
X104582Y88879D01*
X104780Y88638D01*
X105021Y88440D01*
X105296Y88293D01*
X105595Y88202D01*
X105905Y88172D01*
X106216Y88202D01*
X106515Y88293D01*
X106790Y88440D01*
X107031Y88638D01*
X107229Y88879D01*
X107376Y89155D01*
X107467Y89453D01*
X107497Y89764D01*
X107467Y90074D01*
X107376Y90373D01*
X107229Y90648D01*
X107031Y90889D01*
X106790Y91087D01*
X106515Y91234D01*
X106216Y91325D01*
X105905Y91356D01*
D02*
G37*
G36*
X107539Y86976D02*
X105020D01*
X104781Y86945D01*
X104558Y86852D01*
X104367Y86706D01*
X104220Y86515D01*
X104128Y86292D01*
X104097Y86053D01*
Y82746D01*
X104128Y82507D01*
X104220Y82285D01*
X104367Y82094D01*
X104558Y81947D01*
X104781Y81855D01*
X105020Y81823D01*
X107539D01*
X107778Y81855D01*
X108001Y81947D01*
X108192Y82094D01*
X108339Y82285D01*
X108431Y82507D01*
X108462Y82746D01*
Y86053D01*
X108431Y86292D01*
X108339Y86515D01*
X108192Y86706D01*
X108001Y86852D01*
X107778Y86945D01*
X107539Y86976D01*
D02*
G37*
G36*
X10605Y92758D02*
X9598D01*
X9389Y92731D01*
X9194Y92650D01*
X9027Y92522D01*
X8979Y92458D01*
X8915Y92410D01*
X8787Y92243D01*
X8729Y92103D01*
X8691Y92074D01*
X8563Y91907D01*
X8493Y91737D01*
X8451Y91683D01*
X8381Y91513D01*
X8339Y91459D01*
X8281Y91319D01*
X8243Y91290D01*
X8115Y91123D01*
X8045Y90954D01*
X8003Y90899D01*
X7945Y90759D01*
X7908Y90731D01*
X7779Y90563D01*
X7709Y90394D01*
X7667Y90339D01*
X7597Y90170D01*
X7555Y90115D01*
X7497Y89976D01*
X7460Y89947D01*
X7332Y89780D01*
X7274Y89640D01*
X7236Y89611D01*
X7108Y89444D01*
X7037Y89274D01*
X6996Y89220D01*
X6938Y89080D01*
X6900Y89051D01*
X6772Y88884D01*
X6701Y88714D01*
X6660Y88660D01*
X6602Y88520D01*
X6564Y88491D01*
X6436Y88324D01*
X6366Y88155D01*
X6324Y88100D01*
X6266Y87960D01*
X6228Y87932D01*
X6100Y87764D01*
X6030Y87595D01*
X5988Y87541D01*
X5918Y87371D01*
X5876Y87317D01*
X5818Y87177D01*
X5780Y87148D01*
X5652Y86981D01*
X5582Y86811D01*
X5540Y86757D01*
X5482Y86617D01*
X5444Y86588D01*
X5316Y86421D01*
X5246Y86251D01*
X5204Y86197D01*
X5124Y86002D01*
X5096Y85794D01*
Y85682D01*
X5124Y85473D01*
X5204Y85278D01*
X5246Y85224D01*
X5316Y85054D01*
X5444Y84887D01*
X5482Y84858D01*
X5540Y84718D01*
X5582Y84664D01*
X5652Y84494D01*
X5694Y84440D01*
X5764Y84271D01*
X5892Y84103D01*
X5930Y84074D01*
X5988Y83935D01*
X6030Y83880D01*
X6100Y83711D01*
X6228Y83544D01*
X6266Y83515D01*
X6324Y83375D01*
X6366Y83320D01*
X6436Y83151D01*
X6478Y83096D01*
X6548Y82927D01*
X6676Y82760D01*
X6714Y82731D01*
X6772Y82591D01*
X6813Y82537D01*
X6884Y82367D01*
X7012Y82200D01*
X7050Y82171D01*
X7108Y82031D01*
X7149Y81977D01*
X7220Y81807D01*
X7261Y81753D01*
X7332Y81583D01*
X7460Y81416D01*
X7497Y81387D01*
X7555Y81248D01*
X7597Y81193D01*
X7667Y81024D01*
X7796Y80857D01*
X7833Y80828D01*
X7891Y80688D01*
X7933Y80633D01*
X8003Y80464D01*
X8132Y80297D01*
X8169Y80268D01*
X8227Y80128D01*
X8269Y80074D01*
X8339Y79904D01*
X8467Y79737D01*
X8505Y79708D01*
X8563Y79568D01*
X8605Y79514D01*
X8675Y79344D01*
X8803Y79177D01*
X8867Y79129D01*
X8915Y79065D01*
X8979Y79017D01*
X9027Y78953D01*
X9194Y78825D01*
X9389Y78744D01*
X9598Y78717D01*
X10605D01*
X10814Y78744D01*
X11009Y78825D01*
X11176Y78953D01*
X11225Y79017D01*
X11288Y79065D01*
X11288Y79066D01*
X11389Y79053D01*
X11501D01*
X11710Y79080D01*
X11904Y79161D01*
X11909Y79165D01*
X12732D01*
X12941Y79192D01*
X13136Y79273D01*
X13303Y79401D01*
X13352Y79465D01*
X13415Y79513D01*
X13543Y79680D01*
X13624Y79875D01*
X13638Y79982D01*
X13925Y80233D01*
X14281Y80146D01*
X14725Y79756D01*
Y79748D01*
X14752Y79539D01*
X14833Y79344D01*
X14874Y79290D01*
X14945Y79120D01*
X14986Y79066D01*
X15057Y78896D01*
X15185Y78729D01*
X15223Y78700D01*
X15244Y78649D01*
X15046Y78087D01*
X14916Y77824D01*
X14703Y77760D01*
X14509Y77840D01*
X14300Y77868D01*
X14076D01*
X13867Y77840D01*
X13673Y77760D01*
X13506Y77631D01*
X13377Y77464D01*
X13297Y77270D01*
X13269Y77061D01*
Y76501D01*
X13297Y76292D01*
X13377Y76098D01*
X13419Y76043D01*
X13489Y75874D01*
X13617Y75706D01*
X13681Y75658D01*
X13729Y75595D01*
X13793Y75546D01*
X13841Y75483D01*
X13905Y75434D01*
X13953Y75371D01*
X14017Y75322D01*
X14065Y75259D01*
X14129Y75210D01*
X14177Y75147D01*
X14344Y75019D01*
X14539Y74938D01*
X14748Y74910D01*
X15038D01*
X15305Y74557D01*
X15384Y74128D01*
X15360Y74097D01*
X15297Y74049D01*
X15248Y73985D01*
X15185Y73937D01*
X15057Y73770D01*
X14976Y73575D01*
X14949Y73366D01*
Y73150D01*
X14907Y73080D01*
X14838Y72986D01*
X14659Y72844D01*
X14169Y72645D01*
X14061Y72690D01*
X13852Y72718D01*
X13068D01*
X12860Y72690D01*
X12665Y72610D01*
X12498Y72481D01*
X12449Y72418D01*
X12386Y72369D01*
X12258Y72202D01*
X12177Y72008D01*
X12166Y71925D01*
X12162Y71921D01*
X12034Y71754D01*
X11953Y71560D01*
X11926Y71351D01*
Y70976D01*
X11922Y70971D01*
X11841Y70776D01*
X11814Y70567D01*
Y70343D01*
X11841Y70135D01*
X11922Y69940D01*
X11926Y69935D01*
Y69224D01*
X11953Y69015D01*
X12034Y68820D01*
X12038Y68815D01*
Y68776D01*
X12065Y68567D01*
X12146Y68372D01*
X12161Y68352D01*
X12177Y68231D01*
X12258Y68037D01*
X12273Y68016D01*
X12289Y67895D01*
X12370Y67701D01*
X12498Y67534D01*
X12625Y67436D01*
X12722Y67310D01*
X12889Y67181D01*
X13058Y67111D01*
X13113Y67069D01*
X13307Y66989D01*
X13516Y66961D01*
X13740D01*
X13949Y66989D01*
X14144Y67069D01*
X14311Y67198D01*
X14873Y67274D01*
X15065Y67234D01*
X15218Y67180D01*
X15281Y67029D01*
X15409Y66862D01*
X15576Y66734D01*
X15770Y66653D01*
X15979Y66625D01*
X16427D01*
X16636Y66653D01*
X16831Y66734D01*
X16957Y66830D01*
X17114Y66765D01*
X17323Y66737D01*
X17474D01*
X17479Y66734D01*
X17674Y66653D01*
X17883Y66625D01*
X17888D01*
X17910Y66609D01*
X17967Y66469D01*
X18096Y66302D01*
X18159Y66253D01*
X18208Y66190D01*
X18375Y66062D01*
X18570Y65981D01*
X18778Y65954D01*
X19114D01*
X19323Y65981D01*
X19518Y66062D01*
X19685Y66190D01*
X19813Y66357D01*
X19894Y66552D01*
X19921Y66761D01*
Y66766D01*
X20037Y66917D01*
X20118Y67112D01*
X20145Y67320D01*
Y67768D01*
X20118Y67977D01*
X20037Y68172D01*
X19909Y68339D01*
X19775Y68442D01*
X19701Y68620D01*
X19697Y68625D01*
Y68664D01*
X19670Y68873D01*
X19589Y69067D01*
X19585Y69072D01*
Y69112D01*
X19558Y69321D01*
X19477Y69515D01*
X19462Y69535D01*
X19446Y69656D01*
X19365Y69851D01*
X19350Y69871D01*
X19334Y69992D01*
X19253Y70187D01*
X19211Y70241D01*
X19141Y70411D01*
X19099Y70465D01*
X19029Y70635D01*
X18988Y70689D01*
X18955Y70768D01*
X18964Y71004D01*
X19167Y71633D01*
X19265Y71724D01*
X19349Y71788D01*
X19398Y71851D01*
X19461Y71900D01*
X19589Y72067D01*
X19670Y72262D01*
X19697Y72470D01*
Y72806D01*
X19670Y73015D01*
X19589Y73210D01*
X19547Y73264D01*
X19477Y73434D01*
X19435Y73488D01*
X19365Y73658D01*
X19237Y73825D01*
X19199Y73854D01*
X19141Y73993D01*
X19040Y74190D01*
X19029Y74217D01*
X18922Y74424D01*
X19125Y74811D01*
X19253Y74978D01*
X19334Y75173D01*
X19361Y75381D01*
Y76165D01*
X19345Y76289D01*
X19461Y76378D01*
X19589Y76545D01*
X19670Y76740D01*
X19679Y76814D01*
X19726Y76847D01*
X20043Y77000D01*
X20497Y77018D01*
X20559Y76938D01*
X20622Y76889D01*
X20671Y76826D01*
X20734Y76777D01*
X20783Y76714D01*
X20846Y76666D01*
X20895Y76602D01*
X20958Y76554D01*
X21007Y76490D01*
X21174Y76362D01*
X21314Y76304D01*
X21343Y76266D01*
X21510Y76138D01*
X21679Y76068D01*
X21734Y76026D01*
X21928Y75946D01*
X22137Y75918D01*
X23145D01*
X23354Y75946D01*
X23548Y76026D01*
X23715Y76154D01*
X23744Y76192D01*
X23884Y76250D01*
X23938Y76292D01*
X24108Y76362D01*
X24298Y76379D01*
X24487Y76353D01*
X24809Y76263D01*
X24840Y76248D01*
X25015Y76111D01*
X25021Y76098D01*
X25063Y76043D01*
X25133Y75874D01*
X25175Y75819D01*
X25245Y75650D01*
X25373Y75483D01*
X25436Y75434D01*
X25485Y75371D01*
X25548Y75322D01*
X25597Y75259D01*
X25764Y75130D01*
X25959Y75050D01*
X26168Y75022D01*
X26615D01*
X26824Y75050D01*
X27019Y75130D01*
X27186Y75259D01*
X27314Y75426D01*
X27384Y75595D01*
X27426Y75650D01*
X27507Y75844D01*
X27534Y76053D01*
Y76725D01*
X27507Y76934D01*
X27426Y77128D01*
X27384Y77183D01*
X27314Y77352D01*
X27272Y77407D01*
X27202Y77576D01*
X27161Y77631D01*
X27090Y77800D01*
X27049Y77855D01*
X26978Y78024D01*
X26850Y78191D01*
X26812Y78220D01*
X26754Y78360D01*
X26711Y78844D01*
X26792Y79144D01*
X26850Y79289D01*
X26899Y79352D01*
X26962Y79401D01*
X27090Y79568D01*
X27171Y79763D01*
X27198Y79972D01*
Y80419D01*
X27171Y80628D01*
X27090Y80823D01*
X27049Y80877D01*
X26978Y81047D01*
X26850Y81214D01*
X26642Y81695D01*
X26723Y81890D01*
X26750Y82099D01*
Y82323D01*
X26723Y82532D01*
X26809Y82833D01*
X27019Y82968D01*
X27186Y83096D01*
X27314Y83263D01*
X27395Y83457D01*
X27422Y83666D01*
Y84002D01*
X27395Y84211D01*
X27314Y84406D01*
X27272Y84460D01*
X27202Y84630D01*
X27074Y84797D01*
X27011Y84845D01*
X26962Y84909D01*
X26899Y84957D01*
X26850Y85021D01*
X26792Y85098D01*
X26754Y85189D01*
X26565Y85658D01*
X26642Y85950D01*
X26723Y86145D01*
X26750Y86353D01*
Y87025D01*
X26723Y87234D01*
X26642Y87428D01*
X26566Y87528D01*
X26626Y87574D01*
X26754Y87741D01*
X26825Y87911D01*
X26866Y87965D01*
X26947Y88160D01*
X26974Y88369D01*
Y88816D01*
X26947Y89025D01*
X26866Y89220D01*
X26862Y89225D01*
Y89264D01*
X26835Y89473D01*
X26754Y89668D01*
X26713Y89722D01*
X26642Y89892D01*
X26514Y90059D01*
X26476Y90088D01*
X26419Y90228D01*
X26290Y90395D01*
X26227Y90443D01*
X26178Y90507D01*
X26011Y90635D01*
X25817Y90715D01*
X25608Y90743D01*
X25272D01*
X25063Y90715D01*
X24868Y90635D01*
X24679Y90512D01*
X24108Y90635D01*
X23913Y90715D01*
X23705Y90743D01*
X22921D01*
X22712Y90715D01*
X22517Y90635D01*
X22350Y90507D01*
X22302Y90443D01*
X22238Y90395D01*
X22110Y90228D01*
X22029Y90033D01*
X22002Y89824D01*
Y89376D01*
X22029Y89167D01*
X22110Y88973D01*
X22152Y88918D01*
X22222Y88749D01*
X22350Y88582D01*
X22414Y88533D01*
X22462Y88470D01*
X22525Y88421D01*
X22574Y88358D01*
X22637Y88309D01*
X22686Y88246D01*
X22749Y88197D01*
X22798Y88134D01*
X22861Y88085D01*
X22910Y88022D01*
X22973Y87973D01*
X23022Y87910D01*
X23076Y87868D01*
X23087Y87859D01*
X23134Y87798D01*
X23309Y87588D01*
X23373Y86898D01*
X23345Y86689D01*
Y86359D01*
X23272Y86349D01*
X23077Y86268D01*
X22910Y86140D01*
X22861Y86077D01*
X22798Y86028D01*
X22670Y85861D01*
X22589Y85667D01*
X22562Y85458D01*
Y85010D01*
X22589Y84801D01*
X22670Y84606D01*
X22712Y84552D01*
X22782Y84382D01*
X22910Y84215D01*
X22973Y84167D01*
X23022Y84103D01*
X23085Y84055D01*
X23134Y83991D01*
X23197Y83943D01*
X23246Y83880D01*
X23253Y83874D01*
X23358Y83702D01*
X23464Y83424D01*
X23453Y82950D01*
X23373Y82756D01*
X23345Y82547D01*
Y82119D01*
X23160Y82095D01*
X22965Y82014D01*
X22798Y81886D01*
X22670Y81719D01*
X22589Y81524D01*
X22562Y81315D01*
Y80979D01*
X22589Y80770D01*
X22670Y80576D01*
X22712Y80522D01*
X22782Y80352D01*
X22835Y80282D01*
X22702Y79673D01*
X22644Y79664D01*
X22419Y79676D01*
X21940Y79927D01*
X21812Y80094D01*
X21774Y80123D01*
X21716Y80263D01*
X21588Y80430D01*
X21525Y80479D01*
X21476Y80542D01*
X21309Y80670D01*
X21114Y80751D01*
X20993Y80767D01*
X20973Y80782D01*
X20778Y80863D01*
X20570Y80891D01*
X20521D01*
X20501Y80896D01*
X19993Y81204D01*
X19809Y81651D01*
X19782Y81860D01*
X19701Y82055D01*
X19659Y82109D01*
X19589Y82278D01*
X19461Y82446D01*
X19398Y82494D01*
X19349Y82557D01*
X19286Y82606D01*
X19244Y82660D01*
X19223Y82689D01*
X19123Y82835D01*
X19117Y82846D01*
X19025Y83584D01*
X19029Y83599D01*
X19110Y83793D01*
X19137Y84002D01*
Y84674D01*
X19110Y84883D01*
X19029Y85077D01*
X18901Y85245D01*
X18838Y85293D01*
X18789Y85356D01*
X18751Y85386D01*
X18693Y85525D01*
X18565Y85692D01*
X18398Y85821D01*
X18203Y85901D01*
X17995Y85929D01*
X17883D01*
X17674Y85901D01*
X17479Y85821D01*
X17459Y85805D01*
X17338Y85789D01*
X17143Y85709D01*
X16976Y85580D01*
X16848Y85413D01*
X16827Y85363D01*
X16666Y85341D01*
X16472Y85261D01*
X16417Y85219D01*
X16248Y85149D01*
X16081Y85021D01*
X15735Y84877D01*
X14994Y85248D01*
X14881Y85704D01*
X14873Y85833D01*
X14883Y85905D01*
Y86017D01*
X14871Y86244D01*
X15069Y86470D01*
X15263Y86550D01*
X15430Y86678D01*
X15479Y86742D01*
X15542Y86790D01*
X15671Y86958D01*
X15751Y87152D01*
X15779Y87361D01*
Y87585D01*
X15751Y87794D01*
X15671Y87988D01*
X15542Y88155D01*
X15375Y88284D01*
X15181Y88364D01*
X15107Y88592D01*
Y88928D01*
X15079Y89137D01*
X14999Y89332D01*
X14871Y89499D01*
X14703Y89627D01*
X14509Y89708D01*
X14311Y89734D01*
X14323Y89824D01*
Y90160D01*
X14296Y90369D01*
X14215Y90563D01*
X14087Y90731D01*
X13920Y90859D01*
X13710Y91009D01*
X13651Y91280D01*
Y91391D01*
X13624Y91600D01*
X13543Y91795D01*
X13415Y91962D01*
X13352Y92011D01*
X13303Y92074D01*
X13136Y92202D01*
X12941Y92283D01*
X12732Y92310D01*
X11909D01*
X11904Y92314D01*
X11710Y92395D01*
X11501Y92422D01*
X11389D01*
X11288Y92409D01*
X11288Y92410D01*
X11225Y92458D01*
X11176Y92522D01*
X11009Y92650D01*
X10814Y92731D01*
X10605Y92758D01*
D02*
G37*
G36*
X43710Y80915D02*
X39361D01*
Y76565D01*
X39910D01*
Y75659D01*
X39105D01*
Y70798D01*
X43730D01*
Y75659D01*
X42925D01*
Y76565D01*
X43710D01*
Y80915D01*
D02*
G37*
%LPD*%
G36*
X25608Y89824D02*
X25720D01*
Y89600D01*
X25832D01*
Y89488D01*
X25944D01*
Y89264D01*
X26056D01*
Y88816D01*
X26168D01*
Y88369D01*
X26056D01*
Y88145D01*
X25944D01*
Y88033D01*
X25720D01*
Y87921D01*
X25496D01*
Y87585D01*
X24936D01*
Y87697D01*
X24824D01*
Y87921D01*
X24600D01*
Y88033D01*
X24264D01*
Y88145D01*
X24040D01*
Y88257D01*
X23928D01*
Y88369D01*
X23705D01*
Y88481D01*
X23593D01*
Y88592D01*
X23481D01*
Y88704D01*
X23369D01*
Y88816D01*
X23257D01*
Y88928D01*
X23145D01*
Y89040D01*
X23033D01*
Y89152D01*
X22921D01*
Y89376D01*
X22809D01*
Y89824D01*
X22921D01*
Y89936D01*
X23705D01*
Y89824D01*
X23928D01*
Y89712D01*
X24040D01*
Y89600D01*
X24152D01*
Y89488D01*
X24264D01*
Y89376D01*
X24376D01*
Y89264D01*
X24488D01*
Y89152D01*
X24600D01*
Y89040D01*
X24712D01*
Y88928D01*
X24824D01*
Y88816D01*
X24936D01*
Y88704D01*
X25272D01*
Y88928D01*
X25384D01*
Y89152D01*
X25272D01*
Y89488D01*
X25160D01*
Y89824D01*
X25272D01*
Y89936D01*
X25608D01*
Y89824D01*
D02*
G37*
G36*
X10605Y91839D02*
X10717D01*
Y91615D01*
X10829D01*
Y91503D01*
X10941D01*
Y91391D01*
X11165D01*
Y91503D01*
X11389D01*
Y91615D01*
X11501D01*
Y91503D01*
X12732D01*
Y91391D01*
X12844D01*
Y91280D01*
X12732D01*
Y91167D01*
X11837D01*
Y91056D01*
X11725D01*
Y90944D01*
X11613D01*
Y90832D01*
X11501D01*
Y90720D01*
X11389D01*
Y90496D01*
X11501D01*
Y90272D01*
X11613D01*
Y90160D01*
X11949D01*
Y90272D01*
X12285D01*
Y90160D01*
X13516D01*
Y89824D01*
X12509D01*
Y89712D01*
X12397D01*
Y89600D01*
X12285D01*
Y89488D01*
X12173D01*
Y89152D01*
X12285D01*
Y88928D01*
X12397D01*
Y88816D01*
X12621D01*
Y88928D01*
X12844D01*
Y89040D01*
X12957D01*
Y88928D01*
X14300D01*
Y88592D01*
X13292D01*
Y88481D01*
X13180D01*
Y88369D01*
X13068D01*
Y88257D01*
X12957D01*
Y88145D01*
X12844D01*
Y87921D01*
X12957D01*
Y87809D01*
X13068D01*
Y87585D01*
X13404D01*
Y87697D01*
X13740D01*
Y87585D01*
X14972D01*
Y87361D01*
X14860D01*
Y87249D01*
X13964D01*
Y87137D01*
X13852D01*
Y87025D01*
X13740D01*
Y86913D01*
X13628D01*
Y86577D01*
X13740D01*
Y86353D01*
X13852D01*
Y86241D01*
X13964D01*
Y86017D01*
X14076D01*
Y85905D01*
X13964D01*
Y85794D01*
X13292D01*
Y85905D01*
X13068D01*
Y86017D01*
X12957D01*
Y86241D01*
X12844D01*
Y86465D01*
X12732D01*
Y86689D01*
X12621D01*
Y86801D01*
X12509D01*
Y87025D01*
X12397D01*
Y87249D01*
X12285D01*
Y87361D01*
X12173D01*
Y87585D01*
X12061D01*
Y87809D01*
X11949D01*
Y88033D01*
X11837D01*
Y88257D01*
X11725D01*
Y88369D01*
X11613D01*
Y88592D01*
X11501D01*
Y88816D01*
X11389D01*
Y88928D01*
X11277D01*
Y89152D01*
X11165D01*
Y89376D01*
X11053D01*
Y89600D01*
X10941D01*
Y89712D01*
X10829D01*
Y89936D01*
X10717D01*
Y90160D01*
X10605D01*
Y90384D01*
X10493D01*
Y90496D01*
X10381D01*
Y90720D01*
X10270D01*
Y90944D01*
X10158D01*
Y91167D01*
X10046D01*
Y91280D01*
X9934D01*
Y91503D01*
X9822D01*
Y91615D01*
X9598D01*
Y91503D01*
X9486D01*
Y91280D01*
X9374D01*
Y91056D01*
X9262D01*
Y90832D01*
X9150D01*
Y90720D01*
X9038D01*
Y90496D01*
X8926D01*
Y90384D01*
X8814D01*
Y90160D01*
X8702D01*
Y89936D01*
X8590D01*
Y89712D01*
X8478D01*
Y89600D01*
X8366D01*
Y89376D01*
X8254D01*
Y89264D01*
X8142D01*
Y89040D01*
X8030D01*
Y88816D01*
X7918D01*
Y88704D01*
X7806D01*
Y88481D01*
X7694D01*
Y88257D01*
X7582D01*
Y88033D01*
X7470D01*
Y87921D01*
X7359D01*
Y87697D01*
X7247D01*
Y87473D01*
X7135D01*
Y87361D01*
X7023D01*
Y87137D01*
X6911D01*
Y86913D01*
X6799D01*
Y86801D01*
X6687D01*
Y86577D01*
X6575D01*
Y86353D01*
X6463D01*
Y86129D01*
X6351D01*
Y86017D01*
X6239D01*
Y85794D01*
X6127D01*
Y85570D01*
X6239D01*
Y85458D01*
X6351D01*
Y85234D01*
X6463D01*
Y85010D01*
X6575D01*
Y84898D01*
X6687D01*
Y84674D01*
X6799D01*
Y84450D01*
X6911D01*
Y84338D01*
X7023D01*
Y84114D01*
X7135D01*
Y84002D01*
X7247D01*
Y83778D01*
X7359D01*
Y83554D01*
X7470D01*
Y83330D01*
X7582D01*
Y83218D01*
X7694D01*
Y82995D01*
X7806D01*
Y82771D01*
X7918D01*
Y82659D01*
X8030D01*
Y82435D01*
X8142D01*
Y82211D01*
X8254D01*
Y82099D01*
X8366D01*
Y81875D01*
X8478D01*
Y81651D01*
X8590D01*
Y81427D01*
X8702D01*
Y81315D01*
X8814D01*
Y81091D01*
X8926D01*
Y80867D01*
X9038D01*
Y80755D01*
X9150D01*
Y80532D01*
X9262D01*
Y80308D01*
X9374D01*
Y80084D01*
X9486D01*
Y79972D01*
X9598D01*
Y79860D01*
X9934D01*
Y80084D01*
X10046D01*
Y80308D01*
X10158D01*
Y80532D01*
X10270D01*
Y80643D01*
X10381D01*
Y80867D01*
X10493D01*
Y81091D01*
X10605D01*
Y81315D01*
X10717D01*
Y81539D01*
X10829D01*
Y81651D01*
X10941D01*
Y81875D01*
X11053D01*
Y81987D01*
X11165D01*
Y82211D01*
X11277D01*
Y82435D01*
X11389D01*
Y82659D01*
X11501D01*
Y82771D01*
X11613D01*
Y82995D01*
X11725D01*
Y83218D01*
X11837D01*
Y83442D01*
X11949D01*
Y83554D01*
X12061D01*
Y83778D01*
X12173D01*
Y84002D01*
X12285D01*
Y84226D01*
X12397D01*
Y84450D01*
X12509D01*
Y84562D01*
X12621D01*
Y84786D01*
X12732D01*
Y85010D01*
X12844D01*
Y85122D01*
X12957D01*
Y85346D01*
X13068D01*
Y85458D01*
X13180D01*
Y85570D01*
X13292D01*
Y85682D01*
X13964D01*
Y85570D01*
X14076D01*
Y85458D01*
X13964D01*
Y85234D01*
X13852D01*
Y85010D01*
X13740D01*
Y84786D01*
X13628D01*
Y84562D01*
X13740D01*
Y84450D01*
X13852D01*
Y84338D01*
X13964D01*
Y84226D01*
X14972D01*
Y83890D01*
X13740D01*
Y83666D01*
X13628D01*
Y83778D01*
X13404D01*
Y83890D01*
X13068D01*
Y83666D01*
X12957D01*
Y83442D01*
X12844D01*
Y83330D01*
X12957D01*
Y83218D01*
X13068D01*
Y83106D01*
X13180D01*
Y82995D01*
X13292D01*
Y82883D01*
X14300D01*
Y82659D01*
X14188D01*
Y82547D01*
X12957D01*
Y82435D01*
X12844D01*
Y82547D01*
X12621D01*
Y82659D01*
X12397D01*
Y82547D01*
X12285D01*
Y82323D01*
X12173D01*
Y81987D01*
X12285D01*
Y81875D01*
X12397D01*
Y81763D01*
X12509D01*
Y81651D01*
X13516D01*
Y81315D01*
X12285D01*
Y81203D01*
X11949D01*
Y81315D01*
X11613D01*
Y81203D01*
X11501D01*
Y80979D01*
X11389D01*
Y80755D01*
X11501D01*
Y80643D01*
X11613D01*
Y80532D01*
X11725D01*
Y80419D01*
X11837D01*
Y80308D01*
X12732D01*
Y80196D01*
X12844D01*
Y80084D01*
X12732D01*
Y79972D01*
X11501D01*
Y79860D01*
X11389D01*
Y79972D01*
X11165D01*
Y80084D01*
X10941D01*
Y79972D01*
X10829D01*
Y79748D01*
X10717D01*
Y79636D01*
X10605D01*
Y79524D01*
X9598D01*
Y79636D01*
X9486D01*
Y79748D01*
X9374D01*
Y79972D01*
X9262D01*
Y80196D01*
X9150D01*
Y80308D01*
X9038D01*
Y80532D01*
X8926D01*
Y80755D01*
X8814D01*
Y80867D01*
X8702D01*
Y81091D01*
X8590D01*
Y81315D01*
X8478D01*
Y81427D01*
X8366D01*
Y81651D01*
X8254D01*
Y81875D01*
X8142D01*
Y81987D01*
X8030D01*
Y82211D01*
X7918D01*
Y82435D01*
X7806D01*
Y82659D01*
X7694D01*
Y82771D01*
X7582D01*
Y82995D01*
X7470D01*
Y83218D01*
X7359D01*
Y83330D01*
X7247D01*
Y83554D01*
X7135D01*
Y83778D01*
X7023D01*
Y84002D01*
X6911D01*
Y84114D01*
X6799D01*
Y84338D01*
X6687D01*
Y84562D01*
X6575D01*
Y84674D01*
X6463D01*
Y84898D01*
X6351D01*
Y85122D01*
X6239D01*
Y85346D01*
X6127D01*
Y85458D01*
X6015D01*
Y85682D01*
X5903D01*
Y85794D01*
X6015D01*
Y86017D01*
X6127D01*
Y86129D01*
X6239D01*
Y86353D01*
X6351D01*
Y86577D01*
X6463D01*
Y86689D01*
X6575D01*
Y86913D01*
X6687D01*
Y87137D01*
X6799D01*
Y87361D01*
X6911D01*
Y87473D01*
X7023D01*
Y87697D01*
X7135D01*
Y87921D01*
X7247D01*
Y88033D01*
X7359D01*
Y88257D01*
X7470D01*
Y88481D01*
X7582D01*
Y88592D01*
X7694D01*
Y88816D01*
X7806D01*
Y89040D01*
X7918D01*
Y89152D01*
X8030D01*
Y89376D01*
X8142D01*
Y89488D01*
X8254D01*
Y89712D01*
X8366D01*
Y89936D01*
X8478D01*
Y90160D01*
X8590D01*
Y90272D01*
X8702D01*
Y90496D01*
X8814D01*
Y90720D01*
X8926D01*
Y90832D01*
X9038D01*
Y91056D01*
X9150D01*
Y91280D01*
X9262D01*
Y91503D01*
X9374D01*
Y91615D01*
X9486D01*
Y91839D01*
X9598D01*
Y91951D01*
X10605D01*
Y91839D01*
D02*
G37*
G36*
X25608Y87361D02*
X25720D01*
Y87137D01*
X25832D01*
Y87025D01*
X25944D01*
Y86353D01*
X25832D01*
Y86241D01*
X25496D01*
Y86129D01*
X25272D01*
Y86017D01*
X25160D01*
Y85682D01*
X25272D01*
Y85570D01*
X25384D01*
Y85346D01*
X25496D01*
Y85234D01*
X25608D01*
Y85122D01*
X25720D01*
Y85010D01*
X25832D01*
Y84898D01*
X25944D01*
Y84786D01*
X26056D01*
Y84562D01*
X26168D01*
Y84450D01*
X26280D01*
Y84338D01*
X26392D01*
Y84226D01*
X26503D01*
Y84002D01*
X26615D01*
Y83666D01*
X25944D01*
Y83778D01*
X25720D01*
Y83890D01*
X25496D01*
Y84002D01*
X25272D01*
Y84114D01*
X25048D01*
Y84226D01*
X24824D01*
Y84338D01*
X24712D01*
Y84226D01*
X24824D01*
Y84114D01*
X24936D01*
Y83890D01*
X25048D01*
Y83778D01*
X25160D01*
Y83666D01*
X25272D01*
Y83554D01*
X25384D01*
Y83442D01*
X25496D01*
Y83330D01*
X25608D01*
Y83218D01*
X25384D01*
Y83106D01*
X25048D01*
Y83218D01*
X24936D01*
Y83330D01*
X24824D01*
Y83442D01*
X24712D01*
Y83554D01*
X24600D01*
Y83666D01*
X24488D01*
Y83890D01*
X24376D01*
Y84002D01*
X24264D01*
Y84114D01*
X24152D01*
Y84226D01*
X24040D01*
Y84338D01*
X23928D01*
Y84450D01*
X23816D01*
Y84562D01*
X23705D01*
Y84674D01*
X23593D01*
Y84786D01*
X23481D01*
Y85010D01*
X23369D01*
Y85458D01*
X23481D01*
Y85570D01*
X23928D01*
Y85458D01*
X24264D01*
Y85346D01*
X24488D01*
Y85234D01*
X24712D01*
Y85122D01*
X24936D01*
Y85010D01*
X25048D01*
Y85122D01*
X24936D01*
Y85234D01*
X24824D01*
Y85346D01*
X24712D01*
Y85570D01*
X24600D01*
Y85682D01*
X24488D01*
Y85794D01*
X24376D01*
Y85905D01*
X24264D01*
Y86129D01*
X24152D01*
Y86689D01*
X24264D01*
Y86801D01*
X24376D01*
Y86913D01*
X25048D01*
Y87025D01*
X25160D01*
Y87361D01*
X25384D01*
Y87473D01*
X25608D01*
Y87361D01*
D02*
G37*
G36*
X17995Y84898D02*
X18106D01*
Y84786D01*
X18218D01*
Y84674D01*
X18330D01*
Y84002D01*
X18218D01*
Y83890D01*
X17995D01*
Y83778D01*
X17659D01*
Y83666D01*
X17547D01*
Y83554D01*
X17435D01*
Y83442D01*
X17547D01*
Y83330D01*
X17659D01*
Y83106D01*
X17771D01*
Y82995D01*
X17883D01*
Y82771D01*
X17995D01*
Y82659D01*
X18218D01*
Y82547D01*
X18330D01*
Y82323D01*
X18442D01*
Y82211D01*
X18554D01*
Y82099D01*
X18666D01*
Y81987D01*
X18778D01*
Y81875D01*
X18890D01*
Y81651D01*
X19002D01*
Y81315D01*
X18330D01*
Y81427D01*
X18106D01*
Y81539D01*
X17883D01*
Y81651D01*
X17659D01*
Y81763D01*
X17435D01*
Y81875D01*
X17211D01*
Y81651D01*
X17323D01*
Y81539D01*
X17435D01*
Y81427D01*
X17547D01*
Y81315D01*
X17659D01*
Y81203D01*
X17771D01*
Y80979D01*
X17883D01*
Y80755D01*
X17435D01*
Y80867D01*
X17323D01*
Y80979D01*
X17211D01*
Y81091D01*
X17099D01*
Y81203D01*
X16987D01*
Y81315D01*
X16875D01*
Y81427D01*
X16763D01*
Y81539D01*
X16651D01*
Y81651D01*
X16539D01*
Y81875D01*
X16427D01*
Y81987D01*
X16315D01*
Y82099D01*
X16203D01*
Y82211D01*
X16091D01*
Y82323D01*
X15979D01*
Y82435D01*
X15867D01*
Y82659D01*
X15755D01*
Y82995D01*
X15867D01*
Y83106D01*
X15979D01*
Y83218D01*
X16315D01*
Y83106D01*
X16539D01*
Y82995D01*
X16763D01*
Y82883D01*
X17099D01*
Y82771D01*
X17323D01*
Y82659D01*
X17435D01*
Y82771D01*
X17323D01*
Y82883D01*
X17211D01*
Y82995D01*
X17099D01*
Y83106D01*
X16987D01*
Y83218D01*
X16875D01*
Y83442D01*
X16763D01*
Y83554D01*
X16651D01*
Y83778D01*
X16539D01*
Y84338D01*
X16651D01*
Y84450D01*
X16875D01*
Y84562D01*
X17435D01*
Y84674D01*
X17547D01*
Y85010D01*
X17883D01*
Y85122D01*
X17995D01*
Y84898D01*
D02*
G37*
G36*
X25608Y82883D02*
X25720D01*
Y82659D01*
X25832D01*
Y82323D01*
X25944D01*
Y82099D01*
X25832D01*
Y81875D01*
X25720D01*
Y81763D01*
X25384D01*
Y81539D01*
X25496D01*
Y81427D01*
X25608D01*
Y81315D01*
X25720D01*
Y81203D01*
X25832D01*
Y81091D01*
X25944D01*
Y80979D01*
X26056D01*
Y80755D01*
X26168D01*
Y80643D01*
X26280D01*
Y80419D01*
X26392D01*
Y79972D01*
X26280D01*
Y79860D01*
X26056D01*
Y79748D01*
X25384D01*
Y79860D01*
X25272D01*
Y79636D01*
X25384D01*
Y79524D01*
X25496D01*
Y79412D01*
X25608D01*
Y79300D01*
X25272D01*
Y79188D01*
X25048D01*
Y79300D01*
X24936D01*
Y79412D01*
X24824D01*
Y79524D01*
X24712D01*
Y79636D01*
X24600D01*
Y79748D01*
X24488D01*
Y79860D01*
X24376D01*
Y79972D01*
X24264D01*
Y80084D01*
X24152D01*
Y80196D01*
X24040D01*
Y80308D01*
X23928D01*
Y80419D01*
X23816D01*
Y80532D01*
X23705D01*
Y80643D01*
X23593D01*
Y80755D01*
X23481D01*
Y80979D01*
X23369D01*
Y81315D01*
X23705D01*
Y81203D01*
X23928D01*
Y81091D01*
X24152D01*
Y80979D01*
X24376D01*
Y80867D01*
X24712D01*
Y80755D01*
X25048D01*
Y80643D01*
X25608D01*
Y80755D01*
X25496D01*
Y80867D01*
X25384D01*
Y80979D01*
X25272D01*
Y81091D01*
X25160D01*
Y81203D01*
X25048D01*
Y81315D01*
X24936D01*
Y81427D01*
X24824D01*
Y81539D01*
X24712D01*
Y81651D01*
X24600D01*
Y81763D01*
X24488D01*
Y81875D01*
X24264D01*
Y81987D01*
X24152D01*
Y82547D01*
X25160D01*
Y82995D01*
X25608D01*
Y82883D01*
D02*
G37*
G36*
X17995Y80532D02*
X18106D01*
Y80419D01*
X18218D01*
Y80308D01*
X18330D01*
Y80084D01*
X18442D01*
Y79860D01*
X18554D01*
Y79300D01*
X18442D01*
Y79188D01*
X18330D01*
Y79076D01*
X17771D01*
Y78964D01*
X17883D01*
Y78852D01*
X17995D01*
Y78628D01*
X18106D01*
Y78516D01*
X18218D01*
Y78404D01*
X18330D01*
Y78292D01*
X18442D01*
Y78068D01*
X18554D01*
Y77956D01*
X18666D01*
Y77732D01*
X18778D01*
Y77509D01*
X18890D01*
Y76949D01*
X18666D01*
Y76837D01*
X18442D01*
Y76949D01*
X18218D01*
Y77061D01*
X18106D01*
Y77173D01*
X17323D01*
Y77397D01*
X17211D01*
Y77509D01*
X17099D01*
Y77732D01*
X16987D01*
Y77845D01*
X16875D01*
Y77956D01*
X16763D01*
Y78068D01*
X16651D01*
Y78180D01*
X16539D01*
Y78404D01*
X16427D01*
Y78516D01*
X16315D01*
Y78740D01*
X16203D01*
Y78852D01*
X16091D01*
Y78964D01*
X15979D01*
Y79188D01*
X15867D01*
Y79300D01*
X15755D01*
Y79524D01*
X15643D01*
Y79748D01*
X15531D01*
Y80308D01*
X15867D01*
Y80196D01*
X15979D01*
Y80084D01*
X16091D01*
Y79972D01*
X16203D01*
Y79860D01*
X16315D01*
Y79636D01*
X16427D01*
Y79524D01*
X16539D01*
Y79412D01*
X16651D01*
Y79300D01*
X16763D01*
Y79188D01*
X16875D01*
Y78964D01*
X16987D01*
Y78852D01*
X17099D01*
Y78740D01*
X17211D01*
Y78628D01*
X17323D01*
Y78516D01*
X17435D01*
Y78404D01*
X17547D01*
Y78292D01*
X17659D01*
Y78180D01*
X17771D01*
Y78292D01*
X17659D01*
Y78404D01*
X17547D01*
Y78516D01*
X17435D01*
Y78628D01*
X17323D01*
Y78852D01*
X17211D01*
Y78964D01*
X17099D01*
Y79188D01*
X16987D01*
Y79300D01*
X16875D01*
Y79412D01*
X16763D01*
Y79972D01*
X17323D01*
Y79860D01*
X17659D01*
Y79972D01*
X17771D01*
Y80196D01*
X17659D01*
Y80308D01*
X17547D01*
Y80532D01*
X17659D01*
Y80643D01*
X17995D01*
Y80532D01*
D02*
G37*
G36*
X20570Y79972D02*
X20906D01*
Y79860D01*
X21017D01*
Y79636D01*
X21129D01*
Y79524D01*
X21241D01*
Y79300D01*
X21353D01*
Y79188D01*
X21465D01*
Y78964D01*
X21577D01*
Y78740D01*
X21689D01*
Y78292D01*
X21465D01*
Y78180D01*
X21577D01*
Y78068D01*
X21689D01*
Y77956D01*
X21801D01*
Y77845D01*
X21913D01*
Y77732D01*
X22585D01*
Y77845D01*
X22921D01*
Y77956D01*
X23033D01*
Y78068D01*
X23257D01*
Y78180D01*
X23369D01*
Y78292D01*
X23481D01*
Y78404D01*
X23705D01*
Y78516D01*
X23816D01*
Y78628D01*
X24040D01*
Y78740D01*
X24264D01*
Y78852D01*
X25160D01*
Y79076D01*
X25608D01*
Y78740D01*
X25720D01*
Y78180D01*
X25832D01*
Y78068D01*
X25944D01*
Y77956D01*
X26056D01*
Y77732D01*
X26168D01*
Y77621D01*
X26280D01*
Y77397D01*
X26392D01*
Y77173D01*
X26503D01*
Y76949D01*
X26615D01*
Y76725D01*
X26727D01*
Y76053D01*
X26615D01*
Y75829D01*
X26168D01*
Y75941D01*
X26056D01*
Y76053D01*
X25944D01*
Y76277D01*
X25832D01*
Y76501D01*
X25720D01*
Y76837D01*
X25608D01*
Y77061D01*
X25496D01*
Y77285D01*
X25384D01*
Y77621D01*
X25496D01*
Y77732D01*
X25272D01*
Y77845D01*
X25160D01*
Y77956D01*
X24712D01*
Y77845D01*
X24488D01*
Y77732D01*
X24376D01*
Y77621D01*
X24152D01*
Y77509D01*
X24040D01*
Y77397D01*
X23928D01*
Y77285D01*
X23816D01*
Y77173D01*
X23705D01*
Y77061D01*
X23481D01*
Y76949D01*
X23257D01*
Y76837D01*
X23145D01*
Y76725D01*
X22137D01*
Y76837D01*
X21913D01*
Y76949D01*
X21801D01*
Y77061D01*
X21577D01*
Y77173D01*
X21465D01*
Y77285D01*
X21353D01*
Y77397D01*
X21241D01*
Y77509D01*
X21129D01*
Y77732D01*
X21017D01*
Y77845D01*
X20906D01*
Y77956D01*
X20794D01*
Y78180D01*
X20682D01*
Y78404D01*
X20570D01*
Y78628D01*
X20458D01*
Y78740D01*
X20346D01*
Y79076D01*
X20234D01*
Y79300D01*
X20122D01*
Y79636D01*
X20010D01*
Y79860D01*
X20122D01*
Y80084D01*
X20570D01*
Y79972D01*
D02*
G37*
G36*
X14300Y76949D02*
X14524D01*
Y76837D01*
X14748D01*
Y76725D01*
X14972D01*
Y76613D01*
X15084D01*
Y76501D01*
X15196D01*
Y76277D01*
X15308D01*
Y75829D01*
X15196D01*
Y75717D01*
X14748D01*
Y75829D01*
X14636D01*
Y75941D01*
X14524D01*
Y76053D01*
X14412D01*
Y76165D01*
X14300D01*
Y76277D01*
X14188D01*
Y76501D01*
X14076D01*
Y77061D01*
X14300D01*
Y76949D01*
D02*
G37*
G36*
X17995Y76837D02*
X18106D01*
Y76725D01*
X18218D01*
Y76501D01*
X18330D01*
Y76389D01*
X18442D01*
Y76165D01*
X18554D01*
Y75381D01*
X18442D01*
Y75269D01*
X17995D01*
Y75157D01*
X17771D01*
Y75046D01*
X17659D01*
Y74822D01*
X17771D01*
Y74710D01*
X17883D01*
Y74598D01*
X17995D01*
Y74486D01*
X17883D01*
Y74374D01*
X17435D01*
Y74486D01*
X17323D01*
Y74598D01*
X17211D01*
Y74710D01*
X17099D01*
Y74822D01*
X16987D01*
Y74934D01*
X16875D01*
Y75157D01*
X16763D01*
Y75269D01*
X16651D01*
Y75381D01*
X16539D01*
Y75493D01*
X16427D01*
Y75829D01*
X16539D01*
Y75941D01*
X16651D01*
Y76053D01*
X17771D01*
Y76165D01*
X17883D01*
Y76277D01*
X17771D01*
Y76501D01*
X17659D01*
Y76725D01*
X17547D01*
Y76949D01*
X17883D01*
Y77061D01*
X17995D01*
Y76837D01*
D02*
G37*
G36*
Y74150D02*
X18106D01*
Y73926D01*
X18218D01*
Y73814D01*
X18330D01*
Y73590D01*
X18442D01*
Y73366D01*
X18554D01*
Y73254D01*
X18666D01*
Y73030D01*
X18778D01*
Y72806D01*
X18890D01*
Y72470D01*
X18778D01*
Y72359D01*
X18330D01*
Y72470D01*
X18218D01*
Y72582D01*
X17995D01*
Y72694D01*
X17771D01*
Y72806D01*
X17547D01*
Y72918D01*
X17099D01*
Y73030D01*
X16875D01*
Y72918D01*
X16763D01*
Y72694D01*
X16875D01*
Y72470D01*
X16987D01*
Y72359D01*
X17099D01*
Y72247D01*
X17211D01*
Y72135D01*
X17323D01*
Y72023D01*
X17435D01*
Y71911D01*
X17547D01*
Y71799D01*
X17659D01*
Y71575D01*
X17771D01*
Y71463D01*
X17883D01*
Y71239D01*
X17323D01*
Y71351D01*
X17211D01*
Y71575D01*
X17099D01*
Y71687D01*
X16987D01*
Y71799D01*
X16875D01*
Y71911D01*
X16763D01*
Y72023D01*
X16651D01*
Y72135D01*
X16539D01*
Y72247D01*
X16427D01*
Y72359D01*
X15979D01*
Y72582D01*
X15867D01*
Y72694D01*
X15755D01*
Y73366D01*
X15867D01*
Y73478D01*
X15979D01*
Y73590D01*
X16091D01*
Y73702D01*
X16315D01*
Y73814D01*
X16987D01*
Y73702D01*
X17323D01*
Y73590D01*
X17547D01*
Y73478D01*
X17771D01*
Y73366D01*
X17995D01*
Y73478D01*
X17883D01*
Y73590D01*
X17771D01*
Y73702D01*
X17659D01*
Y73926D01*
X17547D01*
Y74038D01*
X17435D01*
Y74150D01*
X17659D01*
Y74262D01*
X17995D01*
Y74150D01*
D02*
G37*
G36*
X13852Y71799D02*
X14076D01*
Y71687D01*
X14300D01*
Y71575D01*
X14412D01*
Y71463D01*
X14524D01*
Y71239D01*
X14636D01*
Y71015D01*
X14748D01*
Y70903D01*
X14860D01*
Y70679D01*
X14972D01*
Y70567D01*
X15084D01*
Y70343D01*
X15196D01*
Y70231D01*
X15308D01*
Y70007D01*
X15419D01*
Y69784D01*
X15531D01*
Y69560D01*
X15643D01*
Y69336D01*
X15755D01*
Y69112D01*
X15867D01*
Y69000D01*
X15979D01*
Y68888D01*
X16091D01*
Y69000D01*
X16203D01*
Y69224D01*
X16315D01*
Y69448D01*
X16427D01*
Y69784D01*
X16539D01*
Y70007D01*
X16651D01*
Y70231D01*
X16763D01*
Y70455D01*
X16875D01*
Y70679D01*
X16987D01*
Y70791D01*
X17099D01*
Y70903D01*
X17771D01*
Y70791D01*
X17995D01*
Y70567D01*
X18106D01*
Y70455D01*
X18218D01*
Y70231D01*
X18330D01*
Y70007D01*
X18442D01*
Y69784D01*
X18554D01*
Y69448D01*
X18666D01*
Y69112D01*
X18778D01*
Y68664D01*
X18890D01*
Y68216D01*
X19002D01*
Y67880D01*
X19114D01*
Y67768D01*
X19338D01*
Y67320D01*
X19114D01*
Y66761D01*
X18778D01*
Y66873D01*
X18666D01*
Y67097D01*
X18554D01*
Y67208D01*
X18442D01*
Y67320D01*
X18330D01*
Y67432D01*
X17883D01*
Y67544D01*
X17323D01*
Y67656D01*
X16987D01*
Y67768D01*
X16539D01*
Y67656D01*
X16427D01*
Y67432D01*
X15979D01*
Y67656D01*
X15867D01*
Y67880D01*
X15755D01*
Y67992D01*
X15419D01*
Y68104D01*
X15084D01*
Y68216D01*
X14748D01*
Y68328D01*
X14300D01*
Y68440D01*
X14076D01*
Y68552D01*
X13964D01*
Y68664D01*
X13852D01*
Y68776D01*
X13740D01*
Y68888D01*
X13516D01*
Y68776D01*
X13628D01*
Y68328D01*
X13740D01*
Y67768D01*
X13516D01*
Y67880D01*
X13292D01*
Y68104D01*
X13068D01*
Y68440D01*
X12957D01*
Y68776D01*
X12844D01*
Y69224D01*
X12732D01*
Y70343D01*
X12621D01*
Y70567D01*
X12732D01*
Y71351D01*
X12844D01*
Y71463D01*
X12957D01*
Y71799D01*
X13068D01*
Y71911D01*
X13852D01*
Y71799D01*
D02*
G37*
%LPC*%
G36*
X24040Y89152D02*
X23816D01*
Y89040D01*
X23928D01*
Y88928D01*
X24040D01*
Y89152D01*
D02*
G37*
G36*
X14076Y70903D02*
X13740D01*
Y70679D01*
X13628D01*
Y70343D01*
X13516D01*
Y69671D01*
X13628D01*
Y69560D01*
X13740D01*
Y69448D01*
X14076D01*
Y69336D01*
X14524D01*
Y69224D01*
X14636D01*
Y69112D01*
X14972D01*
Y69000D01*
X15308D01*
Y69224D01*
X15196D01*
Y69336D01*
X15084D01*
Y69560D01*
X14972D01*
Y69784D01*
X14860D01*
Y70007D01*
X14748D01*
Y70119D01*
X14636D01*
Y70343D01*
X14524D01*
Y70455D01*
X14412D01*
Y70567D01*
X14300D01*
Y70679D01*
X14188D01*
Y70791D01*
X14076D01*
Y70903D01*
D02*
G37*
G36*
X17547Y70007D02*
X17435D01*
Y69895D01*
X17323D01*
Y69784D01*
X17211D01*
Y69560D01*
X17099D01*
Y69336D01*
X16987D01*
Y69000D01*
X16875D01*
Y68776D01*
X16763D01*
Y68552D01*
X16875D01*
Y68440D01*
X17211D01*
Y68328D01*
X17547D01*
Y68216D01*
X17995D01*
Y68104D01*
X18330D01*
Y68216D01*
X18218D01*
Y68664D01*
X18106D01*
Y68888D01*
X17995D01*
Y69224D01*
X17883D01*
Y69448D01*
X17771D01*
Y69671D01*
X17659D01*
Y69895D01*
X17547D01*
Y70007D01*
D02*
G37*
%LPD*%
D10*
X10638Y105567D02*
X7439D01*
Y107166D01*
X7972Y107700D01*
X9038D01*
X9571Y107166D01*
Y105567D01*
Y106633D02*
X10638Y107700D01*
X7439Y110899D02*
Y108766D01*
X10638D01*
Y110899D01*
X9038Y108766D02*
Y109832D01*
X7439Y111965D02*
X9571D01*
X10638Y113031D01*
X9571Y114097D01*
X7439D01*
X10638Y118363D02*
Y119429D01*
Y118896D01*
X7439D01*
X7972Y118363D01*
X10638Y121029D02*
X10104D01*
Y121562D01*
X10638D01*
Y121029D01*
X7972Y123694D02*
X7439Y124228D01*
Y125294D01*
X7972Y125827D01*
X10104D01*
X10638Y125294D01*
Y124228D01*
X10104Y123694D01*
X7972D01*
X10638Y126893D02*
X10104D01*
Y127427D01*
X10638D01*
Y126893D01*
Y129559D02*
Y130625D01*
Y130092D01*
X7439D01*
X7972Y129559D01*
D15*
X55492Y84793D02*
D03*
X60492D02*
D03*
X65492D02*
D03*
X70492D02*
D03*
X79508Y62845D02*
D03*
X84508D02*
D03*
X89508D02*
D03*
X94508D02*
D03*
X106280D02*
D03*
X111279D02*
D03*
X116279D02*
D03*
X121280D02*
D03*
X144902Y84400D02*
D03*
X139902D02*
D03*
X134902D02*
D03*
X129902D02*
D03*
D16*
X70492Y63238D02*
D03*
X65492D02*
D03*
X60492D02*
D03*
X55492D02*
D03*
X94508Y84400D02*
D03*
X89508D02*
D03*
X84508D02*
D03*
X79508D02*
D03*
X121280D02*
D03*
X116279D02*
D03*
X111279D02*
D03*
X106280D02*
D03*
X129902Y62845D02*
D03*
X134902D02*
D03*
X139902D02*
D03*
X144902D02*
D03*
D17*
X47441Y78740D02*
D03*
X41535D02*
D03*
X152953Y81102D02*
D03*
X158858D02*
D03*
D18*
X47559Y73228D02*
D03*
X41417D02*
D03*
X153228Y75590D02*
D03*
X159370D02*
D03*
D19*
X58667Y157874D02*
D03*
X70467D02*
D03*
X101187Y171260D02*
D03*
X112987D02*
D03*
X91333Y171260D02*
D03*
X79533D02*
D03*
X91333Y157874D02*
D03*
X79533D02*
D03*
X101187D02*
D03*
X112987D02*
D03*
X133459D02*
D03*
X121659D02*
D03*
D20*
X126772Y141732D02*
D03*
Y96063D02*
D03*
X75590D02*
D03*
Y141732D02*
D03*
D21*
X137992Y44094D02*
D03*
X126575D02*
D03*
X57284Y44488D02*
D03*
X68701D02*
D03*
D22*
X116736Y51181D02*
D03*
X103736D02*
D03*
X116736Y36614D02*
D03*
X103736D02*
D03*
X78933D02*
D03*
X91933D02*
D03*
X78933Y51575D02*
D03*
X91933D02*
D03*
D23*
X62992Y75935D02*
D03*
X87008Y71702D02*
D03*
X113779Y71703D02*
D03*
X137402Y75541D02*
D03*
D34*
X110394Y114212D02*
X114567Y110039D01*
X110394Y114212D02*
Y132047D01*
X105315Y132874D02*
X108661Y136221D01*
X97835Y132874D02*
X105315D01*
D35*
X47559Y70472D02*
Y73228D01*
X41417Y78622D02*
X41535Y78740D01*
X41417Y73228D02*
Y78622D01*
X47441Y78740D02*
X52756D01*
X158858Y76102D02*
X159370Y75590D01*
X158858Y76102D02*
Y81102D01*
X149213D02*
X152953D01*
D36*
X55512Y83177D02*
D03*
X60492Y83177D02*
D03*
X65492D02*
D03*
X70473Y83177D02*
D03*
X79527Y64461D02*
D03*
X84508Y64461D02*
D03*
X89508D02*
D03*
X94488Y64461D02*
D03*
X106299D02*
D03*
X111279D02*
D03*
X116279D02*
D03*
X121260D02*
D03*
X144882Y82783D02*
D03*
X139901Y82784D02*
D03*
X134901D02*
D03*
X129921Y82783D02*
D03*
D37*
X121260Y27165D02*
D03*
X74016Y26772D02*
D03*
X142126Y90551D02*
D03*
X59449D02*
D03*
X100394Y61024D02*
D03*
X124803Y12598D02*
D03*
X90945Y11811D02*
D03*
D38*
X11417Y148031D02*
D03*
X39764D02*
D03*
X11417Y185039D02*
D03*
X39764D02*
D03*
X185039Y156299D02*
D03*
Y184646D02*
D03*
X148031Y156299D02*
D03*
Y184646D02*
D03*
X156693Y12205D02*
D03*
X185039D02*
D03*
X156693Y49213D02*
D03*
X185039D02*
D03*
X40551Y50787D02*
D03*
X12205D02*
D03*
X40551Y13780D02*
D03*
X12205D02*
D03*
D39*
X121260Y114961D02*
D03*
X123622Y116929D02*
D03*
X124803Y114173D02*
D03*
X79528Y114567D02*
D03*
X114567Y110039D02*
D03*
X120472Y117717D02*
D03*
X85039D02*
D03*
X105905Y89764D02*
D03*
X122047Y142913D02*
D03*
X125591Y140945D02*
D03*
Y136614D02*
D03*
X129134Y134646D02*
D03*
X134252D02*
D03*
X71260Y146063D02*
D03*
X56693D02*
D03*
X61417D02*
D03*
X66142D02*
D03*
X71260Y142126D02*
D03*
X56693D02*
D03*
X61417D02*
D03*
X66142D02*
D03*
X71260Y138189D02*
D03*
X56693D02*
D03*
X61417D02*
D03*
X66142D02*
D03*
Y134252D02*
D03*
X61417D02*
D03*
X56693D02*
D03*
X71260D02*
D03*
X100984Y87008D02*
D03*
X47559Y70472D02*
D03*
X129921Y62598D02*
D03*
Y65354D02*
D03*
X138189D02*
D03*
X135433D02*
D03*
X132677D02*
D03*
X138189Y62598D02*
D03*
X135433D02*
D03*
X132677D02*
D03*
X65748Y65748D02*
D03*
Y62992D02*
D03*
Y60236D02*
D03*
X62992Y62992D02*
D03*
Y65748D02*
D03*
X60236Y62992D02*
D03*
X57480D02*
D03*
X54724D02*
D03*
X60236Y65748D02*
D03*
X57480D02*
D03*
X54724D02*
D03*
X127165Y59842D02*
D03*
Y62598D02*
D03*
Y65354D02*
D03*
X73228Y44094D02*
D03*
Y40157D02*
D03*
Y48031D02*
D03*
X76772Y44094D02*
D03*
X70472Y62992D02*
D03*
X70472Y81890D02*
D03*
Y74016D02*
D03*
Y77953D02*
D03*
X61024Y81890D02*
D03*
X65748Y74016D02*
D03*
X61024D02*
D03*
X65748Y77953D02*
D03*
X61024D02*
D03*
Y70079D02*
D03*
X55905Y81890D02*
D03*
X65748D02*
D03*
X55905Y70079D02*
D03*
Y77953D02*
D03*
Y74016D02*
D03*
X70472Y70079D02*
D03*
X65748D02*
D03*
X135433Y155512D02*
D03*
Y160236D02*
D03*
X131496D02*
D03*
Y155512D02*
D03*
X60630Y167717D02*
D03*
Y162992D02*
D03*
Y158268D02*
D03*
Y172835D02*
D03*
X56693Y167717D02*
D03*
Y162992D02*
D03*
Y158268D02*
D03*
Y172835D02*
D03*
X90551Y172047D02*
D03*
Y157480D02*
D03*
Y162205D02*
D03*
Y166929D02*
D03*
X94488Y172047D02*
D03*
Y157480D02*
D03*
Y162205D02*
D03*
Y166929D02*
D03*
X98425Y172047D02*
D03*
Y157480D02*
D03*
Y162205D02*
D03*
Y166929D02*
D03*
X102362D02*
D03*
Y162205D02*
D03*
Y157480D02*
D03*
Y172047D02*
D03*
X80709D02*
D03*
Y157480D02*
D03*
Y162205D02*
D03*
Y166929D02*
D03*
X76772D02*
D03*
Y162205D02*
D03*
Y157480D02*
D03*
Y172047D02*
D03*
X72835Y166929D02*
D03*
Y162205D02*
D03*
Y157480D02*
D03*
Y172047D02*
D03*
X68898Y166929D02*
D03*
Y162205D02*
D03*
Y157480D02*
D03*
Y172047D02*
D03*
X123228Y172441D02*
D03*
Y157874D02*
D03*
Y162598D02*
D03*
Y167323D02*
D03*
X119291D02*
D03*
Y162598D02*
D03*
Y157874D02*
D03*
Y172441D02*
D03*
X115354Y167323D02*
D03*
Y162598D02*
D03*
Y157874D02*
D03*
Y172441D02*
D03*
X111417Y167323D02*
D03*
Y162598D02*
D03*
Y157874D02*
D03*
Y172441D02*
D03*
X134252Y138583D02*
D03*
X129134D02*
D03*
Y142520D02*
D03*
X134252D02*
D03*
X129134Y146457D02*
D03*
X124409D02*
D03*
X119685D02*
D03*
X134252D02*
D03*
X129134Y150394D02*
D03*
X124409D02*
D03*
X119685D02*
D03*
X134252D02*
D03*
X71260Y91732D02*
D03*
X66142D02*
D03*
Y95669D02*
D03*
X61417D02*
D03*
X56693D02*
D03*
X71260D02*
D03*
X66142Y99606D02*
D03*
X61417D02*
D03*
X56693D02*
D03*
X71260D02*
D03*
X66142Y103543D02*
D03*
X61417D02*
D03*
X56693D02*
D03*
X71260D02*
D03*
X129921Y92126D02*
D03*
X134646D02*
D03*
X139370Y96063D02*
D03*
X134646D02*
D03*
X129921D02*
D03*
X144488D02*
D03*
X139370Y100000D02*
D03*
X134646D02*
D03*
X129921D02*
D03*
X144488D02*
D03*
X139370Y103937D02*
D03*
X134646D02*
D03*
X129921D02*
D03*
X144488D02*
D03*
X138976Y32283D02*
D03*
Y36220D02*
D03*
Y40157D02*
D03*
Y44094D02*
D03*
Y48031D02*
D03*
Y55905D02*
D03*
Y51968D02*
D03*
X142520Y40157D02*
D03*
Y36220D02*
D03*
Y32283D02*
D03*
Y44094D02*
D03*
Y48031D02*
D03*
Y51968D02*
D03*
Y55905D02*
D03*
X135433Y32677D02*
D03*
Y36614D02*
D03*
Y40551D02*
D03*
Y44488D02*
D03*
Y52362D02*
D03*
Y48425D02*
D03*
X59842Y32283D02*
D03*
Y36220D02*
D03*
Y40157D02*
D03*
Y44094D02*
D03*
Y51968D02*
D03*
Y48031D02*
D03*
X52756Y55905D02*
D03*
Y51968D02*
D03*
Y48031D02*
D03*
Y44094D02*
D03*
Y32283D02*
D03*
Y36220D02*
D03*
Y40157D02*
D03*
X56299Y51968D02*
D03*
Y55905D02*
D03*
Y48031D02*
D03*
Y44094D02*
D03*
Y40157D02*
D03*
Y36220D02*
D03*
Y32283D02*
D03*
X66535Y48031D02*
D03*
Y51968D02*
D03*
Y44094D02*
D03*
Y40157D02*
D03*
Y36220D02*
D03*
Y32283D02*
D03*
X69685Y48031D02*
D03*
Y51968D02*
D03*
Y44094D02*
D03*
Y40157D02*
D03*
Y36220D02*
D03*
Y32283D02*
D03*
X73228Y51968D02*
D03*
Y36220D02*
D03*
Y32283D02*
D03*
X76772Y48031D02*
D03*
Y51968D02*
D03*
Y40157D02*
D03*
Y36220D02*
D03*
Y32283D02*
D03*
X79921Y48031D02*
D03*
Y51968D02*
D03*
Y44094D02*
D03*
Y40157D02*
D03*
Y36220D02*
D03*
Y32283D02*
D03*
X83071Y48031D02*
D03*
Y51968D02*
D03*
Y44094D02*
D03*
Y40157D02*
D03*
Y36220D02*
D03*
Y32283D02*
D03*
Y55905D02*
D03*
X79921D02*
D03*
X76772D02*
D03*
X73228D02*
D03*
X69685D02*
D03*
X129134Y48031D02*
D03*
Y51968D02*
D03*
Y44094D02*
D03*
Y40157D02*
D03*
Y36220D02*
D03*
Y32283D02*
D03*
X125984Y48031D02*
D03*
Y51968D02*
D03*
Y44094D02*
D03*
Y40157D02*
D03*
Y36220D02*
D03*
Y32283D02*
D03*
X122441Y48031D02*
D03*
Y51968D02*
D03*
Y44094D02*
D03*
Y40157D02*
D03*
Y36220D02*
D03*
Y32283D02*
D03*
X118898Y48031D02*
D03*
Y51968D02*
D03*
Y44094D02*
D03*
Y40157D02*
D03*
Y36220D02*
D03*
Y32283D02*
D03*
X115748Y48031D02*
D03*
Y51968D02*
D03*
Y44094D02*
D03*
Y40157D02*
D03*
Y36220D02*
D03*
Y32283D02*
D03*
X112598Y48031D02*
D03*
Y51968D02*
D03*
Y44094D02*
D03*
Y40157D02*
D03*
Y36220D02*
D03*
Y32283D02*
D03*
Y55905D02*
D03*
X115748D02*
D03*
X118898D02*
D03*
X122441D02*
D03*
X125984D02*
D03*
X100787Y56299D02*
D03*
Y32677D02*
D03*
Y36614D02*
D03*
Y40551D02*
D03*
Y44488D02*
D03*
Y52362D02*
D03*
Y48425D02*
D03*
X104331Y56299D02*
D03*
Y32677D02*
D03*
Y36614D02*
D03*
Y40551D02*
D03*
Y44488D02*
D03*
Y52362D02*
D03*
Y48425D02*
D03*
X107874Y56299D02*
D03*
Y32677D02*
D03*
Y36614D02*
D03*
Y40551D02*
D03*
Y44488D02*
D03*
Y52362D02*
D03*
Y48425D02*
D03*
X94488D02*
D03*
Y52362D02*
D03*
Y44488D02*
D03*
Y40551D02*
D03*
Y36614D02*
D03*
Y32677D02*
D03*
Y56299D02*
D03*
X90945Y48425D02*
D03*
Y52362D02*
D03*
Y44488D02*
D03*
Y40551D02*
D03*
Y36614D02*
D03*
Y32677D02*
D03*
Y56299D02*
D03*
X87402Y48425D02*
D03*
Y52362D02*
D03*
Y44488D02*
D03*
Y40551D02*
D03*
Y36614D02*
D03*
Y32677D02*
D03*
Y56299D02*
D03*
X85827Y140157D02*
D03*
X110394Y132047D02*
D03*
X130709Y128740D02*
D03*
X108661Y136221D02*
D03*
X75590Y127953D02*
D03*
X82284Y117717D02*
D03*
Y114567D02*
D03*
X88583Y116142D02*
D03*
X116929D02*
D03*
X97835Y132874D02*
D03*
X104331Y120866D02*
D03*
X101181D02*
D03*
X107480D02*
D03*
X98032D02*
D03*
X104331Y117717D02*
D03*
X101181D02*
D03*
X107480D02*
D03*
X98032D02*
D03*
Y114567D02*
D03*
X107480D02*
D03*
X101181D02*
D03*
X104331D02*
D03*
Y124016D02*
D03*
X101181D02*
D03*
X107480D02*
D03*
X98032D02*
D03*
X59842Y56299D02*
D03*
X66142D02*
D03*
X135433Y55905D02*
D03*
X129134D02*
D03*
X130315Y70079D02*
D03*
X144882D02*
D03*
X140157D02*
D03*
X135433D02*
D03*
X130315Y74016D02*
D03*
X144882D02*
D03*
X140157D02*
D03*
X135433D02*
D03*
X130315Y77953D02*
D03*
X144882D02*
D03*
X140157D02*
D03*
X135433D02*
D03*
Y81890D02*
D03*
X140157D02*
D03*
X144882D02*
D03*
X130315D02*
D03*
X86614Y85039D02*
D03*
X91339D02*
D03*
X96063D02*
D03*
X86614Y81890D02*
D03*
X91339D02*
D03*
X96063D02*
D03*
X113779Y85039D02*
D03*
X118504D02*
D03*
X123228D02*
D03*
X113779Y81890D02*
D03*
X118504D02*
D03*
X123228D02*
D03*
X144488Y62992D02*
D03*
X96063Y92795D02*
D03*
X109449Y93307D02*
D03*
X79527Y84252D02*
D03*
X112205Y107874D02*
D03*
X106299Y84252D02*
D03*
X93307Y108268D02*
D03*
X79527Y77559D02*
D03*
X94095D02*
D03*
X89370D02*
D03*
X84646D02*
D03*
Y73622D02*
D03*
X89370D02*
D03*
X94095D02*
D03*
X79527D02*
D03*
X84646Y69685D02*
D03*
X89370D02*
D03*
X94095D02*
D03*
X79527D02*
D03*
X84646Y65748D02*
D03*
X89370D02*
D03*
X94095D02*
D03*
X79527D02*
D03*
X106299Y77559D02*
D03*
X120866D02*
D03*
X116142D02*
D03*
X111417D02*
D03*
Y73622D02*
D03*
X116142D02*
D03*
X120866D02*
D03*
X106299D02*
D03*
X111417Y69685D02*
D03*
X116142D02*
D03*
X120866D02*
D03*
X106299D02*
D03*
X111417Y65748D02*
D03*
X116142D02*
D03*
X120866D02*
D03*
X106299D02*
D03*
M02*
