G04*
G04 #@! TF.GenerationSoftware,Altium Limited,Altium Designer,19.0.6 (157)*
G04*
G04 Layer_Color=5220458*
%FSLAX25Y25*%
%MOIN*%
G70*
G01*
G75*
%ADD24R,0.05599X0.28771*%
%ADD28R,0.03625X0.03861*%
%ADD32C,0.06307*%
%ADD33C,0.19885*%
%ADD49C,0.06499*%
G04:AMPARAMS|DCode=50|XSize=22mil|YSize=24mil|CornerRadius=4.5mil|HoleSize=0mil|Usage=FLASHONLY|Rotation=180.000|XOffset=0mil|YOffset=0mil|HoleType=Round|Shape=RoundedRectangle|*
%AMROUNDEDRECTD50*
21,1,0.02200,0.01500,0,0,180.0*
21,1,0.01300,0.02400,0,0,180.0*
1,1,0.00900,-0.00650,0.00750*
1,1,0.00900,0.00650,0.00750*
1,1,0.00900,0.00650,-0.00750*
1,1,0.00900,-0.00650,-0.00750*
%
%ADD50ROUNDEDRECTD50*%
G04:AMPARAMS|DCode=51|XSize=29.56mil|YSize=21.69mil|CornerRadius=2.48mil|HoleSize=0mil|Usage=FLASHONLY|Rotation=0.000|XOffset=0mil|YOffset=0mil|HoleType=Round|Shape=RoundedRectangle|*
%AMROUNDEDRECTD51*
21,1,0.02956,0.01673,0,0,0.0*
21,1,0.02461,0.02169,0,0,0.0*
1,1,0.00495,0.01230,-0.00837*
1,1,0.00495,-0.01230,-0.00837*
1,1,0.00495,-0.01230,0.00837*
1,1,0.00495,0.01230,0.00837*
%
%ADD51ROUNDEDRECTD51*%
%ADD52R,0.03861X0.03625*%
G04:AMPARAMS|DCode=53|XSize=22mil|YSize=24mil|CornerRadius=4.5mil|HoleSize=0mil|Usage=FLASHONLY|Rotation=270.000|XOffset=0mil|YOffset=0mil|HoleType=Round|Shape=RoundedRectangle|*
%AMROUNDEDRECTD53*
21,1,0.02200,0.01500,0,0,270.0*
21,1,0.01300,0.02400,0,0,270.0*
1,1,0.00900,-0.00750,-0.00650*
1,1,0.00900,-0.00750,0.00650*
1,1,0.00900,0.00750,0.00650*
1,1,0.00900,0.00750,-0.00650*
%
%ADD53ROUNDEDRECTD53*%
%ADD54R,0.03350X0.03350*%
G04:AMPARAMS|DCode=55|XSize=11.65mil|YSize=35.47mil|CornerRadius=3.41mil|HoleSize=0mil|Usage=FLASHONLY|Rotation=90.000|XOffset=0mil|YOffset=0mil|HoleType=Round|Shape=RoundedRectangle|*
%AMROUNDEDRECTD55*
21,1,0.01165,0.02864,0,0,90.0*
21,1,0.00482,0.03547,0,0,90.0*
1,1,0.00682,0.01432,0.00241*
1,1,0.00682,0.01432,-0.00241*
1,1,0.00682,-0.01432,-0.00241*
1,1,0.00682,-0.01432,0.00241*
%
%ADD55ROUNDEDRECTD55*%
G04:AMPARAMS|DCode=56|XSize=11.65mil|YSize=35.47mil|CornerRadius=3.41mil|HoleSize=0mil|Usage=FLASHONLY|Rotation=180.000|XOffset=0mil|YOffset=0mil|HoleType=Round|Shape=RoundedRectangle|*
%AMROUNDEDRECTD56*
21,1,0.01165,0.02864,0,0,180.0*
21,1,0.00482,0.03547,0,0,180.0*
1,1,0.00682,-0.00241,0.01432*
1,1,0.00682,0.00241,0.01432*
1,1,0.00682,0.00241,-0.01432*
1,1,0.00682,-0.00241,-0.01432*
%
%ADD56ROUNDEDRECTD56*%
G04:AMPARAMS|DCode=57|XSize=124.05mil|YSize=124.05mil|CornerRadius=7.1mil|HoleSize=0mil|Usage=FLASHONLY|Rotation=0.000|XOffset=0mil|YOffset=0mil|HoleType=Round|Shape=RoundedRectangle|*
%AMROUNDEDRECTD57*
21,1,0.12405,0.10984,0,0,0.0*
21,1,0.10984,0.12405,0,0,0.0*
1,1,0.01421,0.05492,-0.05492*
1,1,0.01421,-0.05492,-0.05492*
1,1,0.01421,-0.05492,0.05492*
1,1,0.01421,0.05492,0.05492*
%
%ADD57ROUNDEDRECTD57*%
G36*
X32414Y132178D02*
X32638D01*
Y131730D01*
X32414D01*
Y131618D01*
X32302D01*
Y131282D01*
X32190D01*
Y130834D01*
X32078D01*
Y130386D01*
X31966D01*
Y130050D01*
X31854D01*
Y129715D01*
X31742D01*
Y129491D01*
X31630D01*
Y129267D01*
X31518D01*
Y129043D01*
X31406D01*
Y128931D01*
X31294D01*
Y128707D01*
X31070D01*
Y128595D01*
X30399D01*
Y128707D01*
X30287D01*
Y128819D01*
X30175D01*
Y129043D01*
X30063D01*
Y129267D01*
X29951D01*
Y129491D01*
X29839D01*
Y129715D01*
X29727D01*
Y130050D01*
X29615D01*
Y130274D01*
X29503D01*
Y130498D01*
X29391D01*
Y130610D01*
X29279D01*
Y130498D01*
X29167D01*
Y130386D01*
X29055D01*
Y130162D01*
X28943D01*
Y129938D01*
X28831D01*
Y129715D01*
X28719D01*
Y129491D01*
X28607D01*
Y129267D01*
X28495D01*
Y129155D01*
X28383D01*
Y128931D01*
X28271D01*
Y128819D01*
X28159D01*
Y128595D01*
X28047D01*
Y128483D01*
X27936D01*
Y128259D01*
X27824D01*
Y128035D01*
X27712D01*
Y127923D01*
X27600D01*
Y127811D01*
X27376D01*
Y127699D01*
X27152D01*
Y127587D01*
X26368D01*
Y127699D01*
X26256D01*
Y128035D01*
X26144D01*
Y128147D01*
X26032D01*
Y128931D01*
X25920D01*
Y129155D01*
X26032D01*
Y130274D01*
X26144D01*
Y130722D01*
X26256D01*
Y131058D01*
X26368D01*
Y131394D01*
X26592D01*
Y131618D01*
X26816D01*
Y131730D01*
X27040D01*
Y131170D01*
X26928D01*
Y130722D01*
X26816D01*
Y130610D01*
X27040D01*
Y130722D01*
X27152D01*
Y130834D01*
X27264D01*
Y130946D01*
X27376D01*
Y131058D01*
X27600D01*
Y131170D01*
X28047D01*
Y131282D01*
X28383D01*
Y131394D01*
X28719D01*
Y131506D01*
X29055D01*
Y131618D01*
X29167D01*
Y131842D01*
X29279D01*
Y132066D01*
X29727D01*
Y131842D01*
X29839D01*
Y131730D01*
X30287D01*
Y131842D01*
X30623D01*
Y131954D01*
X31182D01*
Y132066D01*
X31630D01*
Y132178D01*
X31742D01*
Y132290D01*
X31854D01*
Y132402D01*
X31966D01*
Y132625D01*
X32078D01*
Y132737D01*
X32414D01*
Y132178D01*
D02*
G37*
G36*
X31182Y128035D02*
X31070D01*
Y127923D01*
X30958D01*
Y127699D01*
X30847D01*
Y127587D01*
X30735D01*
Y127475D01*
X30623D01*
Y127363D01*
X30511D01*
Y127252D01*
X30399D01*
Y127139D01*
X30287D01*
Y127027D01*
X30175D01*
Y126804D01*
X30063D01*
Y126580D01*
X30175D01*
Y126468D01*
X30399D01*
Y126580D01*
X30847D01*
Y126692D01*
X31070D01*
Y126804D01*
X31294D01*
Y126916D01*
X31518D01*
Y127027D01*
X31630D01*
Y127139D01*
X32078D01*
Y127027D01*
X32190D01*
Y126692D01*
X32078D01*
Y126468D01*
X31966D01*
Y126244D01*
X31854D01*
Y126132D01*
X31742D01*
Y125908D01*
X31630D01*
Y125684D01*
X31518D01*
Y125572D01*
X31406D01*
Y125348D01*
X31294D01*
Y125236D01*
X30958D01*
Y125348D01*
X30735D01*
Y125460D01*
X30847D01*
Y125572D01*
X30958D01*
Y125796D01*
X31070D01*
Y125908D01*
X31182D01*
Y126020D01*
X31294D01*
Y126132D01*
X31070D01*
Y126020D01*
X30847D01*
Y125908D01*
X30623D01*
Y125796D01*
X30287D01*
Y125684D01*
X29615D01*
Y125796D01*
X29391D01*
Y125908D01*
X29279D01*
Y126020D01*
X29167D01*
Y126132D01*
X29055D01*
Y126804D01*
X29167D01*
Y126916D01*
X29279D01*
Y127139D01*
X29727D01*
Y127252D01*
X29839D01*
Y127363D01*
X29951D01*
Y127475D01*
X30063D01*
Y127587D01*
X30175D01*
Y127699D01*
X30287D01*
Y127811D01*
X30399D01*
Y127923D01*
X30511D01*
Y128147D01*
X30623D01*
Y128259D01*
X31182D01*
Y128035D01*
D02*
G37*
G36*
Y125012D02*
X31294D01*
Y124900D01*
X31182D01*
Y124788D01*
X31070D01*
Y124676D01*
X30958D01*
Y124452D01*
X31070D01*
Y124340D01*
X31294D01*
Y124229D01*
X31742D01*
Y124117D01*
X31854D01*
Y123333D01*
X31742D01*
Y123109D01*
X31630D01*
Y122997D01*
X31518D01*
Y122773D01*
X31406D01*
Y122661D01*
X31294D01*
Y122437D01*
X31182D01*
Y122549D01*
X30847D01*
Y122773D01*
X30958D01*
Y122997D01*
X31070D01*
Y123221D01*
X31182D01*
Y123333D01*
X31070D01*
Y123445D01*
X29951D01*
Y123557D01*
X29839D01*
Y123669D01*
X29727D01*
Y124005D01*
X29839D01*
Y124117D01*
X29951D01*
Y124229D01*
X30063D01*
Y124340D01*
X30175D01*
Y124565D01*
X30287D01*
Y124676D01*
X30399D01*
Y124788D01*
X30511D01*
Y124900D01*
X30623D01*
Y125012D01*
X30735D01*
Y125124D01*
X31182D01*
Y125012D01*
D02*
G37*
G36*
X28495Y123669D02*
X28607D01*
Y123221D01*
X28495D01*
Y122997D01*
X28383D01*
Y122885D01*
X28271D01*
Y122773D01*
X28047D01*
Y122661D01*
X27824D01*
Y122549D01*
X27600D01*
Y122437D01*
X27376D01*
Y122997D01*
X27488D01*
Y123221D01*
X27600D01*
Y123333D01*
X27712D01*
Y123445D01*
X27824D01*
Y123557D01*
X27936D01*
Y123669D01*
X28047D01*
Y123781D01*
X28495D01*
Y123669D01*
D02*
G37*
G36*
X39915Y123445D02*
X40027D01*
Y122773D01*
X39915D01*
Y122549D01*
X39803D01*
Y122325D01*
X39691D01*
Y122101D01*
X39579D01*
Y121878D01*
X39467D01*
Y121765D01*
X39355D01*
Y121542D01*
X39243D01*
Y121430D01*
X39131D01*
Y121318D01*
X39019D01*
Y120758D01*
X38908D01*
Y120422D01*
X38460D01*
Y120646D01*
X37564D01*
Y120758D01*
X37340D01*
Y120870D01*
X37116D01*
Y120982D01*
X37004D01*
Y121094D01*
X36780D01*
Y121206D01*
X36668D01*
Y121318D01*
X36556D01*
Y121430D01*
X36332D01*
Y121542D01*
X36220D01*
Y121653D01*
X35885D01*
Y121765D01*
X35213D01*
Y121653D01*
X35101D01*
Y121542D01*
X34989D01*
Y121430D01*
X34877D01*
Y121318D01*
X34765D01*
Y121206D01*
X34989D01*
Y120758D01*
X34877D01*
Y120534D01*
X34765D01*
Y120310D01*
X34653D01*
Y120198D01*
X34541D01*
Y119974D01*
X34429D01*
Y119862D01*
X34317D01*
Y119638D01*
X34205D01*
Y119526D01*
X33869D01*
Y119414D01*
X33421D01*
Y119638D01*
X33310D01*
Y119862D01*
X33421D01*
Y120198D01*
X33533D01*
Y120422D01*
X33645D01*
Y120758D01*
X33757D01*
Y120870D01*
X33869D01*
Y121094D01*
X33981D01*
Y121318D01*
X34093D01*
Y121542D01*
X34205D01*
Y121653D01*
X34317D01*
Y121765D01*
X34429D01*
Y121989D01*
X34541D01*
Y122101D01*
X34653D01*
Y122213D01*
X34765D01*
Y122325D01*
X34877D01*
Y122437D01*
X35101D01*
Y122549D01*
X35213D01*
Y122661D01*
X35437D01*
Y122773D01*
X36444D01*
Y122661D01*
X36556D01*
Y122549D01*
X36780D01*
Y122437D01*
X37004D01*
Y122325D01*
X37116D01*
Y122213D01*
X37228D01*
Y122101D01*
X37340D01*
Y121989D01*
X37452D01*
Y121878D01*
X37676D01*
Y121765D01*
X37788D01*
Y121653D01*
X38012D01*
Y121542D01*
X38460D01*
Y121653D01*
X38572D01*
Y121765D01*
X38796D01*
Y121878D01*
X38684D01*
Y122213D01*
X38796D01*
Y122437D01*
X38908D01*
Y122661D01*
X39019D01*
Y122997D01*
X39131D01*
Y123221D01*
X39243D01*
Y123445D01*
X39355D01*
Y123557D01*
X39467D01*
Y123669D01*
X39915D01*
Y123445D01*
D02*
G37*
G36*
X31966Y122549D02*
X32190D01*
Y121989D01*
X32078D01*
Y121765D01*
X31966D01*
Y121542D01*
X31854D01*
Y121430D01*
X31742D01*
Y121206D01*
X31630D01*
Y121094D01*
X31518D01*
Y120982D01*
X31406D01*
Y120870D01*
X31294D01*
Y120646D01*
X31182D01*
Y120534D01*
X31070D01*
Y120422D01*
X31630D01*
Y120310D01*
X31742D01*
Y120198D01*
X31854D01*
Y119638D01*
X31742D01*
Y119414D01*
X31630D01*
Y119191D01*
X31518D01*
Y119079D01*
X31406D01*
Y118966D01*
X31294D01*
Y118855D01*
X30958D01*
Y118966D01*
X30847D01*
Y119191D01*
X30958D01*
Y119302D01*
X31070D01*
Y119526D01*
X30958D01*
Y119638D01*
X30623D01*
Y119526D01*
X30063D01*
Y120086D01*
X30175D01*
Y120198D01*
X30287D01*
Y120310D01*
X30399D01*
Y120534D01*
X30511D01*
Y120646D01*
X30623D01*
Y120870D01*
X30511D01*
Y120758D01*
X30399D01*
Y120646D01*
X30287D01*
Y120534D01*
X30175D01*
Y120310D01*
X30063D01*
Y120198D01*
X29951D01*
Y120086D01*
X29839D01*
Y119974D01*
X29727D01*
Y119862D01*
X29615D01*
Y119638D01*
X29503D01*
Y119526D01*
X29391D01*
Y119414D01*
X29279D01*
Y119302D01*
X29167D01*
Y119191D01*
X28831D01*
Y119750D01*
X28943D01*
Y119974D01*
X29055D01*
Y120198D01*
X29167D01*
Y120310D01*
X29279D01*
Y120534D01*
X29391D01*
Y120646D01*
X29503D01*
Y120758D01*
X29615D01*
Y120982D01*
X29727D01*
Y121094D01*
X29839D01*
Y121318D01*
X29951D01*
Y121430D01*
X30063D01*
Y121542D01*
X30175D01*
Y121653D01*
X30287D01*
Y121765D01*
X30399D01*
Y121989D01*
X30511D01*
Y122101D01*
X30623D01*
Y122325D01*
X31406D01*
Y122437D01*
X31518D01*
Y122549D01*
X31742D01*
Y122661D01*
X31966D01*
Y122549D01*
D02*
G37*
G36*
X38572Y120198D02*
X38908D01*
Y120086D01*
X38796D01*
Y119974D01*
X38684D01*
Y119862D01*
X38572D01*
Y119638D01*
X38684D01*
Y119750D01*
X39355D01*
Y119638D01*
X39579D01*
Y119526D01*
X39691D01*
Y119079D01*
X39579D01*
Y118855D01*
X39467D01*
Y118743D01*
X39355D01*
Y118519D01*
X39243D01*
Y118407D01*
X39131D01*
Y118295D01*
X39019D01*
Y118183D01*
X38908D01*
Y118071D01*
X38796D01*
Y117959D01*
X38684D01*
Y117735D01*
X39019D01*
Y117623D01*
X39131D01*
Y117399D01*
X39243D01*
Y117175D01*
X39131D01*
Y116839D01*
X39019D01*
Y116615D01*
X38908D01*
Y116503D01*
X38460D01*
Y116951D01*
X37452D01*
Y117511D01*
X37564D01*
Y117623D01*
X37788D01*
Y117735D01*
X37900D01*
Y117847D01*
X38012D01*
Y117959D01*
X38124D01*
Y118071D01*
X38236D01*
Y118183D01*
X38348D01*
Y118295D01*
X38460D01*
Y118407D01*
X38572D01*
Y118519D01*
X38684D01*
Y118631D01*
X38796D01*
Y118743D01*
X38908D01*
Y118855D01*
X38348D01*
Y118743D01*
X38012D01*
Y118631D01*
X37676D01*
Y118519D01*
X37452D01*
Y118407D01*
X37228D01*
Y118295D01*
X37004D01*
Y118183D01*
X36668D01*
Y118519D01*
X36780D01*
Y118743D01*
X36892D01*
Y118855D01*
X37004D01*
Y118966D01*
X37116D01*
Y119079D01*
X37228D01*
Y119191D01*
X37340D01*
Y119302D01*
X37452D01*
Y119414D01*
X37564D01*
Y119526D01*
X37676D01*
Y119638D01*
X37788D01*
Y119750D01*
X37900D01*
Y119862D01*
X38012D01*
Y119974D01*
X38124D01*
Y120086D01*
X38236D01*
Y120198D01*
X38348D01*
Y120310D01*
X38572D01*
Y120198D01*
D02*
G37*
G36*
X31182Y118519D02*
X31070D01*
Y118295D01*
X30958D01*
Y118183D01*
X30847D01*
Y118071D01*
X30735D01*
Y117959D01*
X30623D01*
Y117847D01*
X30511D01*
Y117623D01*
X30735D01*
Y117735D01*
X30958D01*
Y117847D01*
X31182D01*
Y117959D01*
X31406D01*
Y118071D01*
X31630D01*
Y118183D01*
X32302D01*
Y117847D01*
X32190D01*
Y117623D01*
X32078D01*
Y117511D01*
X31966D01*
Y117399D01*
X31854D01*
Y117287D01*
X31742D01*
Y117175D01*
X31630D01*
Y116951D01*
X31518D01*
Y116839D01*
X31294D01*
Y116727D01*
X31182D01*
Y116503D01*
X31070D01*
Y116392D01*
X30958D01*
Y116168D01*
X30847D01*
Y116056D01*
X30735D01*
Y115944D01*
X30847D01*
Y115832D01*
X30958D01*
Y115720D01*
X31294D01*
Y115608D01*
X31518D01*
Y115496D01*
X31630D01*
Y114824D01*
X31518D01*
Y114712D01*
X31406D01*
Y114600D01*
X31294D01*
Y114376D01*
X31182D01*
Y114488D01*
X30847D01*
Y114824D01*
X30735D01*
Y114936D01*
X30175D01*
Y115048D01*
X29951D01*
Y115160D01*
X29839D01*
Y115720D01*
X29951D01*
Y115944D01*
X30063D01*
Y116056D01*
X30175D01*
Y116279D01*
X30287D01*
Y116392D01*
X30399D01*
Y116503D01*
X30511D01*
Y116615D01*
X30623D01*
Y116727D01*
X30399D01*
Y116615D01*
X30063D01*
Y116503D01*
X29839D01*
Y116392D01*
X29615D01*
Y116279D01*
X29279D01*
Y116392D01*
X29167D01*
Y116503D01*
X29055D01*
Y116839D01*
X29167D01*
Y117063D01*
X29279D01*
Y117175D01*
X29391D01*
Y117287D01*
X29503D01*
Y117399D01*
X29615D01*
Y117511D01*
X29727D01*
Y117623D01*
X29839D01*
Y117847D01*
X29951D01*
Y117959D01*
X30063D01*
Y118071D01*
X30175D01*
Y118183D01*
X30287D01*
Y118295D01*
X30399D01*
Y118407D01*
X30511D01*
Y118519D01*
X30623D01*
Y118631D01*
X30735D01*
Y118743D01*
X31182D01*
Y118519D01*
D02*
G37*
G36*
X23905Y119862D02*
X24017D01*
Y119750D01*
X24129D01*
Y119526D01*
X24241D01*
Y119414D01*
X24465D01*
Y119526D01*
X24689D01*
Y119638D01*
X24801D01*
Y119526D01*
X26032D01*
Y119414D01*
X26144D01*
Y119302D01*
X26032D01*
Y119191D01*
X25137D01*
Y119079D01*
X25025D01*
Y118966D01*
X24913D01*
Y118855D01*
X24801D01*
Y118743D01*
X24689D01*
Y118519D01*
X24801D01*
Y118295D01*
X24913D01*
Y118183D01*
X25249D01*
Y118295D01*
X25584D01*
Y118183D01*
X26816D01*
Y117847D01*
X25808D01*
Y117735D01*
X25696D01*
Y117623D01*
X25584D01*
Y117511D01*
X25473D01*
Y117175D01*
X25584D01*
Y116951D01*
X25696D01*
Y116839D01*
X25920D01*
Y116951D01*
X26144D01*
Y117063D01*
X26256D01*
Y116951D01*
X27488D01*
Y116839D01*
X27600D01*
Y116615D01*
X26592D01*
Y116503D01*
X26480D01*
Y116392D01*
X26368D01*
Y116279D01*
X26256D01*
Y116168D01*
X26144D01*
Y116056D01*
X26256D01*
Y115832D01*
X26368D01*
Y115608D01*
X26704D01*
Y115720D01*
X26928D01*
Y115832D01*
X27040D01*
Y115608D01*
X28271D01*
Y115272D01*
X27264D01*
Y115160D01*
X27152D01*
Y115048D01*
X27040D01*
Y114936D01*
X26928D01*
Y114712D01*
X27040D01*
Y114488D01*
X27152D01*
Y114264D01*
X27264D01*
Y114040D01*
X27376D01*
Y113928D01*
X27264D01*
Y113816D01*
X26592D01*
Y113928D01*
X26480D01*
Y114040D01*
X26368D01*
Y114152D01*
X26256D01*
Y114376D01*
X26144D01*
Y114488D01*
X26032D01*
Y114712D01*
X25920D01*
Y114936D01*
X25808D01*
Y115048D01*
X25696D01*
Y115272D01*
X25584D01*
Y115496D01*
X25473D01*
Y115720D01*
X25361D01*
Y115944D01*
X25249D01*
Y116056D01*
X25137D01*
Y116279D01*
X25025D01*
Y116503D01*
X24913D01*
Y116727D01*
X24801D01*
Y116839D01*
X24689D01*
Y117063D01*
X24577D01*
Y117287D01*
X24465D01*
Y117511D01*
X24353D01*
Y117623D01*
X24241D01*
Y117847D01*
X24129D01*
Y117959D01*
X24017D01*
Y118183D01*
X23905D01*
Y118407D01*
X23793D01*
Y118631D01*
X23681D01*
Y118855D01*
X23569D01*
Y118966D01*
X23457D01*
Y119191D01*
X23345D01*
Y119414D01*
X23233D01*
Y119638D01*
X22897D01*
Y119526D01*
X22785D01*
Y119414D01*
X22673D01*
Y119191D01*
X22562D01*
Y118966D01*
X22450D01*
Y118743D01*
X22338D01*
Y118631D01*
X22226D01*
Y118407D01*
X22114D01*
Y118183D01*
X22002D01*
Y118071D01*
X21890D01*
Y117847D01*
X21778D01*
Y117623D01*
X21666D01*
Y117399D01*
X21554D01*
Y117287D01*
X21442D01*
Y117063D01*
X21330D01*
Y116839D01*
X21218D01*
Y116727D01*
X21106D01*
Y116503D01*
X20994D01*
Y116279D01*
X20882D01*
Y116168D01*
X20770D01*
Y115944D01*
X20658D01*
Y115720D01*
X20546D01*
Y115496D01*
X20434D01*
Y115384D01*
X20322D01*
Y115160D01*
X20210D01*
Y115048D01*
X20098D01*
Y114824D01*
X19986D01*
Y114600D01*
X19875D01*
Y114488D01*
X19763D01*
Y114264D01*
X19651D01*
Y114040D01*
X19539D01*
Y113928D01*
X19427D01*
Y113705D01*
X19539D01*
Y113481D01*
X19651D01*
Y113369D01*
X19763D01*
Y113145D01*
X19875D01*
Y112921D01*
X19986D01*
Y112697D01*
X20098D01*
Y112585D01*
X20210D01*
Y112361D01*
X20322D01*
Y112137D01*
X20434D01*
Y112025D01*
X20546D01*
Y111801D01*
X20658D01*
Y111577D01*
X20770D01*
Y111465D01*
X20882D01*
Y111241D01*
X20994D01*
Y111018D01*
X21106D01*
Y110794D01*
X21218D01*
Y110682D01*
X21330D01*
Y110458D01*
X21442D01*
Y110234D01*
X21554D01*
Y110122D01*
X21666D01*
Y109898D01*
X21778D01*
Y109786D01*
X21890D01*
Y109562D01*
X22002D01*
Y109338D01*
X22114D01*
Y109114D01*
X22226D01*
Y109002D01*
X22338D01*
Y108778D01*
X22450D01*
Y108666D01*
X22562D01*
Y108442D01*
X22673D01*
Y108219D01*
X22785D01*
Y107995D01*
X22897D01*
Y107883D01*
X23121D01*
Y107995D01*
X23233D01*
Y108219D01*
X23345D01*
Y108331D01*
X23457D01*
Y108554D01*
X23569D01*
Y108778D01*
X23681D01*
Y109002D01*
X23793D01*
Y109114D01*
X23905D01*
Y109338D01*
X24017D01*
Y109562D01*
X24129D01*
Y109786D01*
X24241D01*
Y109898D01*
X24353D01*
Y110122D01*
X24465D01*
Y110346D01*
X24577D01*
Y110570D01*
X24689D01*
Y110682D01*
X24801D01*
Y110906D01*
X24913D01*
Y111129D01*
X25025D01*
Y111241D01*
X25137D01*
Y111465D01*
X25249D01*
Y111689D01*
X25361D01*
Y111913D01*
X25473D01*
Y112137D01*
X25584D01*
Y112249D01*
X25696D01*
Y112473D01*
X25808D01*
Y112697D01*
X25920D01*
Y112809D01*
X26032D01*
Y113033D01*
X26144D01*
Y113257D01*
X26256D01*
Y113481D01*
X26368D01*
Y113593D01*
X26592D01*
Y113705D01*
X27264D01*
Y113593D01*
X27376D01*
Y113481D01*
X27264D01*
Y113257D01*
X27152D01*
Y113145D01*
X27040D01*
Y112921D01*
X26928D01*
Y112585D01*
X27040D01*
Y112473D01*
X27152D01*
Y112361D01*
X27264D01*
Y112249D01*
X28159D01*
Y112137D01*
X28271D01*
Y111913D01*
X27040D01*
Y111801D01*
X26704D01*
Y111913D01*
X26368D01*
Y111689D01*
X26256D01*
Y111577D01*
X26144D01*
Y111353D01*
X26256D01*
Y111241D01*
X26368D01*
Y111129D01*
X26480D01*
Y111018D01*
X26592D01*
Y110906D01*
X27600D01*
Y110570D01*
X26256D01*
Y110458D01*
X26144D01*
Y110570D01*
X25920D01*
Y110682D01*
X25696D01*
Y110570D01*
X25584D01*
Y110346D01*
X25473D01*
Y110010D01*
X25584D01*
Y109898D01*
X25696D01*
Y109786D01*
X25808D01*
Y109674D01*
X26816D01*
Y109338D01*
X25584D01*
Y109226D01*
X25249D01*
Y109338D01*
X24913D01*
Y109226D01*
X24801D01*
Y109002D01*
X24689D01*
Y108778D01*
X24801D01*
Y108666D01*
X24913D01*
Y108554D01*
X25025D01*
Y108442D01*
X25137D01*
Y108331D01*
X26032D01*
Y108219D01*
X26144D01*
Y108107D01*
X26032D01*
Y107995D01*
X24801D01*
Y107883D01*
X24689D01*
Y107995D01*
X24465D01*
Y108107D01*
X24241D01*
Y107995D01*
X24129D01*
Y107883D01*
X24017D01*
Y107659D01*
X23905D01*
Y107547D01*
X22897D01*
Y107659D01*
X22785D01*
Y107883D01*
X22673D01*
Y107995D01*
X22562D01*
Y108219D01*
X22450D01*
Y108442D01*
X22338D01*
Y108666D01*
X22226D01*
Y108778D01*
X22114D01*
Y109002D01*
X22002D01*
Y109226D01*
X21890D01*
Y109338D01*
X21778D01*
Y109562D01*
X21666D01*
Y109786D01*
X21554D01*
Y110010D01*
X21442D01*
Y110122D01*
X21330D01*
Y110346D01*
X21218D01*
Y110458D01*
X21106D01*
Y110682D01*
X20994D01*
Y110906D01*
X20882D01*
Y111018D01*
X20770D01*
Y111241D01*
X20658D01*
Y111465D01*
X20546D01*
Y111577D01*
X20434D01*
Y111801D01*
X20322D01*
Y112025D01*
X20210D01*
Y112137D01*
X20098D01*
Y112361D01*
X19986D01*
Y112585D01*
X19875D01*
Y112809D01*
X19763D01*
Y112921D01*
X19651D01*
Y113145D01*
X19539D01*
Y113369D01*
X19427D01*
Y113481D01*
X19315D01*
Y113705D01*
X19203D01*
Y113816D01*
X19315D01*
Y114040D01*
X19427D01*
Y114152D01*
X19539D01*
Y114376D01*
X19651D01*
Y114600D01*
X19763D01*
Y114824D01*
X19875D01*
Y114936D01*
X19986D01*
Y115160D01*
X20098D01*
Y115384D01*
X20210D01*
Y115496D01*
X20322D01*
Y115720D01*
X20434D01*
Y115944D01*
X20546D01*
Y116168D01*
X20658D01*
Y116279D01*
X20770D01*
Y116503D01*
X20882D01*
Y116727D01*
X20994D01*
Y116839D01*
X21106D01*
Y117063D01*
X21218D01*
Y117287D01*
X21330D01*
Y117511D01*
X21442D01*
Y117623D01*
X21554D01*
Y117847D01*
X21666D01*
Y118071D01*
X21778D01*
Y118183D01*
X21890D01*
Y118407D01*
X22002D01*
Y118631D01*
X22114D01*
Y118743D01*
X22226D01*
Y118966D01*
X22338D01*
Y119191D01*
X22450D01*
Y119302D01*
X22562D01*
Y119526D01*
X22673D01*
Y119750D01*
X22785D01*
Y119862D01*
X22897D01*
Y119974D01*
X23905D01*
Y119862D01*
D02*
G37*
G36*
X38684Y116279D02*
X38908D01*
Y116168D01*
X38796D01*
Y116056D01*
X38684D01*
Y115944D01*
X38572D01*
Y115832D01*
X38460D01*
Y115720D01*
X38348D01*
Y115608D01*
X38236D01*
Y115384D01*
X38124D01*
Y115272D01*
X38348D01*
Y115384D01*
X38572D01*
Y115496D01*
X38796D01*
Y115608D01*
X39019D01*
Y115720D01*
X39243D01*
Y115832D01*
X39915D01*
Y115496D01*
X39803D01*
Y115272D01*
X39691D01*
Y115160D01*
X39579D01*
Y115048D01*
X39467D01*
Y114936D01*
X39355D01*
Y114712D01*
X39243D01*
Y114600D01*
X39131D01*
Y114488D01*
X39019D01*
Y114376D01*
X38908D01*
Y114264D01*
X38796D01*
Y114152D01*
X38684D01*
Y113928D01*
X38572D01*
Y113816D01*
X38460D01*
Y113481D01*
X38572D01*
Y113369D01*
X38796D01*
Y113257D01*
X39131D01*
Y113145D01*
X39243D01*
Y112473D01*
X39131D01*
Y112361D01*
X39019D01*
Y112137D01*
X38908D01*
Y112025D01*
X38684D01*
Y112137D01*
X38460D01*
Y112473D01*
X38348D01*
Y112585D01*
X37676D01*
Y112697D01*
X37564D01*
Y112809D01*
X37452D01*
Y113369D01*
X37564D01*
Y113593D01*
X37676D01*
Y113705D01*
X37788D01*
Y113816D01*
X37900D01*
Y113928D01*
X38012D01*
Y114152D01*
X38124D01*
Y114264D01*
X38236D01*
Y114376D01*
X38012D01*
Y114264D01*
X37788D01*
Y114152D01*
X37564D01*
Y114040D01*
X37228D01*
Y113928D01*
X36780D01*
Y114040D01*
X36668D01*
Y114488D01*
X36780D01*
Y114712D01*
X36892D01*
Y114824D01*
X37004D01*
Y114936D01*
X37116D01*
Y115048D01*
X37228D01*
Y115160D01*
X37340D01*
Y115272D01*
X37452D01*
Y115384D01*
X37564D01*
Y115496D01*
X37676D01*
Y115608D01*
X37788D01*
Y115832D01*
X37900D01*
Y115944D01*
X38012D01*
Y116056D01*
X38124D01*
Y116168D01*
X38236D01*
Y116279D01*
X38348D01*
Y116392D01*
X38684D01*
Y116279D01*
D02*
G37*
G36*
X38796Y111577D02*
X39019D01*
Y111465D01*
X39243D01*
Y111353D01*
X39355D01*
Y111129D01*
X39467D01*
Y110682D01*
X39355D01*
Y110234D01*
X39243D01*
Y110010D01*
X39131D01*
Y109898D01*
X39019D01*
Y109674D01*
X38908D01*
Y109562D01*
X38572D01*
Y109674D01*
X38460D01*
Y110010D01*
X38572D01*
Y110346D01*
X38684D01*
Y110570D01*
X38572D01*
Y110794D01*
X38236D01*
Y110682D01*
X38124D01*
Y110570D01*
X38012D01*
Y110458D01*
X37900D01*
Y110346D01*
X37788D01*
Y110234D01*
X37676D01*
Y110122D01*
X37564D01*
Y110010D01*
X37452D01*
Y109898D01*
X37340D01*
Y109786D01*
X37228D01*
Y109674D01*
X37004D01*
Y109562D01*
X36220D01*
Y109674D01*
X36108D01*
Y110122D01*
X36220D01*
Y110346D01*
X36332D01*
Y110458D01*
X36444D01*
Y110570D01*
X36556D01*
Y110682D01*
X36668D01*
Y110794D01*
X36780D01*
Y110906D01*
X36892D01*
Y111018D01*
X37004D01*
Y111129D01*
X37228D01*
Y111241D01*
X37340D01*
Y111353D01*
X37564D01*
Y111465D01*
X37900D01*
Y111577D01*
X38124D01*
Y111801D01*
X38236D01*
Y111913D01*
X38796D01*
Y111577D01*
D02*
G37*
G36*
X174479Y113670D02*
X174703D01*
Y113222D01*
X174479D01*
Y113110D01*
X174367D01*
Y112774D01*
X174255D01*
Y112326D01*
X174143D01*
Y111878D01*
X174031D01*
Y111542D01*
X173919D01*
Y111207D01*
X173807D01*
Y110983D01*
X173695D01*
Y110759D01*
X173583D01*
Y110535D01*
X173471D01*
Y110423D01*
X173359D01*
Y110199D01*
X173135D01*
Y110087D01*
X172463D01*
Y110199D01*
X172352D01*
Y110311D01*
X172239D01*
Y110535D01*
X172127D01*
Y110759D01*
X172016D01*
Y110983D01*
X171904D01*
Y111207D01*
X171792D01*
Y111542D01*
X171680D01*
Y111766D01*
X171568D01*
Y111990D01*
X171456D01*
Y112102D01*
X171344D01*
Y111990D01*
X171232D01*
Y111878D01*
X171120D01*
Y111654D01*
X171008D01*
Y111431D01*
X170896D01*
Y111207D01*
X170784D01*
Y110983D01*
X170672D01*
Y110759D01*
X170560D01*
Y110647D01*
X170448D01*
Y110423D01*
X170336D01*
Y110311D01*
X170224D01*
Y110087D01*
X170112D01*
Y109975D01*
X170000D01*
Y109751D01*
X169888D01*
Y109527D01*
X169776D01*
Y109415D01*
X169665D01*
Y109303D01*
X169441D01*
Y109191D01*
X169217D01*
Y109079D01*
X168433D01*
Y109191D01*
X168321D01*
Y109527D01*
X168209D01*
Y109639D01*
X168097D01*
Y110423D01*
X167985D01*
Y110647D01*
X168097D01*
Y111766D01*
X168209D01*
Y112214D01*
X168321D01*
Y112550D01*
X168433D01*
Y112886D01*
X168657D01*
Y113110D01*
X168881D01*
Y113222D01*
X169105D01*
Y112662D01*
X168993D01*
Y112214D01*
X168881D01*
Y112102D01*
X169105D01*
Y112214D01*
X169217D01*
Y112326D01*
X169329D01*
Y112438D01*
X169441D01*
Y112550D01*
X169665D01*
Y112662D01*
X170112D01*
Y112774D01*
X170448D01*
Y112886D01*
X170784D01*
Y112998D01*
X171120D01*
Y113110D01*
X171232D01*
Y113334D01*
X171344D01*
Y113558D01*
X171792D01*
Y113334D01*
X171904D01*
Y113222D01*
X172352D01*
Y113334D01*
X172687D01*
Y113446D01*
X173247D01*
Y113558D01*
X173695D01*
Y113670D01*
X173807D01*
Y113782D01*
X173919D01*
Y113894D01*
X174031D01*
Y114118D01*
X174143D01*
Y114230D01*
X174479D01*
Y113670D01*
D02*
G37*
G36*
X173247Y109527D02*
X173135D01*
Y109415D01*
X173023D01*
Y109191D01*
X172911D01*
Y109079D01*
X172799D01*
Y108967D01*
X172687D01*
Y108855D01*
X172575D01*
Y108744D01*
X172463D01*
Y108632D01*
X172352D01*
Y108520D01*
X172239D01*
Y108296D01*
X172127D01*
Y108072D01*
X172239D01*
Y107960D01*
X172463D01*
Y108072D01*
X172911D01*
Y108184D01*
X173135D01*
Y108296D01*
X173359D01*
Y108408D01*
X173583D01*
Y108520D01*
X173695D01*
Y108632D01*
X174143D01*
Y108520D01*
X174255D01*
Y108184D01*
X174143D01*
Y107960D01*
X174031D01*
Y107736D01*
X173919D01*
Y107624D01*
X173807D01*
Y107400D01*
X173695D01*
Y107176D01*
X173583D01*
Y107064D01*
X173471D01*
Y106840D01*
X173359D01*
Y106728D01*
X173023D01*
Y106840D01*
X172799D01*
Y106952D01*
X172911D01*
Y107064D01*
X173023D01*
Y107288D01*
X173135D01*
Y107400D01*
X173247D01*
Y107512D01*
X173359D01*
Y107624D01*
X173135D01*
Y107512D01*
X172911D01*
Y107400D01*
X172687D01*
Y107288D01*
X172352D01*
Y107176D01*
X171680D01*
Y107288D01*
X171456D01*
Y107400D01*
X171344D01*
Y107512D01*
X171232D01*
Y107624D01*
X171120D01*
Y108296D01*
X171232D01*
Y108408D01*
X171344D01*
Y108632D01*
X171792D01*
Y108744D01*
X171904D01*
Y108855D01*
X172016D01*
Y108967D01*
X172127D01*
Y109079D01*
X172239D01*
Y109191D01*
X172352D01*
Y109303D01*
X172463D01*
Y109415D01*
X172575D01*
Y109639D01*
X172687D01*
Y109751D01*
X173247D01*
Y109527D01*
D02*
G37*
G36*
Y106504D02*
X173359D01*
Y106392D01*
X173247D01*
Y106280D01*
X173135D01*
Y106168D01*
X173023D01*
Y105945D01*
X173135D01*
Y105833D01*
X173359D01*
Y105721D01*
X173807D01*
Y105609D01*
X173919D01*
Y104825D01*
X173807D01*
Y104601D01*
X173695D01*
Y104489D01*
X173583D01*
Y104265D01*
X173471D01*
Y104153D01*
X173359D01*
Y103929D01*
X173247D01*
Y104041D01*
X172911D01*
Y104265D01*
X173023D01*
Y104489D01*
X173135D01*
Y104713D01*
X173247D01*
Y104825D01*
X173135D01*
Y104937D01*
X172016D01*
Y105049D01*
X171904D01*
Y105161D01*
X171792D01*
Y105497D01*
X171904D01*
Y105609D01*
X172016D01*
Y105721D01*
X172127D01*
Y105833D01*
X172239D01*
Y106056D01*
X172352D01*
Y106168D01*
X172463D01*
Y106280D01*
X172575D01*
Y106392D01*
X172687D01*
Y106504D01*
X172799D01*
Y106616D01*
X173247D01*
Y106504D01*
D02*
G37*
G36*
X170560Y105161D02*
X170672D01*
Y104713D01*
X170560D01*
Y104489D01*
X170448D01*
Y104377D01*
X170336D01*
Y104265D01*
X170112D01*
Y104153D01*
X169888D01*
Y104041D01*
X169665D01*
Y103929D01*
X169441D01*
Y104489D01*
X169553D01*
Y104713D01*
X169665D01*
Y104825D01*
X169776D01*
Y104937D01*
X169888D01*
Y105049D01*
X170000D01*
Y105161D01*
X170112D01*
Y105273D01*
X170560D01*
Y105161D01*
D02*
G37*
G36*
X181980Y104937D02*
X182092D01*
Y104265D01*
X181980D01*
Y104041D01*
X181868D01*
Y103817D01*
X181756D01*
Y103593D01*
X181644D01*
Y103369D01*
X181532D01*
Y103258D01*
X181420D01*
Y103034D01*
X181308D01*
Y102922D01*
X181196D01*
Y102810D01*
X181084D01*
Y102250D01*
X180972D01*
Y101914D01*
X180524D01*
Y102138D01*
X179629D01*
Y102250D01*
X179405D01*
Y102362D01*
X179181D01*
Y102474D01*
X179069D01*
Y102586D01*
X178845D01*
Y102698D01*
X178733D01*
Y102810D01*
X178621D01*
Y102922D01*
X178397D01*
Y103034D01*
X178285D01*
Y103146D01*
X177949D01*
Y103258D01*
X177278D01*
Y103146D01*
X177166D01*
Y103034D01*
X177054D01*
Y102922D01*
X176942D01*
Y102810D01*
X176830D01*
Y102698D01*
X177054D01*
Y102250D01*
X176942D01*
Y102026D01*
X176830D01*
Y101802D01*
X176718D01*
Y101690D01*
X176606D01*
Y101466D01*
X176494D01*
Y101354D01*
X176382D01*
Y101130D01*
X176270D01*
Y101018D01*
X175934D01*
Y100906D01*
X175486D01*
Y101130D01*
X175374D01*
Y101354D01*
X175486D01*
Y101690D01*
X175598D01*
Y101914D01*
X175710D01*
Y102250D01*
X175822D01*
Y102362D01*
X175934D01*
Y102586D01*
X176046D01*
Y102810D01*
X176158D01*
Y103034D01*
X176270D01*
Y103146D01*
X176382D01*
Y103258D01*
X176494D01*
Y103481D01*
X176606D01*
Y103593D01*
X176718D01*
Y103705D01*
X176830D01*
Y103817D01*
X176942D01*
Y103929D01*
X177166D01*
Y104041D01*
X177278D01*
Y104153D01*
X177501D01*
Y104265D01*
X178509D01*
Y104153D01*
X178621D01*
Y104041D01*
X178845D01*
Y103929D01*
X179069D01*
Y103817D01*
X179181D01*
Y103705D01*
X179293D01*
Y103593D01*
X179405D01*
Y103481D01*
X179517D01*
Y103369D01*
X179741D01*
Y103258D01*
X179853D01*
Y103146D01*
X180077D01*
Y103034D01*
X180524D01*
Y103146D01*
X180636D01*
Y103258D01*
X180860D01*
Y103369D01*
X180748D01*
Y103705D01*
X180860D01*
Y103929D01*
X180972D01*
Y104153D01*
X181084D01*
Y104489D01*
X181196D01*
Y104713D01*
X181308D01*
Y104937D01*
X181420D01*
Y105049D01*
X181532D01*
Y105161D01*
X181980D01*
Y104937D01*
D02*
G37*
G36*
X174031Y104041D02*
X174255D01*
Y103481D01*
X174143D01*
Y103258D01*
X174031D01*
Y103034D01*
X173919D01*
Y102922D01*
X173807D01*
Y102698D01*
X173695D01*
Y102586D01*
X173583D01*
Y102474D01*
X173471D01*
Y102362D01*
X173359D01*
Y102138D01*
X173247D01*
Y102026D01*
X173135D01*
Y101914D01*
X173695D01*
Y101802D01*
X173807D01*
Y101690D01*
X173919D01*
Y101130D01*
X173807D01*
Y100906D01*
X173695D01*
Y100682D01*
X173583D01*
Y100571D01*
X173471D01*
Y100459D01*
X173359D01*
Y100347D01*
X173023D01*
Y100459D01*
X172911D01*
Y100682D01*
X173023D01*
Y100794D01*
X173135D01*
Y101018D01*
X173023D01*
Y101130D01*
X172687D01*
Y101018D01*
X172127D01*
Y101578D01*
X172239D01*
Y101690D01*
X172352D01*
Y101802D01*
X172463D01*
Y102026D01*
X172575D01*
Y102138D01*
X172687D01*
Y102362D01*
X172575D01*
Y102250D01*
X172463D01*
Y102138D01*
X172352D01*
Y102026D01*
X172239D01*
Y101802D01*
X172127D01*
Y101690D01*
X172016D01*
Y101578D01*
X171904D01*
Y101466D01*
X171792D01*
Y101354D01*
X171680D01*
Y101130D01*
X171568D01*
Y101018D01*
X171456D01*
Y100906D01*
X171344D01*
Y100794D01*
X171232D01*
Y100682D01*
X170896D01*
Y101242D01*
X171008D01*
Y101466D01*
X171120D01*
Y101690D01*
X171232D01*
Y101802D01*
X171344D01*
Y102026D01*
X171456D01*
Y102138D01*
X171568D01*
Y102250D01*
X171680D01*
Y102474D01*
X171792D01*
Y102586D01*
X171904D01*
Y102810D01*
X172016D01*
Y102922D01*
X172127D01*
Y103034D01*
X172239D01*
Y103146D01*
X172352D01*
Y103258D01*
X172463D01*
Y103481D01*
X172575D01*
Y103593D01*
X172687D01*
Y103817D01*
X173471D01*
Y103929D01*
X173583D01*
Y104041D01*
X173807D01*
Y104153D01*
X174031D01*
Y104041D01*
D02*
G37*
G36*
X180636Y101690D02*
X180972D01*
Y101578D01*
X180860D01*
Y101466D01*
X180748D01*
Y101354D01*
X180636D01*
Y101130D01*
X180748D01*
Y101242D01*
X181420D01*
Y101130D01*
X181644D01*
Y101018D01*
X181756D01*
Y100571D01*
X181644D01*
Y100347D01*
X181532D01*
Y100235D01*
X181420D01*
Y100011D01*
X181308D01*
Y99899D01*
X181196D01*
Y99787D01*
X181084D01*
Y99675D01*
X180972D01*
Y99563D01*
X180860D01*
Y99451D01*
X180748D01*
Y99227D01*
X181084D01*
Y99115D01*
X181196D01*
Y98891D01*
X181308D01*
Y98667D01*
X181196D01*
Y98331D01*
X181084D01*
Y98107D01*
X180972D01*
Y97996D01*
X180524D01*
Y98443D01*
X179517D01*
Y99003D01*
X179629D01*
Y99115D01*
X179853D01*
Y99227D01*
X179965D01*
Y99339D01*
X180077D01*
Y99451D01*
X180189D01*
Y99563D01*
X180300D01*
Y99675D01*
X180412D01*
Y99787D01*
X180524D01*
Y99899D01*
X180636D01*
Y100011D01*
X180748D01*
Y100123D01*
X180860D01*
Y100235D01*
X180972D01*
Y100347D01*
X180412D01*
Y100235D01*
X180077D01*
Y100123D01*
X179741D01*
Y100011D01*
X179517D01*
Y99899D01*
X179293D01*
Y99787D01*
X179069D01*
Y99675D01*
X178733D01*
Y100011D01*
X178845D01*
Y100235D01*
X178957D01*
Y100347D01*
X179069D01*
Y100459D01*
X179181D01*
Y100571D01*
X179293D01*
Y100682D01*
X179405D01*
Y100794D01*
X179517D01*
Y100906D01*
X179629D01*
Y101018D01*
X179741D01*
Y101130D01*
X179853D01*
Y101242D01*
X179965D01*
Y101354D01*
X180077D01*
Y101466D01*
X180189D01*
Y101578D01*
X180300D01*
Y101690D01*
X180412D01*
Y101802D01*
X180636D01*
Y101690D01*
D02*
G37*
G36*
X173247Y100011D02*
X173135D01*
Y99787D01*
X173023D01*
Y99675D01*
X172911D01*
Y99563D01*
X172799D01*
Y99451D01*
X172687D01*
Y99339D01*
X172575D01*
Y99115D01*
X172799D01*
Y99227D01*
X173023D01*
Y99339D01*
X173247D01*
Y99451D01*
X173471D01*
Y99563D01*
X173695D01*
Y99675D01*
X174367D01*
Y99339D01*
X174255D01*
Y99115D01*
X174143D01*
Y99003D01*
X174031D01*
Y98891D01*
X173919D01*
Y98779D01*
X173807D01*
Y98667D01*
X173695D01*
Y98443D01*
X173583D01*
Y98331D01*
X173359D01*
Y98219D01*
X173247D01*
Y97996D01*
X173135D01*
Y97884D01*
X173023D01*
Y97660D01*
X172911D01*
Y97548D01*
X172799D01*
Y97436D01*
X172911D01*
Y97324D01*
X173023D01*
Y97212D01*
X173359D01*
Y97100D01*
X173583D01*
Y96988D01*
X173695D01*
Y96316D01*
X173583D01*
Y96204D01*
X173471D01*
Y96092D01*
X173359D01*
Y95868D01*
X173247D01*
Y95980D01*
X172911D01*
Y96316D01*
X172799D01*
Y96428D01*
X172239D01*
Y96540D01*
X172016D01*
Y96652D01*
X171904D01*
Y97212D01*
X172016D01*
Y97436D01*
X172127D01*
Y97548D01*
X172239D01*
Y97772D01*
X172352D01*
Y97884D01*
X172463D01*
Y97996D01*
X172575D01*
Y98107D01*
X172687D01*
Y98219D01*
X172463D01*
Y98107D01*
X172127D01*
Y97996D01*
X171904D01*
Y97884D01*
X171680D01*
Y97772D01*
X171344D01*
Y97884D01*
X171232D01*
Y97996D01*
X171120D01*
Y98331D01*
X171232D01*
Y98555D01*
X171344D01*
Y98667D01*
X171456D01*
Y98779D01*
X171568D01*
Y98891D01*
X171680D01*
Y99003D01*
X171792D01*
Y99115D01*
X171904D01*
Y99339D01*
X172016D01*
Y99451D01*
X172127D01*
Y99563D01*
X172239D01*
Y99675D01*
X172352D01*
Y99787D01*
X172463D01*
Y99899D01*
X172575D01*
Y100011D01*
X172687D01*
Y100123D01*
X172799D01*
Y100235D01*
X173247D01*
Y100011D01*
D02*
G37*
G36*
X165970Y101354D02*
X166082D01*
Y101242D01*
X166194D01*
Y101018D01*
X166306D01*
Y100906D01*
X166530D01*
Y101018D01*
X166753D01*
Y101130D01*
X166866D01*
Y101018D01*
X168097D01*
Y100906D01*
X168209D01*
Y100794D01*
X168097D01*
Y100682D01*
X167201D01*
Y100571D01*
X167089D01*
Y100459D01*
X166978D01*
Y100347D01*
X166866D01*
Y100235D01*
X166753D01*
Y100011D01*
X166866D01*
Y99787D01*
X166978D01*
Y99675D01*
X167313D01*
Y99787D01*
X167649D01*
Y99675D01*
X168881D01*
Y99339D01*
X167873D01*
Y99227D01*
X167761D01*
Y99115D01*
X167649D01*
Y99003D01*
X167537D01*
Y98667D01*
X167649D01*
Y98443D01*
X167761D01*
Y98331D01*
X167985D01*
Y98443D01*
X168209D01*
Y98555D01*
X168321D01*
Y98443D01*
X169553D01*
Y98331D01*
X169665D01*
Y98107D01*
X168657D01*
Y97996D01*
X168545D01*
Y97884D01*
X168433D01*
Y97772D01*
X168321D01*
Y97660D01*
X168209D01*
Y97548D01*
X168321D01*
Y97324D01*
X168433D01*
Y97100D01*
X168769D01*
Y97212D01*
X168993D01*
Y97324D01*
X169105D01*
Y97100D01*
X170336D01*
Y96764D01*
X169329D01*
Y96652D01*
X169217D01*
Y96540D01*
X169105D01*
Y96428D01*
X168993D01*
Y96204D01*
X169105D01*
Y95980D01*
X169217D01*
Y95756D01*
X169329D01*
Y95532D01*
X169441D01*
Y95420D01*
X169329D01*
Y95309D01*
X168657D01*
Y95420D01*
X168545D01*
Y95532D01*
X168433D01*
Y95644D01*
X168321D01*
Y95868D01*
X168209D01*
Y95980D01*
X168097D01*
Y96204D01*
X167985D01*
Y96428D01*
X167873D01*
Y96540D01*
X167761D01*
Y96764D01*
X167649D01*
Y96988D01*
X167537D01*
Y97212D01*
X167425D01*
Y97436D01*
X167313D01*
Y97548D01*
X167201D01*
Y97772D01*
X167089D01*
Y97996D01*
X166978D01*
Y98219D01*
X166866D01*
Y98331D01*
X166753D01*
Y98555D01*
X166642D01*
Y98779D01*
X166530D01*
Y99003D01*
X166418D01*
Y99115D01*
X166306D01*
Y99339D01*
X166194D01*
Y99451D01*
X166082D01*
Y99675D01*
X165970D01*
Y99899D01*
X165858D01*
Y100123D01*
X165746D01*
Y100347D01*
X165634D01*
Y100459D01*
X165522D01*
Y100682D01*
X165410D01*
Y100906D01*
X165298D01*
Y101130D01*
X164962D01*
Y101018D01*
X164850D01*
Y100906D01*
X164738D01*
Y100682D01*
X164626D01*
Y100459D01*
X164514D01*
Y100235D01*
X164402D01*
Y100123D01*
X164290D01*
Y99899D01*
X164179D01*
Y99675D01*
X164067D01*
Y99563D01*
X163955D01*
Y99339D01*
X163843D01*
Y99115D01*
X163731D01*
Y98891D01*
X163619D01*
Y98779D01*
X163507D01*
Y98555D01*
X163395D01*
Y98331D01*
X163283D01*
Y98219D01*
X163171D01*
Y97996D01*
X163059D01*
Y97772D01*
X162947D01*
Y97660D01*
X162835D01*
Y97436D01*
X162723D01*
Y97212D01*
X162611D01*
Y96988D01*
X162499D01*
Y96876D01*
X162387D01*
Y96652D01*
X162275D01*
Y96540D01*
X162163D01*
Y96316D01*
X162051D01*
Y96092D01*
X161939D01*
Y95980D01*
X161827D01*
Y95756D01*
X161715D01*
Y95532D01*
X161603D01*
Y95420D01*
X161492D01*
Y95197D01*
X161603D01*
Y94973D01*
X161715D01*
Y94861D01*
X161827D01*
Y94637D01*
X161939D01*
Y94413D01*
X162051D01*
Y94189D01*
X162163D01*
Y94077D01*
X162275D01*
Y93853D01*
X162387D01*
Y93629D01*
X162499D01*
Y93517D01*
X162611D01*
Y93293D01*
X162723D01*
Y93069D01*
X162835D01*
Y92957D01*
X162947D01*
Y92734D01*
X163059D01*
Y92510D01*
X163171D01*
Y92286D01*
X163283D01*
Y92174D01*
X163395D01*
Y91950D01*
X163507D01*
Y91726D01*
X163619D01*
Y91614D01*
X163731D01*
Y91390D01*
X163843D01*
Y91278D01*
X163955D01*
Y91054D01*
X164067D01*
Y90830D01*
X164179D01*
Y90606D01*
X164290D01*
Y90494D01*
X164402D01*
Y90270D01*
X164514D01*
Y90158D01*
X164626D01*
Y89934D01*
X164738D01*
Y89711D01*
X164850D01*
Y89487D01*
X164962D01*
Y89375D01*
X165186D01*
Y89487D01*
X165298D01*
Y89711D01*
X165410D01*
Y89823D01*
X165522D01*
Y90047D01*
X165634D01*
Y90270D01*
X165746D01*
Y90494D01*
X165858D01*
Y90606D01*
X165970D01*
Y90830D01*
X166082D01*
Y91054D01*
X166194D01*
Y91278D01*
X166306D01*
Y91390D01*
X166418D01*
Y91614D01*
X166530D01*
Y91838D01*
X166642D01*
Y92062D01*
X166753D01*
Y92174D01*
X166866D01*
Y92398D01*
X166978D01*
Y92621D01*
X167089D01*
Y92734D01*
X167201D01*
Y92957D01*
X167313D01*
Y93181D01*
X167425D01*
Y93405D01*
X167537D01*
Y93629D01*
X167649D01*
Y93741D01*
X167761D01*
Y93965D01*
X167873D01*
Y94189D01*
X167985D01*
Y94301D01*
X168097D01*
Y94525D01*
X168209D01*
Y94749D01*
X168321D01*
Y94973D01*
X168433D01*
Y95085D01*
X168657D01*
Y95197D01*
X169329D01*
Y95085D01*
X169441D01*
Y94973D01*
X169329D01*
Y94749D01*
X169217D01*
Y94637D01*
X169105D01*
Y94413D01*
X168993D01*
Y94077D01*
X169105D01*
Y93965D01*
X169217D01*
Y93853D01*
X169329D01*
Y93741D01*
X170224D01*
Y93629D01*
X170336D01*
Y93405D01*
X169105D01*
Y93293D01*
X168769D01*
Y93405D01*
X168433D01*
Y93181D01*
X168321D01*
Y93069D01*
X168209D01*
Y92845D01*
X168321D01*
Y92734D01*
X168433D01*
Y92621D01*
X168545D01*
Y92510D01*
X168657D01*
Y92398D01*
X169665D01*
Y92062D01*
X168321D01*
Y91950D01*
X168209D01*
Y92062D01*
X167985D01*
Y92174D01*
X167761D01*
Y92062D01*
X167649D01*
Y91838D01*
X167537D01*
Y91502D01*
X167649D01*
Y91390D01*
X167761D01*
Y91278D01*
X167873D01*
Y91166D01*
X168881D01*
Y90830D01*
X167649D01*
Y90718D01*
X167313D01*
Y90830D01*
X166978D01*
Y90718D01*
X166866D01*
Y90494D01*
X166753D01*
Y90270D01*
X166866D01*
Y90158D01*
X166978D01*
Y90047D01*
X167089D01*
Y89934D01*
X167201D01*
Y89823D01*
X168097D01*
Y89711D01*
X168209D01*
Y89599D01*
X168097D01*
Y89487D01*
X166866D01*
Y89375D01*
X166753D01*
Y89487D01*
X166530D01*
Y89599D01*
X166306D01*
Y89487D01*
X166194D01*
Y89375D01*
X166082D01*
Y89151D01*
X165970D01*
Y89039D01*
X164962D01*
Y89151D01*
X164850D01*
Y89375D01*
X164738D01*
Y89487D01*
X164626D01*
Y89711D01*
X164514D01*
Y89934D01*
X164402D01*
Y90158D01*
X164290D01*
Y90270D01*
X164179D01*
Y90494D01*
X164067D01*
Y90718D01*
X163955D01*
Y90830D01*
X163843D01*
Y91054D01*
X163731D01*
Y91278D01*
X163619D01*
Y91502D01*
X163507D01*
Y91614D01*
X163395D01*
Y91838D01*
X163283D01*
Y91950D01*
X163171D01*
Y92174D01*
X163059D01*
Y92398D01*
X162947D01*
Y92510D01*
X162835D01*
Y92734D01*
X162723D01*
Y92957D01*
X162611D01*
Y93069D01*
X162499D01*
Y93293D01*
X162387D01*
Y93517D01*
X162275D01*
Y93629D01*
X162163D01*
Y93853D01*
X162051D01*
Y94077D01*
X161939D01*
Y94301D01*
X161827D01*
Y94413D01*
X161715D01*
Y94637D01*
X161603D01*
Y94861D01*
X161492D01*
Y94973D01*
X161380D01*
Y95197D01*
X161268D01*
Y95309D01*
X161380D01*
Y95532D01*
X161492D01*
Y95644D01*
X161603D01*
Y95868D01*
X161715D01*
Y96092D01*
X161827D01*
Y96316D01*
X161939D01*
Y96428D01*
X162051D01*
Y96652D01*
X162163D01*
Y96876D01*
X162275D01*
Y96988D01*
X162387D01*
Y97212D01*
X162499D01*
Y97436D01*
X162611D01*
Y97660D01*
X162723D01*
Y97772D01*
X162835D01*
Y97996D01*
X162947D01*
Y98219D01*
X163059D01*
Y98331D01*
X163171D01*
Y98555D01*
X163283D01*
Y98779D01*
X163395D01*
Y99003D01*
X163507D01*
Y99115D01*
X163619D01*
Y99339D01*
X163731D01*
Y99563D01*
X163843D01*
Y99675D01*
X163955D01*
Y99899D01*
X164067D01*
Y100123D01*
X164179D01*
Y100235D01*
X164290D01*
Y100459D01*
X164402D01*
Y100682D01*
X164514D01*
Y100794D01*
X164626D01*
Y101018D01*
X164738D01*
Y101242D01*
X164850D01*
Y101354D01*
X164962D01*
Y101466D01*
X165970D01*
Y101354D01*
D02*
G37*
G36*
X180748Y97772D02*
X180972D01*
Y97660D01*
X180860D01*
Y97548D01*
X180748D01*
Y97436D01*
X180636D01*
Y97324D01*
X180524D01*
Y97212D01*
X180412D01*
Y97100D01*
X180300D01*
Y96876D01*
X180189D01*
Y96764D01*
X180412D01*
Y96876D01*
X180636D01*
Y96988D01*
X180860D01*
Y97100D01*
X181084D01*
Y97212D01*
X181308D01*
Y97324D01*
X181980D01*
Y96988D01*
X181868D01*
Y96764D01*
X181756D01*
Y96652D01*
X181644D01*
Y96540D01*
X181532D01*
Y96428D01*
X181420D01*
Y96204D01*
X181308D01*
Y96092D01*
X181196D01*
Y95980D01*
X181084D01*
Y95868D01*
X180972D01*
Y95756D01*
X180860D01*
Y95644D01*
X180748D01*
Y95420D01*
X180636D01*
Y95309D01*
X180524D01*
Y94973D01*
X180636D01*
Y94861D01*
X180860D01*
Y94749D01*
X181196D01*
Y94637D01*
X181308D01*
Y93965D01*
X181196D01*
Y93853D01*
X181084D01*
Y93629D01*
X180972D01*
Y93517D01*
X180748D01*
Y93629D01*
X180524D01*
Y93965D01*
X180412D01*
Y94077D01*
X179741D01*
Y94189D01*
X179629D01*
Y94301D01*
X179517D01*
Y94861D01*
X179629D01*
Y95085D01*
X179741D01*
Y95197D01*
X179853D01*
Y95309D01*
X179965D01*
Y95420D01*
X180077D01*
Y95644D01*
X180189D01*
Y95756D01*
X180300D01*
Y95868D01*
X180077D01*
Y95756D01*
X179853D01*
Y95644D01*
X179629D01*
Y95532D01*
X179293D01*
Y95420D01*
X178845D01*
Y95532D01*
X178733D01*
Y95980D01*
X178845D01*
Y96204D01*
X178957D01*
Y96316D01*
X179069D01*
Y96428D01*
X179181D01*
Y96540D01*
X179293D01*
Y96652D01*
X179405D01*
Y96764D01*
X179517D01*
Y96876D01*
X179629D01*
Y96988D01*
X179741D01*
Y97100D01*
X179853D01*
Y97324D01*
X179965D01*
Y97436D01*
X180077D01*
Y97548D01*
X180189D01*
Y97660D01*
X180300D01*
Y97772D01*
X180412D01*
Y97884D01*
X180748D01*
Y97772D01*
D02*
G37*
G36*
X180860Y93069D02*
X181084D01*
Y92957D01*
X181308D01*
Y92845D01*
X181420D01*
Y92621D01*
X181532D01*
Y92174D01*
X181420D01*
Y91726D01*
X181308D01*
Y91502D01*
X181196D01*
Y91390D01*
X181084D01*
Y91166D01*
X180972D01*
Y91054D01*
X180636D01*
Y91166D01*
X180524D01*
Y91502D01*
X180636D01*
Y91838D01*
X180748D01*
Y92062D01*
X180636D01*
Y92286D01*
X180300D01*
Y92174D01*
X180189D01*
Y92062D01*
X180077D01*
Y91950D01*
X179965D01*
Y91838D01*
X179853D01*
Y91726D01*
X179741D01*
Y91614D01*
X179629D01*
Y91502D01*
X179517D01*
Y91390D01*
X179405D01*
Y91278D01*
X179293D01*
Y91166D01*
X179069D01*
Y91054D01*
X178285D01*
Y91166D01*
X178173D01*
Y91614D01*
X178285D01*
Y91838D01*
X178397D01*
Y91950D01*
X178509D01*
Y92062D01*
X178621D01*
Y92174D01*
X178733D01*
Y92286D01*
X178845D01*
Y92398D01*
X178957D01*
Y92510D01*
X179069D01*
Y92621D01*
X179293D01*
Y92734D01*
X179405D01*
Y92845D01*
X179629D01*
Y92957D01*
X179965D01*
Y93069D01*
X180189D01*
Y93293D01*
X180300D01*
Y93405D01*
X180860D01*
Y93069D01*
D02*
G37*
%LPC*%
G36*
X31630Y131394D02*
X31294D01*
Y131282D01*
X30847D01*
Y131170D01*
X30511D01*
Y131058D01*
X30175D01*
Y130946D01*
X30063D01*
Y130722D01*
X30175D01*
Y130498D01*
X30287D01*
Y130162D01*
X30399D01*
Y129938D01*
X30511D01*
Y129715D01*
X30623D01*
Y129603D01*
X30735D01*
Y129491D01*
X30847D01*
Y129603D01*
X30958D01*
Y129826D01*
X31070D01*
Y130050D01*
X31182D01*
Y130274D01*
X31294D01*
Y130610D01*
X31406D01*
Y130834D01*
X31518D01*
Y131282D01*
X31630D01*
Y131394D01*
D02*
G37*
G36*
X28607Y130498D02*
X28271D01*
Y130386D01*
X27936D01*
Y130274D01*
X27824D01*
Y130162D01*
X27376D01*
Y130050D01*
X27040D01*
Y129938D01*
X26928D01*
Y129826D01*
X26816D01*
Y129155D01*
X26928D01*
Y128819D01*
X27040D01*
Y128595D01*
X27376D01*
Y128707D01*
X27488D01*
Y128819D01*
X27600D01*
Y128931D01*
X27712D01*
Y129043D01*
X27824D01*
Y129155D01*
X27936D01*
Y129379D01*
X28047D01*
Y129491D01*
X28159D01*
Y129715D01*
X28271D01*
Y129938D01*
X28383D01*
Y130162D01*
X28495D01*
Y130274D01*
X28607D01*
Y130498D01*
D02*
G37*
G36*
X31070Y121318D02*
X30958D01*
Y121206D01*
X31070D01*
Y121318D01*
D02*
G37*
G36*
X30958Y121206D02*
X30847D01*
Y121094D01*
X30958D01*
Y121206D01*
D02*
G37*
G36*
X30847Y121094D02*
X30735D01*
Y120982D01*
X30847D01*
Y121094D01*
D02*
G37*
G36*
X30735Y120982D02*
X30623D01*
Y120870D01*
X30735D01*
Y120982D01*
D02*
G37*
G36*
Y116839D02*
X30623D01*
Y116727D01*
X30735D01*
Y116839D01*
D02*
G37*
G36*
X38124Y115272D02*
X38012D01*
Y115160D01*
X38124D01*
Y115272D01*
D02*
G37*
G36*
X38348Y114488D02*
X38236D01*
Y114376D01*
X38348D01*
Y114488D01*
D02*
G37*
G36*
X37340Y110570D02*
X37228D01*
Y110458D01*
X37116D01*
Y110346D01*
X37340D01*
Y110570D01*
D02*
G37*
G36*
X173695Y112886D02*
X173359D01*
Y112774D01*
X172911D01*
Y112662D01*
X172575D01*
Y112550D01*
X172239D01*
Y112438D01*
X172127D01*
Y112214D01*
X172239D01*
Y111990D01*
X172352D01*
Y111654D01*
X172463D01*
Y111431D01*
X172575D01*
Y111207D01*
X172687D01*
Y111095D01*
X172799D01*
Y110983D01*
X172911D01*
Y111095D01*
X173023D01*
Y111319D01*
X173135D01*
Y111542D01*
X173247D01*
Y111766D01*
X173359D01*
Y112102D01*
X173471D01*
Y112326D01*
X173583D01*
Y112774D01*
X173695D01*
Y112886D01*
D02*
G37*
G36*
X170672Y111990D02*
X170336D01*
Y111878D01*
X170000D01*
Y111766D01*
X169888D01*
Y111654D01*
X169441D01*
Y111542D01*
X169105D01*
Y111431D01*
X168993D01*
Y111319D01*
X168881D01*
Y110647D01*
X168993D01*
Y110311D01*
X169105D01*
Y110087D01*
X169441D01*
Y110199D01*
X169553D01*
Y110311D01*
X169665D01*
Y110423D01*
X169776D01*
Y110535D01*
X169888D01*
Y110647D01*
X170000D01*
Y110871D01*
X170112D01*
Y110983D01*
X170224D01*
Y111207D01*
X170336D01*
Y111431D01*
X170448D01*
Y111654D01*
X170560D01*
Y111766D01*
X170672D01*
Y111990D01*
D02*
G37*
G36*
X173135Y102810D02*
X173023D01*
Y102698D01*
X173135D01*
Y102810D01*
D02*
G37*
G36*
X173023Y102698D02*
X172911D01*
Y102586D01*
X173023D01*
Y102698D01*
D02*
G37*
G36*
X172911Y102586D02*
X172799D01*
Y102474D01*
X172911D01*
Y102586D01*
D02*
G37*
G36*
X172799Y102474D02*
X172687D01*
Y102362D01*
X172799D01*
Y102474D01*
D02*
G37*
G36*
Y98331D02*
X172687D01*
Y98219D01*
X172799D01*
Y98331D01*
D02*
G37*
G36*
X180189Y96764D02*
X180077D01*
Y96652D01*
X180189D01*
Y96764D01*
D02*
G37*
G36*
X180412Y95980D02*
X180300D01*
Y95868D01*
X180412D01*
Y95980D01*
D02*
G37*
G36*
X179405Y92062D02*
X179293D01*
Y91950D01*
X179181D01*
Y91838D01*
X179405D01*
Y92062D01*
D02*
G37*
%LPD*%
D24*
X9432Y81904D02*
D03*
D28*
X74331Y124016D02*
D03*
X68189D02*
D03*
X74331Y118504D02*
D03*
X68189D02*
D03*
X136535Y123622D02*
D03*
X130394D02*
D03*
X136535Y118110D02*
D03*
X130394D02*
D03*
D32*
X121260Y27165D02*
D03*
X74016Y26772D02*
D03*
X142126Y90551D02*
D03*
X59449D02*
D03*
X100394Y61024D02*
D03*
X124803Y12598D02*
D03*
X90945Y11811D02*
D03*
D33*
X11417Y148031D02*
D03*
X39764D02*
D03*
X11417Y185039D02*
D03*
X39764D02*
D03*
X185039Y156299D02*
D03*
Y184646D02*
D03*
X148031Y156299D02*
D03*
Y184646D02*
D03*
X156693Y12205D02*
D03*
X185039D02*
D03*
X156693Y49213D02*
D03*
X185039D02*
D03*
X40551Y50787D02*
D03*
X12205D02*
D03*
X40551Y13780D02*
D03*
X12205D02*
D03*
D49*
X108268Y84252D02*
D03*
X123622Y94095D02*
D03*
X85433Y90158D02*
D03*
X76693Y95276D02*
D03*
D50*
X101693Y99606D02*
D03*
X105393D02*
D03*
X111142Y134252D02*
D03*
X114842D02*
D03*
X96338Y138070D02*
D03*
X92638D02*
D03*
Y134371D02*
D03*
X96338D02*
D03*
X81771Y127165D02*
D03*
X78071D02*
D03*
X128228Y127953D02*
D03*
X124528D02*
D03*
D51*
X106693Y104331D02*
D03*
X112992D02*
D03*
X99213D02*
D03*
X92913D02*
D03*
D52*
X114173Y98859D02*
D03*
Y92717D02*
D03*
X92520Y92992D02*
D03*
Y99134D02*
D03*
X81496Y100079D02*
D03*
Y106220D02*
D03*
X123622Y107795D02*
D03*
Y101654D02*
D03*
D53*
X109449Y99488D02*
D03*
Y95788D02*
D03*
X105905Y95551D02*
D03*
Y91851D02*
D03*
X97638Y96181D02*
D03*
Y99882D02*
D03*
X105905Y135158D02*
D03*
Y138858D02*
D03*
X102362D02*
D03*
Y135158D02*
D03*
X85039Y134371D02*
D03*
Y138070D02*
D03*
X88583D02*
D03*
Y134371D02*
D03*
Y127284D02*
D03*
Y130984D02*
D03*
X81496Y134134D02*
D03*
Y130433D02*
D03*
X85039Y127284D02*
D03*
Y130984D02*
D03*
X78740Y119410D02*
D03*
Y123110D02*
D03*
X117717Y131377D02*
D03*
Y127678D02*
D03*
X121260Y131377D02*
D03*
Y127678D02*
D03*
X125984Y119016D02*
D03*
Y122716D02*
D03*
D54*
X101772Y95472D02*
D03*
Y89567D02*
D03*
X86221Y115157D02*
D03*
Y109252D02*
D03*
X118898Y115551D02*
D03*
Y109646D02*
D03*
D55*
X92716Y112402D02*
D03*
Y114370D02*
D03*
Y116339D02*
D03*
Y118307D02*
D03*
Y120276D02*
D03*
Y122244D02*
D03*
Y124213D02*
D03*
Y126181D02*
D03*
X112795D02*
D03*
Y124213D02*
D03*
Y122244D02*
D03*
Y116339D02*
D03*
Y114370D02*
D03*
Y112402D02*
D03*
Y120276D02*
D03*
Y118307D02*
D03*
D56*
X95866Y129331D02*
D03*
X97835D02*
D03*
X99803D02*
D03*
X101772D02*
D03*
X103740D02*
D03*
X105709D02*
D03*
X107677D02*
D03*
X109646D02*
D03*
Y109252D02*
D03*
X107677D02*
D03*
X105709D02*
D03*
X103740D02*
D03*
X101772D02*
D03*
X99803D02*
D03*
X97835D02*
D03*
X95866D02*
D03*
D57*
X102756Y119291D02*
D03*
M02*
