G04*
G04 #@! TF.GenerationSoftware,Altium Limited,Altium Designer,19.0.6 (157)*
G04*
G04 Layer_Color=65280*
%FSLAX25Y25*%
%MOIN*%
G70*
G01*
G75*
%ADD10C,0.00600*%
%ADD13C,0.02600*%
G36*
X98819Y106693D02*
Y105512D01*
X100787D01*
Y106693D01*
X98819D01*
D02*
G37*
G36*
Y131890D02*
Y133071D01*
X96850D01*
Y131890D01*
X98819D01*
D02*
G37*
G36*
X115354Y119291D02*
X116535D01*
Y121260D01*
X115354D01*
Y119291D01*
D02*
G37*
D10*
X103150Y98425D02*
X103937D01*
X103150Y100787D02*
X103937D01*
X110092Y103331D02*
Y105331D01*
X110592Y102831D02*
Y104331D01*
Y105831D01*
X109843Y103581D02*
Y105081D01*
X109092Y102831D02*
Y105831D01*
Y104331D02*
X110592Y102831D01*
X109092Y104331D02*
X110592Y105831D01*
X109092Y104331D02*
X110592D01*
X112598Y96575D02*
X113779D01*
X112598Y95394D02*
Y96575D01*
Y95394D02*
X113779Y96575D01*
X112598Y95985D02*
X113189Y96575D01*
X115157Y95000D02*
X115748Y95591D01*
X114567Y95000D02*
X115748Y96181D01*
Y95000D02*
Y96181D01*
X114567Y95000D02*
X115748D01*
X108661Y97638D02*
X110236D01*
X104724Y93307D02*
Y94095D01*
X107087Y93307D02*
Y94095D01*
X102953Y92126D02*
Y92913D01*
X100591Y92126D02*
Y92913D01*
Y92126D02*
X102953D01*
X100591Y92520D02*
X102953D01*
X100591Y92913D02*
X102953D01*
X95813Y103331D02*
Y105331D01*
X95313Y104331D02*
Y105831D01*
Y102831D02*
Y104331D01*
X96063Y103581D02*
Y105081D01*
X96813Y102831D02*
Y105831D01*
X95313D02*
X96813Y104331D01*
X95313Y102831D02*
X96813Y104331D01*
X95313D02*
X96813D01*
X96850Y98032D02*
X98425D01*
X92913Y95276D02*
X94095D01*
Y96457D01*
X92913Y95276D02*
X94095Y96457D01*
X93504Y95276D02*
X94095Y95866D01*
X90945Y96260D02*
X91535Y96850D01*
X90945Y95669D02*
X92126Y96850D01*
X90945Y95669D02*
Y96850D01*
X92126D01*
X112598Y133071D02*
X113386D01*
X112598Y135433D02*
X113386D01*
X105118Y137008D02*
X106693D01*
X101181Y136614D02*
Y137402D01*
X103543Y136614D02*
Y137402D01*
X94095Y139252D02*
X94882D01*
X94095Y136889D02*
X94882D01*
X94488Y133583D02*
Y135158D01*
X86221Y135827D02*
Y136614D01*
X83858Y135827D02*
Y136614D01*
X87795Y136221D02*
X89370D01*
X87795Y129134D02*
X89370D01*
X80315Y131890D02*
Y132677D01*
X82677Y131890D02*
Y132677D01*
X79527Y128347D02*
X80315D01*
X79527Y125984D02*
X80315D01*
X84252Y129134D02*
X85827D01*
X77953Y121260D02*
X79527D01*
X72047Y124409D02*
Y125591D01*
X70866D02*
X72047D01*
X70866D02*
X72047Y124409D01*
X71457Y125591D02*
X72047Y125000D01*
X70472Y123031D02*
X71063Y122441D01*
X70472Y123622D02*
X71653Y122441D01*
X70472D02*
X71653D01*
X70472D02*
Y123622D01*
X72047Y118898D02*
Y120079D01*
X70866D02*
X72047D01*
X70866D02*
X72047Y118898D01*
X71457Y120079D02*
X72047Y119488D01*
X70472Y117520D02*
X71063Y116929D01*
X70472Y118110D02*
X71653Y116929D01*
X70472D02*
X71653D01*
X70472D02*
Y118110D01*
X85039Y111811D02*
X87402D01*
X85039Y112205D02*
X87402D01*
X85039Y112598D02*
X87402D01*
Y111811D02*
Y112598D01*
X85039Y111811D02*
Y112598D01*
X81890Y102362D02*
X83071D01*
Y103543D01*
X81890Y102362D02*
X83071Y103543D01*
X82480Y102362D02*
X83071Y102953D01*
X79921Y103347D02*
X80512Y103937D01*
X79921Y102756D02*
X81102Y103937D01*
X79921Y102756D02*
Y103937D01*
X81102D01*
X92126Y127508D02*
Y129921D01*
X94539D01*
X110973D02*
X113386D01*
Y127508D02*
Y129921D01*
X110973Y108661D02*
X113386D01*
Y111074D01*
X92126Y108661D02*
X94539D01*
X92126D02*
Y111074D01*
X116929Y129527D02*
X118504D01*
X120472D02*
X122047D01*
X125984Y129134D02*
X126772D01*
X125984Y126772D02*
X126772D01*
X125197Y120866D02*
X126772D01*
X117717Y112205D02*
X120079D01*
X117717Y112598D02*
X120079D01*
X117717Y112992D02*
X120079D01*
Y112205D02*
Y112992D01*
X117717Y112205D02*
Y112992D01*
X122047Y105512D02*
X123228D01*
X122047Y104331D02*
Y105512D01*
Y104331D02*
X123228Y105512D01*
X122047Y104921D02*
X122638Y105512D01*
X124606Y103937D02*
X125197Y104528D01*
X124016Y103937D02*
X125197Y105118D01*
Y103937D02*
Y105118D01*
X124016Y103937D02*
X125197D01*
X134252Y124016D02*
Y125197D01*
X133071D02*
X134252D01*
X133071D02*
X134252Y124016D01*
X133661Y125197D02*
X134252Y124606D01*
X132677Y122638D02*
X133268Y122047D01*
X132677Y123228D02*
X133858Y122047D01*
X132677D02*
X133858D01*
X132677D02*
Y123228D01*
X134252Y118504D02*
Y119685D01*
X133071D02*
X134252D01*
X133071D02*
X134252Y118504D01*
X133661Y119685D02*
X134252Y119095D01*
X132677Y117126D02*
X133268Y116535D01*
X132677Y117717D02*
X133858Y116535D01*
X132677D02*
X133858D01*
X132677D02*
Y117717D01*
X139764Y116298D02*
Y118898D01*
X141063D01*
X141497Y118465D01*
Y118031D01*
X141063Y117598D01*
X139764D01*
X141063D01*
X141497Y117165D01*
Y116732D01*
X141063Y116298D01*
X139764D01*
X142363Y116732D02*
X142796Y116298D01*
X143663D01*
X144096Y116732D01*
Y117165D01*
X143663Y117598D01*
X144096Y118031D01*
Y118465D01*
X143663Y118898D01*
X142796D01*
X142363Y118465D01*
Y118031D01*
X142796Y117598D01*
X142363Y117165D01*
Y116732D01*
X142796Y117598D02*
X143663D01*
X65354Y119528D02*
Y116929D01*
X64055D01*
X63622Y117362D01*
Y117796D01*
X64055Y118229D01*
X65354D01*
X64055D01*
X63622Y118662D01*
Y119095D01*
X64055Y119528D01*
X65354D01*
X62755D02*
X61022D01*
Y119095D01*
X62755Y117362D01*
Y116929D01*
X140157Y122598D02*
Y125197D01*
X141457D01*
X141890Y124764D01*
Y124330D01*
X141457Y123897D01*
X140157D01*
X141457D01*
X141890Y123464D01*
Y123031D01*
X141457Y122598D01*
X140157D01*
X144489D02*
X143623Y123031D01*
X142757Y123897D01*
Y124764D01*
X143190Y125197D01*
X144056D01*
X144489Y124764D01*
Y124330D01*
X144056Y123897D01*
X142757D01*
X65354Y125237D02*
Y122638D01*
X64055D01*
X63622Y123071D01*
Y123504D01*
X64055Y123937D01*
X65354D01*
X64055D01*
X63622Y124371D01*
Y124804D01*
X64055Y125237D01*
X65354D01*
X61022D02*
X62755D01*
Y123937D01*
X61889Y124371D01*
X61456D01*
X61022Y123937D01*
Y123071D01*
X61456Y122638D01*
X62322D01*
X62755Y123071D01*
X123426Y119843D02*
X123859Y119410D01*
Y118543D01*
X123426Y118110D01*
X121693D01*
X121260Y118543D01*
Y119410D01*
X121693Y119843D01*
X121260Y122442D02*
Y120709D01*
X122993Y122442D01*
X123426D01*
X123859Y122009D01*
Y121143D01*
X123426Y120709D01*
X121260Y124608D02*
X123859D01*
X122559Y123309D01*
Y125041D01*
X83268Y118268D02*
X83701Y117835D01*
Y116969D01*
X83268Y116535D01*
X81536D01*
X81102Y116969D01*
Y117835D01*
X81536Y118268D01*
X81102Y120867D02*
Y119135D01*
X82835Y120867D01*
X83268D01*
X83701Y120434D01*
Y119568D01*
X83268Y119135D01*
Y121734D02*
X83701Y122167D01*
Y123033D01*
X83268Y123467D01*
X82835D01*
X82402Y123033D01*
Y122600D01*
Y123033D01*
X81969Y123467D01*
X81536D01*
X81102Y123033D01*
Y122167D01*
X81536Y121734D01*
X118701Y135985D02*
X119135Y135552D01*
Y134685D01*
X118701Y134252D01*
X116969D01*
X116535Y134685D01*
Y135552D01*
X116969Y135985D01*
X116535Y138151D02*
X119135D01*
X117835Y136851D01*
Y138584D01*
X79134Y140945D02*
X81733D01*
Y142245D01*
X81300Y142678D01*
X80433D01*
X80000Y142245D01*
Y140945D01*
Y141811D02*
X79134Y142678D01*
Y143544D02*
Y144410D01*
Y143977D01*
X81733D01*
X81300Y143544D01*
Y145710D02*
X81733Y146143D01*
Y147010D01*
X81300Y147443D01*
X79567D01*
X79134Y147010D01*
Y146143D01*
X79567Y145710D01*
X81300D01*
X66535Y132480D02*
X69135D01*
Y133780D01*
X68701Y134213D01*
X67835D01*
X67402Y133780D01*
Y132480D01*
Y133347D02*
X66535Y134213D01*
Y135080D02*
Y135946D01*
Y135513D01*
X69135D01*
X68701Y135080D01*
X66535Y137245D02*
Y138112D01*
Y137679D01*
X69135D01*
X68701Y137245D01*
X77796Y102756D02*
X75197D01*
Y104056D01*
X75630Y104489D01*
X76063D01*
X76496Y104056D01*
Y102756D01*
Y104056D01*
X76930Y104489D01*
X77363D01*
X77796Y104056D01*
Y102756D01*
X75197Y106655D02*
X77796D01*
X76496Y105355D01*
Y107088D01*
X89213Y94882D02*
X86614D01*
Y96181D01*
X87047Y96615D01*
X87481D01*
X87914Y96181D01*
Y94882D01*
Y96181D01*
X88347Y96615D01*
X88780D01*
X89213Y96181D01*
Y94882D01*
X88780Y97481D02*
X89213Y97914D01*
Y98781D01*
X88780Y99214D01*
X88347D01*
X87914Y98781D01*
Y98347D01*
Y98781D01*
X87481Y99214D01*
X87047D01*
X86614Y98781D01*
Y97914D01*
X87047Y97481D01*
X129371Y105512D02*
X126772D01*
Y106811D01*
X127205Y107245D01*
X127638D01*
X128071Y106811D01*
Y105512D01*
Y106811D01*
X128504Y107245D01*
X128938D01*
X129371Y106811D01*
Y105512D01*
X126772Y109844D02*
Y108111D01*
X128504Y109844D01*
X128938D01*
X129371Y109411D01*
Y108544D01*
X128938Y108111D01*
X119528Y96850D02*
X116929D01*
Y98150D01*
X117362Y98583D01*
X117796D01*
X118229Y98150D01*
Y96850D01*
Y98150D01*
X118662Y98583D01*
X119095D01*
X119528Y98150D01*
Y96850D01*
X116929Y99449D02*
Y100316D01*
Y99883D01*
X119528D01*
X119095Y99449D01*
X89607Y119685D02*
X87441D01*
X87008Y120118D01*
Y120985D01*
X87441Y121418D01*
X89607D01*
X87008Y122284D02*
Y123151D01*
Y122717D01*
X89607D01*
X89174Y122284D01*
X93307Y148425D02*
Y151024D01*
X92007D01*
X91574Y150591D01*
Y149725D01*
X92007Y149292D01*
X93307D01*
X92441D02*
X91574Y148425D01*
X90708Y148858D02*
X90275Y148425D01*
X89408D01*
X88975Y148858D01*
Y150591D01*
X89408Y151024D01*
X90275D01*
X90708Y150591D01*
Y150158D01*
X90275Y149725D01*
X88975D01*
X68504Y127559D02*
Y130158D01*
X67204D01*
X66771Y129725D01*
Y128859D01*
X67204Y128426D01*
X68504D01*
X67637D02*
X66771Y127559D01*
X65905Y130158D02*
X64172D01*
Y129725D01*
X65905Y127992D01*
Y127559D01*
X100787Y142126D02*
X103387D01*
Y143426D01*
X102953Y143859D01*
X102087D01*
X101654Y143426D01*
Y142126D01*
Y142992D02*
X100787Y143859D01*
X103387Y146458D02*
X102953Y145591D01*
X102087Y144725D01*
X101221D01*
X100787Y145158D01*
Y146025D01*
X101221Y146458D01*
X101654D01*
X102087Y146025D01*
Y144725D01*
X104331Y82284D02*
Y84883D01*
X103031D01*
X102598Y84449D01*
Y83583D01*
X103031Y83150D01*
X104331D01*
X103464D02*
X102598Y82284D01*
X99999Y84883D02*
X101732D01*
Y83583D01*
X100865Y84016D01*
X100432D01*
X99999Y83583D01*
Y82717D01*
X100432Y82284D01*
X101298D01*
X101732Y82717D01*
X105512Y80315D02*
X102913D01*
Y79015D01*
X103346Y78582D01*
X104212D01*
X104645Y79015D01*
Y80315D01*
Y79449D02*
X105512Y78582D01*
Y76416D02*
X102913D01*
X104212Y77716D01*
Y75983D01*
X129528Y130709D02*
Y133308D01*
X128228D01*
X127795Y132875D01*
Y132008D01*
X128228Y131575D01*
X129528D01*
X128661D02*
X127795Y130709D01*
X125196D02*
X126928D01*
X125196Y132441D01*
Y132875D01*
X125629Y133308D01*
X126495D01*
X126928Y132875D01*
X115354Y137402D02*
Y140001D01*
X114055D01*
X113622Y139567D01*
Y138701D01*
X114055Y138268D01*
X115354D01*
X114488D02*
X113622Y137402D01*
X112755D02*
X111889D01*
X112322D01*
Y140001D01*
X112755Y139567D01*
X88976Y104568D02*
Y101969D01*
X87677D01*
X87244Y102402D01*
Y104135D01*
X87677Y104568D01*
X88976D01*
X84644Y101969D02*
X86377D01*
X84644Y103701D01*
Y104135D01*
X85078Y104568D01*
X85944D01*
X86377Y104135D01*
X119685Y105749D02*
Y103150D01*
X118386D01*
X117952Y103583D01*
Y105316D01*
X118386Y105749D01*
X119685D01*
X117086Y103150D02*
X116219D01*
X116653D01*
Y105749D01*
X117086Y105316D01*
X92362Y145079D02*
X92795Y145513D01*
X93661D01*
X94095Y145079D01*
Y143347D01*
X93661Y142913D01*
X92795D01*
X92362Y143347D01*
X91495Y142913D02*
X90629D01*
X91062D01*
Y145513D01*
X91495Y145079D01*
X87597Y142913D02*
X89329D01*
X87597Y144646D01*
Y145079D01*
X88030Y145513D01*
X88896D01*
X89329Y145079D01*
X85237Y142678D02*
X85670Y142245D01*
Y141378D01*
X85237Y140945D01*
X83504D01*
X83071Y141378D01*
Y142245D01*
X83504Y142678D01*
X83071Y143544D02*
Y144410D01*
Y143977D01*
X85670D01*
X85237Y143544D01*
X83071Y145710D02*
Y146576D01*
Y146143D01*
X85670D01*
X85237Y145710D01*
X72638Y129292D02*
X73072Y128859D01*
Y127992D01*
X72638Y127559D01*
X70906D01*
X70472Y127992D01*
Y128859D01*
X70906Y129292D01*
X70472Y130158D02*
Y131025D01*
Y130591D01*
X73072D01*
X72638Y130158D01*
Y132324D02*
X73072Y132757D01*
Y133624D01*
X72638Y134057D01*
X70906D01*
X70472Y133624D01*
Y132757D01*
X70906Y132324D01*
X72638D01*
X97047Y89606D02*
X96613Y90039D01*
Y90905D01*
X97047Y91339D01*
X98779D01*
X99213Y90905D01*
Y90039D01*
X98779Y89606D01*
Y88739D02*
X99213Y88306D01*
Y87440D01*
X98779Y87007D01*
X97047D01*
X96613Y87440D01*
Y88306D01*
X97047Y88739D01*
X97480D01*
X97913Y88306D01*
Y87007D01*
X83268Y110788D02*
X83701Y110355D01*
Y109488D01*
X83268Y109055D01*
X81536D01*
X81102Y109488D01*
Y110355D01*
X81536Y110788D01*
X83268Y111654D02*
X83701Y112088D01*
Y112954D01*
X83268Y113387D01*
X82835D01*
X82402Y112954D01*
X81969Y113387D01*
X81536D01*
X81102Y112954D01*
Y112088D01*
X81536Y111654D01*
X81969D01*
X82402Y112088D01*
X82835Y111654D01*
X83268D01*
X82402Y112088D02*
Y112954D01*
X99015Y78582D02*
X98582Y79015D01*
Y79882D01*
X99015Y80315D01*
X100748D01*
X101181Y79882D01*
Y79015D01*
X100748Y78582D01*
X98582Y77716D02*
Y75983D01*
X99015D01*
X100748Y77716D01*
X101181D01*
X123032Y135985D02*
X123465Y135552D01*
Y134685D01*
X123032Y134252D01*
X121299D01*
X120866Y134685D01*
Y135552D01*
X121299Y135985D01*
X123465Y138584D02*
X123032Y137717D01*
X122166Y136851D01*
X121299D01*
X120866Y137284D01*
Y138151D01*
X121299Y138584D01*
X121732D01*
X122166Y138151D01*
Y136851D01*
X106890Y143859D02*
X107324Y143426D01*
Y142559D01*
X106890Y142126D01*
X105158D01*
X104724Y142559D01*
Y143426D01*
X105158Y143859D01*
X107324Y146458D02*
Y144725D01*
X106024D01*
X106457Y145591D01*
Y146025D01*
X106024Y146458D01*
X105158D01*
X104724Y146025D01*
Y145158D01*
X105158Y144725D01*
X76182Y129241D02*
X76615Y128808D01*
Y127942D01*
X76182Y127508D01*
X74449D01*
X74016Y127942D01*
Y128808D01*
X74449Y129241D01*
X76182Y130108D02*
X76615Y130541D01*
Y131407D01*
X76182Y131840D01*
X75748D01*
X75315Y131407D01*
Y130974D01*
Y131407D01*
X74882Y131840D01*
X74449D01*
X74016Y131407D01*
Y130541D01*
X74449Y130108D01*
X110434Y90709D02*
X110867Y90276D01*
Y89410D01*
X110434Y88976D01*
X108701D01*
X108268Y89410D01*
Y90276D01*
X108701Y90709D01*
X108268Y93308D02*
Y91575D01*
X110001Y93308D01*
X110434D01*
X110867Y92875D01*
Y92009D01*
X110434Y91575D01*
X124213Y113937D02*
X124646Y113504D01*
Y112638D01*
X124213Y112205D01*
X122480D01*
X122047Y112638D01*
Y113504D01*
X122480Y113937D01*
X122047Y114804D02*
Y115670D01*
Y115237D01*
X124646D01*
X124213Y114804D01*
D13*
X89920Y107243D02*
X89820D01*
Y107143D01*
X89920D01*
Y107243D01*
M02*
